G04 #@! TF.GenerationSoftware,KiCad,Pcbnew,(5.1.2)-2*
G04 #@! TF.CreationDate,2021-09-15T08:27:52+10:00*
G04 #@! TF.ProjectId,MHI ESP,4d484920-4553-4502-9e6b-696361645f70,rev?*
G04 #@! TF.SameCoordinates,Original*
G04 #@! TF.FileFunction,Paste,Top*
G04 #@! TF.FilePolarity,Positive*
%FSLAX46Y46*%
G04 Gerber Fmt 4.6, Leading zero omitted, Abs format (unit mm)*
G04 Created by KiCad (PCBNEW (5.1.2)-2) date 2021-09-15 08:27:52*
%MOMM*%
%LPD*%
G04 APERTURE LIST*
%ADD10C,0.100000*%
%ADD11C,0.975000*%
%ADD12R,0.900000X0.800000*%
%ADD13R,2.000000X1.500000*%
%ADD14R,2.000000X3.800000*%
G04 APERTURE END LIST*
D10*
G36*
X126980142Y-113701174D02*
G01*
X127003803Y-113704684D01*
X127027007Y-113710496D01*
X127049529Y-113718554D01*
X127071153Y-113728782D01*
X127091670Y-113741079D01*
X127110883Y-113755329D01*
X127128607Y-113771393D01*
X127144671Y-113789117D01*
X127158921Y-113808330D01*
X127171218Y-113828847D01*
X127181446Y-113850471D01*
X127189504Y-113872993D01*
X127195316Y-113896197D01*
X127198826Y-113919858D01*
X127200000Y-113943750D01*
X127200000Y-114431250D01*
X127198826Y-114455142D01*
X127195316Y-114478803D01*
X127189504Y-114502007D01*
X127181446Y-114524529D01*
X127171218Y-114546153D01*
X127158921Y-114566670D01*
X127144671Y-114585883D01*
X127128607Y-114603607D01*
X127110883Y-114619671D01*
X127091670Y-114633921D01*
X127071153Y-114646218D01*
X127049529Y-114656446D01*
X127027007Y-114664504D01*
X127003803Y-114670316D01*
X126980142Y-114673826D01*
X126956250Y-114675000D01*
X126043750Y-114675000D01*
X126019858Y-114673826D01*
X125996197Y-114670316D01*
X125972993Y-114664504D01*
X125950471Y-114656446D01*
X125928847Y-114646218D01*
X125908330Y-114633921D01*
X125889117Y-114619671D01*
X125871393Y-114603607D01*
X125855329Y-114585883D01*
X125841079Y-114566670D01*
X125828782Y-114546153D01*
X125818554Y-114524529D01*
X125810496Y-114502007D01*
X125804684Y-114478803D01*
X125801174Y-114455142D01*
X125800000Y-114431250D01*
X125800000Y-113943750D01*
X125801174Y-113919858D01*
X125804684Y-113896197D01*
X125810496Y-113872993D01*
X125818554Y-113850471D01*
X125828782Y-113828847D01*
X125841079Y-113808330D01*
X125855329Y-113789117D01*
X125871393Y-113771393D01*
X125889117Y-113755329D01*
X125908330Y-113741079D01*
X125928847Y-113728782D01*
X125950471Y-113718554D01*
X125972993Y-113710496D01*
X125996197Y-113704684D01*
X126019858Y-113701174D01*
X126043750Y-113700000D01*
X126956250Y-113700000D01*
X126980142Y-113701174D01*
X126980142Y-113701174D01*
G37*
D11*
X126500000Y-114187500D03*
D10*
G36*
X126980142Y-111826174D02*
G01*
X127003803Y-111829684D01*
X127027007Y-111835496D01*
X127049529Y-111843554D01*
X127071153Y-111853782D01*
X127091670Y-111866079D01*
X127110883Y-111880329D01*
X127128607Y-111896393D01*
X127144671Y-111914117D01*
X127158921Y-111933330D01*
X127171218Y-111953847D01*
X127181446Y-111975471D01*
X127189504Y-111997993D01*
X127195316Y-112021197D01*
X127198826Y-112044858D01*
X127200000Y-112068750D01*
X127200000Y-112556250D01*
X127198826Y-112580142D01*
X127195316Y-112603803D01*
X127189504Y-112627007D01*
X127181446Y-112649529D01*
X127171218Y-112671153D01*
X127158921Y-112691670D01*
X127144671Y-112710883D01*
X127128607Y-112728607D01*
X127110883Y-112744671D01*
X127091670Y-112758921D01*
X127071153Y-112771218D01*
X127049529Y-112781446D01*
X127027007Y-112789504D01*
X127003803Y-112795316D01*
X126980142Y-112798826D01*
X126956250Y-112800000D01*
X126043750Y-112800000D01*
X126019858Y-112798826D01*
X125996197Y-112795316D01*
X125972993Y-112789504D01*
X125950471Y-112781446D01*
X125928847Y-112771218D01*
X125908330Y-112758921D01*
X125889117Y-112744671D01*
X125871393Y-112728607D01*
X125855329Y-112710883D01*
X125841079Y-112691670D01*
X125828782Y-112671153D01*
X125818554Y-112649529D01*
X125810496Y-112627007D01*
X125804684Y-112603803D01*
X125801174Y-112580142D01*
X125800000Y-112556250D01*
X125800000Y-112068750D01*
X125801174Y-112044858D01*
X125804684Y-112021197D01*
X125810496Y-111997993D01*
X125818554Y-111975471D01*
X125828782Y-111953847D01*
X125841079Y-111933330D01*
X125855329Y-111914117D01*
X125871393Y-111896393D01*
X125889117Y-111880329D01*
X125908330Y-111866079D01*
X125928847Y-111853782D01*
X125950471Y-111843554D01*
X125972993Y-111835496D01*
X125996197Y-111829684D01*
X126019858Y-111826174D01*
X126043750Y-111825000D01*
X126956250Y-111825000D01*
X126980142Y-111826174D01*
X126980142Y-111826174D01*
G37*
D11*
X126500000Y-112312500D03*
D10*
G36*
X126980142Y-108701174D02*
G01*
X127003803Y-108704684D01*
X127027007Y-108710496D01*
X127049529Y-108718554D01*
X127071153Y-108728782D01*
X127091670Y-108741079D01*
X127110883Y-108755329D01*
X127128607Y-108771393D01*
X127144671Y-108789117D01*
X127158921Y-108808330D01*
X127171218Y-108828847D01*
X127181446Y-108850471D01*
X127189504Y-108872993D01*
X127195316Y-108896197D01*
X127198826Y-108919858D01*
X127200000Y-108943750D01*
X127200000Y-109431250D01*
X127198826Y-109455142D01*
X127195316Y-109478803D01*
X127189504Y-109502007D01*
X127181446Y-109524529D01*
X127171218Y-109546153D01*
X127158921Y-109566670D01*
X127144671Y-109585883D01*
X127128607Y-109603607D01*
X127110883Y-109619671D01*
X127091670Y-109633921D01*
X127071153Y-109646218D01*
X127049529Y-109656446D01*
X127027007Y-109664504D01*
X127003803Y-109670316D01*
X126980142Y-109673826D01*
X126956250Y-109675000D01*
X126043750Y-109675000D01*
X126019858Y-109673826D01*
X125996197Y-109670316D01*
X125972993Y-109664504D01*
X125950471Y-109656446D01*
X125928847Y-109646218D01*
X125908330Y-109633921D01*
X125889117Y-109619671D01*
X125871393Y-109603607D01*
X125855329Y-109585883D01*
X125841079Y-109566670D01*
X125828782Y-109546153D01*
X125818554Y-109524529D01*
X125810496Y-109502007D01*
X125804684Y-109478803D01*
X125801174Y-109455142D01*
X125800000Y-109431250D01*
X125800000Y-108943750D01*
X125801174Y-108919858D01*
X125804684Y-108896197D01*
X125810496Y-108872993D01*
X125818554Y-108850471D01*
X125828782Y-108828847D01*
X125841079Y-108808330D01*
X125855329Y-108789117D01*
X125871393Y-108771393D01*
X125889117Y-108755329D01*
X125908330Y-108741079D01*
X125928847Y-108728782D01*
X125950471Y-108718554D01*
X125972993Y-108710496D01*
X125996197Y-108704684D01*
X126019858Y-108701174D01*
X126043750Y-108700000D01*
X126956250Y-108700000D01*
X126980142Y-108701174D01*
X126980142Y-108701174D01*
G37*
D11*
X126500000Y-109187500D03*
D10*
G36*
X126980142Y-106826174D02*
G01*
X127003803Y-106829684D01*
X127027007Y-106835496D01*
X127049529Y-106843554D01*
X127071153Y-106853782D01*
X127091670Y-106866079D01*
X127110883Y-106880329D01*
X127128607Y-106896393D01*
X127144671Y-106914117D01*
X127158921Y-106933330D01*
X127171218Y-106953847D01*
X127181446Y-106975471D01*
X127189504Y-106997993D01*
X127195316Y-107021197D01*
X127198826Y-107044858D01*
X127200000Y-107068750D01*
X127200000Y-107556250D01*
X127198826Y-107580142D01*
X127195316Y-107603803D01*
X127189504Y-107627007D01*
X127181446Y-107649529D01*
X127171218Y-107671153D01*
X127158921Y-107691670D01*
X127144671Y-107710883D01*
X127128607Y-107728607D01*
X127110883Y-107744671D01*
X127091670Y-107758921D01*
X127071153Y-107771218D01*
X127049529Y-107781446D01*
X127027007Y-107789504D01*
X127003803Y-107795316D01*
X126980142Y-107798826D01*
X126956250Y-107800000D01*
X126043750Y-107800000D01*
X126019858Y-107798826D01*
X125996197Y-107795316D01*
X125972993Y-107789504D01*
X125950471Y-107781446D01*
X125928847Y-107771218D01*
X125908330Y-107758921D01*
X125889117Y-107744671D01*
X125871393Y-107728607D01*
X125855329Y-107710883D01*
X125841079Y-107691670D01*
X125828782Y-107671153D01*
X125818554Y-107649529D01*
X125810496Y-107627007D01*
X125804684Y-107603803D01*
X125801174Y-107580142D01*
X125800000Y-107556250D01*
X125800000Y-107068750D01*
X125801174Y-107044858D01*
X125804684Y-107021197D01*
X125810496Y-106997993D01*
X125818554Y-106975471D01*
X125828782Y-106953847D01*
X125841079Y-106933330D01*
X125855329Y-106914117D01*
X125871393Y-106896393D01*
X125889117Y-106880329D01*
X125908330Y-106866079D01*
X125928847Y-106853782D01*
X125950471Y-106843554D01*
X125972993Y-106835496D01*
X125996197Y-106829684D01*
X126019858Y-106826174D01*
X126043750Y-106825000D01*
X126956250Y-106825000D01*
X126980142Y-106826174D01*
X126980142Y-106826174D01*
G37*
D11*
X126500000Y-107312500D03*
D10*
G36*
X119980142Y-113701174D02*
G01*
X120003803Y-113704684D01*
X120027007Y-113710496D01*
X120049529Y-113718554D01*
X120071153Y-113728782D01*
X120091670Y-113741079D01*
X120110883Y-113755329D01*
X120128607Y-113771393D01*
X120144671Y-113789117D01*
X120158921Y-113808330D01*
X120171218Y-113828847D01*
X120181446Y-113850471D01*
X120189504Y-113872993D01*
X120195316Y-113896197D01*
X120198826Y-113919858D01*
X120200000Y-113943750D01*
X120200000Y-114431250D01*
X120198826Y-114455142D01*
X120195316Y-114478803D01*
X120189504Y-114502007D01*
X120181446Y-114524529D01*
X120171218Y-114546153D01*
X120158921Y-114566670D01*
X120144671Y-114585883D01*
X120128607Y-114603607D01*
X120110883Y-114619671D01*
X120091670Y-114633921D01*
X120071153Y-114646218D01*
X120049529Y-114656446D01*
X120027007Y-114664504D01*
X120003803Y-114670316D01*
X119980142Y-114673826D01*
X119956250Y-114675000D01*
X119043750Y-114675000D01*
X119019858Y-114673826D01*
X118996197Y-114670316D01*
X118972993Y-114664504D01*
X118950471Y-114656446D01*
X118928847Y-114646218D01*
X118908330Y-114633921D01*
X118889117Y-114619671D01*
X118871393Y-114603607D01*
X118855329Y-114585883D01*
X118841079Y-114566670D01*
X118828782Y-114546153D01*
X118818554Y-114524529D01*
X118810496Y-114502007D01*
X118804684Y-114478803D01*
X118801174Y-114455142D01*
X118800000Y-114431250D01*
X118800000Y-113943750D01*
X118801174Y-113919858D01*
X118804684Y-113896197D01*
X118810496Y-113872993D01*
X118818554Y-113850471D01*
X118828782Y-113828847D01*
X118841079Y-113808330D01*
X118855329Y-113789117D01*
X118871393Y-113771393D01*
X118889117Y-113755329D01*
X118908330Y-113741079D01*
X118928847Y-113728782D01*
X118950471Y-113718554D01*
X118972993Y-113710496D01*
X118996197Y-113704684D01*
X119019858Y-113701174D01*
X119043750Y-113700000D01*
X119956250Y-113700000D01*
X119980142Y-113701174D01*
X119980142Y-113701174D01*
G37*
D11*
X119500000Y-114187500D03*
D10*
G36*
X119980142Y-111826174D02*
G01*
X120003803Y-111829684D01*
X120027007Y-111835496D01*
X120049529Y-111843554D01*
X120071153Y-111853782D01*
X120091670Y-111866079D01*
X120110883Y-111880329D01*
X120128607Y-111896393D01*
X120144671Y-111914117D01*
X120158921Y-111933330D01*
X120171218Y-111953847D01*
X120181446Y-111975471D01*
X120189504Y-111997993D01*
X120195316Y-112021197D01*
X120198826Y-112044858D01*
X120200000Y-112068750D01*
X120200000Y-112556250D01*
X120198826Y-112580142D01*
X120195316Y-112603803D01*
X120189504Y-112627007D01*
X120181446Y-112649529D01*
X120171218Y-112671153D01*
X120158921Y-112691670D01*
X120144671Y-112710883D01*
X120128607Y-112728607D01*
X120110883Y-112744671D01*
X120091670Y-112758921D01*
X120071153Y-112771218D01*
X120049529Y-112781446D01*
X120027007Y-112789504D01*
X120003803Y-112795316D01*
X119980142Y-112798826D01*
X119956250Y-112800000D01*
X119043750Y-112800000D01*
X119019858Y-112798826D01*
X118996197Y-112795316D01*
X118972993Y-112789504D01*
X118950471Y-112781446D01*
X118928847Y-112771218D01*
X118908330Y-112758921D01*
X118889117Y-112744671D01*
X118871393Y-112728607D01*
X118855329Y-112710883D01*
X118841079Y-112691670D01*
X118828782Y-112671153D01*
X118818554Y-112649529D01*
X118810496Y-112627007D01*
X118804684Y-112603803D01*
X118801174Y-112580142D01*
X118800000Y-112556250D01*
X118800000Y-112068750D01*
X118801174Y-112044858D01*
X118804684Y-112021197D01*
X118810496Y-111997993D01*
X118818554Y-111975471D01*
X118828782Y-111953847D01*
X118841079Y-111933330D01*
X118855329Y-111914117D01*
X118871393Y-111896393D01*
X118889117Y-111880329D01*
X118908330Y-111866079D01*
X118928847Y-111853782D01*
X118950471Y-111843554D01*
X118972993Y-111835496D01*
X118996197Y-111829684D01*
X119019858Y-111826174D01*
X119043750Y-111825000D01*
X119956250Y-111825000D01*
X119980142Y-111826174D01*
X119980142Y-111826174D01*
G37*
D11*
X119500000Y-112312500D03*
D10*
G36*
X119980142Y-108701174D02*
G01*
X120003803Y-108704684D01*
X120027007Y-108710496D01*
X120049529Y-108718554D01*
X120071153Y-108728782D01*
X120091670Y-108741079D01*
X120110883Y-108755329D01*
X120128607Y-108771393D01*
X120144671Y-108789117D01*
X120158921Y-108808330D01*
X120171218Y-108828847D01*
X120181446Y-108850471D01*
X120189504Y-108872993D01*
X120195316Y-108896197D01*
X120198826Y-108919858D01*
X120200000Y-108943750D01*
X120200000Y-109431250D01*
X120198826Y-109455142D01*
X120195316Y-109478803D01*
X120189504Y-109502007D01*
X120181446Y-109524529D01*
X120171218Y-109546153D01*
X120158921Y-109566670D01*
X120144671Y-109585883D01*
X120128607Y-109603607D01*
X120110883Y-109619671D01*
X120091670Y-109633921D01*
X120071153Y-109646218D01*
X120049529Y-109656446D01*
X120027007Y-109664504D01*
X120003803Y-109670316D01*
X119980142Y-109673826D01*
X119956250Y-109675000D01*
X119043750Y-109675000D01*
X119019858Y-109673826D01*
X118996197Y-109670316D01*
X118972993Y-109664504D01*
X118950471Y-109656446D01*
X118928847Y-109646218D01*
X118908330Y-109633921D01*
X118889117Y-109619671D01*
X118871393Y-109603607D01*
X118855329Y-109585883D01*
X118841079Y-109566670D01*
X118828782Y-109546153D01*
X118818554Y-109524529D01*
X118810496Y-109502007D01*
X118804684Y-109478803D01*
X118801174Y-109455142D01*
X118800000Y-109431250D01*
X118800000Y-108943750D01*
X118801174Y-108919858D01*
X118804684Y-108896197D01*
X118810496Y-108872993D01*
X118818554Y-108850471D01*
X118828782Y-108828847D01*
X118841079Y-108808330D01*
X118855329Y-108789117D01*
X118871393Y-108771393D01*
X118889117Y-108755329D01*
X118908330Y-108741079D01*
X118928847Y-108728782D01*
X118950471Y-108718554D01*
X118972993Y-108710496D01*
X118996197Y-108704684D01*
X119019858Y-108701174D01*
X119043750Y-108700000D01*
X119956250Y-108700000D01*
X119980142Y-108701174D01*
X119980142Y-108701174D01*
G37*
D11*
X119500000Y-109187500D03*
D10*
G36*
X119980142Y-106826174D02*
G01*
X120003803Y-106829684D01*
X120027007Y-106835496D01*
X120049529Y-106843554D01*
X120071153Y-106853782D01*
X120091670Y-106866079D01*
X120110883Y-106880329D01*
X120128607Y-106896393D01*
X120144671Y-106914117D01*
X120158921Y-106933330D01*
X120171218Y-106953847D01*
X120181446Y-106975471D01*
X120189504Y-106997993D01*
X120195316Y-107021197D01*
X120198826Y-107044858D01*
X120200000Y-107068750D01*
X120200000Y-107556250D01*
X120198826Y-107580142D01*
X120195316Y-107603803D01*
X120189504Y-107627007D01*
X120181446Y-107649529D01*
X120171218Y-107671153D01*
X120158921Y-107691670D01*
X120144671Y-107710883D01*
X120128607Y-107728607D01*
X120110883Y-107744671D01*
X120091670Y-107758921D01*
X120071153Y-107771218D01*
X120049529Y-107781446D01*
X120027007Y-107789504D01*
X120003803Y-107795316D01*
X119980142Y-107798826D01*
X119956250Y-107800000D01*
X119043750Y-107800000D01*
X119019858Y-107798826D01*
X118996197Y-107795316D01*
X118972993Y-107789504D01*
X118950471Y-107781446D01*
X118928847Y-107771218D01*
X118908330Y-107758921D01*
X118889117Y-107744671D01*
X118871393Y-107728607D01*
X118855329Y-107710883D01*
X118841079Y-107691670D01*
X118828782Y-107671153D01*
X118818554Y-107649529D01*
X118810496Y-107627007D01*
X118804684Y-107603803D01*
X118801174Y-107580142D01*
X118800000Y-107556250D01*
X118800000Y-107068750D01*
X118801174Y-107044858D01*
X118804684Y-107021197D01*
X118810496Y-106997993D01*
X118818554Y-106975471D01*
X118828782Y-106953847D01*
X118841079Y-106933330D01*
X118855329Y-106914117D01*
X118871393Y-106896393D01*
X118889117Y-106880329D01*
X118908330Y-106866079D01*
X118928847Y-106853782D01*
X118950471Y-106843554D01*
X118972993Y-106835496D01*
X118996197Y-106829684D01*
X119019858Y-106826174D01*
X119043750Y-106825000D01*
X119956250Y-106825000D01*
X119980142Y-106826174D01*
X119980142Y-106826174D01*
G37*
D11*
X119500000Y-107312500D03*
D12*
X124000000Y-113250000D03*
X122000000Y-114200000D03*
X122000000Y-112300000D03*
X124000000Y-108250000D03*
X122000000Y-109200000D03*
X122000000Y-107300000D03*
D13*
X123150000Y-89800000D03*
X123150000Y-85200000D03*
X123150000Y-87500000D03*
D14*
X116850000Y-87500000D03*
D10*
G36*
X126980142Y-103701174D02*
G01*
X127003803Y-103704684D01*
X127027007Y-103710496D01*
X127049529Y-103718554D01*
X127071153Y-103728782D01*
X127091670Y-103741079D01*
X127110883Y-103755329D01*
X127128607Y-103771393D01*
X127144671Y-103789117D01*
X127158921Y-103808330D01*
X127171218Y-103828847D01*
X127181446Y-103850471D01*
X127189504Y-103872993D01*
X127195316Y-103896197D01*
X127198826Y-103919858D01*
X127200000Y-103943750D01*
X127200000Y-104431250D01*
X127198826Y-104455142D01*
X127195316Y-104478803D01*
X127189504Y-104502007D01*
X127181446Y-104524529D01*
X127171218Y-104546153D01*
X127158921Y-104566670D01*
X127144671Y-104585883D01*
X127128607Y-104603607D01*
X127110883Y-104619671D01*
X127091670Y-104633921D01*
X127071153Y-104646218D01*
X127049529Y-104656446D01*
X127027007Y-104664504D01*
X127003803Y-104670316D01*
X126980142Y-104673826D01*
X126956250Y-104675000D01*
X126043750Y-104675000D01*
X126019858Y-104673826D01*
X125996197Y-104670316D01*
X125972993Y-104664504D01*
X125950471Y-104656446D01*
X125928847Y-104646218D01*
X125908330Y-104633921D01*
X125889117Y-104619671D01*
X125871393Y-104603607D01*
X125855329Y-104585883D01*
X125841079Y-104566670D01*
X125828782Y-104546153D01*
X125818554Y-104524529D01*
X125810496Y-104502007D01*
X125804684Y-104478803D01*
X125801174Y-104455142D01*
X125800000Y-104431250D01*
X125800000Y-103943750D01*
X125801174Y-103919858D01*
X125804684Y-103896197D01*
X125810496Y-103872993D01*
X125818554Y-103850471D01*
X125828782Y-103828847D01*
X125841079Y-103808330D01*
X125855329Y-103789117D01*
X125871393Y-103771393D01*
X125889117Y-103755329D01*
X125908330Y-103741079D01*
X125928847Y-103728782D01*
X125950471Y-103718554D01*
X125972993Y-103710496D01*
X125996197Y-103704684D01*
X126019858Y-103701174D01*
X126043750Y-103700000D01*
X126956250Y-103700000D01*
X126980142Y-103701174D01*
X126980142Y-103701174D01*
G37*
D11*
X126500000Y-104187500D03*
D10*
G36*
X126980142Y-101826174D02*
G01*
X127003803Y-101829684D01*
X127027007Y-101835496D01*
X127049529Y-101843554D01*
X127071153Y-101853782D01*
X127091670Y-101866079D01*
X127110883Y-101880329D01*
X127128607Y-101896393D01*
X127144671Y-101914117D01*
X127158921Y-101933330D01*
X127171218Y-101953847D01*
X127181446Y-101975471D01*
X127189504Y-101997993D01*
X127195316Y-102021197D01*
X127198826Y-102044858D01*
X127200000Y-102068750D01*
X127200000Y-102556250D01*
X127198826Y-102580142D01*
X127195316Y-102603803D01*
X127189504Y-102627007D01*
X127181446Y-102649529D01*
X127171218Y-102671153D01*
X127158921Y-102691670D01*
X127144671Y-102710883D01*
X127128607Y-102728607D01*
X127110883Y-102744671D01*
X127091670Y-102758921D01*
X127071153Y-102771218D01*
X127049529Y-102781446D01*
X127027007Y-102789504D01*
X127003803Y-102795316D01*
X126980142Y-102798826D01*
X126956250Y-102800000D01*
X126043750Y-102800000D01*
X126019858Y-102798826D01*
X125996197Y-102795316D01*
X125972993Y-102789504D01*
X125950471Y-102781446D01*
X125928847Y-102771218D01*
X125908330Y-102758921D01*
X125889117Y-102744671D01*
X125871393Y-102728607D01*
X125855329Y-102710883D01*
X125841079Y-102691670D01*
X125828782Y-102671153D01*
X125818554Y-102649529D01*
X125810496Y-102627007D01*
X125804684Y-102603803D01*
X125801174Y-102580142D01*
X125800000Y-102556250D01*
X125800000Y-102068750D01*
X125801174Y-102044858D01*
X125804684Y-102021197D01*
X125810496Y-101997993D01*
X125818554Y-101975471D01*
X125828782Y-101953847D01*
X125841079Y-101933330D01*
X125855329Y-101914117D01*
X125871393Y-101896393D01*
X125889117Y-101880329D01*
X125908330Y-101866079D01*
X125928847Y-101853782D01*
X125950471Y-101843554D01*
X125972993Y-101835496D01*
X125996197Y-101829684D01*
X126019858Y-101826174D01*
X126043750Y-101825000D01*
X126956250Y-101825000D01*
X126980142Y-101826174D01*
X126980142Y-101826174D01*
G37*
D11*
X126500000Y-102312500D03*
D10*
G36*
X126980142Y-98701174D02*
G01*
X127003803Y-98704684D01*
X127027007Y-98710496D01*
X127049529Y-98718554D01*
X127071153Y-98728782D01*
X127091670Y-98741079D01*
X127110883Y-98755329D01*
X127128607Y-98771393D01*
X127144671Y-98789117D01*
X127158921Y-98808330D01*
X127171218Y-98828847D01*
X127181446Y-98850471D01*
X127189504Y-98872993D01*
X127195316Y-98896197D01*
X127198826Y-98919858D01*
X127200000Y-98943750D01*
X127200000Y-99431250D01*
X127198826Y-99455142D01*
X127195316Y-99478803D01*
X127189504Y-99502007D01*
X127181446Y-99524529D01*
X127171218Y-99546153D01*
X127158921Y-99566670D01*
X127144671Y-99585883D01*
X127128607Y-99603607D01*
X127110883Y-99619671D01*
X127091670Y-99633921D01*
X127071153Y-99646218D01*
X127049529Y-99656446D01*
X127027007Y-99664504D01*
X127003803Y-99670316D01*
X126980142Y-99673826D01*
X126956250Y-99675000D01*
X126043750Y-99675000D01*
X126019858Y-99673826D01*
X125996197Y-99670316D01*
X125972993Y-99664504D01*
X125950471Y-99656446D01*
X125928847Y-99646218D01*
X125908330Y-99633921D01*
X125889117Y-99619671D01*
X125871393Y-99603607D01*
X125855329Y-99585883D01*
X125841079Y-99566670D01*
X125828782Y-99546153D01*
X125818554Y-99524529D01*
X125810496Y-99502007D01*
X125804684Y-99478803D01*
X125801174Y-99455142D01*
X125800000Y-99431250D01*
X125800000Y-98943750D01*
X125801174Y-98919858D01*
X125804684Y-98896197D01*
X125810496Y-98872993D01*
X125818554Y-98850471D01*
X125828782Y-98828847D01*
X125841079Y-98808330D01*
X125855329Y-98789117D01*
X125871393Y-98771393D01*
X125889117Y-98755329D01*
X125908330Y-98741079D01*
X125928847Y-98728782D01*
X125950471Y-98718554D01*
X125972993Y-98710496D01*
X125996197Y-98704684D01*
X126019858Y-98701174D01*
X126043750Y-98700000D01*
X126956250Y-98700000D01*
X126980142Y-98701174D01*
X126980142Y-98701174D01*
G37*
D11*
X126500000Y-99187500D03*
D10*
G36*
X126980142Y-96826174D02*
G01*
X127003803Y-96829684D01*
X127027007Y-96835496D01*
X127049529Y-96843554D01*
X127071153Y-96853782D01*
X127091670Y-96866079D01*
X127110883Y-96880329D01*
X127128607Y-96896393D01*
X127144671Y-96914117D01*
X127158921Y-96933330D01*
X127171218Y-96953847D01*
X127181446Y-96975471D01*
X127189504Y-96997993D01*
X127195316Y-97021197D01*
X127198826Y-97044858D01*
X127200000Y-97068750D01*
X127200000Y-97556250D01*
X127198826Y-97580142D01*
X127195316Y-97603803D01*
X127189504Y-97627007D01*
X127181446Y-97649529D01*
X127171218Y-97671153D01*
X127158921Y-97691670D01*
X127144671Y-97710883D01*
X127128607Y-97728607D01*
X127110883Y-97744671D01*
X127091670Y-97758921D01*
X127071153Y-97771218D01*
X127049529Y-97781446D01*
X127027007Y-97789504D01*
X127003803Y-97795316D01*
X126980142Y-97798826D01*
X126956250Y-97800000D01*
X126043750Y-97800000D01*
X126019858Y-97798826D01*
X125996197Y-97795316D01*
X125972993Y-97789504D01*
X125950471Y-97781446D01*
X125928847Y-97771218D01*
X125908330Y-97758921D01*
X125889117Y-97744671D01*
X125871393Y-97728607D01*
X125855329Y-97710883D01*
X125841079Y-97691670D01*
X125828782Y-97671153D01*
X125818554Y-97649529D01*
X125810496Y-97627007D01*
X125804684Y-97603803D01*
X125801174Y-97580142D01*
X125800000Y-97556250D01*
X125800000Y-97068750D01*
X125801174Y-97044858D01*
X125804684Y-97021197D01*
X125810496Y-96997993D01*
X125818554Y-96975471D01*
X125828782Y-96953847D01*
X125841079Y-96933330D01*
X125855329Y-96914117D01*
X125871393Y-96896393D01*
X125889117Y-96880329D01*
X125908330Y-96866079D01*
X125928847Y-96853782D01*
X125950471Y-96843554D01*
X125972993Y-96835496D01*
X125996197Y-96829684D01*
X126019858Y-96826174D01*
X126043750Y-96825000D01*
X126956250Y-96825000D01*
X126980142Y-96826174D01*
X126980142Y-96826174D01*
G37*
D11*
X126500000Y-97312500D03*
D10*
G36*
X126980142Y-93701174D02*
G01*
X127003803Y-93704684D01*
X127027007Y-93710496D01*
X127049529Y-93718554D01*
X127071153Y-93728782D01*
X127091670Y-93741079D01*
X127110883Y-93755329D01*
X127128607Y-93771393D01*
X127144671Y-93789117D01*
X127158921Y-93808330D01*
X127171218Y-93828847D01*
X127181446Y-93850471D01*
X127189504Y-93872993D01*
X127195316Y-93896197D01*
X127198826Y-93919858D01*
X127200000Y-93943750D01*
X127200000Y-94431250D01*
X127198826Y-94455142D01*
X127195316Y-94478803D01*
X127189504Y-94502007D01*
X127181446Y-94524529D01*
X127171218Y-94546153D01*
X127158921Y-94566670D01*
X127144671Y-94585883D01*
X127128607Y-94603607D01*
X127110883Y-94619671D01*
X127091670Y-94633921D01*
X127071153Y-94646218D01*
X127049529Y-94656446D01*
X127027007Y-94664504D01*
X127003803Y-94670316D01*
X126980142Y-94673826D01*
X126956250Y-94675000D01*
X126043750Y-94675000D01*
X126019858Y-94673826D01*
X125996197Y-94670316D01*
X125972993Y-94664504D01*
X125950471Y-94656446D01*
X125928847Y-94646218D01*
X125908330Y-94633921D01*
X125889117Y-94619671D01*
X125871393Y-94603607D01*
X125855329Y-94585883D01*
X125841079Y-94566670D01*
X125828782Y-94546153D01*
X125818554Y-94524529D01*
X125810496Y-94502007D01*
X125804684Y-94478803D01*
X125801174Y-94455142D01*
X125800000Y-94431250D01*
X125800000Y-93943750D01*
X125801174Y-93919858D01*
X125804684Y-93896197D01*
X125810496Y-93872993D01*
X125818554Y-93850471D01*
X125828782Y-93828847D01*
X125841079Y-93808330D01*
X125855329Y-93789117D01*
X125871393Y-93771393D01*
X125889117Y-93755329D01*
X125908330Y-93741079D01*
X125928847Y-93728782D01*
X125950471Y-93718554D01*
X125972993Y-93710496D01*
X125996197Y-93704684D01*
X126019858Y-93701174D01*
X126043750Y-93700000D01*
X126956250Y-93700000D01*
X126980142Y-93701174D01*
X126980142Y-93701174D01*
G37*
D11*
X126500000Y-94187500D03*
D10*
G36*
X126980142Y-91826174D02*
G01*
X127003803Y-91829684D01*
X127027007Y-91835496D01*
X127049529Y-91843554D01*
X127071153Y-91853782D01*
X127091670Y-91866079D01*
X127110883Y-91880329D01*
X127128607Y-91896393D01*
X127144671Y-91914117D01*
X127158921Y-91933330D01*
X127171218Y-91953847D01*
X127181446Y-91975471D01*
X127189504Y-91997993D01*
X127195316Y-92021197D01*
X127198826Y-92044858D01*
X127200000Y-92068750D01*
X127200000Y-92556250D01*
X127198826Y-92580142D01*
X127195316Y-92603803D01*
X127189504Y-92627007D01*
X127181446Y-92649529D01*
X127171218Y-92671153D01*
X127158921Y-92691670D01*
X127144671Y-92710883D01*
X127128607Y-92728607D01*
X127110883Y-92744671D01*
X127091670Y-92758921D01*
X127071153Y-92771218D01*
X127049529Y-92781446D01*
X127027007Y-92789504D01*
X127003803Y-92795316D01*
X126980142Y-92798826D01*
X126956250Y-92800000D01*
X126043750Y-92800000D01*
X126019858Y-92798826D01*
X125996197Y-92795316D01*
X125972993Y-92789504D01*
X125950471Y-92781446D01*
X125928847Y-92771218D01*
X125908330Y-92758921D01*
X125889117Y-92744671D01*
X125871393Y-92728607D01*
X125855329Y-92710883D01*
X125841079Y-92691670D01*
X125828782Y-92671153D01*
X125818554Y-92649529D01*
X125810496Y-92627007D01*
X125804684Y-92603803D01*
X125801174Y-92580142D01*
X125800000Y-92556250D01*
X125800000Y-92068750D01*
X125801174Y-92044858D01*
X125804684Y-92021197D01*
X125810496Y-91997993D01*
X125818554Y-91975471D01*
X125828782Y-91953847D01*
X125841079Y-91933330D01*
X125855329Y-91914117D01*
X125871393Y-91896393D01*
X125889117Y-91880329D01*
X125908330Y-91866079D01*
X125928847Y-91853782D01*
X125950471Y-91843554D01*
X125972993Y-91835496D01*
X125996197Y-91829684D01*
X126019858Y-91826174D01*
X126043750Y-91825000D01*
X126956250Y-91825000D01*
X126980142Y-91826174D01*
X126980142Y-91826174D01*
G37*
D11*
X126500000Y-92312500D03*
D10*
G36*
X119980142Y-103701174D02*
G01*
X120003803Y-103704684D01*
X120027007Y-103710496D01*
X120049529Y-103718554D01*
X120071153Y-103728782D01*
X120091670Y-103741079D01*
X120110883Y-103755329D01*
X120128607Y-103771393D01*
X120144671Y-103789117D01*
X120158921Y-103808330D01*
X120171218Y-103828847D01*
X120181446Y-103850471D01*
X120189504Y-103872993D01*
X120195316Y-103896197D01*
X120198826Y-103919858D01*
X120200000Y-103943750D01*
X120200000Y-104431250D01*
X120198826Y-104455142D01*
X120195316Y-104478803D01*
X120189504Y-104502007D01*
X120181446Y-104524529D01*
X120171218Y-104546153D01*
X120158921Y-104566670D01*
X120144671Y-104585883D01*
X120128607Y-104603607D01*
X120110883Y-104619671D01*
X120091670Y-104633921D01*
X120071153Y-104646218D01*
X120049529Y-104656446D01*
X120027007Y-104664504D01*
X120003803Y-104670316D01*
X119980142Y-104673826D01*
X119956250Y-104675000D01*
X119043750Y-104675000D01*
X119019858Y-104673826D01*
X118996197Y-104670316D01*
X118972993Y-104664504D01*
X118950471Y-104656446D01*
X118928847Y-104646218D01*
X118908330Y-104633921D01*
X118889117Y-104619671D01*
X118871393Y-104603607D01*
X118855329Y-104585883D01*
X118841079Y-104566670D01*
X118828782Y-104546153D01*
X118818554Y-104524529D01*
X118810496Y-104502007D01*
X118804684Y-104478803D01*
X118801174Y-104455142D01*
X118800000Y-104431250D01*
X118800000Y-103943750D01*
X118801174Y-103919858D01*
X118804684Y-103896197D01*
X118810496Y-103872993D01*
X118818554Y-103850471D01*
X118828782Y-103828847D01*
X118841079Y-103808330D01*
X118855329Y-103789117D01*
X118871393Y-103771393D01*
X118889117Y-103755329D01*
X118908330Y-103741079D01*
X118928847Y-103728782D01*
X118950471Y-103718554D01*
X118972993Y-103710496D01*
X118996197Y-103704684D01*
X119019858Y-103701174D01*
X119043750Y-103700000D01*
X119956250Y-103700000D01*
X119980142Y-103701174D01*
X119980142Y-103701174D01*
G37*
D11*
X119500000Y-104187500D03*
D10*
G36*
X119980142Y-101826174D02*
G01*
X120003803Y-101829684D01*
X120027007Y-101835496D01*
X120049529Y-101843554D01*
X120071153Y-101853782D01*
X120091670Y-101866079D01*
X120110883Y-101880329D01*
X120128607Y-101896393D01*
X120144671Y-101914117D01*
X120158921Y-101933330D01*
X120171218Y-101953847D01*
X120181446Y-101975471D01*
X120189504Y-101997993D01*
X120195316Y-102021197D01*
X120198826Y-102044858D01*
X120200000Y-102068750D01*
X120200000Y-102556250D01*
X120198826Y-102580142D01*
X120195316Y-102603803D01*
X120189504Y-102627007D01*
X120181446Y-102649529D01*
X120171218Y-102671153D01*
X120158921Y-102691670D01*
X120144671Y-102710883D01*
X120128607Y-102728607D01*
X120110883Y-102744671D01*
X120091670Y-102758921D01*
X120071153Y-102771218D01*
X120049529Y-102781446D01*
X120027007Y-102789504D01*
X120003803Y-102795316D01*
X119980142Y-102798826D01*
X119956250Y-102800000D01*
X119043750Y-102800000D01*
X119019858Y-102798826D01*
X118996197Y-102795316D01*
X118972993Y-102789504D01*
X118950471Y-102781446D01*
X118928847Y-102771218D01*
X118908330Y-102758921D01*
X118889117Y-102744671D01*
X118871393Y-102728607D01*
X118855329Y-102710883D01*
X118841079Y-102691670D01*
X118828782Y-102671153D01*
X118818554Y-102649529D01*
X118810496Y-102627007D01*
X118804684Y-102603803D01*
X118801174Y-102580142D01*
X118800000Y-102556250D01*
X118800000Y-102068750D01*
X118801174Y-102044858D01*
X118804684Y-102021197D01*
X118810496Y-101997993D01*
X118818554Y-101975471D01*
X118828782Y-101953847D01*
X118841079Y-101933330D01*
X118855329Y-101914117D01*
X118871393Y-101896393D01*
X118889117Y-101880329D01*
X118908330Y-101866079D01*
X118928847Y-101853782D01*
X118950471Y-101843554D01*
X118972993Y-101835496D01*
X118996197Y-101829684D01*
X119019858Y-101826174D01*
X119043750Y-101825000D01*
X119956250Y-101825000D01*
X119980142Y-101826174D01*
X119980142Y-101826174D01*
G37*
D11*
X119500000Y-102312500D03*
D10*
G36*
X119980142Y-98701174D02*
G01*
X120003803Y-98704684D01*
X120027007Y-98710496D01*
X120049529Y-98718554D01*
X120071153Y-98728782D01*
X120091670Y-98741079D01*
X120110883Y-98755329D01*
X120128607Y-98771393D01*
X120144671Y-98789117D01*
X120158921Y-98808330D01*
X120171218Y-98828847D01*
X120181446Y-98850471D01*
X120189504Y-98872993D01*
X120195316Y-98896197D01*
X120198826Y-98919858D01*
X120200000Y-98943750D01*
X120200000Y-99431250D01*
X120198826Y-99455142D01*
X120195316Y-99478803D01*
X120189504Y-99502007D01*
X120181446Y-99524529D01*
X120171218Y-99546153D01*
X120158921Y-99566670D01*
X120144671Y-99585883D01*
X120128607Y-99603607D01*
X120110883Y-99619671D01*
X120091670Y-99633921D01*
X120071153Y-99646218D01*
X120049529Y-99656446D01*
X120027007Y-99664504D01*
X120003803Y-99670316D01*
X119980142Y-99673826D01*
X119956250Y-99675000D01*
X119043750Y-99675000D01*
X119019858Y-99673826D01*
X118996197Y-99670316D01*
X118972993Y-99664504D01*
X118950471Y-99656446D01*
X118928847Y-99646218D01*
X118908330Y-99633921D01*
X118889117Y-99619671D01*
X118871393Y-99603607D01*
X118855329Y-99585883D01*
X118841079Y-99566670D01*
X118828782Y-99546153D01*
X118818554Y-99524529D01*
X118810496Y-99502007D01*
X118804684Y-99478803D01*
X118801174Y-99455142D01*
X118800000Y-99431250D01*
X118800000Y-98943750D01*
X118801174Y-98919858D01*
X118804684Y-98896197D01*
X118810496Y-98872993D01*
X118818554Y-98850471D01*
X118828782Y-98828847D01*
X118841079Y-98808330D01*
X118855329Y-98789117D01*
X118871393Y-98771393D01*
X118889117Y-98755329D01*
X118908330Y-98741079D01*
X118928847Y-98728782D01*
X118950471Y-98718554D01*
X118972993Y-98710496D01*
X118996197Y-98704684D01*
X119019858Y-98701174D01*
X119043750Y-98700000D01*
X119956250Y-98700000D01*
X119980142Y-98701174D01*
X119980142Y-98701174D01*
G37*
D11*
X119500000Y-99187500D03*
D10*
G36*
X119980142Y-96826174D02*
G01*
X120003803Y-96829684D01*
X120027007Y-96835496D01*
X120049529Y-96843554D01*
X120071153Y-96853782D01*
X120091670Y-96866079D01*
X120110883Y-96880329D01*
X120128607Y-96896393D01*
X120144671Y-96914117D01*
X120158921Y-96933330D01*
X120171218Y-96953847D01*
X120181446Y-96975471D01*
X120189504Y-96997993D01*
X120195316Y-97021197D01*
X120198826Y-97044858D01*
X120200000Y-97068750D01*
X120200000Y-97556250D01*
X120198826Y-97580142D01*
X120195316Y-97603803D01*
X120189504Y-97627007D01*
X120181446Y-97649529D01*
X120171218Y-97671153D01*
X120158921Y-97691670D01*
X120144671Y-97710883D01*
X120128607Y-97728607D01*
X120110883Y-97744671D01*
X120091670Y-97758921D01*
X120071153Y-97771218D01*
X120049529Y-97781446D01*
X120027007Y-97789504D01*
X120003803Y-97795316D01*
X119980142Y-97798826D01*
X119956250Y-97800000D01*
X119043750Y-97800000D01*
X119019858Y-97798826D01*
X118996197Y-97795316D01*
X118972993Y-97789504D01*
X118950471Y-97781446D01*
X118928847Y-97771218D01*
X118908330Y-97758921D01*
X118889117Y-97744671D01*
X118871393Y-97728607D01*
X118855329Y-97710883D01*
X118841079Y-97691670D01*
X118828782Y-97671153D01*
X118818554Y-97649529D01*
X118810496Y-97627007D01*
X118804684Y-97603803D01*
X118801174Y-97580142D01*
X118800000Y-97556250D01*
X118800000Y-97068750D01*
X118801174Y-97044858D01*
X118804684Y-97021197D01*
X118810496Y-96997993D01*
X118818554Y-96975471D01*
X118828782Y-96953847D01*
X118841079Y-96933330D01*
X118855329Y-96914117D01*
X118871393Y-96896393D01*
X118889117Y-96880329D01*
X118908330Y-96866079D01*
X118928847Y-96853782D01*
X118950471Y-96843554D01*
X118972993Y-96835496D01*
X118996197Y-96829684D01*
X119019858Y-96826174D01*
X119043750Y-96825000D01*
X119956250Y-96825000D01*
X119980142Y-96826174D01*
X119980142Y-96826174D01*
G37*
D11*
X119500000Y-97312500D03*
D10*
G36*
X119980142Y-93701174D02*
G01*
X120003803Y-93704684D01*
X120027007Y-93710496D01*
X120049529Y-93718554D01*
X120071153Y-93728782D01*
X120091670Y-93741079D01*
X120110883Y-93755329D01*
X120128607Y-93771393D01*
X120144671Y-93789117D01*
X120158921Y-93808330D01*
X120171218Y-93828847D01*
X120181446Y-93850471D01*
X120189504Y-93872993D01*
X120195316Y-93896197D01*
X120198826Y-93919858D01*
X120200000Y-93943750D01*
X120200000Y-94431250D01*
X120198826Y-94455142D01*
X120195316Y-94478803D01*
X120189504Y-94502007D01*
X120181446Y-94524529D01*
X120171218Y-94546153D01*
X120158921Y-94566670D01*
X120144671Y-94585883D01*
X120128607Y-94603607D01*
X120110883Y-94619671D01*
X120091670Y-94633921D01*
X120071153Y-94646218D01*
X120049529Y-94656446D01*
X120027007Y-94664504D01*
X120003803Y-94670316D01*
X119980142Y-94673826D01*
X119956250Y-94675000D01*
X119043750Y-94675000D01*
X119019858Y-94673826D01*
X118996197Y-94670316D01*
X118972993Y-94664504D01*
X118950471Y-94656446D01*
X118928847Y-94646218D01*
X118908330Y-94633921D01*
X118889117Y-94619671D01*
X118871393Y-94603607D01*
X118855329Y-94585883D01*
X118841079Y-94566670D01*
X118828782Y-94546153D01*
X118818554Y-94524529D01*
X118810496Y-94502007D01*
X118804684Y-94478803D01*
X118801174Y-94455142D01*
X118800000Y-94431250D01*
X118800000Y-93943750D01*
X118801174Y-93919858D01*
X118804684Y-93896197D01*
X118810496Y-93872993D01*
X118818554Y-93850471D01*
X118828782Y-93828847D01*
X118841079Y-93808330D01*
X118855329Y-93789117D01*
X118871393Y-93771393D01*
X118889117Y-93755329D01*
X118908330Y-93741079D01*
X118928847Y-93728782D01*
X118950471Y-93718554D01*
X118972993Y-93710496D01*
X118996197Y-93704684D01*
X119019858Y-93701174D01*
X119043750Y-93700000D01*
X119956250Y-93700000D01*
X119980142Y-93701174D01*
X119980142Y-93701174D01*
G37*
D11*
X119500000Y-94187500D03*
D10*
G36*
X119980142Y-91826174D02*
G01*
X120003803Y-91829684D01*
X120027007Y-91835496D01*
X120049529Y-91843554D01*
X120071153Y-91853782D01*
X120091670Y-91866079D01*
X120110883Y-91880329D01*
X120128607Y-91896393D01*
X120144671Y-91914117D01*
X120158921Y-91933330D01*
X120171218Y-91953847D01*
X120181446Y-91975471D01*
X120189504Y-91997993D01*
X120195316Y-92021197D01*
X120198826Y-92044858D01*
X120200000Y-92068750D01*
X120200000Y-92556250D01*
X120198826Y-92580142D01*
X120195316Y-92603803D01*
X120189504Y-92627007D01*
X120181446Y-92649529D01*
X120171218Y-92671153D01*
X120158921Y-92691670D01*
X120144671Y-92710883D01*
X120128607Y-92728607D01*
X120110883Y-92744671D01*
X120091670Y-92758921D01*
X120071153Y-92771218D01*
X120049529Y-92781446D01*
X120027007Y-92789504D01*
X120003803Y-92795316D01*
X119980142Y-92798826D01*
X119956250Y-92800000D01*
X119043750Y-92800000D01*
X119019858Y-92798826D01*
X118996197Y-92795316D01*
X118972993Y-92789504D01*
X118950471Y-92781446D01*
X118928847Y-92771218D01*
X118908330Y-92758921D01*
X118889117Y-92744671D01*
X118871393Y-92728607D01*
X118855329Y-92710883D01*
X118841079Y-92691670D01*
X118828782Y-92671153D01*
X118818554Y-92649529D01*
X118810496Y-92627007D01*
X118804684Y-92603803D01*
X118801174Y-92580142D01*
X118800000Y-92556250D01*
X118800000Y-92068750D01*
X118801174Y-92044858D01*
X118804684Y-92021197D01*
X118810496Y-91997993D01*
X118818554Y-91975471D01*
X118828782Y-91953847D01*
X118841079Y-91933330D01*
X118855329Y-91914117D01*
X118871393Y-91896393D01*
X118889117Y-91880329D01*
X118908330Y-91866079D01*
X118928847Y-91853782D01*
X118950471Y-91843554D01*
X118972993Y-91835496D01*
X118996197Y-91829684D01*
X119019858Y-91826174D01*
X119043750Y-91825000D01*
X119956250Y-91825000D01*
X119980142Y-91826174D01*
X119980142Y-91826174D01*
G37*
D11*
X119500000Y-92312500D03*
D12*
X124000000Y-103250000D03*
X122000000Y-104200000D03*
X122000000Y-102300000D03*
X124000000Y-98250000D03*
X122000000Y-99200000D03*
X122000000Y-97300000D03*
X124000000Y-93250000D03*
X122000000Y-94200000D03*
X122000000Y-92300000D03*
D10*
G36*
X126980142Y-88951174D02*
G01*
X127003803Y-88954684D01*
X127027007Y-88960496D01*
X127049529Y-88968554D01*
X127071153Y-88978782D01*
X127091670Y-88991079D01*
X127110883Y-89005329D01*
X127128607Y-89021393D01*
X127144671Y-89039117D01*
X127158921Y-89058330D01*
X127171218Y-89078847D01*
X127181446Y-89100471D01*
X127189504Y-89122993D01*
X127195316Y-89146197D01*
X127198826Y-89169858D01*
X127200000Y-89193750D01*
X127200000Y-89681250D01*
X127198826Y-89705142D01*
X127195316Y-89728803D01*
X127189504Y-89752007D01*
X127181446Y-89774529D01*
X127171218Y-89796153D01*
X127158921Y-89816670D01*
X127144671Y-89835883D01*
X127128607Y-89853607D01*
X127110883Y-89869671D01*
X127091670Y-89883921D01*
X127071153Y-89896218D01*
X127049529Y-89906446D01*
X127027007Y-89914504D01*
X127003803Y-89920316D01*
X126980142Y-89923826D01*
X126956250Y-89925000D01*
X126043750Y-89925000D01*
X126019858Y-89923826D01*
X125996197Y-89920316D01*
X125972993Y-89914504D01*
X125950471Y-89906446D01*
X125928847Y-89896218D01*
X125908330Y-89883921D01*
X125889117Y-89869671D01*
X125871393Y-89853607D01*
X125855329Y-89835883D01*
X125841079Y-89816670D01*
X125828782Y-89796153D01*
X125818554Y-89774529D01*
X125810496Y-89752007D01*
X125804684Y-89728803D01*
X125801174Y-89705142D01*
X125800000Y-89681250D01*
X125800000Y-89193750D01*
X125801174Y-89169858D01*
X125804684Y-89146197D01*
X125810496Y-89122993D01*
X125818554Y-89100471D01*
X125828782Y-89078847D01*
X125841079Y-89058330D01*
X125855329Y-89039117D01*
X125871393Y-89021393D01*
X125889117Y-89005329D01*
X125908330Y-88991079D01*
X125928847Y-88978782D01*
X125950471Y-88968554D01*
X125972993Y-88960496D01*
X125996197Y-88954684D01*
X126019858Y-88951174D01*
X126043750Y-88950000D01*
X126956250Y-88950000D01*
X126980142Y-88951174D01*
X126980142Y-88951174D01*
G37*
D11*
X126500000Y-89437500D03*
D10*
G36*
X126980142Y-87076174D02*
G01*
X127003803Y-87079684D01*
X127027007Y-87085496D01*
X127049529Y-87093554D01*
X127071153Y-87103782D01*
X127091670Y-87116079D01*
X127110883Y-87130329D01*
X127128607Y-87146393D01*
X127144671Y-87164117D01*
X127158921Y-87183330D01*
X127171218Y-87203847D01*
X127181446Y-87225471D01*
X127189504Y-87247993D01*
X127195316Y-87271197D01*
X127198826Y-87294858D01*
X127200000Y-87318750D01*
X127200000Y-87806250D01*
X127198826Y-87830142D01*
X127195316Y-87853803D01*
X127189504Y-87877007D01*
X127181446Y-87899529D01*
X127171218Y-87921153D01*
X127158921Y-87941670D01*
X127144671Y-87960883D01*
X127128607Y-87978607D01*
X127110883Y-87994671D01*
X127091670Y-88008921D01*
X127071153Y-88021218D01*
X127049529Y-88031446D01*
X127027007Y-88039504D01*
X127003803Y-88045316D01*
X126980142Y-88048826D01*
X126956250Y-88050000D01*
X126043750Y-88050000D01*
X126019858Y-88048826D01*
X125996197Y-88045316D01*
X125972993Y-88039504D01*
X125950471Y-88031446D01*
X125928847Y-88021218D01*
X125908330Y-88008921D01*
X125889117Y-87994671D01*
X125871393Y-87978607D01*
X125855329Y-87960883D01*
X125841079Y-87941670D01*
X125828782Y-87921153D01*
X125818554Y-87899529D01*
X125810496Y-87877007D01*
X125804684Y-87853803D01*
X125801174Y-87830142D01*
X125800000Y-87806250D01*
X125800000Y-87318750D01*
X125801174Y-87294858D01*
X125804684Y-87271197D01*
X125810496Y-87247993D01*
X125818554Y-87225471D01*
X125828782Y-87203847D01*
X125841079Y-87183330D01*
X125855329Y-87164117D01*
X125871393Y-87146393D01*
X125889117Y-87130329D01*
X125908330Y-87116079D01*
X125928847Y-87103782D01*
X125950471Y-87093554D01*
X125972993Y-87085496D01*
X125996197Y-87079684D01*
X126019858Y-87076174D01*
X126043750Y-87075000D01*
X126956250Y-87075000D01*
X126980142Y-87076174D01*
X126980142Y-87076174D01*
G37*
D11*
X126500000Y-87562500D03*
M02*
