M48
; DRILL file {KiCad (6.0.6)} date Thu Jan  5 20:28:43 2023
; FORMAT={-:-/ absolute / metric / decimal}
; #@! TF.CreationDate,2023-01-05T20:28:43+10:00
; #@! TF.GenerationSoftware,Kicad,Pcbnew,(6.0.6)
; #@! TF.FileFunction,Plated,1,2,PTH
FMAT,2
METRIC
; #@! TA.AperFunction,Plated,PTH,ViaDrill
T1C0.300
; #@! TA.AperFunction,Plated,PTH,ViaDrill
T2C0.400
; #@! TA.AperFunction,Plated,PTH,ViaDrill
T3C0.950
; #@! TA.AperFunction,Plated,PTH,ComponentDrill
T4C0.950
; #@! TA.AperFunction,Plated,PTH,ComponentDrill
T5C1.000
%
G90
G05
T1
X119.5Y-92.25
X119.5Y-97.25
X119.5Y-102.25
X119.5Y-107.25
X119.5Y-112.25
X122.0Y-116.0
X124.875Y-109.125
X126.5Y-92.25
X126.5Y-97.25
X126.5Y-102.25
X126.5Y-107.25
X126.5Y-112.25
X129.0Y-99.25
X133.0Y-97.75
T2
X116.5Y-80.0
X120.0Y-80.0
X126.5Y-87.5
T3
X120.0Y-76.5
X122.5Y-76.5
X125.0Y-76.5
X127.5Y-76.5
X130.0Y-76.5
T4
X120.0Y-80.0
X122.5Y-80.0
X125.0Y-80.0
X127.5Y-80.0
X130.0Y-80.0
T5
X113.5Y-92.5
X113.5Y-95.04
X113.5Y-97.58
X113.5Y-100.12
X113.5Y-102.66
X113.5Y-105.2
X113.5Y-107.74
X113.5Y-110.28
X136.36Y-92.5
X136.36Y-95.04
X136.36Y-97.58
X136.36Y-100.12
X136.36Y-102.66
X136.36Y-105.2
X136.36Y-107.74
X136.36Y-110.28
T0
M30
