M48
; DRILL file {KiCad (5.1.2)-2} date 15-Sep-21 8:14:18 AM
; FORMAT={-:-/ absolute / metric / decimal}
; #@! TF.CreationDate,2021-09-15T08:14:18+10:00
; #@! TF.GenerationSoftware,Kicad,Pcbnew,(5.1.2)-2
; #@! TF.FileFunction,Plated,1,2,PTH
FMAT,2
METRIC
T1C0.300
T2C0.400
T3C0.950
T4C1.000
%
G90
G05
T1
X119.5Y-92.25
X119.5Y-97.25
X119.5Y-102.25
X119.5Y-107.25
X119.5Y-112.25
X126.5Y-92.25
X126.5Y-97.25
X126.5Y-102.25
X126.5Y-107.25
X126.5Y-112.25
X129.0Y-99.25
X129.5Y-107.75
X131.0Y-110.75
X133.0Y-97.75
T2
X116.5Y-80.0
X120.0Y-80.0
X126.5Y-87.5
T3
X120.0Y-76.5
X122.5Y-76.5
X125.0Y-76.5
X126.25Y-123.0
X127.5Y-76.5
X130.0Y-76.5
X120.0Y-80.0
X122.5Y-80.0
X125.0Y-80.0
X127.5Y-80.0
X130.0Y-80.0
X116.25Y-126.0
X118.75Y-126.0
X121.25Y-126.0
X123.75Y-126.0
X126.25Y-126.0
X128.75Y-126.0
X131.25Y-126.0
X133.75Y-126.0
T4
X126.23Y-119.55
X113.5Y-92.5
X113.5Y-95.04
X113.5Y-97.58
X113.5Y-100.12
X113.5Y-102.66
X113.5Y-105.2
X113.5Y-107.74
X113.5Y-110.28
X136.36Y-92.5
X136.36Y-95.04
X136.36Y-97.58
X136.36Y-100.12
X136.36Y-102.66
X136.36Y-105.2
X136.36Y-107.74
X136.36Y-110.28
T0
M30
