G04 #@! TF.GenerationSoftware,KiCad,Pcbnew,(5.1.2)-2*
G04 #@! TF.CreationDate,2021-09-15T08:27:52+10:00*
G04 #@! TF.ProjectId,MHI ESP,4d484920-4553-4502-9e6b-696361645f70,rev?*
G04 #@! TF.SameCoordinates,Original*
G04 #@! TF.FileFunction,Legend,Top*
G04 #@! TF.FilePolarity,Positive*
%FSLAX46Y46*%
G04 Gerber Fmt 4.6, Leading zero omitted, Abs format (unit mm)*
G04 Created by KiCad (PCBNEW (5.1.2)-2) date 2021-09-15 08:27:52*
%MOMM*%
%LPD*%
G04 APERTURE LIST*
%ADD10C,0.120000*%
%ADD11C,0.150000*%
G04 APERTURE END LIST*
D10*
X135730000Y-84160000D02*
G75*
G02X137860000Y-86290000I0J-2130000D01*
G01*
X112000000Y-86290000D02*
G75*
G02X114130000Y-84160000I2130000J0D01*
G01*
X114540000Y-111720000D02*
X114540000Y-118620000D01*
X112000000Y-111720000D02*
X114540000Y-111720000D01*
D11*
G36*
X110960000Y-91865000D02*
G01*
X110960000Y-93135000D01*
X111595000Y-92500000D01*
X110960000Y-91865000D01*
G37*
X110960000Y-91865000D02*
X110960000Y-93135000D01*
X111595000Y-92500000D01*
X110960000Y-91865000D01*
D10*
X135740000Y-84160000D02*
X114130000Y-84160000D01*
X137860000Y-118620000D02*
X137860000Y-86290000D01*
X112000000Y-111720000D02*
X112000000Y-86290000D01*
X114540000Y-118620000D02*
X137860000Y-118620000D01*
X125790000Y-112991422D02*
X125790000Y-113508578D01*
X127210000Y-112991422D02*
X127210000Y-113508578D01*
X125790000Y-107991422D02*
X125790000Y-108508578D01*
X127210000Y-107991422D02*
X127210000Y-108508578D01*
X118790000Y-112991422D02*
X118790000Y-113508578D01*
X120210000Y-112991422D02*
X120210000Y-113508578D01*
X118790000Y-107991422D02*
X118790000Y-108508578D01*
X120210000Y-107991422D02*
X120210000Y-108508578D01*
X123760000Y-114830000D02*
X122300000Y-114830000D01*
X123760000Y-111670000D02*
X121600000Y-111670000D01*
X123760000Y-111670000D02*
X123760000Y-112600000D01*
X123760000Y-114830000D02*
X123760000Y-113900000D01*
X123760000Y-109830000D02*
X122300000Y-109830000D01*
X123760000Y-106670000D02*
X121600000Y-106670000D01*
X123760000Y-106670000D02*
X123760000Y-107600000D01*
X123760000Y-109830000D02*
X123760000Y-108900000D01*
X127481000Y-119550000D02*
G75*
G03X127481000Y-119550000I-1251000J0D01*
G01*
X124100000Y-90910000D02*
X118090000Y-90910000D01*
X121850000Y-84090000D02*
X118090000Y-84090000D01*
X118090000Y-90910000D02*
X118090000Y-89650000D01*
X118090000Y-84090000D02*
X118090000Y-85350000D01*
X125790000Y-102991422D02*
X125790000Y-103508578D01*
X127210000Y-102991422D02*
X127210000Y-103508578D01*
X125790000Y-97991422D02*
X125790000Y-98508578D01*
X127210000Y-97991422D02*
X127210000Y-98508578D01*
X125790000Y-92991422D02*
X125790000Y-93508578D01*
X127210000Y-92991422D02*
X127210000Y-93508578D01*
X118790000Y-102991422D02*
X118790000Y-103508578D01*
X120210000Y-102991422D02*
X120210000Y-103508578D01*
X118790000Y-97991422D02*
X118790000Y-98508578D01*
X120210000Y-97991422D02*
X120210000Y-98508578D01*
X118790000Y-92991422D02*
X118790000Y-93508578D01*
X120210000Y-92991422D02*
X120210000Y-93508578D01*
X123760000Y-104830000D02*
X122300000Y-104830000D01*
X123760000Y-101670000D02*
X121600000Y-101670000D01*
X123760000Y-101670000D02*
X123760000Y-102600000D01*
X123760000Y-104830000D02*
X123760000Y-103900000D01*
X123760000Y-99830000D02*
X122300000Y-99830000D01*
X123760000Y-96670000D02*
X121600000Y-96670000D01*
X123760000Y-96670000D02*
X123760000Y-97600000D01*
X123760000Y-99830000D02*
X123760000Y-98900000D01*
X123760000Y-94830000D02*
X122300000Y-94830000D01*
X123760000Y-91670000D02*
X121600000Y-91670000D01*
X123760000Y-91670000D02*
X123760000Y-92600000D01*
X123760000Y-94830000D02*
X123760000Y-93900000D01*
X125790000Y-88241422D02*
X125790000Y-88758578D01*
X127210000Y-88241422D02*
X127210000Y-88758578D01*
D11*
X128602380Y-113892857D02*
X128126190Y-114226190D01*
X128602380Y-114464285D02*
X127602380Y-114464285D01*
X127602380Y-114083333D01*
X127650000Y-113988095D01*
X127697619Y-113940476D01*
X127792857Y-113892857D01*
X127935714Y-113892857D01*
X128030952Y-113940476D01*
X128078571Y-113988095D01*
X128126190Y-114083333D01*
X128126190Y-114464285D01*
X128602380Y-112940476D02*
X128602380Y-113511904D01*
X128602380Y-113226190D02*
X127602380Y-113226190D01*
X127745238Y-113321428D01*
X127840476Y-113416666D01*
X127888095Y-113511904D01*
X127602380Y-112321428D02*
X127602380Y-112226190D01*
X127650000Y-112130952D01*
X127697619Y-112083333D01*
X127792857Y-112035714D01*
X127983333Y-111988095D01*
X128221428Y-111988095D01*
X128411904Y-112035714D01*
X128507142Y-112083333D01*
X128554761Y-112130952D01*
X128602380Y-112226190D01*
X128602380Y-112321428D01*
X128554761Y-112416666D01*
X128507142Y-112464285D01*
X128411904Y-112511904D01*
X128221428Y-112559523D01*
X127983333Y-112559523D01*
X127792857Y-112511904D01*
X127697619Y-112464285D01*
X127650000Y-112416666D01*
X127602380Y-112321428D01*
X128602380Y-108416666D02*
X128126190Y-108750000D01*
X128602380Y-108988095D02*
X127602380Y-108988095D01*
X127602380Y-108607142D01*
X127650000Y-108511904D01*
X127697619Y-108464285D01*
X127792857Y-108416666D01*
X127935714Y-108416666D01*
X128030952Y-108464285D01*
X128078571Y-108511904D01*
X128126190Y-108607142D01*
X128126190Y-108988095D01*
X128602380Y-107940476D02*
X128602380Y-107750000D01*
X128554761Y-107654761D01*
X128507142Y-107607142D01*
X128364285Y-107511904D01*
X128173809Y-107464285D01*
X127792857Y-107464285D01*
X127697619Y-107511904D01*
X127650000Y-107559523D01*
X127602380Y-107654761D01*
X127602380Y-107845238D01*
X127650000Y-107940476D01*
X127697619Y-107988095D01*
X127792857Y-108035714D01*
X128030952Y-108035714D01*
X128126190Y-107988095D01*
X128173809Y-107940476D01*
X128221428Y-107845238D01*
X128221428Y-107654761D01*
X128173809Y-107559523D01*
X128126190Y-107511904D01*
X128030952Y-107464285D01*
X118452380Y-113416666D02*
X117976190Y-113750000D01*
X118452380Y-113988095D02*
X117452380Y-113988095D01*
X117452380Y-113607142D01*
X117500000Y-113511904D01*
X117547619Y-113464285D01*
X117642857Y-113416666D01*
X117785714Y-113416666D01*
X117880952Y-113464285D01*
X117928571Y-113511904D01*
X117976190Y-113607142D01*
X117976190Y-113988095D01*
X117880952Y-112845238D02*
X117833333Y-112940476D01*
X117785714Y-112988095D01*
X117690476Y-113035714D01*
X117642857Y-113035714D01*
X117547619Y-112988095D01*
X117500000Y-112940476D01*
X117452380Y-112845238D01*
X117452380Y-112654761D01*
X117500000Y-112559523D01*
X117547619Y-112511904D01*
X117642857Y-112464285D01*
X117690476Y-112464285D01*
X117785714Y-112511904D01*
X117833333Y-112559523D01*
X117880952Y-112654761D01*
X117880952Y-112845238D01*
X117928571Y-112940476D01*
X117976190Y-112988095D01*
X118071428Y-113035714D01*
X118261904Y-113035714D01*
X118357142Y-112988095D01*
X118404761Y-112940476D01*
X118452380Y-112845238D01*
X118452380Y-112654761D01*
X118404761Y-112559523D01*
X118357142Y-112511904D01*
X118261904Y-112464285D01*
X118071428Y-112464285D01*
X117976190Y-112511904D01*
X117928571Y-112559523D01*
X117880952Y-112654761D01*
X118452380Y-108416666D02*
X117976190Y-108750000D01*
X118452380Y-108988095D02*
X117452380Y-108988095D01*
X117452380Y-108607142D01*
X117500000Y-108511904D01*
X117547619Y-108464285D01*
X117642857Y-108416666D01*
X117785714Y-108416666D01*
X117880952Y-108464285D01*
X117928571Y-108511904D01*
X117976190Y-108607142D01*
X117976190Y-108988095D01*
X117452380Y-108083333D02*
X117452380Y-107416666D01*
X118452380Y-107845238D01*
X124654761Y-115797619D02*
X124559523Y-115750000D01*
X124464285Y-115654761D01*
X124321428Y-115511904D01*
X124226190Y-115464285D01*
X124130952Y-115464285D01*
X124178571Y-115702380D02*
X124083333Y-115654761D01*
X123988095Y-115559523D01*
X123940476Y-115369047D01*
X123940476Y-115035714D01*
X123988095Y-114845238D01*
X124083333Y-114750000D01*
X124178571Y-114702380D01*
X124369047Y-114702380D01*
X124464285Y-114750000D01*
X124559523Y-114845238D01*
X124607142Y-115035714D01*
X124607142Y-115369047D01*
X124559523Y-115559523D01*
X124464285Y-115654761D01*
X124369047Y-115702380D01*
X124178571Y-115702380D01*
X125511904Y-114702380D02*
X125035714Y-114702380D01*
X124988095Y-115178571D01*
X125035714Y-115130952D01*
X125130952Y-115083333D01*
X125369047Y-115083333D01*
X125464285Y-115130952D01*
X125511904Y-115178571D01*
X125559523Y-115273809D01*
X125559523Y-115511904D01*
X125511904Y-115607142D01*
X125464285Y-115654761D01*
X125369047Y-115702380D01*
X125130952Y-115702380D01*
X125035714Y-115654761D01*
X124988095Y-115607142D01*
X124654761Y-110797619D02*
X124559523Y-110750000D01*
X124464285Y-110654761D01*
X124321428Y-110511904D01*
X124226190Y-110464285D01*
X124130952Y-110464285D01*
X124178571Y-110702380D02*
X124083333Y-110654761D01*
X123988095Y-110559523D01*
X123940476Y-110369047D01*
X123940476Y-110035714D01*
X123988095Y-109845238D01*
X124083333Y-109750000D01*
X124178571Y-109702380D01*
X124369047Y-109702380D01*
X124464285Y-109750000D01*
X124559523Y-109845238D01*
X124607142Y-110035714D01*
X124607142Y-110369047D01*
X124559523Y-110559523D01*
X124464285Y-110654761D01*
X124369047Y-110702380D01*
X124178571Y-110702380D01*
X125464285Y-110035714D02*
X125464285Y-110702380D01*
X125226190Y-109654761D02*
X124988095Y-110369047D01*
X125607142Y-110369047D01*
X115988095Y-89952380D02*
X115988095Y-90761904D01*
X116035714Y-90857142D01*
X116083333Y-90904761D01*
X116178571Y-90952380D01*
X116369047Y-90952380D01*
X116464285Y-90904761D01*
X116511904Y-90857142D01*
X116559523Y-90761904D01*
X116559523Y-89952380D01*
X116988095Y-90047619D02*
X117035714Y-90000000D01*
X117130952Y-89952380D01*
X117369047Y-89952380D01*
X117464285Y-90000000D01*
X117511904Y-90047619D01*
X117559523Y-90142857D01*
X117559523Y-90238095D01*
X117511904Y-90380952D01*
X116940476Y-90952380D01*
X117559523Y-90952380D01*
X128602380Y-103416666D02*
X128126190Y-103750000D01*
X128602380Y-103988095D02*
X127602380Y-103988095D01*
X127602380Y-103607142D01*
X127650000Y-103511904D01*
X127697619Y-103464285D01*
X127792857Y-103416666D01*
X127935714Y-103416666D01*
X128030952Y-103464285D01*
X128078571Y-103511904D01*
X128126190Y-103607142D01*
X128126190Y-103988095D01*
X127602380Y-102559523D02*
X127602380Y-102750000D01*
X127650000Y-102845238D01*
X127697619Y-102892857D01*
X127840476Y-102988095D01*
X128030952Y-103035714D01*
X128411904Y-103035714D01*
X128507142Y-102988095D01*
X128554761Y-102940476D01*
X128602380Y-102845238D01*
X128602380Y-102654761D01*
X128554761Y-102559523D01*
X128507142Y-102511904D01*
X128411904Y-102464285D01*
X128173809Y-102464285D01*
X128078571Y-102511904D01*
X128030952Y-102559523D01*
X127983333Y-102654761D01*
X127983333Y-102845238D01*
X128030952Y-102940476D01*
X128078571Y-102988095D01*
X128173809Y-103035714D01*
X128602380Y-98416666D02*
X128126190Y-98750000D01*
X128602380Y-98988095D02*
X127602380Y-98988095D01*
X127602380Y-98607142D01*
X127650000Y-98511904D01*
X127697619Y-98464285D01*
X127792857Y-98416666D01*
X127935714Y-98416666D01*
X128030952Y-98464285D01*
X128078571Y-98511904D01*
X128126190Y-98607142D01*
X128126190Y-98988095D01*
X127602380Y-97511904D02*
X127602380Y-97988095D01*
X128078571Y-98035714D01*
X128030952Y-97988095D01*
X127983333Y-97892857D01*
X127983333Y-97654761D01*
X128030952Y-97559523D01*
X128078571Y-97511904D01*
X128173809Y-97464285D01*
X128411904Y-97464285D01*
X128507142Y-97511904D01*
X128554761Y-97559523D01*
X128602380Y-97654761D01*
X128602380Y-97892857D01*
X128554761Y-97988095D01*
X128507142Y-98035714D01*
X128602380Y-93416666D02*
X128126190Y-93750000D01*
X128602380Y-93988095D02*
X127602380Y-93988095D01*
X127602380Y-93607142D01*
X127650000Y-93511904D01*
X127697619Y-93464285D01*
X127792857Y-93416666D01*
X127935714Y-93416666D01*
X128030952Y-93464285D01*
X128078571Y-93511904D01*
X128126190Y-93607142D01*
X128126190Y-93988095D01*
X127935714Y-92559523D02*
X128602380Y-92559523D01*
X127554761Y-92797619D02*
X128269047Y-93035714D01*
X128269047Y-92416666D01*
X118452380Y-103416666D02*
X117976190Y-103750000D01*
X118452380Y-103988095D02*
X117452380Y-103988095D01*
X117452380Y-103607142D01*
X117500000Y-103511904D01*
X117547619Y-103464285D01*
X117642857Y-103416666D01*
X117785714Y-103416666D01*
X117880952Y-103464285D01*
X117928571Y-103511904D01*
X117976190Y-103607142D01*
X117976190Y-103988095D01*
X117452380Y-103083333D02*
X117452380Y-102464285D01*
X117833333Y-102797619D01*
X117833333Y-102654761D01*
X117880952Y-102559523D01*
X117928571Y-102511904D01*
X118023809Y-102464285D01*
X118261904Y-102464285D01*
X118357142Y-102511904D01*
X118404761Y-102559523D01*
X118452380Y-102654761D01*
X118452380Y-102940476D01*
X118404761Y-103035714D01*
X118357142Y-103083333D01*
X118452380Y-98416666D02*
X117976190Y-98750000D01*
X118452380Y-98988095D02*
X117452380Y-98988095D01*
X117452380Y-98607142D01*
X117500000Y-98511904D01*
X117547619Y-98464285D01*
X117642857Y-98416666D01*
X117785714Y-98416666D01*
X117880952Y-98464285D01*
X117928571Y-98511904D01*
X117976190Y-98607142D01*
X117976190Y-98988095D01*
X117547619Y-98035714D02*
X117500000Y-97988095D01*
X117452380Y-97892857D01*
X117452380Y-97654761D01*
X117500000Y-97559523D01*
X117547619Y-97511904D01*
X117642857Y-97464285D01*
X117738095Y-97464285D01*
X117880952Y-97511904D01*
X118452380Y-98083333D01*
X118452380Y-97464285D01*
X118452380Y-93416666D02*
X117976190Y-93750000D01*
X118452380Y-93988095D02*
X117452380Y-93988095D01*
X117452380Y-93607142D01*
X117500000Y-93511904D01*
X117547619Y-93464285D01*
X117642857Y-93416666D01*
X117785714Y-93416666D01*
X117880952Y-93464285D01*
X117928571Y-93511904D01*
X117976190Y-93607142D01*
X117976190Y-93988095D01*
X118452380Y-92464285D02*
X118452380Y-93035714D01*
X118452380Y-92750000D02*
X117452380Y-92750000D01*
X117595238Y-92845238D01*
X117690476Y-92940476D01*
X117738095Y-93035714D01*
X124654761Y-105797619D02*
X124559523Y-105750000D01*
X124464285Y-105654761D01*
X124321428Y-105511904D01*
X124226190Y-105464285D01*
X124130952Y-105464285D01*
X124178571Y-105702380D02*
X124083333Y-105654761D01*
X123988095Y-105559523D01*
X123940476Y-105369047D01*
X123940476Y-105035714D01*
X123988095Y-104845238D01*
X124083333Y-104750000D01*
X124178571Y-104702380D01*
X124369047Y-104702380D01*
X124464285Y-104750000D01*
X124559523Y-104845238D01*
X124607142Y-105035714D01*
X124607142Y-105369047D01*
X124559523Y-105559523D01*
X124464285Y-105654761D01*
X124369047Y-105702380D01*
X124178571Y-105702380D01*
X124940476Y-104702380D02*
X125559523Y-104702380D01*
X125226190Y-105083333D01*
X125369047Y-105083333D01*
X125464285Y-105130952D01*
X125511904Y-105178571D01*
X125559523Y-105273809D01*
X125559523Y-105511904D01*
X125511904Y-105607142D01*
X125464285Y-105654761D01*
X125369047Y-105702380D01*
X125083333Y-105702380D01*
X124988095Y-105654761D01*
X124940476Y-105607142D01*
X124654761Y-100797619D02*
X124559523Y-100750000D01*
X124464285Y-100654761D01*
X124321428Y-100511904D01*
X124226190Y-100464285D01*
X124130952Y-100464285D01*
X124178571Y-100702380D02*
X124083333Y-100654761D01*
X123988095Y-100559523D01*
X123940476Y-100369047D01*
X123940476Y-100035714D01*
X123988095Y-99845238D01*
X124083333Y-99750000D01*
X124178571Y-99702380D01*
X124369047Y-99702380D01*
X124464285Y-99750000D01*
X124559523Y-99845238D01*
X124607142Y-100035714D01*
X124607142Y-100369047D01*
X124559523Y-100559523D01*
X124464285Y-100654761D01*
X124369047Y-100702380D01*
X124178571Y-100702380D01*
X124988095Y-99797619D02*
X125035714Y-99750000D01*
X125130952Y-99702380D01*
X125369047Y-99702380D01*
X125464285Y-99750000D01*
X125511904Y-99797619D01*
X125559523Y-99892857D01*
X125559523Y-99988095D01*
X125511904Y-100130952D01*
X124940476Y-100702380D01*
X125559523Y-100702380D01*
X124654761Y-95797619D02*
X124559523Y-95750000D01*
X124464285Y-95654761D01*
X124321428Y-95511904D01*
X124226190Y-95464285D01*
X124130952Y-95464285D01*
X124178571Y-95702380D02*
X124083333Y-95654761D01*
X123988095Y-95559523D01*
X123940476Y-95369047D01*
X123940476Y-95035714D01*
X123988095Y-94845238D01*
X124083333Y-94750000D01*
X124178571Y-94702380D01*
X124369047Y-94702380D01*
X124464285Y-94750000D01*
X124559523Y-94845238D01*
X124607142Y-95035714D01*
X124607142Y-95369047D01*
X124559523Y-95559523D01*
X124464285Y-95654761D01*
X124369047Y-95702380D01*
X124178571Y-95702380D01*
X125559523Y-95702380D02*
X124988095Y-95702380D01*
X125273809Y-95702380D02*
X125273809Y-94702380D01*
X125178571Y-94845238D01*
X125083333Y-94940476D01*
X124988095Y-94988095D01*
X128507142Y-88666666D02*
X128554761Y-88714285D01*
X128602380Y-88857142D01*
X128602380Y-88952380D01*
X128554761Y-89095238D01*
X128459523Y-89190476D01*
X128364285Y-89238095D01*
X128173809Y-89285714D01*
X128030952Y-89285714D01*
X127840476Y-89238095D01*
X127745238Y-89190476D01*
X127650000Y-89095238D01*
X127602380Y-88952380D01*
X127602380Y-88857142D01*
X127650000Y-88714285D01*
X127697619Y-88666666D01*
X128602380Y-87714285D02*
X128602380Y-88285714D01*
X128602380Y-88000000D02*
X127602380Y-88000000D01*
X127745238Y-88095238D01*
X127840476Y-88190476D01*
X127888095Y-88285714D01*
M02*
