G04 #@! TF.GenerationSoftware,KiCad,Pcbnew,(5.1.5)-3*
G04 #@! TF.CreationDate,2021-09-10T12:23:28+10:00*
G04 #@! TF.ProjectId,MHI ESP,4d484920-4553-4502-9e6b-696361645f70,rev?*
G04 #@! TF.SameCoordinates,Original*
G04 #@! TF.FileFunction,Legend,Bot*
G04 #@! TF.FilePolarity,Positive*
%FSLAX46Y46*%
G04 Gerber Fmt 4.6, Leading zero omitted, Abs format (unit mm)*
G04 Created by KiCad (PCBNEW (5.1.5)-3) date 2021-09-10 12:23:28*
%MOMM*%
%LPD*%
G04 APERTURE LIST*
%ADD10C,0.500000*%
%ADD11C,0.010000*%
%ADD12C,0.120000*%
G04 APERTURE END LIST*
D10*
X117916666Y-115708333D02*
X119107142Y-115708333D01*
X117678571Y-114994047D02*
X118511904Y-117494047D01*
X119345238Y-114994047D01*
X121607142Y-115232142D02*
X121488095Y-115113095D01*
X121130952Y-114994047D01*
X120892857Y-114994047D01*
X120535714Y-115113095D01*
X120297619Y-115351190D01*
X120178571Y-115589285D01*
X120059523Y-116065476D01*
X120059523Y-116422619D01*
X120178571Y-116898809D01*
X120297619Y-117136904D01*
X120535714Y-117375000D01*
X120892857Y-117494047D01*
X121130952Y-117494047D01*
X121488095Y-117375000D01*
X121607142Y-117255952D01*
X122678571Y-115946428D02*
X124583333Y-115946428D01*
X125535714Y-117494047D02*
X126130952Y-114994047D01*
X126607142Y-116779761D01*
X127083333Y-114994047D01*
X127678571Y-117494047D01*
X128630952Y-114994047D02*
X128630952Y-116660714D01*
X128630952Y-117494047D02*
X128511904Y-117375000D01*
X128630952Y-117255952D01*
X128750000Y-117375000D01*
X128630952Y-117494047D01*
X128630952Y-117255952D01*
X130654761Y-116303571D02*
X129821428Y-116303571D01*
X129821428Y-114994047D02*
X129821428Y-117494047D01*
X131011904Y-117494047D01*
X131964285Y-114994047D02*
X131964285Y-116660714D01*
X131964285Y-117494047D02*
X131845238Y-117375000D01*
X131964285Y-117255952D01*
X132083333Y-117375000D01*
X131964285Y-117494047D01*
X131964285Y-117255952D01*
X121428571Y-112410714D02*
X122023809Y-110744047D01*
X122619047Y-112410714D01*
X123452380Y-113005952D02*
X123571428Y-113125000D01*
X123809523Y-113244047D01*
X124404761Y-113244047D01*
X124642857Y-113125000D01*
X124761904Y-113005952D01*
X124880952Y-112767857D01*
X124880952Y-112529761D01*
X124761904Y-112172619D01*
X123333333Y-110744047D01*
X124880952Y-110744047D01*
X125952380Y-110982142D02*
X126071428Y-110863095D01*
X125952380Y-110744047D01*
X125833333Y-110863095D01*
X125952380Y-110982142D01*
X125952380Y-110744047D01*
X127619047Y-113244047D02*
X127857142Y-113244047D01*
X128095238Y-113125000D01*
X128214285Y-113005952D01*
X128333333Y-112767857D01*
X128452380Y-112291666D01*
X128452380Y-111696428D01*
X128333333Y-111220238D01*
X128214285Y-110982142D01*
X128095238Y-110863095D01*
X127857142Y-110744047D01*
X127619047Y-110744047D01*
X127380952Y-110863095D01*
X127261904Y-110982142D01*
X127142857Y-111220238D01*
X127023809Y-111696428D01*
X127023809Y-112291666D01*
X127142857Y-112767857D01*
X127261904Y-113005952D01*
X127380952Y-113125000D01*
X127619047Y-113244047D01*
D11*
G36*
X126248305Y-104974040D02*
G01*
X126436557Y-103975458D01*
X127131183Y-103689111D01*
X127825808Y-103402763D01*
X128659128Y-103969414D01*
X128892501Y-104127189D01*
X129103457Y-104268061D01*
X129282153Y-104385599D01*
X129418744Y-104473371D01*
X129503386Y-104524945D01*
X129526437Y-104536065D01*
X129567963Y-104507465D01*
X129656698Y-104428396D01*
X129782697Y-104308959D01*
X129936014Y-104159256D01*
X130106702Y-103989385D01*
X130284814Y-103809449D01*
X130460406Y-103629546D01*
X130623530Y-103459778D01*
X130764241Y-103310246D01*
X130872592Y-103191048D01*
X130938637Y-103112287D01*
X130954426Y-103085928D01*
X130931703Y-103037334D01*
X130867999Y-102930874D01*
X130770013Y-102776961D01*
X130644441Y-102586009D01*
X130497982Y-102368431D01*
X130413115Y-102244329D01*
X130258426Y-102017721D01*
X130120970Y-101813230D01*
X130007414Y-101641035D01*
X129924428Y-101511315D01*
X129878678Y-101434249D01*
X129871803Y-101418053D01*
X129887388Y-101372025D01*
X129929868Y-101264750D01*
X129992835Y-101111313D01*
X130069879Y-100926794D01*
X130154590Y-100726279D01*
X130240558Y-100524848D01*
X130321373Y-100337585D01*
X130390627Y-100179572D01*
X130441908Y-100065893D01*
X130468809Y-100011630D01*
X130470396Y-100009494D01*
X130512635Y-99999133D01*
X130625126Y-99976018D01*
X130796209Y-99942421D01*
X131014223Y-99900615D01*
X131267509Y-99852873D01*
X131415288Y-99825341D01*
X131685938Y-99773810D01*
X131930397Y-99724775D01*
X132136300Y-99680919D01*
X132291277Y-99644926D01*
X132382962Y-99619479D01*
X132401393Y-99611405D01*
X132419445Y-99556758D01*
X132434010Y-99433338D01*
X132445098Y-99255577D01*
X132452719Y-99037909D01*
X132456884Y-98794765D01*
X132457602Y-98540577D01*
X132454882Y-98289780D01*
X132448735Y-98056804D01*
X132439171Y-97856082D01*
X132426199Y-97702046D01*
X132409829Y-97609130D01*
X132400011Y-97589787D01*
X132341323Y-97566602D01*
X132216966Y-97533456D01*
X132043390Y-97494242D01*
X131837042Y-97452855D01*
X131765011Y-97439466D01*
X131417719Y-97375853D01*
X131143383Y-97324622D01*
X130932939Y-97283739D01*
X130777322Y-97251166D01*
X130667467Y-97224868D01*
X130594311Y-97202808D01*
X130548787Y-97182951D01*
X130521833Y-97163259D01*
X130518061Y-97159368D01*
X130480415Y-97096676D01*
X130422986Y-96974669D01*
X130351508Y-96808288D01*
X130271715Y-96612471D01*
X130189343Y-96402160D01*
X130110125Y-96192292D01*
X130039796Y-95997809D01*
X129984089Y-95833650D01*
X129948741Y-95714755D01*
X129939484Y-95656064D01*
X129940256Y-95654008D01*
X129971620Y-95606036D01*
X130042774Y-95500484D01*
X130146240Y-95348340D01*
X130274540Y-95160590D01*
X130420199Y-94948220D01*
X130461680Y-94887870D01*
X130609587Y-94669071D01*
X130739739Y-94469438D01*
X130845045Y-94300435D01*
X130918416Y-94173525D01*
X130952763Y-94100171D01*
X130954426Y-94091159D01*
X130925569Y-94043793D01*
X130845831Y-93949958D01*
X130725462Y-93819739D01*
X130574713Y-93663221D01*
X130403836Y-93490490D01*
X130223079Y-93311629D01*
X130042694Y-93136724D01*
X129872932Y-92975860D01*
X129724042Y-92839122D01*
X129606276Y-92736593D01*
X129529883Y-92678360D01*
X129508750Y-92668852D01*
X129459560Y-92691246D01*
X129358847Y-92751644D01*
X129223017Y-92839871D01*
X129118510Y-92910885D01*
X128929149Y-93041189D01*
X128704899Y-93194616D01*
X128479964Y-93347799D01*
X128359032Y-93429782D01*
X127949704Y-93706647D01*
X127606102Y-93520864D01*
X127449565Y-93439477D01*
X127316454Y-93376216D01*
X127226389Y-93340135D01*
X127203463Y-93335115D01*
X127175895Y-93372183D01*
X127121508Y-93476931D01*
X127044363Y-93639697D01*
X126948518Y-93850819D01*
X126838034Y-94100635D01*
X126716971Y-94379483D01*
X126589389Y-94677701D01*
X126459347Y-94985626D01*
X126330906Y-95293596D01*
X126208126Y-95591950D01*
X126095067Y-95871025D01*
X125995788Y-96121159D01*
X125914349Y-96332690D01*
X125854811Y-96495957D01*
X125821234Y-96601295D01*
X125815834Y-96637473D01*
X125858634Y-96683619D01*
X125952344Y-96758528D01*
X126077373Y-96846636D01*
X126087867Y-96853606D01*
X126411020Y-97112279D01*
X126671587Y-97414062D01*
X126867310Y-97749305D01*
X126995932Y-98108358D01*
X127055195Y-98481574D01*
X127042839Y-98859300D01*
X126956607Y-99231889D01*
X126794241Y-99589690D01*
X126746472Y-99667973D01*
X126498009Y-99984081D01*
X126204481Y-100237921D01*
X125876047Y-100428173D01*
X125522865Y-100553515D01*
X125155095Y-100612628D01*
X124782897Y-100604193D01*
X124416429Y-100526888D01*
X124065851Y-100379394D01*
X123741323Y-100160390D01*
X123640936Y-100071502D01*
X123385449Y-99793256D01*
X123199278Y-99500344D01*
X123071570Y-99172014D01*
X123000444Y-98846867D01*
X122982886Y-98481298D01*
X123041434Y-98113914D01*
X123170142Y-97757134D01*
X123363062Y-97423374D01*
X123614248Y-97125053D01*
X123917752Y-96874589D01*
X123957640Y-96848187D01*
X124084009Y-96761728D01*
X124180073Y-96686816D01*
X124226000Y-96638985D01*
X124226668Y-96637473D01*
X124216808Y-96585733D01*
X124177722Y-96468304D01*
X124113472Y-96294846D01*
X124028120Y-96075021D01*
X123925727Y-95818487D01*
X123810354Y-95534904D01*
X123686063Y-95233933D01*
X123556916Y-94925233D01*
X123426974Y-94618464D01*
X123300298Y-94323286D01*
X123180951Y-94049360D01*
X123072994Y-93806344D01*
X122980488Y-93603899D01*
X122907496Y-93451685D01*
X122858077Y-93359362D01*
X122838177Y-93335115D01*
X122777366Y-93353996D01*
X122663582Y-93404636D01*
X122516445Y-93477983D01*
X122435538Y-93520864D01*
X122091935Y-93706647D01*
X121682607Y-93429782D01*
X121473654Y-93287946D01*
X121244887Y-93131859D01*
X121030509Y-92984891D01*
X120923129Y-92910885D01*
X120772102Y-92809469D01*
X120644218Y-92729102D01*
X120556158Y-92679959D01*
X120527555Y-92669571D01*
X120485924Y-92697595D01*
X120393789Y-92775828D01*
X120260082Y-92896148D01*
X120093735Y-93050432D01*
X119903680Y-93230557D01*
X119783479Y-93346210D01*
X119573185Y-93552833D01*
X119391444Y-93737642D01*
X119245603Y-93892730D01*
X119143009Y-94010193D01*
X119091009Y-94082125D01*
X119086020Y-94096722D01*
X119109171Y-94152247D01*
X119173146Y-94264516D01*
X119270847Y-94422163D01*
X119395180Y-94613821D01*
X119539046Y-94828124D01*
X119579959Y-94887870D01*
X119729033Y-95105018D01*
X119862775Y-95300525D01*
X119973709Y-95463401D01*
X120054356Y-95582663D01*
X120097241Y-95647322D01*
X120101383Y-95654008D01*
X120095188Y-95705538D01*
X120062300Y-95818834D01*
X120008455Y-95978958D01*
X119939387Y-96170968D01*
X119860831Y-96379926D01*
X119778520Y-96590891D01*
X119698189Y-96788924D01*
X119625572Y-96959084D01*
X119566405Y-97086433D01*
X119526420Y-97156029D01*
X119523578Y-97159368D01*
X119499127Y-97179258D01*
X119457831Y-97198927D01*
X119390623Y-97220411D01*
X119288441Y-97245747D01*
X119142219Y-97276971D01*
X118942893Y-97316118D01*
X118681397Y-97365225D01*
X118348669Y-97426328D01*
X118276628Y-97439466D01*
X118063115Y-97480718D01*
X117876978Y-97521074D01*
X117734666Y-97556639D01*
X117652629Y-97583520D01*
X117641628Y-97589787D01*
X117623502Y-97645346D01*
X117608767Y-97769505D01*
X117597436Y-97947831D01*
X117589516Y-98165891D01*
X117585019Y-98409254D01*
X117583954Y-98663486D01*
X117586330Y-98914155D01*
X117592159Y-99146829D01*
X117601449Y-99347076D01*
X117614211Y-99500462D01*
X117630454Y-99592556D01*
X117640246Y-99611405D01*
X117694761Y-99630418D01*
X117818896Y-99661350D01*
X118000285Y-99701518D01*
X118226560Y-99748238D01*
X118485353Y-99798827D01*
X118626351Y-99825341D01*
X118893873Y-99875350D01*
X119132438Y-99920654D01*
X119330386Y-99958979D01*
X119476057Y-99988053D01*
X119557791Y-100005603D01*
X119571243Y-100009494D01*
X119593979Y-100053362D01*
X119642040Y-100159024D01*
X119709019Y-100311387D01*
X119788510Y-100495354D01*
X119874108Y-100695830D01*
X119959405Y-100897719D01*
X120037995Y-101085927D01*
X120103473Y-101245358D01*
X120149431Y-101360916D01*
X120169463Y-101417506D01*
X120169836Y-101419979D01*
X120147126Y-101464621D01*
X120083459Y-101567353D01*
X119985525Y-101717963D01*
X119860017Y-101906243D01*
X119713626Y-102121982D01*
X119628525Y-102245902D01*
X119473455Y-102473117D01*
X119335725Y-102679405D01*
X119222053Y-102854329D01*
X119139161Y-102987455D01*
X119093769Y-103068347D01*
X119087213Y-103086480D01*
X119115395Y-103128688D01*
X119193304Y-103218809D01*
X119310990Y-103346746D01*
X119458500Y-103502404D01*
X119625881Y-103675685D01*
X119803181Y-103856493D01*
X119980448Y-104034733D01*
X120147730Y-104200307D01*
X120295075Y-104343120D01*
X120412530Y-104453075D01*
X120490143Y-104520076D01*
X120516108Y-104536065D01*
X120558384Y-104513581D01*
X120659501Y-104450415D01*
X120809627Y-104352997D01*
X120998930Y-104227757D01*
X121217579Y-104081125D01*
X121382511Y-103969414D01*
X122215831Y-103402763D01*
X122910456Y-103689111D01*
X123605082Y-103975458D01*
X123793334Y-104974040D01*
X123981587Y-105972623D01*
X126060052Y-105972623D01*
X126248305Y-104974040D01*
G37*
X126248305Y-104974040D02*
X126436557Y-103975458D01*
X127131183Y-103689111D01*
X127825808Y-103402763D01*
X128659128Y-103969414D01*
X128892501Y-104127189D01*
X129103457Y-104268061D01*
X129282153Y-104385599D01*
X129418744Y-104473371D01*
X129503386Y-104524945D01*
X129526437Y-104536065D01*
X129567963Y-104507465D01*
X129656698Y-104428396D01*
X129782697Y-104308959D01*
X129936014Y-104159256D01*
X130106702Y-103989385D01*
X130284814Y-103809449D01*
X130460406Y-103629546D01*
X130623530Y-103459778D01*
X130764241Y-103310246D01*
X130872592Y-103191048D01*
X130938637Y-103112287D01*
X130954426Y-103085928D01*
X130931703Y-103037334D01*
X130867999Y-102930874D01*
X130770013Y-102776961D01*
X130644441Y-102586009D01*
X130497982Y-102368431D01*
X130413115Y-102244329D01*
X130258426Y-102017721D01*
X130120970Y-101813230D01*
X130007414Y-101641035D01*
X129924428Y-101511315D01*
X129878678Y-101434249D01*
X129871803Y-101418053D01*
X129887388Y-101372025D01*
X129929868Y-101264750D01*
X129992835Y-101111313D01*
X130069879Y-100926794D01*
X130154590Y-100726279D01*
X130240558Y-100524848D01*
X130321373Y-100337585D01*
X130390627Y-100179572D01*
X130441908Y-100065893D01*
X130468809Y-100011630D01*
X130470396Y-100009494D01*
X130512635Y-99999133D01*
X130625126Y-99976018D01*
X130796209Y-99942421D01*
X131014223Y-99900615D01*
X131267509Y-99852873D01*
X131415288Y-99825341D01*
X131685938Y-99773810D01*
X131930397Y-99724775D01*
X132136300Y-99680919D01*
X132291277Y-99644926D01*
X132382962Y-99619479D01*
X132401393Y-99611405D01*
X132419445Y-99556758D01*
X132434010Y-99433338D01*
X132445098Y-99255577D01*
X132452719Y-99037909D01*
X132456884Y-98794765D01*
X132457602Y-98540577D01*
X132454882Y-98289780D01*
X132448735Y-98056804D01*
X132439171Y-97856082D01*
X132426199Y-97702046D01*
X132409829Y-97609130D01*
X132400011Y-97589787D01*
X132341323Y-97566602D01*
X132216966Y-97533456D01*
X132043390Y-97494242D01*
X131837042Y-97452855D01*
X131765011Y-97439466D01*
X131417719Y-97375853D01*
X131143383Y-97324622D01*
X130932939Y-97283739D01*
X130777322Y-97251166D01*
X130667467Y-97224868D01*
X130594311Y-97202808D01*
X130548787Y-97182951D01*
X130521833Y-97163259D01*
X130518061Y-97159368D01*
X130480415Y-97096676D01*
X130422986Y-96974669D01*
X130351508Y-96808288D01*
X130271715Y-96612471D01*
X130189343Y-96402160D01*
X130110125Y-96192292D01*
X130039796Y-95997809D01*
X129984089Y-95833650D01*
X129948741Y-95714755D01*
X129939484Y-95656064D01*
X129940256Y-95654008D01*
X129971620Y-95606036D01*
X130042774Y-95500484D01*
X130146240Y-95348340D01*
X130274540Y-95160590D01*
X130420199Y-94948220D01*
X130461680Y-94887870D01*
X130609587Y-94669071D01*
X130739739Y-94469438D01*
X130845045Y-94300435D01*
X130918416Y-94173525D01*
X130952763Y-94100171D01*
X130954426Y-94091159D01*
X130925569Y-94043793D01*
X130845831Y-93949958D01*
X130725462Y-93819739D01*
X130574713Y-93663221D01*
X130403836Y-93490490D01*
X130223079Y-93311629D01*
X130042694Y-93136724D01*
X129872932Y-92975860D01*
X129724042Y-92839122D01*
X129606276Y-92736593D01*
X129529883Y-92678360D01*
X129508750Y-92668852D01*
X129459560Y-92691246D01*
X129358847Y-92751644D01*
X129223017Y-92839871D01*
X129118510Y-92910885D01*
X128929149Y-93041189D01*
X128704899Y-93194616D01*
X128479964Y-93347799D01*
X128359032Y-93429782D01*
X127949704Y-93706647D01*
X127606102Y-93520864D01*
X127449565Y-93439477D01*
X127316454Y-93376216D01*
X127226389Y-93340135D01*
X127203463Y-93335115D01*
X127175895Y-93372183D01*
X127121508Y-93476931D01*
X127044363Y-93639697D01*
X126948518Y-93850819D01*
X126838034Y-94100635D01*
X126716971Y-94379483D01*
X126589389Y-94677701D01*
X126459347Y-94985626D01*
X126330906Y-95293596D01*
X126208126Y-95591950D01*
X126095067Y-95871025D01*
X125995788Y-96121159D01*
X125914349Y-96332690D01*
X125854811Y-96495957D01*
X125821234Y-96601295D01*
X125815834Y-96637473D01*
X125858634Y-96683619D01*
X125952344Y-96758528D01*
X126077373Y-96846636D01*
X126087867Y-96853606D01*
X126411020Y-97112279D01*
X126671587Y-97414062D01*
X126867310Y-97749305D01*
X126995932Y-98108358D01*
X127055195Y-98481574D01*
X127042839Y-98859300D01*
X126956607Y-99231889D01*
X126794241Y-99589690D01*
X126746472Y-99667973D01*
X126498009Y-99984081D01*
X126204481Y-100237921D01*
X125876047Y-100428173D01*
X125522865Y-100553515D01*
X125155095Y-100612628D01*
X124782897Y-100604193D01*
X124416429Y-100526888D01*
X124065851Y-100379394D01*
X123741323Y-100160390D01*
X123640936Y-100071502D01*
X123385449Y-99793256D01*
X123199278Y-99500344D01*
X123071570Y-99172014D01*
X123000444Y-98846867D01*
X122982886Y-98481298D01*
X123041434Y-98113914D01*
X123170142Y-97757134D01*
X123363062Y-97423374D01*
X123614248Y-97125053D01*
X123917752Y-96874589D01*
X123957640Y-96848187D01*
X124084009Y-96761728D01*
X124180073Y-96686816D01*
X124226000Y-96638985D01*
X124226668Y-96637473D01*
X124216808Y-96585733D01*
X124177722Y-96468304D01*
X124113472Y-96294846D01*
X124028120Y-96075021D01*
X123925727Y-95818487D01*
X123810354Y-95534904D01*
X123686063Y-95233933D01*
X123556916Y-94925233D01*
X123426974Y-94618464D01*
X123300298Y-94323286D01*
X123180951Y-94049360D01*
X123072994Y-93806344D01*
X122980488Y-93603899D01*
X122907496Y-93451685D01*
X122858077Y-93359362D01*
X122838177Y-93335115D01*
X122777366Y-93353996D01*
X122663582Y-93404636D01*
X122516445Y-93477983D01*
X122435538Y-93520864D01*
X122091935Y-93706647D01*
X121682607Y-93429782D01*
X121473654Y-93287946D01*
X121244887Y-93131859D01*
X121030509Y-92984891D01*
X120923129Y-92910885D01*
X120772102Y-92809469D01*
X120644218Y-92729102D01*
X120556158Y-92679959D01*
X120527555Y-92669571D01*
X120485924Y-92697595D01*
X120393789Y-92775828D01*
X120260082Y-92896148D01*
X120093735Y-93050432D01*
X119903680Y-93230557D01*
X119783479Y-93346210D01*
X119573185Y-93552833D01*
X119391444Y-93737642D01*
X119245603Y-93892730D01*
X119143009Y-94010193D01*
X119091009Y-94082125D01*
X119086020Y-94096722D01*
X119109171Y-94152247D01*
X119173146Y-94264516D01*
X119270847Y-94422163D01*
X119395180Y-94613821D01*
X119539046Y-94828124D01*
X119579959Y-94887870D01*
X119729033Y-95105018D01*
X119862775Y-95300525D01*
X119973709Y-95463401D01*
X120054356Y-95582663D01*
X120097241Y-95647322D01*
X120101383Y-95654008D01*
X120095188Y-95705538D01*
X120062300Y-95818834D01*
X120008455Y-95978958D01*
X119939387Y-96170968D01*
X119860831Y-96379926D01*
X119778520Y-96590891D01*
X119698189Y-96788924D01*
X119625572Y-96959084D01*
X119566405Y-97086433D01*
X119526420Y-97156029D01*
X119523578Y-97159368D01*
X119499127Y-97179258D01*
X119457831Y-97198927D01*
X119390623Y-97220411D01*
X119288441Y-97245747D01*
X119142219Y-97276971D01*
X118942893Y-97316118D01*
X118681397Y-97365225D01*
X118348669Y-97426328D01*
X118276628Y-97439466D01*
X118063115Y-97480718D01*
X117876978Y-97521074D01*
X117734666Y-97556639D01*
X117652629Y-97583520D01*
X117641628Y-97589787D01*
X117623502Y-97645346D01*
X117608767Y-97769505D01*
X117597436Y-97947831D01*
X117589516Y-98165891D01*
X117585019Y-98409254D01*
X117583954Y-98663486D01*
X117586330Y-98914155D01*
X117592159Y-99146829D01*
X117601449Y-99347076D01*
X117614211Y-99500462D01*
X117630454Y-99592556D01*
X117640246Y-99611405D01*
X117694761Y-99630418D01*
X117818896Y-99661350D01*
X118000285Y-99701518D01*
X118226560Y-99748238D01*
X118485353Y-99798827D01*
X118626351Y-99825341D01*
X118893873Y-99875350D01*
X119132438Y-99920654D01*
X119330386Y-99958979D01*
X119476057Y-99988053D01*
X119557791Y-100005603D01*
X119571243Y-100009494D01*
X119593979Y-100053362D01*
X119642040Y-100159024D01*
X119709019Y-100311387D01*
X119788510Y-100495354D01*
X119874108Y-100695830D01*
X119959405Y-100897719D01*
X120037995Y-101085927D01*
X120103473Y-101245358D01*
X120149431Y-101360916D01*
X120169463Y-101417506D01*
X120169836Y-101419979D01*
X120147126Y-101464621D01*
X120083459Y-101567353D01*
X119985525Y-101717963D01*
X119860017Y-101906243D01*
X119713626Y-102121982D01*
X119628525Y-102245902D01*
X119473455Y-102473117D01*
X119335725Y-102679405D01*
X119222053Y-102854329D01*
X119139161Y-102987455D01*
X119093769Y-103068347D01*
X119087213Y-103086480D01*
X119115395Y-103128688D01*
X119193304Y-103218809D01*
X119310990Y-103346746D01*
X119458500Y-103502404D01*
X119625881Y-103675685D01*
X119803181Y-103856493D01*
X119980448Y-104034733D01*
X120147730Y-104200307D01*
X120295075Y-104343120D01*
X120412530Y-104453075D01*
X120490143Y-104520076D01*
X120516108Y-104536065D01*
X120558384Y-104513581D01*
X120659501Y-104450415D01*
X120809627Y-104352997D01*
X120998930Y-104227757D01*
X121217579Y-104081125D01*
X121382511Y-103969414D01*
X122215831Y-103402763D01*
X122910456Y-103689111D01*
X123605082Y-103975458D01*
X123793334Y-104974040D01*
X123981587Y-105972623D01*
X126060052Y-105972623D01*
X126248305Y-104974040D01*
G36*
X130958869Y-91171769D02*
G01*
X131102092Y-91128011D01*
X131194306Y-91072720D01*
X131224344Y-91028996D01*
X131216076Y-90977166D01*
X131162427Y-90895741D01*
X131117063Y-90838073D01*
X131023546Y-90733818D01*
X130953287Y-90689955D01*
X130893393Y-90692818D01*
X130715720Y-90738033D01*
X130585234Y-90735980D01*
X130479273Y-90684739D01*
X130443700Y-90654748D01*
X130329836Y-90549222D01*
X130329836Y-89171147D01*
X129871803Y-89171147D01*
X129871803Y-91169836D01*
X130100820Y-91169836D01*
X130238318Y-91164398D01*
X130309258Y-91145091D01*
X130329827Y-91107424D01*
X130329836Y-91106308D01*
X130339550Y-91066854D01*
X130383478Y-91072000D01*
X130444344Y-91100464D01*
X130570054Y-91153431D01*
X130672134Y-91185297D01*
X130803480Y-91193467D01*
X130958869Y-91171769D01*
G37*
X130958869Y-91171769D02*
X131102092Y-91128011D01*
X131194306Y-91072720D01*
X131224344Y-91028996D01*
X131216076Y-90977166D01*
X131162427Y-90895741D01*
X131117063Y-90838073D01*
X131023546Y-90733818D01*
X130953287Y-90689955D01*
X130893393Y-90692818D01*
X130715720Y-90738033D01*
X130585234Y-90735980D01*
X130479273Y-90684739D01*
X130443700Y-90654748D01*
X130329836Y-90549222D01*
X130329836Y-89171147D01*
X129871803Y-89171147D01*
X129871803Y-91169836D01*
X130100820Y-91169836D01*
X130238318Y-91164398D01*
X130309258Y-91145091D01*
X130329827Y-91107424D01*
X130329836Y-91106308D01*
X130339550Y-91066854D01*
X130383478Y-91072000D01*
X130444344Y-91100464D01*
X130570054Y-91153431D01*
X130672134Y-91185297D01*
X130803480Y-91193467D01*
X130958869Y-91171769D01*
G36*
X122503108Y-91135437D02*
G01*
X122606740Y-91085938D01*
X122707106Y-91014439D01*
X122783568Y-90932147D01*
X122839262Y-90827189D01*
X122877323Y-90687687D01*
X122900885Y-90501767D01*
X122913085Y-90257552D01*
X122917056Y-89943167D01*
X122917118Y-89910246D01*
X122918033Y-89171147D01*
X122460000Y-89171147D01*
X122460000Y-89852519D01*
X122459674Y-90104950D01*
X122457419Y-90287907D01*
X122451319Y-90415193D01*
X122439459Y-90500614D01*
X122419924Y-90557974D01*
X122390797Y-90601076D01*
X122350224Y-90643666D01*
X122208269Y-90735176D01*
X122053306Y-90752157D01*
X121905677Y-90694299D01*
X121854337Y-90651237D01*
X121816647Y-90610751D01*
X121789587Y-90567393D01*
X121771397Y-90507537D01*
X121760316Y-90417559D01*
X121754586Y-90283832D01*
X121752444Y-90092730D01*
X121752131Y-89860089D01*
X121752131Y-89171147D01*
X121294098Y-89171147D01*
X121294098Y-91169836D01*
X121523115Y-91169836D01*
X121660614Y-91164398D01*
X121731553Y-91145091D01*
X121752122Y-91107424D01*
X121752131Y-91106308D01*
X121761675Y-91069419D01*
X121803767Y-91073605D01*
X121887459Y-91114139D01*
X122077273Y-91173776D01*
X122294401Y-91180409D01*
X122503108Y-91135437D01*
G37*
X122503108Y-91135437D02*
X122606740Y-91085938D01*
X122707106Y-91014439D01*
X122783568Y-90932147D01*
X122839262Y-90827189D01*
X122877323Y-90687687D01*
X122900885Y-90501767D01*
X122913085Y-90257552D01*
X122917056Y-89943167D01*
X122917118Y-89910246D01*
X122918033Y-89171147D01*
X122460000Y-89171147D01*
X122460000Y-89852519D01*
X122459674Y-90104950D01*
X122457419Y-90287907D01*
X122451319Y-90415193D01*
X122439459Y-90500614D01*
X122419924Y-90557974D01*
X122390797Y-90601076D01*
X122350224Y-90643666D01*
X122208269Y-90735176D01*
X122053306Y-90752157D01*
X121905677Y-90694299D01*
X121854337Y-90651237D01*
X121816647Y-90610751D01*
X121789587Y-90567393D01*
X121771397Y-90507537D01*
X121760316Y-90417559D01*
X121754586Y-90283832D01*
X121752444Y-90092730D01*
X121752131Y-89860089D01*
X121752131Y-89171147D01*
X121294098Y-89171147D01*
X121294098Y-91169836D01*
X121523115Y-91169836D01*
X121660614Y-91164398D01*
X121731553Y-91145091D01*
X121752122Y-91107424D01*
X121752131Y-91106308D01*
X121761675Y-91069419D01*
X121803767Y-91073605D01*
X121887459Y-91114139D01*
X122077273Y-91173776D01*
X122294401Y-91180409D01*
X122503108Y-91135437D01*
G36*
X133867792Y-91176981D02*
G01*
X133974414Y-91151078D01*
X134178830Y-91056228D01*
X134353625Y-90911367D01*
X134474597Y-90737680D01*
X134491217Y-90698683D01*
X134514016Y-90596535D01*
X134529975Y-90445427D01*
X134535410Y-90292699D01*
X134535410Y-90003934D01*
X133931639Y-90003934D01*
X133682619Y-90002993D01*
X133507189Y-89997277D01*
X133395665Y-89982450D01*
X133338360Y-89954173D01*
X133325588Y-89908110D01*
X133347662Y-89839923D01*
X133387205Y-89760137D01*
X133497509Y-89626983D01*
X133650792Y-89560645D01*
X133838141Y-89562806D01*
X134050363Y-89635009D01*
X134233773Y-89724117D01*
X134385962Y-89603780D01*
X134538151Y-89483442D01*
X134394974Y-89351157D01*
X134203828Y-89226168D01*
X133968753Y-89150811D01*
X133715898Y-89129722D01*
X133471413Y-89167540D01*
X133431967Y-89180372D01*
X133217090Y-89292586D01*
X133057250Y-89459882D01*
X132949080Y-89687252D01*
X132889210Y-89979692D01*
X132888513Y-89985960D01*
X132883152Y-90304668D01*
X132904823Y-90418368D01*
X133327869Y-90418368D01*
X133366722Y-90400884D01*
X133472205Y-90387492D01*
X133627707Y-90379845D01*
X133726249Y-90378688D01*
X133910013Y-90379412D01*
X134024914Y-90384017D01*
X134085366Y-90396152D01*
X134105783Y-90419470D01*
X134100581Y-90457618D01*
X134096217Y-90472377D01*
X134021724Y-90611056D01*
X133904566Y-90722821D01*
X133801173Y-90771934D01*
X133663816Y-90768968D01*
X133524629Y-90707722D01*
X133407874Y-90606317D01*
X133337810Y-90482878D01*
X133327869Y-90418368D01*
X132904823Y-90418368D01*
X132936579Y-90584980D01*
X133042572Y-90820220D01*
X133194911Y-91003716D01*
X133387374Y-91128791D01*
X133613742Y-91188771D01*
X133867792Y-91176981D01*
G37*
X133867792Y-91176981D02*
X133974414Y-91151078D01*
X134178830Y-91056228D01*
X134353625Y-90911367D01*
X134474597Y-90737680D01*
X134491217Y-90698683D01*
X134514016Y-90596535D01*
X134529975Y-90445427D01*
X134535410Y-90292699D01*
X134535410Y-90003934D01*
X133931639Y-90003934D01*
X133682619Y-90002993D01*
X133507189Y-89997277D01*
X133395665Y-89982450D01*
X133338360Y-89954173D01*
X133325588Y-89908110D01*
X133347662Y-89839923D01*
X133387205Y-89760137D01*
X133497509Y-89626983D01*
X133650792Y-89560645D01*
X133838141Y-89562806D01*
X134050363Y-89635009D01*
X134233773Y-89724117D01*
X134385962Y-89603780D01*
X134538151Y-89483442D01*
X134394974Y-89351157D01*
X134203828Y-89226168D01*
X133968753Y-89150811D01*
X133715898Y-89129722D01*
X133471413Y-89167540D01*
X133431967Y-89180372D01*
X133217090Y-89292586D01*
X133057250Y-89459882D01*
X132949080Y-89687252D01*
X132889210Y-89979692D01*
X132888513Y-89985960D01*
X132883152Y-90304668D01*
X132904823Y-90418368D01*
X133327869Y-90418368D01*
X133366722Y-90400884D01*
X133472205Y-90387492D01*
X133627707Y-90379845D01*
X133726249Y-90378688D01*
X133910013Y-90379412D01*
X134024914Y-90384017D01*
X134085366Y-90396152D01*
X134105783Y-90419470D01*
X134100581Y-90457618D01*
X134096217Y-90472377D01*
X134021724Y-90611056D01*
X133904566Y-90722821D01*
X133801173Y-90771934D01*
X133663816Y-90768968D01*
X133524629Y-90707722D01*
X133407874Y-90606317D01*
X133337810Y-90482878D01*
X133327869Y-90418368D01*
X132904823Y-90418368D01*
X132936579Y-90584980D01*
X133042572Y-90820220D01*
X133194911Y-91003716D01*
X133387374Y-91128791D01*
X133613742Y-91188771D01*
X133867792Y-91176981D01*
G36*
X132342288Y-91152398D02*
G01*
X132583543Y-91049910D01*
X132659531Y-91000019D01*
X132756648Y-90923349D01*
X132817612Y-90863064D01*
X132828197Y-90843429D01*
X132798308Y-90799858D01*
X132721819Y-90725923D01*
X132660582Y-90674321D01*
X132492967Y-90539622D01*
X132360614Y-90650990D01*
X132258336Y-90722887D01*
X132158610Y-90747704D01*
X132044475Y-90741643D01*
X131863234Y-90696582D01*
X131738475Y-90603051D01*
X131662658Y-90451846D01*
X131628240Y-90233764D01*
X131628231Y-90233627D01*
X131631208Y-89989876D01*
X131677467Y-89811034D01*
X131769742Y-89689270D01*
X131832650Y-89648036D01*
X131999717Y-89596689D01*
X132178162Y-89596658D01*
X132333415Y-89646478D01*
X132370164Y-89670820D01*
X132462330Y-89732996D01*
X132534387Y-89743187D01*
X132612102Y-89696908D01*
X132698018Y-89613788D01*
X132834011Y-89473479D01*
X132683023Y-89349022D01*
X132449740Y-89208557D01*
X132186673Y-89139334D01*
X131911760Y-89144347D01*
X131731216Y-89190245D01*
X131520194Y-89303751D01*
X131351426Y-89482315D01*
X131274753Y-89608361D01*
X131212654Y-89789209D01*
X131181581Y-90018255D01*
X131181342Y-90266490D01*
X131211743Y-90504907D01*
X131272592Y-90704497D01*
X131282176Y-90724961D01*
X131424102Y-90925659D01*
X131616259Y-91071783D01*
X131843464Y-91160302D01*
X132090535Y-91188185D01*
X132342288Y-91152398D01*
G37*
X132342288Y-91152398D02*
X132583543Y-91049910D01*
X132659531Y-91000019D01*
X132756648Y-90923349D01*
X132817612Y-90863064D01*
X132828197Y-90843429D01*
X132798308Y-90799858D01*
X132721819Y-90725923D01*
X132660582Y-90674321D01*
X132492967Y-90539622D01*
X132360614Y-90650990D01*
X132258336Y-90722887D01*
X132158610Y-90747704D01*
X132044475Y-90741643D01*
X131863234Y-90696582D01*
X131738475Y-90603051D01*
X131662658Y-90451846D01*
X131628240Y-90233764D01*
X131628231Y-90233627D01*
X131631208Y-89989876D01*
X131677467Y-89811034D01*
X131769742Y-89689270D01*
X131832650Y-89648036D01*
X131999717Y-89596689D01*
X132178162Y-89596658D01*
X132333415Y-89646478D01*
X132370164Y-89670820D01*
X132462330Y-89732996D01*
X132534387Y-89743187D01*
X132612102Y-89696908D01*
X132698018Y-89613788D01*
X132834011Y-89473479D01*
X132683023Y-89349022D01*
X132449740Y-89208557D01*
X132186673Y-89139334D01*
X131911760Y-89144347D01*
X131731216Y-89190245D01*
X131520194Y-89303751D01*
X131351426Y-89482315D01*
X131274753Y-89608361D01*
X131212654Y-89789209D01*
X131181581Y-90018255D01*
X131181342Y-90266490D01*
X131211743Y-90504907D01*
X131272592Y-90704497D01*
X131282176Y-90724961D01*
X131424102Y-90925659D01*
X131616259Y-91071783D01*
X131843464Y-91160302D01*
X132090535Y-91188185D01*
X132342288Y-91152398D01*
G36*
X128289508Y-90521689D02*
G01*
X128293444Y-90216302D01*
X128307823Y-89984340D01*
X128336504Y-89816214D01*
X128383348Y-89702329D01*
X128452211Y-89633095D01*
X128546954Y-89598920D01*
X128664262Y-89590189D01*
X128787123Y-89599972D01*
X128880444Y-89635713D01*
X128948084Y-89707005D01*
X128993901Y-89823439D01*
X129021755Y-89994609D01*
X129035504Y-90230104D01*
X129039016Y-90521689D01*
X129039016Y-91169836D01*
X129497049Y-91169836D01*
X129497049Y-89171147D01*
X129268033Y-89171147D01*
X129129971Y-89176742D01*
X129058878Y-89196389D01*
X129039016Y-89233687D01*
X129027054Y-89266906D01*
X128979447Y-89259879D01*
X128883485Y-89212868D01*
X128663548Y-89140346D01*
X128430274Y-89145484D01*
X128206755Y-89224234D01*
X128100313Y-89286442D01*
X128019122Y-89353796D01*
X127959808Y-89438072D01*
X127918996Y-89551043D01*
X127893312Y-89704485D01*
X127879381Y-89910173D01*
X127873829Y-90179882D01*
X127873115Y-90388449D01*
X127873115Y-91169836D01*
X128289508Y-91169836D01*
X128289508Y-90521689D01*
G37*
X128289508Y-90521689D02*
X128293444Y-90216302D01*
X128307823Y-89984340D01*
X128336504Y-89816214D01*
X128383348Y-89702329D01*
X128452211Y-89633095D01*
X128546954Y-89598920D01*
X128664262Y-89590189D01*
X128787123Y-89599972D01*
X128880444Y-89635713D01*
X128948084Y-89707005D01*
X128993901Y-89823439D01*
X129021755Y-89994609D01*
X129035504Y-90230104D01*
X129039016Y-90521689D01*
X129039016Y-91169836D01*
X129497049Y-91169836D01*
X129497049Y-89171147D01*
X129268033Y-89171147D01*
X129129971Y-89176742D01*
X129058878Y-89196389D01*
X129039016Y-89233687D01*
X129027054Y-89266906D01*
X128979447Y-89259879D01*
X128883485Y-89212868D01*
X128663548Y-89140346D01*
X128430274Y-89145484D01*
X128206755Y-89224234D01*
X128100313Y-89286442D01*
X128019122Y-89353796D01*
X127959808Y-89438072D01*
X127918996Y-89551043D01*
X127893312Y-89704485D01*
X127879381Y-89910173D01*
X127873829Y-90179882D01*
X127873115Y-90388449D01*
X127873115Y-91169836D01*
X128289508Y-91169836D01*
X128289508Y-90521689D01*
G36*
X127022521Y-91145195D02*
G01*
X127233136Y-91030495D01*
X127397915Y-90849426D01*
X127475554Y-90702162D01*
X127508886Y-90572093D01*
X127530483Y-90386667D01*
X127539739Y-90173061D01*
X127536045Y-89958450D01*
X127518794Y-89770009D01*
X127498643Y-89669363D01*
X127430667Y-89531677D01*
X127312942Y-89385434D01*
X127171065Y-89257548D01*
X127030632Y-89174937D01*
X127027207Y-89173627D01*
X126852945Y-89137528D01*
X126646427Y-89136635D01*
X126450174Y-89169499D01*
X126374396Y-89195839D01*
X126179221Y-89306516D01*
X126039438Y-89451522D01*
X125947599Y-89643497D01*
X125896254Y-89895080D01*
X125884637Y-90026858D01*
X125886119Y-90192447D01*
X126332459Y-90192447D01*
X126347494Y-89950823D01*
X126390772Y-89766697D01*
X126459551Y-89649051D01*
X126508550Y-89615410D01*
X126634093Y-89591950D01*
X126783318Y-89598896D01*
X126912333Y-89632655D01*
X126946166Y-89651228D01*
X127035428Y-89759401D01*
X127094345Y-89924949D01*
X127119424Y-90126419D01*
X127107174Y-90342354D01*
X127079796Y-90472310D01*
X127001191Y-90622809D01*
X126877104Y-90716886D01*
X126727661Y-90749413D01*
X126572987Y-90715262D01*
X126454174Y-90631727D01*
X126391735Y-90562807D01*
X126355293Y-90494874D01*
X126337923Y-90402936D01*
X126332699Y-90262001D01*
X126332459Y-90192447D01*
X125886119Y-90192447D01*
X125887785Y-90378505D01*
X125945056Y-90666866D01*
X126056457Y-90891951D01*
X126221993Y-91053770D01*
X126441670Y-91152334D01*
X126488842Y-91163764D01*
X126772336Y-91190594D01*
X127022521Y-91145195D01*
G37*
X127022521Y-91145195D02*
X127233136Y-91030495D01*
X127397915Y-90849426D01*
X127475554Y-90702162D01*
X127508886Y-90572093D01*
X127530483Y-90386667D01*
X127539739Y-90173061D01*
X127536045Y-89958450D01*
X127518794Y-89770009D01*
X127498643Y-89669363D01*
X127430667Y-89531677D01*
X127312942Y-89385434D01*
X127171065Y-89257548D01*
X127030632Y-89174937D01*
X127027207Y-89173627D01*
X126852945Y-89137528D01*
X126646427Y-89136635D01*
X126450174Y-89169499D01*
X126374396Y-89195839D01*
X126179221Y-89306516D01*
X126039438Y-89451522D01*
X125947599Y-89643497D01*
X125896254Y-89895080D01*
X125884637Y-90026858D01*
X125886119Y-90192447D01*
X126332459Y-90192447D01*
X126347494Y-89950823D01*
X126390772Y-89766697D01*
X126459551Y-89649051D01*
X126508550Y-89615410D01*
X126634093Y-89591950D01*
X126783318Y-89598896D01*
X126912333Y-89632655D01*
X126946166Y-89651228D01*
X127035428Y-89759401D01*
X127094345Y-89924949D01*
X127119424Y-90126419D01*
X127107174Y-90342354D01*
X127079796Y-90472310D01*
X127001191Y-90622809D01*
X126877104Y-90716886D01*
X126727661Y-90749413D01*
X126572987Y-90715262D01*
X126454174Y-90631727D01*
X126391735Y-90562807D01*
X126355293Y-90494874D01*
X126337923Y-90402936D01*
X126332699Y-90262001D01*
X126332459Y-90192447D01*
X125886119Y-90192447D01*
X125887785Y-90378505D01*
X125945056Y-90666866D01*
X126056457Y-90891951D01*
X126221993Y-91053770D01*
X126441670Y-91152334D01*
X126488842Y-91163764D01*
X126772336Y-91190594D01*
X127022521Y-91145195D01*
G36*
X125046418Y-91176997D02*
G01*
X125204100Y-91147093D01*
X125367685Y-91084548D01*
X125385164Y-91076574D01*
X125509217Y-91011344D01*
X125595129Y-90950726D01*
X125622898Y-90911894D01*
X125596453Y-90848563D01*
X125532220Y-90755119D01*
X125503708Y-90720238D01*
X125386211Y-90582934D01*
X125234732Y-90672309D01*
X125090570Y-90731848D01*
X124924000Y-90763674D01*
X124764262Y-90765684D01*
X124640594Y-90735779D01*
X124610916Y-90717114D01*
X124554398Y-90631534D01*
X124547529Y-90532951D01*
X124589820Y-90455938D01*
X124614836Y-90441002D01*
X124689796Y-90422453D01*
X124821561Y-90400652D01*
X124983991Y-90379820D01*
X125013956Y-90376553D01*
X125274840Y-90331425D01*
X125464055Y-90254770D01*
X125589543Y-90139509D01*
X125659243Y-89978565D01*
X125680956Y-89781985D01*
X125650961Y-89558527D01*
X125553559Y-89383051D01*
X125388361Y-89255242D01*
X125154977Y-89174782D01*
X124895902Y-89143038D01*
X124684633Y-89143420D01*
X124513265Y-89172251D01*
X124396230Y-89212056D01*
X124248350Y-89281413D01*
X124111687Y-89361903D01*
X124063115Y-89397330D01*
X123938197Y-89499295D01*
X124239509Y-89804187D01*
X124410796Y-89690835D01*
X124582594Y-89605700D01*
X124766048Y-89561170D01*
X124942397Y-89556472D01*
X125092881Y-89590830D01*
X125198740Y-89663471D01*
X125232921Y-89724762D01*
X125227794Y-89823059D01*
X125142857Y-89898227D01*
X124978343Y-89950134D01*
X124798101Y-89974125D01*
X124520709Y-90019896D01*
X124314635Y-90106252D01*
X124177122Y-90235720D01*
X124105413Y-90410828D01*
X124095479Y-90618435D01*
X124144548Y-90835286D01*
X124256420Y-90999195D01*
X124432097Y-91110912D01*
X124672581Y-91171186D01*
X124850743Y-91183001D01*
X125046418Y-91176997D01*
G37*
X125046418Y-91176997D02*
X125204100Y-91147093D01*
X125367685Y-91084548D01*
X125385164Y-91076574D01*
X125509217Y-91011344D01*
X125595129Y-90950726D01*
X125622898Y-90911894D01*
X125596453Y-90848563D01*
X125532220Y-90755119D01*
X125503708Y-90720238D01*
X125386211Y-90582934D01*
X125234732Y-90672309D01*
X125090570Y-90731848D01*
X124924000Y-90763674D01*
X124764262Y-90765684D01*
X124640594Y-90735779D01*
X124610916Y-90717114D01*
X124554398Y-90631534D01*
X124547529Y-90532951D01*
X124589820Y-90455938D01*
X124614836Y-90441002D01*
X124689796Y-90422453D01*
X124821561Y-90400652D01*
X124983991Y-90379820D01*
X125013956Y-90376553D01*
X125274840Y-90331425D01*
X125464055Y-90254770D01*
X125589543Y-90139509D01*
X125659243Y-89978565D01*
X125680956Y-89781985D01*
X125650961Y-89558527D01*
X125553559Y-89383051D01*
X125388361Y-89255242D01*
X125154977Y-89174782D01*
X124895902Y-89143038D01*
X124684633Y-89143420D01*
X124513265Y-89172251D01*
X124396230Y-89212056D01*
X124248350Y-89281413D01*
X124111687Y-89361903D01*
X124063115Y-89397330D01*
X123938197Y-89499295D01*
X124239509Y-89804187D01*
X124410796Y-89690835D01*
X124582594Y-89605700D01*
X124766048Y-89561170D01*
X124942397Y-89556472D01*
X125092881Y-89590830D01*
X125198740Y-89663471D01*
X125232921Y-89724762D01*
X125227794Y-89823059D01*
X125142857Y-89898227D01*
X124978343Y-89950134D01*
X124798101Y-89974125D01*
X124520709Y-90019896D01*
X124314635Y-90106252D01*
X124177122Y-90235720D01*
X124105413Y-90410828D01*
X124095479Y-90618435D01*
X124144548Y-90835286D01*
X124256420Y-90999195D01*
X124432097Y-91110912D01*
X124672581Y-91171186D01*
X124850743Y-91183001D01*
X125046418Y-91176997D01*
G36*
X120507325Y-91123474D02*
G01*
X120548819Y-91103939D01*
X120692434Y-90998737D01*
X120828236Y-90845207D01*
X120929638Y-90676155D01*
X120958480Y-90598433D01*
X120984794Y-90459602D01*
X121000485Y-90291823D01*
X121002391Y-90222541D01*
X121002623Y-90003934D01*
X119744415Y-90003934D01*
X119771234Y-89889426D01*
X119837066Y-89753996D01*
X119952161Y-89636954D01*
X120089087Y-89561558D01*
X120176342Y-89545902D01*
X120294672Y-89564901D01*
X120435851Y-89612554D01*
X120483811Y-89634479D01*
X120661171Y-89723056D01*
X120812530Y-89607609D01*
X120899869Y-89529526D01*
X120946342Y-89465078D01*
X120948695Y-89446163D01*
X120907178Y-89400319D01*
X120816190Y-89330651D01*
X120733605Y-89276300D01*
X120510751Y-89178595D01*
X120260913Y-89134372D01*
X120013290Y-89145870D01*
X119815902Y-89205971D01*
X119612424Y-89334716D01*
X119467821Y-89504226D01*
X119377361Y-89723538D01*
X119336311Y-90001691D01*
X119332671Y-90128966D01*
X119347239Y-90420625D01*
X119349028Y-90429109D01*
X119765941Y-90429109D01*
X119777423Y-90401758D01*
X119824616Y-90386676D01*
X119921951Y-90380212D01*
X120083864Y-90378715D01*
X120146210Y-90378688D01*
X120335897Y-90380948D01*
X120456189Y-90389156D01*
X120520884Y-90405450D01*
X120543780Y-90431973D01*
X120544590Y-90440490D01*
X120518460Y-90508175D01*
X120453063Y-90602995D01*
X120424948Y-90636195D01*
X120320574Y-90730094D01*
X120211775Y-90767012D01*
X120153157Y-90770098D01*
X119994574Y-90731507D01*
X119861587Y-90627845D01*
X119777228Y-90477283D01*
X119775733Y-90472377D01*
X119765941Y-90429109D01*
X119349028Y-90429109D01*
X119395684Y-90650278D01*
X119482955Y-90834017D01*
X119589689Y-90964443D01*
X119787020Y-91105869D01*
X120018985Y-91181444D01*
X120265712Y-91188276D01*
X120507325Y-91123474D01*
G37*
X120507325Y-91123474D02*
X120548819Y-91103939D01*
X120692434Y-90998737D01*
X120828236Y-90845207D01*
X120929638Y-90676155D01*
X120958480Y-90598433D01*
X120984794Y-90459602D01*
X121000485Y-90291823D01*
X121002391Y-90222541D01*
X121002623Y-90003934D01*
X119744415Y-90003934D01*
X119771234Y-89889426D01*
X119837066Y-89753996D01*
X119952161Y-89636954D01*
X120089087Y-89561558D01*
X120176342Y-89545902D01*
X120294672Y-89564901D01*
X120435851Y-89612554D01*
X120483811Y-89634479D01*
X120661171Y-89723056D01*
X120812530Y-89607609D01*
X120899869Y-89529526D01*
X120946342Y-89465078D01*
X120948695Y-89446163D01*
X120907178Y-89400319D01*
X120816190Y-89330651D01*
X120733605Y-89276300D01*
X120510751Y-89178595D01*
X120260913Y-89134372D01*
X120013290Y-89145870D01*
X119815902Y-89205971D01*
X119612424Y-89334716D01*
X119467821Y-89504226D01*
X119377361Y-89723538D01*
X119336311Y-90001691D01*
X119332671Y-90128966D01*
X119347239Y-90420625D01*
X119349028Y-90429109D01*
X119765941Y-90429109D01*
X119777423Y-90401758D01*
X119824616Y-90386676D01*
X119921951Y-90380212D01*
X120083864Y-90378715D01*
X120146210Y-90378688D01*
X120335897Y-90380948D01*
X120456189Y-90389156D01*
X120520884Y-90405450D01*
X120543780Y-90431973D01*
X120544590Y-90440490D01*
X120518460Y-90508175D01*
X120453063Y-90602995D01*
X120424948Y-90636195D01*
X120320574Y-90730094D01*
X120211775Y-90767012D01*
X120153157Y-90770098D01*
X119994574Y-90731507D01*
X119861587Y-90627845D01*
X119777228Y-90477283D01*
X119775733Y-90472377D01*
X119765941Y-90429109D01*
X119349028Y-90429109D01*
X119395684Y-90650278D01*
X119482955Y-90834017D01*
X119589689Y-90964443D01*
X119787020Y-91105869D01*
X120018985Y-91181444D01*
X120265712Y-91188276D01*
X120507325Y-91123474D01*
G36*
X116594610Y-91148198D02*
G01*
X116812447Y-91051892D01*
X116977816Y-90891081D01*
X117090957Y-90665518D01*
X117152112Y-90374958D01*
X117156495Y-90329592D01*
X117159930Y-90009744D01*
X117115398Y-89729386D01*
X117025609Y-89502153D01*
X116977529Y-89429059D01*
X116810055Y-89274357D01*
X116596768Y-89174162D01*
X116358154Y-89132582D01*
X116114697Y-89153728D01*
X115929630Y-89218855D01*
X115770479Y-89328607D01*
X115640404Y-89472504D01*
X115638154Y-89475870D01*
X115585330Y-89564686D01*
X115551001Y-89653995D01*
X115530212Y-89766706D01*
X115518009Y-89925727D01*
X115512633Y-90056132D01*
X115510395Y-90174389D01*
X115926706Y-90174389D01*
X115930775Y-90056665D01*
X115945545Y-89899951D01*
X115971602Y-89799379D01*
X116018593Y-89727827D01*
X116062603Y-89686029D01*
X116218623Y-89598516D01*
X116381869Y-89586821D01*
X116533904Y-89649788D01*
X116609920Y-89720347D01*
X116664697Y-89791450D01*
X116696737Y-89859488D01*
X116710800Y-89948033D01*
X116711642Y-90080661D01*
X116707309Y-90202805D01*
X116697989Y-90377290D01*
X116683212Y-90490462D01*
X116656580Y-90564279D01*
X116611691Y-90620702D01*
X116576120Y-90652950D01*
X116427329Y-90737660D01*
X116266813Y-90741883D01*
X116132220Y-90691708D01*
X116017400Y-90586925D01*
X115948996Y-90414802D01*
X115926706Y-90174389D01*
X115510395Y-90174389D01*
X115507724Y-90315452D01*
X115516107Y-90509390D01*
X115541228Y-90655255D01*
X115586532Y-90770359D01*
X115655464Y-90872014D01*
X115681022Y-90902198D01*
X115840825Y-91052588D01*
X116012231Y-91140434D01*
X116221849Y-91177238D01*
X116324064Y-91180246D01*
X116594610Y-91148198D01*
G37*
X116594610Y-91148198D02*
X116812447Y-91051892D01*
X116977816Y-90891081D01*
X117090957Y-90665518D01*
X117152112Y-90374958D01*
X117156495Y-90329592D01*
X117159930Y-90009744D01*
X117115398Y-89729386D01*
X117025609Y-89502153D01*
X116977529Y-89429059D01*
X116810055Y-89274357D01*
X116596768Y-89174162D01*
X116358154Y-89132582D01*
X116114697Y-89153728D01*
X115929630Y-89218855D01*
X115770479Y-89328607D01*
X115640404Y-89472504D01*
X115638154Y-89475870D01*
X115585330Y-89564686D01*
X115551001Y-89653995D01*
X115530212Y-89766706D01*
X115518009Y-89925727D01*
X115512633Y-90056132D01*
X115510395Y-90174389D01*
X115926706Y-90174389D01*
X115930775Y-90056665D01*
X115945545Y-89899951D01*
X115971602Y-89799379D01*
X116018593Y-89727827D01*
X116062603Y-89686029D01*
X116218623Y-89598516D01*
X116381869Y-89586821D01*
X116533904Y-89649788D01*
X116609920Y-89720347D01*
X116664697Y-89791450D01*
X116696737Y-89859488D01*
X116710800Y-89948033D01*
X116711642Y-90080661D01*
X116707309Y-90202805D01*
X116697989Y-90377290D01*
X116683212Y-90490462D01*
X116656580Y-90564279D01*
X116611691Y-90620702D01*
X116576120Y-90652950D01*
X116427329Y-90737660D01*
X116266813Y-90741883D01*
X116132220Y-90691708D01*
X116017400Y-90586925D01*
X115948996Y-90414802D01*
X115926706Y-90174389D01*
X115510395Y-90174389D01*
X115507724Y-90315452D01*
X115516107Y-90509390D01*
X115541228Y-90655255D01*
X115586532Y-90770359D01*
X115655464Y-90872014D01*
X115681022Y-90902198D01*
X115840825Y-91052588D01*
X116012231Y-91140434D01*
X116221849Y-91177238D01*
X116324064Y-91180246D01*
X116594610Y-91148198D01*
G36*
X131730842Y-88036001D02*
G01*
X131929876Y-87984254D01*
X132096561Y-87877456D01*
X132177269Y-87797674D01*
X132309568Y-87609069D01*
X132385390Y-87390280D01*
X132411438Y-87121332D01*
X132411571Y-87099590D01*
X132411803Y-86880983D01*
X131153595Y-86880983D01*
X131180415Y-86766475D01*
X131228841Y-86662768D01*
X131313596Y-86554710D01*
X131331323Y-86537459D01*
X131483680Y-86444096D01*
X131657424Y-86428262D01*
X131857411Y-86489687D01*
X131891311Y-86506229D01*
X131995288Y-86556516D01*
X132064931Y-86585166D01*
X132077083Y-86587816D01*
X132119501Y-86562087D01*
X132200399Y-86499139D01*
X132241465Y-86464741D01*
X132326560Y-86385724D01*
X132354503Y-86333549D01*
X132335110Y-86285554D01*
X132324743Y-86272430D01*
X132254531Y-86214992D01*
X132138674Y-86145187D01*
X132057869Y-86104436D01*
X131828501Y-86032638D01*
X131574564Y-86009375D01*
X131334074Y-86036941D01*
X131266721Y-86056679D01*
X131058262Y-86168388D01*
X130903746Y-86340279D01*
X130802278Y-86574021D01*
X130752965Y-86871284D01*
X130747551Y-87026721D01*
X130763359Y-87253027D01*
X131162623Y-87253027D01*
X131201240Y-87236298D01*
X131305042Y-87223171D01*
X131455956Y-87215425D01*
X131558197Y-87214098D01*
X131742101Y-87215377D01*
X131858174Y-87221362D01*
X131921852Y-87235276D01*
X131948567Y-87260345D01*
X131953770Y-87296720D01*
X131918073Y-87408771D01*
X131828196Y-87519512D01*
X131709966Y-87604511D01*
X131591690Y-87639282D01*
X131431044Y-87608437D01*
X131291978Y-87519268D01*
X131195557Y-87390737D01*
X131162623Y-87253027D01*
X130763359Y-87253027D01*
X130770572Y-87356267D01*
X130841624Y-87618825D01*
X130962210Y-87816475D01*
X131133834Y-87951298D01*
X131357998Y-88025374D01*
X131479438Y-88039640D01*
X131730842Y-88036001D01*
G37*
X131730842Y-88036001D02*
X131929876Y-87984254D01*
X132096561Y-87877456D01*
X132177269Y-87797674D01*
X132309568Y-87609069D01*
X132385390Y-87390280D01*
X132411438Y-87121332D01*
X132411571Y-87099590D01*
X132411803Y-86880983D01*
X131153595Y-86880983D01*
X131180415Y-86766475D01*
X131228841Y-86662768D01*
X131313596Y-86554710D01*
X131331323Y-86537459D01*
X131483680Y-86444096D01*
X131657424Y-86428262D01*
X131857411Y-86489687D01*
X131891311Y-86506229D01*
X131995288Y-86556516D01*
X132064931Y-86585166D01*
X132077083Y-86587816D01*
X132119501Y-86562087D01*
X132200399Y-86499139D01*
X132241465Y-86464741D01*
X132326560Y-86385724D01*
X132354503Y-86333549D01*
X132335110Y-86285554D01*
X132324743Y-86272430D01*
X132254531Y-86214992D01*
X132138674Y-86145187D01*
X132057869Y-86104436D01*
X131828501Y-86032638D01*
X131574564Y-86009375D01*
X131334074Y-86036941D01*
X131266721Y-86056679D01*
X131058262Y-86168388D01*
X130903746Y-86340279D01*
X130802278Y-86574021D01*
X130752965Y-86871284D01*
X130747551Y-87026721D01*
X130763359Y-87253027D01*
X131162623Y-87253027D01*
X131201240Y-87236298D01*
X131305042Y-87223171D01*
X131455956Y-87215425D01*
X131558197Y-87214098D01*
X131742101Y-87215377D01*
X131858174Y-87221362D01*
X131921852Y-87235276D01*
X131948567Y-87260345D01*
X131953770Y-87296720D01*
X131918073Y-87408771D01*
X131828196Y-87519512D01*
X131709966Y-87604511D01*
X131591690Y-87639282D01*
X131431044Y-87608437D01*
X131291978Y-87519268D01*
X131195557Y-87390737D01*
X131162623Y-87253027D01*
X130763359Y-87253027D01*
X130770572Y-87356267D01*
X130841624Y-87618825D01*
X130962210Y-87816475D01*
X131133834Y-87951298D01*
X131357998Y-88025374D01*
X131479438Y-88039640D01*
X131730842Y-88036001D01*
G36*
X130415107Y-88047540D02*
G01*
X130575182Y-88015983D01*
X130666312Y-87969257D01*
X130762179Y-87891630D01*
X130625787Y-87719421D01*
X130541694Y-87615133D01*
X130484592Y-87564254D01*
X130427844Y-87556481D01*
X130344811Y-87581512D01*
X130305833Y-87595673D01*
X130146926Y-87616567D01*
X130001399Y-87571780D01*
X129894560Y-87470601D01*
X129877205Y-87438341D01*
X129858303Y-87352885D01*
X129843716Y-87195394D01*
X129834126Y-86977031D01*
X129830219Y-86708962D01*
X129830164Y-86670828D01*
X129830164Y-86006557D01*
X129372131Y-86006557D01*
X129372131Y-88046885D01*
X129601148Y-88046885D01*
X129733199Y-88043437D01*
X129801992Y-88028093D01*
X129827430Y-87993352D01*
X129830164Y-87960584D01*
X129830164Y-87874283D01*
X129939878Y-87960584D01*
X130065680Y-88019462D01*
X130234681Y-88048574D01*
X130415107Y-88047540D01*
G37*
X130415107Y-88047540D02*
X130575182Y-88015983D01*
X130666312Y-87969257D01*
X130762179Y-87891630D01*
X130625787Y-87719421D01*
X130541694Y-87615133D01*
X130484592Y-87564254D01*
X130427844Y-87556481D01*
X130344811Y-87581512D01*
X130305833Y-87595673D01*
X130146926Y-87616567D01*
X130001399Y-87571780D01*
X129894560Y-87470601D01*
X129877205Y-87438341D01*
X129858303Y-87352885D01*
X129843716Y-87195394D01*
X129834126Y-86977031D01*
X129830219Y-86708962D01*
X129830164Y-86670828D01*
X129830164Y-86006557D01*
X129372131Y-86006557D01*
X129372131Y-88046885D01*
X129601148Y-88046885D01*
X129733199Y-88043437D01*
X129801992Y-88028093D01*
X129827430Y-87993352D01*
X129830164Y-87960584D01*
X129830164Y-87874283D01*
X129939878Y-87960584D01*
X130065680Y-88019462D01*
X130234681Y-88048574D01*
X130415107Y-88047540D01*
G36*
X128438670Y-88034520D02*
G01*
X128614179Y-87991891D01*
X128664912Y-87969307D01*
X128763254Y-87910153D01*
X128838727Y-87843528D01*
X128894571Y-87757865D01*
X128934026Y-87641595D01*
X128960332Y-87483152D01*
X128976729Y-87270966D01*
X128986457Y-86993471D01*
X128990151Y-86808115D01*
X129003745Y-86006557D01*
X128771544Y-86006557D01*
X128630677Y-86012464D01*
X128558102Y-86032650D01*
X128539344Y-86066547D01*
X128529441Y-86103201D01*
X128485166Y-86096193D01*
X128424836Y-86066803D01*
X128273803Y-86021754D01*
X128079693Y-86009615D01*
X127875531Y-86029471D01*
X127694340Y-86080408D01*
X127678089Y-86087478D01*
X127512491Y-86203812D01*
X127403324Y-86365533D01*
X127353091Y-86554570D01*
X127356928Y-86622485D01*
X127766763Y-86622485D01*
X127802875Y-86531086D01*
X127909942Y-86465589D01*
X128082684Y-86430437D01*
X128175000Y-86425769D01*
X128328850Y-86437718D01*
X128431115Y-86484156D01*
X128456066Y-86506229D01*
X128523661Y-86626319D01*
X128539344Y-86735246D01*
X128539344Y-86880983D01*
X128336352Y-86880983D01*
X128100387Y-86868957D01*
X127934881Y-86831129D01*
X127830305Y-86764879D01*
X127806891Y-86735344D01*
X127766763Y-86622485D01*
X127356928Y-86622485D01*
X127364295Y-86752852D01*
X127439440Y-86942308D01*
X127541968Y-87070344D01*
X127604065Y-87125698D01*
X127664855Y-87162076D01*
X127743952Y-87184256D01*
X127860971Y-87197018D01*
X128035527Y-87205143D01*
X128104763Y-87207479D01*
X128539344Y-87221679D01*
X128538707Y-87353216D01*
X128521876Y-87491481D01*
X128461026Y-87575083D01*
X128338095Y-87628493D01*
X128334797Y-87629445D01*
X128160504Y-87650445D01*
X127989952Y-87623015D01*
X127863200Y-87556311D01*
X127812342Y-87523375D01*
X127757565Y-87527932D01*
X127673272Y-87575651D01*
X127623773Y-87609329D01*
X127526955Y-87681284D01*
X127466982Y-87735221D01*
X127457359Y-87750663D01*
X127496985Y-87830576D01*
X127614064Y-87926011D01*
X127664918Y-87958211D01*
X127811113Y-88013668D01*
X128008137Y-88045087D01*
X128226989Y-88052145D01*
X128438670Y-88034520D01*
G37*
X128438670Y-88034520D02*
X128614179Y-87991891D01*
X128664912Y-87969307D01*
X128763254Y-87910153D01*
X128838727Y-87843528D01*
X128894571Y-87757865D01*
X128934026Y-87641595D01*
X128960332Y-87483152D01*
X128976729Y-87270966D01*
X128986457Y-86993471D01*
X128990151Y-86808115D01*
X129003745Y-86006557D01*
X128771544Y-86006557D01*
X128630677Y-86012464D01*
X128558102Y-86032650D01*
X128539344Y-86066547D01*
X128529441Y-86103201D01*
X128485166Y-86096193D01*
X128424836Y-86066803D01*
X128273803Y-86021754D01*
X128079693Y-86009615D01*
X127875531Y-86029471D01*
X127694340Y-86080408D01*
X127678089Y-86087478D01*
X127512491Y-86203812D01*
X127403324Y-86365533D01*
X127353091Y-86554570D01*
X127356928Y-86622485D01*
X127766763Y-86622485D01*
X127802875Y-86531086D01*
X127909942Y-86465589D01*
X128082684Y-86430437D01*
X128175000Y-86425769D01*
X128328850Y-86437718D01*
X128431115Y-86484156D01*
X128456066Y-86506229D01*
X128523661Y-86626319D01*
X128539344Y-86735246D01*
X128539344Y-86880983D01*
X128336352Y-86880983D01*
X128100387Y-86868957D01*
X127934881Y-86831129D01*
X127830305Y-86764879D01*
X127806891Y-86735344D01*
X127766763Y-86622485D01*
X127356928Y-86622485D01*
X127364295Y-86752852D01*
X127439440Y-86942308D01*
X127541968Y-87070344D01*
X127604065Y-87125698D01*
X127664855Y-87162076D01*
X127743952Y-87184256D01*
X127860971Y-87197018D01*
X128035527Y-87205143D01*
X128104763Y-87207479D01*
X128539344Y-87221679D01*
X128538707Y-87353216D01*
X128521876Y-87491481D01*
X128461026Y-87575083D01*
X128338095Y-87628493D01*
X128334797Y-87629445D01*
X128160504Y-87650445D01*
X127989952Y-87623015D01*
X127863200Y-87556311D01*
X127812342Y-87523375D01*
X127757565Y-87527932D01*
X127673272Y-87575651D01*
X127623773Y-87609329D01*
X127526955Y-87681284D01*
X127466982Y-87735221D01*
X127457359Y-87750663D01*
X127496985Y-87830576D01*
X127614064Y-87926011D01*
X127664918Y-87958211D01*
X127811113Y-88013668D01*
X128008137Y-88045087D01*
X128226989Y-88052145D01*
X128438670Y-88034520D01*
G36*
X126096942Y-88026065D02*
G01*
X126312248Y-87380656D01*
X126527555Y-86735246D01*
X126595064Y-86964262D01*
X126635691Y-87105796D01*
X126689133Y-87297064D01*
X126746842Y-87507307D01*
X126777355Y-87620082D01*
X126892136Y-88046885D01*
X127365687Y-88046885D01*
X127224139Y-87599262D01*
X127154433Y-87379097D01*
X127070223Y-87113529D01*
X126982281Y-86836508D01*
X126903772Y-86589508D01*
X126724952Y-86027377D01*
X126531882Y-86014815D01*
X126338811Y-86002254D01*
X126234118Y-86347930D01*
X126169553Y-86562665D01*
X126099092Y-86799396D01*
X126037511Y-87008474D01*
X126035081Y-87016795D01*
X125989085Y-87158463D01*
X125948503Y-87255126D01*
X125920080Y-87291679D01*
X125914239Y-87287451D01*
X125893738Y-87230783D01*
X125854785Y-87109395D01*
X125802122Y-86938552D01*
X125740491Y-86733518D01*
X125707143Y-86620738D01*
X125526546Y-86006557D01*
X125143267Y-86006557D01*
X124836867Y-86974672D01*
X124750791Y-87246241D01*
X124672380Y-87492862D01*
X124605339Y-87702952D01*
X124553369Y-87864924D01*
X124520174Y-87967192D01*
X124510084Y-87997072D01*
X124518072Y-88027666D01*
X124580792Y-88041065D01*
X124711315Y-88039725D01*
X124731747Y-88038712D01*
X124973792Y-88026065D01*
X125132317Y-87443115D01*
X125190585Y-87230514D01*
X125242655Y-87043623D01*
X125283944Y-86898669D01*
X125309866Y-86811880D01*
X125314656Y-86797731D01*
X125334504Y-86814002D01*
X125374530Y-86898303D01*
X125430138Y-87039158D01*
X125496731Y-87225089D01*
X125553024Y-87393044D01*
X125767578Y-88050791D01*
X126096942Y-88026065D01*
G37*
X126096942Y-88026065D02*
X126312248Y-87380656D01*
X126527555Y-86735246D01*
X126595064Y-86964262D01*
X126635691Y-87105796D01*
X126689133Y-87297064D01*
X126746842Y-87507307D01*
X126777355Y-87620082D01*
X126892136Y-88046885D01*
X127365687Y-88046885D01*
X127224139Y-87599262D01*
X127154433Y-87379097D01*
X127070223Y-87113529D01*
X126982281Y-86836508D01*
X126903772Y-86589508D01*
X126724952Y-86027377D01*
X126531882Y-86014815D01*
X126338811Y-86002254D01*
X126234118Y-86347930D01*
X126169553Y-86562665D01*
X126099092Y-86799396D01*
X126037511Y-87008474D01*
X126035081Y-87016795D01*
X125989085Y-87158463D01*
X125948503Y-87255126D01*
X125920080Y-87291679D01*
X125914239Y-87287451D01*
X125893738Y-87230783D01*
X125854785Y-87109395D01*
X125802122Y-86938552D01*
X125740491Y-86733518D01*
X125707143Y-86620738D01*
X125526546Y-86006557D01*
X125143267Y-86006557D01*
X124836867Y-86974672D01*
X124750791Y-87246241D01*
X124672380Y-87492862D01*
X124605339Y-87702952D01*
X124553369Y-87864924D01*
X124520174Y-87967192D01*
X124510084Y-87997072D01*
X124518072Y-88027666D01*
X124580792Y-88041065D01*
X124711315Y-88039725D01*
X124731747Y-88038712D01*
X124973792Y-88026065D01*
X125132317Y-87443115D01*
X125190585Y-87230514D01*
X125242655Y-87043623D01*
X125283944Y-86898669D01*
X125309866Y-86811880D01*
X125314656Y-86797731D01*
X125334504Y-86814002D01*
X125374530Y-86898303D01*
X125430138Y-87039158D01*
X125496731Y-87225089D01*
X125553024Y-87393044D01*
X125767578Y-88050791D01*
X126096942Y-88026065D01*
G36*
X124333770Y-86006557D02*
G01*
X124104754Y-86006557D01*
X123971825Y-86010454D01*
X123902595Y-86026593D01*
X123877668Y-86061646D01*
X123875738Y-86085347D01*
X123871534Y-86132877D01*
X123845026Y-86141992D01*
X123775367Y-86112692D01*
X123721196Y-86085347D01*
X123513223Y-86020549D01*
X123287147Y-86016799D01*
X123103345Y-86065127D01*
X122932187Y-86181882D01*
X122801716Y-86354219D01*
X122730273Y-86557494D01*
X122728454Y-86568859D01*
X122717839Y-86692864D01*
X122712560Y-86870883D01*
X122712984Y-87005520D01*
X123167828Y-87005520D01*
X123178365Y-86826572D01*
X123202334Y-86679076D01*
X123234783Y-86595783D01*
X123357544Y-86481959D01*
X123503299Y-86441155D01*
X123653607Y-86474152D01*
X123782049Y-86572578D01*
X123830692Y-86638776D01*
X123859134Y-86717769D01*
X123872456Y-86833074D01*
X123875738Y-87006264D01*
X123869865Y-87177771D01*
X123854353Y-87328460D01*
X123832362Y-87429302D01*
X123828697Y-87438341D01*
X123740012Y-87545805D01*
X123610572Y-87604805D01*
X123465743Y-87614331D01*
X123330891Y-87573374D01*
X123231383Y-87480924D01*
X123221060Y-87462527D01*
X123188750Y-87350354D01*
X123171148Y-87189066D01*
X123167828Y-87005520D01*
X122712984Y-87005520D01*
X122713200Y-87073788D01*
X122716194Y-87182990D01*
X122736558Y-87453144D01*
X122778883Y-87655976D01*
X122849294Y-87805923D01*
X122953912Y-87917421D01*
X123055479Y-87982873D01*
X123197384Y-88028883D01*
X123373879Y-88044664D01*
X123554607Y-88031810D01*
X123709213Y-87991919D01*
X123790899Y-87944199D01*
X123875738Y-87867421D01*
X123875738Y-88838033D01*
X124333770Y-88838033D01*
X124333770Y-86006557D01*
G37*
X124333770Y-86006557D02*
X124104754Y-86006557D01*
X123971825Y-86010454D01*
X123902595Y-86026593D01*
X123877668Y-86061646D01*
X123875738Y-86085347D01*
X123871534Y-86132877D01*
X123845026Y-86141992D01*
X123775367Y-86112692D01*
X123721196Y-86085347D01*
X123513223Y-86020549D01*
X123287147Y-86016799D01*
X123103345Y-86065127D01*
X122932187Y-86181882D01*
X122801716Y-86354219D01*
X122730273Y-86557494D01*
X122728454Y-86568859D01*
X122717839Y-86692864D01*
X122712560Y-86870883D01*
X122712984Y-87005520D01*
X123167828Y-87005520D01*
X123178365Y-86826572D01*
X123202334Y-86679076D01*
X123234783Y-86595783D01*
X123357544Y-86481959D01*
X123503299Y-86441155D01*
X123653607Y-86474152D01*
X123782049Y-86572578D01*
X123830692Y-86638776D01*
X123859134Y-86717769D01*
X123872456Y-86833074D01*
X123875738Y-87006264D01*
X123869865Y-87177771D01*
X123854353Y-87328460D01*
X123832362Y-87429302D01*
X123828697Y-87438341D01*
X123740012Y-87545805D01*
X123610572Y-87604805D01*
X123465743Y-87614331D01*
X123330891Y-87573374D01*
X123231383Y-87480924D01*
X123221060Y-87462527D01*
X123188750Y-87350354D01*
X123171148Y-87189066D01*
X123167828Y-87005520D01*
X122712984Y-87005520D01*
X122713200Y-87073788D01*
X122716194Y-87182990D01*
X122736558Y-87453144D01*
X122778883Y-87655976D01*
X122849294Y-87805923D01*
X122953912Y-87917421D01*
X123055479Y-87982873D01*
X123197384Y-88028883D01*
X123373879Y-88044664D01*
X123554607Y-88031810D01*
X123709213Y-87991919D01*
X123790899Y-87944199D01*
X123875738Y-87867421D01*
X123875738Y-88838033D01*
X124333770Y-88838033D01*
X124333770Y-86006557D01*
G36*
X121710525Y-88042460D02*
G01*
X121772837Y-88023782D01*
X121792925Y-87982745D01*
X121793770Y-87964218D01*
X121797375Y-87912617D01*
X121822200Y-87904516D01*
X121889263Y-87939892D01*
X121929098Y-87964063D01*
X122054773Y-88015825D01*
X122204877Y-88041419D01*
X122362263Y-88043387D01*
X122509786Y-88024271D01*
X122630300Y-87986613D01*
X122706660Y-87932956D01*
X122721719Y-87865842D01*
X122714119Y-87847667D01*
X122658718Y-87772223D01*
X122572810Y-87679432D01*
X122557272Y-87664432D01*
X122475388Y-87595460D01*
X122404737Y-87573175D01*
X122305932Y-87588728D01*
X122266348Y-87599062D01*
X122143172Y-87623884D01*
X122056564Y-87612722D01*
X121983424Y-87573354D01*
X121916426Y-87520521D01*
X121867082Y-87454076D01*
X121832791Y-87361348D01*
X121810952Y-87229666D01*
X121798966Y-87046359D01*
X121794231Y-86798754D01*
X121793770Y-86649256D01*
X121793770Y-86006557D01*
X121377377Y-86006557D01*
X121377377Y-88046885D01*
X121585574Y-88046885D01*
X121710525Y-88042460D01*
G37*
X121710525Y-88042460D02*
X121772837Y-88023782D01*
X121792925Y-87982745D01*
X121793770Y-87964218D01*
X121797375Y-87912617D01*
X121822200Y-87904516D01*
X121889263Y-87939892D01*
X121929098Y-87964063D01*
X122054773Y-88015825D01*
X122204877Y-88041419D01*
X122362263Y-88043387D01*
X122509786Y-88024271D01*
X122630300Y-87986613D01*
X122706660Y-87932956D01*
X122721719Y-87865842D01*
X122714119Y-87847667D01*
X122658718Y-87772223D01*
X122572810Y-87679432D01*
X122557272Y-87664432D01*
X122475388Y-87595460D01*
X122404737Y-87573175D01*
X122305932Y-87588728D01*
X122266348Y-87599062D01*
X122143172Y-87623884D01*
X122056564Y-87612722D01*
X121983424Y-87573354D01*
X121916426Y-87520521D01*
X121867082Y-87454076D01*
X121832791Y-87361348D01*
X121810952Y-87229666D01*
X121798966Y-87046359D01*
X121794231Y-86798754D01*
X121793770Y-86649256D01*
X121793770Y-86006557D01*
X121377377Y-86006557D01*
X121377377Y-88046885D01*
X121585574Y-88046885D01*
X121710525Y-88042460D01*
G36*
X120416221Y-88030753D02*
G01*
X120612111Y-87978486D01*
X120761233Y-87883747D01*
X120866465Y-87759662D01*
X120899179Y-87706704D01*
X120923331Y-87651232D01*
X120940216Y-87580270D01*
X120951127Y-87480846D01*
X120957360Y-87339984D01*
X120960209Y-87144711D01*
X120960968Y-86882052D01*
X120960984Y-86812367D01*
X120960984Y-86006557D01*
X120761115Y-86006557D01*
X120633630Y-86015485D01*
X120539366Y-86038104D01*
X120515749Y-86052054D01*
X120451185Y-86076130D01*
X120385241Y-86052054D01*
X120276668Y-86021997D01*
X120118958Y-86009900D01*
X119944156Y-86015149D01*
X119784307Y-86037131D01*
X119690984Y-86065337D01*
X119510391Y-86181269D01*
X119397530Y-86342153D01*
X119346791Y-86556064D01*
X119346320Y-86561557D01*
X119350773Y-86656453D01*
X119753443Y-86656453D01*
X119788646Y-86548516D01*
X119845986Y-86487771D01*
X119961087Y-86441828D01*
X120113014Y-86423488D01*
X120267939Y-86432515D01*
X120392036Y-86468668D01*
X120426803Y-86491863D01*
X120487556Y-86599040D01*
X120502951Y-86720880D01*
X120502951Y-86880983D01*
X120272597Y-86880983D01*
X120053759Y-86864137D01*
X119887863Y-86816407D01*
X119784662Y-86742014D01*
X119753443Y-86656453D01*
X119350773Y-86656453D01*
X119357287Y-86795269D01*
X119434369Y-86980054D01*
X119579286Y-87119794D01*
X119599317Y-87132505D01*
X119685390Y-87173895D01*
X119791927Y-87198959D01*
X119940859Y-87211142D01*
X120117787Y-87213943D01*
X120502951Y-87214098D01*
X120502951Y-87375557D01*
X120486613Y-87500832D01*
X120444922Y-87584759D01*
X120440041Y-87589227D01*
X120347264Y-87625941D01*
X120207216Y-87640172D01*
X120052445Y-87633179D01*
X119915501Y-87606220D01*
X119834241Y-87565788D01*
X119790210Y-87533399D01*
X119743715Y-87527216D01*
X119679549Y-87553752D01*
X119582505Y-87619521D01*
X119437374Y-87731037D01*
X119424053Y-87741484D01*
X119430879Y-87780138D01*
X119487822Y-87844428D01*
X119574370Y-87915869D01*
X119670008Y-87975979D01*
X119700056Y-87990173D01*
X119809659Y-88018497D01*
X119970265Y-88038700D01*
X120149698Y-88046804D01*
X120158089Y-88046820D01*
X120416221Y-88030753D01*
G37*
X120416221Y-88030753D02*
X120612111Y-87978486D01*
X120761233Y-87883747D01*
X120866465Y-87759662D01*
X120899179Y-87706704D01*
X120923331Y-87651232D01*
X120940216Y-87580270D01*
X120951127Y-87480846D01*
X120957360Y-87339984D01*
X120960209Y-87144711D01*
X120960968Y-86882052D01*
X120960984Y-86812367D01*
X120960984Y-86006557D01*
X120761115Y-86006557D01*
X120633630Y-86015485D01*
X120539366Y-86038104D01*
X120515749Y-86052054D01*
X120451185Y-86076130D01*
X120385241Y-86052054D01*
X120276668Y-86021997D01*
X120118958Y-86009900D01*
X119944156Y-86015149D01*
X119784307Y-86037131D01*
X119690984Y-86065337D01*
X119510391Y-86181269D01*
X119397530Y-86342153D01*
X119346791Y-86556064D01*
X119346320Y-86561557D01*
X119350773Y-86656453D01*
X119753443Y-86656453D01*
X119788646Y-86548516D01*
X119845986Y-86487771D01*
X119961087Y-86441828D01*
X120113014Y-86423488D01*
X120267939Y-86432515D01*
X120392036Y-86468668D01*
X120426803Y-86491863D01*
X120487556Y-86599040D01*
X120502951Y-86720880D01*
X120502951Y-86880983D01*
X120272597Y-86880983D01*
X120053759Y-86864137D01*
X119887863Y-86816407D01*
X119784662Y-86742014D01*
X119753443Y-86656453D01*
X119350773Y-86656453D01*
X119357287Y-86795269D01*
X119434369Y-86980054D01*
X119579286Y-87119794D01*
X119599317Y-87132505D01*
X119685390Y-87173895D01*
X119791927Y-87198959D01*
X119940859Y-87211142D01*
X120117787Y-87213943D01*
X120502951Y-87214098D01*
X120502951Y-87375557D01*
X120486613Y-87500832D01*
X120444922Y-87584759D01*
X120440041Y-87589227D01*
X120347264Y-87625941D01*
X120207216Y-87640172D01*
X120052445Y-87633179D01*
X119915501Y-87606220D01*
X119834241Y-87565788D01*
X119790210Y-87533399D01*
X119743715Y-87527216D01*
X119679549Y-87553752D01*
X119582505Y-87619521D01*
X119437374Y-87731037D01*
X119424053Y-87741484D01*
X119430879Y-87780138D01*
X119487822Y-87844428D01*
X119574370Y-87915869D01*
X119670008Y-87975979D01*
X119700056Y-87990173D01*
X119809659Y-88018497D01*
X119970265Y-88038700D01*
X120149698Y-88046804D01*
X120158089Y-88046820D01*
X120416221Y-88030753D01*
G36*
X118679192Y-91134834D02*
G01*
X118766985Y-91091460D01*
X118875249Y-91015878D01*
X118954155Y-90933458D01*
X119008195Y-90829963D01*
X119041859Y-90691157D01*
X119059637Y-90502806D01*
X119066020Y-90250672D01*
X119066393Y-90142276D01*
X119065304Y-89904713D01*
X119060778Y-89734932D01*
X119050932Y-89617450D01*
X119033882Y-89536785D01*
X119007741Y-89477455D01*
X118980542Y-89436980D01*
X118806920Y-89264775D01*
X118602462Y-89161194D01*
X118381896Y-89130040D01*
X118159954Y-89175115D01*
X118089640Y-89206991D01*
X117921311Y-89294729D01*
X117921311Y-87919828D01*
X118044162Y-87983357D01*
X118206033Y-88032509D01*
X118404995Y-88045100D01*
X118603672Y-88021853D01*
X118753710Y-87969630D01*
X118878159Y-87870174D01*
X118984492Y-87727857D01*
X118992487Y-87713245D01*
X119026207Y-87644418D01*
X119050834Y-87575044D01*
X119067786Y-87491004D01*
X119078481Y-87378184D01*
X119084338Y-87222467D01*
X119086773Y-87009735D01*
X119087213Y-86770336D01*
X119087213Y-86006557D01*
X118629180Y-86006557D01*
X118629180Y-87414892D01*
X118501067Y-87522692D01*
X118367982Y-87608921D01*
X118241952Y-87624599D01*
X118115222Y-87584253D01*
X118047683Y-87544746D01*
X117997414Y-87488473D01*
X117961662Y-87403428D01*
X117937672Y-87277606D01*
X117922689Y-87099002D01*
X117913960Y-86855609D01*
X117910886Y-86693606D01*
X117900492Y-86027377D01*
X117681885Y-86014791D01*
X117463279Y-86002205D01*
X117463279Y-90136536D01*
X117921311Y-90136536D01*
X117932989Y-89906047D01*
X117972338Y-89746050D01*
X118045834Y-89646503D01*
X118159951Y-89597361D01*
X118275246Y-89587541D01*
X118405762Y-89598825D01*
X118492383Y-89643236D01*
X118546549Y-89701919D01*
X118589190Y-89765038D01*
X118614574Y-89835355D01*
X118625869Y-89933877D01*
X118626240Y-90081613D01*
X118622440Y-90205317D01*
X118613712Y-90391672D01*
X118600720Y-90514018D01*
X118578841Y-90591623D01*
X118543454Y-90643755D01*
X118510059Y-90673889D01*
X118370525Y-90739601D01*
X118205381Y-90750213D01*
X118110554Y-90727577D01*
X118016666Y-90647119D01*
X117954474Y-90490608D01*
X117924331Y-90259148D01*
X117921311Y-90136536D01*
X117463279Y-90136536D01*
X117463279Y-91169836D01*
X117692295Y-91169836D01*
X117829794Y-91164398D01*
X117900733Y-91145091D01*
X117921303Y-91107424D01*
X117921311Y-91106308D01*
X117930855Y-91069419D01*
X117972949Y-91073607D01*
X118056639Y-91114141D01*
X118251646Y-91176150D01*
X118471046Y-91182668D01*
X118679192Y-91134834D01*
G37*
X118679192Y-91134834D02*
X118766985Y-91091460D01*
X118875249Y-91015878D01*
X118954155Y-90933458D01*
X119008195Y-90829963D01*
X119041859Y-90691157D01*
X119059637Y-90502806D01*
X119066020Y-90250672D01*
X119066393Y-90142276D01*
X119065304Y-89904713D01*
X119060778Y-89734932D01*
X119050932Y-89617450D01*
X119033882Y-89536785D01*
X119007741Y-89477455D01*
X118980542Y-89436980D01*
X118806920Y-89264775D01*
X118602462Y-89161194D01*
X118381896Y-89130040D01*
X118159954Y-89175115D01*
X118089640Y-89206991D01*
X117921311Y-89294729D01*
X117921311Y-87919828D01*
X118044162Y-87983357D01*
X118206033Y-88032509D01*
X118404995Y-88045100D01*
X118603672Y-88021853D01*
X118753710Y-87969630D01*
X118878159Y-87870174D01*
X118984492Y-87727857D01*
X118992487Y-87713245D01*
X119026207Y-87644418D01*
X119050834Y-87575044D01*
X119067786Y-87491004D01*
X119078481Y-87378184D01*
X119084338Y-87222467D01*
X119086773Y-87009735D01*
X119087213Y-86770336D01*
X119087213Y-86006557D01*
X118629180Y-86006557D01*
X118629180Y-87414892D01*
X118501067Y-87522692D01*
X118367982Y-87608921D01*
X118241952Y-87624599D01*
X118115222Y-87584253D01*
X118047683Y-87544746D01*
X117997414Y-87488473D01*
X117961662Y-87403428D01*
X117937672Y-87277606D01*
X117922689Y-87099002D01*
X117913960Y-86855609D01*
X117910886Y-86693606D01*
X117900492Y-86027377D01*
X117681885Y-86014791D01*
X117463279Y-86002205D01*
X117463279Y-90136536D01*
X117921311Y-90136536D01*
X117932989Y-89906047D01*
X117972338Y-89746050D01*
X118045834Y-89646503D01*
X118159951Y-89597361D01*
X118275246Y-89587541D01*
X118405762Y-89598825D01*
X118492383Y-89643236D01*
X118546549Y-89701919D01*
X118589190Y-89765038D01*
X118614574Y-89835355D01*
X118625869Y-89933877D01*
X118626240Y-90081613D01*
X118622440Y-90205317D01*
X118613712Y-90391672D01*
X118600720Y-90514018D01*
X118578841Y-90591623D01*
X118543454Y-90643755D01*
X118510059Y-90673889D01*
X118370525Y-90739601D01*
X118205381Y-90750213D01*
X118110554Y-90727577D01*
X118016666Y-90647119D01*
X117954474Y-90490608D01*
X117924331Y-90259148D01*
X117921311Y-90136536D01*
X117463279Y-90136536D01*
X117463279Y-91169836D01*
X117692295Y-91169836D01*
X117829794Y-91164398D01*
X117900733Y-91145091D01*
X117921303Y-91107424D01*
X117921311Y-91106308D01*
X117930855Y-91069419D01*
X117972949Y-91073607D01*
X118056639Y-91114141D01*
X118251646Y-91176150D01*
X118471046Y-91182668D01*
X118679192Y-91134834D01*
D12*
X117150000Y-82750000D02*
X117150000Y-81500000D01*
X118400000Y-82750000D02*
X117150000Y-82750000D01*
X131800000Y-77250000D02*
X125000000Y-77250000D01*
X131800000Y-80200000D02*
X131800000Y-77250000D01*
X132550000Y-80200000D02*
X131800000Y-80200000D01*
X118200000Y-77250000D02*
X125000000Y-77250000D01*
X118200000Y-80200000D02*
X118200000Y-77250000D01*
X117450000Y-80200000D02*
X118200000Y-80200000D01*
X132550000Y-82450000D02*
X130750000Y-82450000D01*
X132550000Y-81700000D02*
X132550000Y-82450000D01*
X130750000Y-81700000D02*
X132550000Y-81700000D01*
X130750000Y-82450000D02*
X130750000Y-81700000D01*
X119250000Y-82450000D02*
X117450000Y-82450000D01*
X119250000Y-81700000D02*
X119250000Y-82450000D01*
X117450000Y-81700000D02*
X119250000Y-81700000D01*
X117450000Y-82450000D02*
X117450000Y-81700000D01*
X129250000Y-82450000D02*
X120750000Y-82450000D01*
X129250000Y-81700000D02*
X129250000Y-82450000D01*
X120750000Y-81700000D02*
X129250000Y-81700000D01*
X120750000Y-82450000D02*
X120750000Y-81700000D01*
X132560000Y-82460000D02*
X117440000Y-82460000D01*
X132560000Y-76490000D02*
X132560000Y-82460000D01*
X117440000Y-76490000D02*
X132560000Y-76490000D01*
X117440000Y-82460000D02*
X117440000Y-76490000D01*
M02*
