G04 #@! TF.GenerationSoftware,KiCad,Pcbnew,(6.0.6)*
G04 #@! TF.CreationDate,2023-01-05T20:28:38+10:00*
G04 #@! TF.ProjectId,MHI ESP,4d484920-4553-4502-9e6b-696361645f70,rev?*
G04 #@! TF.SameCoordinates,Original*
G04 #@! TF.FileFunction,Copper,L1,Top*
G04 #@! TF.FilePolarity,Positive*
%FSLAX46Y46*%
G04 Gerber Fmt 4.6, Leading zero omitted, Abs format (unit mm)*
G04 Created by KiCad (PCBNEW (6.0.6)) date 2023-01-05 20:28:38*
%MOMM*%
%LPD*%
G01*
G04 APERTURE LIST*
G04 Aperture macros list*
%AMRoundRect*
0 Rectangle with rounded corners*
0 $1 Rounding radius*
0 $2 $3 $4 $5 $6 $7 $8 $9 X,Y pos of 4 corners*
0 Add a 4 corners polygon primitive as box body*
4,1,4,$2,$3,$4,$5,$6,$7,$8,$9,$2,$3,0*
0 Add four circle primitives for the rounded corners*
1,1,$1+$1,$2,$3*
1,1,$1+$1,$4,$5*
1,1,$1+$1,$6,$7*
1,1,$1+$1,$8,$9*
0 Add four rect primitives between the rounded corners*
20,1,$1+$1,$2,$3,$4,$5,0*
20,1,$1+$1,$4,$5,$6,$7,0*
20,1,$1+$1,$6,$7,$8,$9,0*
20,1,$1+$1,$8,$9,$2,$3,0*%
G04 Aperture macros list end*
G04 #@! TA.AperFunction,SMDPad,CuDef*
%ADD10R,0.900000X0.800000*%
G04 #@! TD*
G04 #@! TA.AperFunction,SMDPad,CuDef*
%ADD11RoundRect,0.243750X-0.456250X0.243750X-0.456250X-0.243750X0.456250X-0.243750X0.456250X0.243750X0*%
G04 #@! TD*
G04 #@! TA.AperFunction,ComponentPad*
%ADD12R,2.000000X2.000000*%
G04 #@! TD*
G04 #@! TA.AperFunction,ComponentPad*
%ADD13O,2.000000X1.600000*%
G04 #@! TD*
G04 #@! TA.AperFunction,SMDPad,CuDef*
%ADD14R,2.000000X1.500000*%
G04 #@! TD*
G04 #@! TA.AperFunction,SMDPad,CuDef*
%ADD15R,2.000000X3.800000*%
G04 #@! TD*
G04 #@! TA.AperFunction,SMDPad,CuDef*
%ADD16R,2.000000X6.000000*%
G04 #@! TD*
G04 #@! TA.AperFunction,SMDPad,CuDef*
%ADD17R,2.000000X3.500000*%
G04 #@! TD*
G04 #@! TA.AperFunction,ComponentPad*
%ADD18RoundRect,0.250000X-0.600000X-0.725000X0.600000X-0.725000X0.600000X0.725000X-0.600000X0.725000X0*%
G04 #@! TD*
G04 #@! TA.AperFunction,ComponentPad*
%ADD19O,1.700000X1.950000*%
G04 #@! TD*
G04 #@! TA.AperFunction,ViaPad*
%ADD20C,1.700000*%
G04 #@! TD*
G04 #@! TA.AperFunction,ViaPad*
%ADD21C,0.800000*%
G04 #@! TD*
G04 #@! TA.AperFunction,ViaPad*
%ADD22C,0.600000*%
G04 #@! TD*
G04 #@! TA.AperFunction,Conductor*
%ADD23C,1.700000*%
G04 #@! TD*
G04 #@! TA.AperFunction,Conductor*
%ADD24C,0.750000*%
G04 #@! TD*
G04 #@! TA.AperFunction,Conductor*
%ADD25C,0.500000*%
G04 #@! TD*
G04 #@! TA.AperFunction,Conductor*
%ADD26C,1.000000*%
G04 #@! TD*
G04 APERTURE END LIST*
D10*
X122000000Y-97300000D03*
X122000000Y-99200000D03*
X124000000Y-98250000D03*
X122000000Y-102300000D03*
X122000000Y-104200000D03*
X124000000Y-103250000D03*
D11*
X119500000Y-92312500D03*
X119500000Y-94187500D03*
X119500000Y-102312500D03*
X119500000Y-104187500D03*
X126500000Y-92312500D03*
X126500000Y-94187500D03*
D12*
X113500000Y-92500000D03*
D13*
X113500000Y-95040000D03*
X113500000Y-97580000D03*
X113500000Y-100120000D03*
X113500000Y-102660000D03*
X113500000Y-105200000D03*
X113500000Y-107740000D03*
X113500000Y-110280000D03*
X136360000Y-110280000D03*
X136360000Y-107740000D03*
X136360000Y-105200000D03*
X136360000Y-102660000D03*
X136360000Y-100120000D03*
X136360000Y-97580000D03*
X136360000Y-95040000D03*
X136360000Y-92500000D03*
D14*
X123150000Y-89800000D03*
D15*
X116850000Y-87500000D03*
D14*
X123150000Y-87500000D03*
X123150000Y-85200000D03*
D11*
X126500000Y-87562500D03*
X126500000Y-89437500D03*
D10*
X122000000Y-92300000D03*
X122000000Y-94200000D03*
X124000000Y-93250000D03*
D11*
X126500000Y-97312500D03*
X126500000Y-99187500D03*
X119500000Y-97312500D03*
X119500000Y-99187500D03*
X126500000Y-102312500D03*
X126500000Y-104187500D03*
D10*
X122000000Y-107300000D03*
X122000000Y-109200000D03*
X124000000Y-108250000D03*
X122000000Y-112300000D03*
X122000000Y-114200000D03*
X124000000Y-113250000D03*
D11*
X119500000Y-107312500D03*
X119500000Y-109187500D03*
X119500000Y-112312500D03*
X119500000Y-114187500D03*
X126500000Y-107312500D03*
X126500000Y-109187500D03*
X126500000Y-112312500D03*
X126500000Y-114187500D03*
D16*
X115000000Y-122875000D03*
D17*
X115000000Y-131225000D03*
D16*
X135000000Y-122875000D03*
D17*
X135000000Y-131225000D03*
D18*
X120000000Y-80000000D03*
D19*
X122500000Y-80000000D03*
X125000000Y-80000000D03*
X127500000Y-80000000D03*
X130000000Y-80000000D03*
D20*
X130000000Y-76500000D03*
D21*
X116500000Y-80000000D03*
D22*
X126500000Y-102250000D03*
X126500000Y-112250000D03*
X126500000Y-107250000D03*
X126500000Y-92250000D03*
X126500000Y-97250000D03*
D21*
X126500000Y-87500000D03*
D22*
X129000000Y-99250000D03*
X133000000Y-97750000D03*
D20*
X127500000Y-76500000D03*
X122500000Y-76500000D03*
X125000000Y-76500000D03*
X120000000Y-76500000D03*
D21*
X120000000Y-80000000D03*
D22*
X119500000Y-102250000D03*
X119500000Y-112250000D03*
X119500000Y-107250000D03*
X119500000Y-97250000D03*
X119500000Y-92250000D03*
X122000000Y-116000000D03*
X124875000Y-109125000D03*
D23*
X130000000Y-76500000D02*
X130000000Y-80000000D01*
D24*
X116850000Y-87500000D02*
X126500000Y-87500000D01*
D25*
X124937500Y-99187500D02*
X126500000Y-99187500D01*
X124000000Y-98250000D02*
X124937500Y-99187500D01*
X127500000Y-80000000D02*
X127500000Y-81475000D01*
X127500000Y-81475000D02*
X133000000Y-86975000D01*
D23*
X127500000Y-76500000D02*
X127500000Y-80000000D01*
D25*
X126500000Y-99187500D02*
X128937500Y-99187500D01*
X128937500Y-99187500D02*
X129000000Y-99250000D01*
X133000000Y-86975000D02*
X133000000Y-97750000D01*
X127500000Y-86475000D02*
X127500000Y-86500000D01*
X129000000Y-88000000D02*
X129000000Y-93500000D01*
X127500000Y-86500000D02*
X129000000Y-88000000D01*
X128312500Y-94187500D02*
X126500000Y-94187500D01*
X124000000Y-93250000D02*
X124937500Y-94187500D01*
X129000000Y-93500000D02*
X128312500Y-94187500D01*
X124937500Y-94187500D02*
X126500000Y-94187500D01*
X122500000Y-80000000D02*
X122500000Y-81475000D01*
D23*
X122500000Y-76500000D02*
X122500000Y-80000000D01*
D25*
X122500000Y-81475000D02*
X127500000Y-86475000D01*
X124000000Y-103250000D02*
X124937500Y-104187500D01*
X125000000Y-81475000D02*
X131000000Y-87475000D01*
X124937500Y-104187500D02*
X126500000Y-104187500D01*
D23*
X125000000Y-76500000D02*
X125000000Y-80000000D01*
D25*
X129562500Y-104187500D02*
X126500000Y-104187500D01*
X131000000Y-87475000D02*
X131000000Y-102750000D01*
X131000000Y-102750000D02*
X129562500Y-104187500D01*
X125000000Y-80000000D02*
X125000000Y-81475000D01*
D23*
X120000000Y-76500000D02*
X120000000Y-80000000D01*
D26*
X120000000Y-80000000D02*
X120000000Y-84500000D01*
X120000000Y-84500000D02*
X120700000Y-85200000D01*
X120700000Y-85200000D02*
X123150000Y-85200000D01*
D25*
X116812500Y-94187500D02*
X119500000Y-94187500D01*
X119512500Y-94200000D02*
X119500000Y-94187500D01*
X116000000Y-95000000D02*
X116812500Y-94187500D01*
X116000000Y-99500000D02*
X116000000Y-95000000D01*
X115380000Y-100120000D02*
X116000000Y-99500000D01*
X122000000Y-94200000D02*
X119512500Y-94200000D01*
X113500000Y-100120000D02*
X115380000Y-100120000D01*
X122000000Y-112300000D02*
X119550000Y-112300000D01*
X122000000Y-107300000D02*
X119550000Y-107300000D01*
X122000000Y-92300000D02*
X119512500Y-92300000D01*
X119550000Y-102300000D02*
X119500000Y-102250000D01*
X122000000Y-102300000D02*
X119550000Y-102300000D01*
X119512500Y-92300000D02*
X119500000Y-92312500D01*
X122000000Y-97300000D02*
X119550000Y-97300000D01*
X119550000Y-97300000D02*
X119500000Y-97250000D01*
X119512500Y-99200000D02*
X119500000Y-99187500D01*
X113777500Y-102937500D02*
X113500000Y-102660000D01*
X113500000Y-102660000D02*
X115590000Y-102660000D01*
X117250000Y-100000000D02*
X118062500Y-99187500D01*
X122000000Y-99200000D02*
X119512500Y-99200000D01*
X118062500Y-99187500D02*
X119500000Y-99187500D01*
X115590000Y-102660000D02*
X117250000Y-101000000D01*
X117250000Y-101000000D02*
X117250000Y-100000000D01*
X113500000Y-105200000D02*
X116300000Y-105200000D01*
X122000000Y-104200000D02*
X119512500Y-104200000D01*
X116300000Y-105200000D02*
X117312500Y-104187500D01*
X119512500Y-104200000D02*
X119500000Y-104187500D01*
X117312500Y-104187500D02*
X119500000Y-104187500D01*
X124937500Y-109187500D02*
X126500000Y-109187500D01*
X124000000Y-108250000D02*
X124875000Y-109125000D01*
X124875000Y-109125000D02*
X124937500Y-109187500D01*
X122000000Y-116000000D02*
X117000000Y-116000000D01*
X115000000Y-118000000D02*
X115000000Y-131225000D01*
X117000000Y-116000000D02*
X115000000Y-118000000D01*
X124000000Y-113250000D02*
X124937500Y-114187500D01*
X135000000Y-117000000D02*
X132187500Y-114187500D01*
X124937500Y-114187500D02*
X126500000Y-114187500D01*
X135000000Y-131225000D02*
X135000000Y-117000000D01*
X132187500Y-114187500D02*
X126500000Y-114187500D01*
X122000000Y-109200000D02*
X119512500Y-109200000D01*
X134860000Y-97580000D02*
X132250000Y-100190000D01*
X136360000Y-97580000D02*
X134860000Y-97580000D01*
X118250000Y-105750000D02*
X117000000Y-107000000D01*
X117437500Y-109187500D02*
X119500000Y-109187500D01*
X132250000Y-103500000D02*
X130000000Y-105750000D01*
X117000000Y-108750000D02*
X117437500Y-109187500D01*
X117000000Y-107000000D02*
X117000000Y-108750000D01*
X130000000Y-105750000D02*
X118250000Y-105750000D01*
X132250000Y-100190000D02*
X132250000Y-103500000D01*
X117437500Y-114187500D02*
X119500000Y-114187500D01*
X117000000Y-112000000D02*
X117000000Y-113750000D01*
X129000000Y-110750000D02*
X118250000Y-110750000D01*
X118250000Y-110750000D02*
X117000000Y-112000000D01*
X136360000Y-100120000D02*
X134380000Y-100120000D01*
X133500000Y-101000000D02*
X133500000Y-106250000D01*
X117000000Y-113750000D02*
X117437500Y-114187500D01*
X133500000Y-106250000D02*
X129000000Y-110750000D01*
X122000000Y-114200000D02*
X119512500Y-114200000D01*
X134380000Y-100120000D02*
X133500000Y-101000000D01*
G04 #@! TA.AperFunction,Conductor*
G36*
X135096254Y-100898502D02*
G01*
X135131345Y-100932228D01*
X135153802Y-100964300D01*
X135315700Y-101126198D01*
X135320208Y-101129355D01*
X135320211Y-101129357D01*
X135374595Y-101167437D01*
X135503251Y-101257523D01*
X135508233Y-101259846D01*
X135508238Y-101259849D01*
X135542457Y-101275805D01*
X135595742Y-101322722D01*
X135615203Y-101390999D01*
X135594661Y-101458959D01*
X135542457Y-101504195D01*
X135508238Y-101520151D01*
X135508233Y-101520154D01*
X135503251Y-101522477D01*
X135472629Y-101543919D01*
X135320211Y-101650643D01*
X135320208Y-101650645D01*
X135315700Y-101653802D01*
X135153802Y-101815700D01*
X135150645Y-101820208D01*
X135150643Y-101820211D01*
X135119565Y-101864595D01*
X135022477Y-102003251D01*
X135020154Y-102008233D01*
X135020151Y-102008238D01*
X134928039Y-102205775D01*
X134925716Y-102210757D01*
X134866457Y-102431913D01*
X134846502Y-102660000D01*
X134866457Y-102888087D01*
X134867881Y-102893400D01*
X134867881Y-102893402D01*
X134903596Y-103026689D01*
X134925716Y-103109243D01*
X134928039Y-103114224D01*
X134928039Y-103114225D01*
X135020151Y-103311762D01*
X135020154Y-103311767D01*
X135022477Y-103316749D01*
X135091421Y-103415211D01*
X135150407Y-103499451D01*
X135153802Y-103504300D01*
X135315700Y-103666198D01*
X135320208Y-103669355D01*
X135320211Y-103669357D01*
X135349241Y-103689684D01*
X135503251Y-103797523D01*
X135508233Y-103799846D01*
X135508238Y-103799849D01*
X135542457Y-103815805D01*
X135595742Y-103862722D01*
X135615203Y-103930999D01*
X135594661Y-103998959D01*
X135542457Y-104044195D01*
X135508238Y-104060151D01*
X135508233Y-104060154D01*
X135503251Y-104062477D01*
X135444283Y-104103767D01*
X135320211Y-104190643D01*
X135320208Y-104190645D01*
X135315700Y-104193802D01*
X135153802Y-104355700D01*
X135022477Y-104543251D01*
X135020154Y-104548233D01*
X135020151Y-104548238D01*
X134929550Y-104742535D01*
X134925716Y-104750757D01*
X134924294Y-104756065D01*
X134924293Y-104756067D01*
X134884850Y-104903269D01*
X134866457Y-104971913D01*
X134846502Y-105200000D01*
X134866457Y-105428087D01*
X134925716Y-105649243D01*
X134928039Y-105654224D01*
X134928039Y-105654225D01*
X135020151Y-105851762D01*
X135020154Y-105851767D01*
X135022477Y-105856749D01*
X135153802Y-106044300D01*
X135315700Y-106206198D01*
X135320208Y-106209355D01*
X135320211Y-106209357D01*
X135362230Y-106238779D01*
X135503251Y-106337523D01*
X135508233Y-106339846D01*
X135508238Y-106339849D01*
X135543049Y-106356081D01*
X135596334Y-106402998D01*
X135615795Y-106471275D01*
X135595253Y-106539235D01*
X135543049Y-106584471D01*
X135508489Y-106600586D01*
X135498993Y-106606069D01*
X135320533Y-106731028D01*
X135312125Y-106738084D01*
X135158084Y-106892125D01*
X135151028Y-106900533D01*
X135026069Y-107078993D01*
X135020586Y-107088489D01*
X134928510Y-107285947D01*
X134924764Y-107296239D01*
X134878606Y-107468503D01*
X134878942Y-107482599D01*
X134886884Y-107486000D01*
X136488000Y-107486000D01*
X136556121Y-107506002D01*
X136602614Y-107559658D01*
X136614000Y-107612000D01*
X136614000Y-107868000D01*
X136593998Y-107936121D01*
X136540342Y-107982614D01*
X136488000Y-107994000D01*
X134892033Y-107994000D01*
X134878502Y-107997973D01*
X134877273Y-108006522D01*
X134924764Y-108183761D01*
X134928510Y-108194053D01*
X135020586Y-108391511D01*
X135026069Y-108401007D01*
X135151028Y-108579467D01*
X135158084Y-108587875D01*
X135312125Y-108741916D01*
X135320533Y-108748972D01*
X135498993Y-108873931D01*
X135508489Y-108879414D01*
X135543049Y-108895529D01*
X135596334Y-108942446D01*
X135615795Y-109010723D01*
X135595253Y-109078683D01*
X135543049Y-109123919D01*
X135508238Y-109140151D01*
X135508233Y-109140154D01*
X135503251Y-109142477D01*
X135451802Y-109178502D01*
X135320211Y-109270643D01*
X135320208Y-109270645D01*
X135315700Y-109273802D01*
X135153802Y-109435700D01*
X135150645Y-109440208D01*
X135150643Y-109440211D01*
X135132394Y-109466273D01*
X135022477Y-109623251D01*
X135020154Y-109628233D01*
X135020151Y-109628238D01*
X134952750Y-109772781D01*
X134925716Y-109830757D01*
X134924294Y-109836065D01*
X134924293Y-109836067D01*
X134892533Y-109954595D01*
X134866457Y-110051913D01*
X134846502Y-110280000D01*
X134866457Y-110508087D01*
X134925716Y-110729243D01*
X134928039Y-110734224D01*
X134928039Y-110734225D01*
X135020151Y-110931762D01*
X135020154Y-110931767D01*
X135022477Y-110936749D01*
X135153802Y-111124300D01*
X135315700Y-111286198D01*
X135320208Y-111289355D01*
X135320211Y-111289357D01*
X135368500Y-111323169D01*
X135503251Y-111417523D01*
X135508233Y-111419846D01*
X135508238Y-111419849D01*
X135705775Y-111511961D01*
X135710757Y-111514284D01*
X135716065Y-111515706D01*
X135716067Y-111515707D01*
X135926598Y-111572119D01*
X135926600Y-111572119D01*
X135931913Y-111573543D01*
X136030383Y-111582158D01*
X136100149Y-111588262D01*
X136100156Y-111588262D01*
X136102873Y-111588500D01*
X136617127Y-111588500D01*
X136619844Y-111588262D01*
X136619851Y-111588262D01*
X136689617Y-111582158D01*
X136788087Y-111573543D01*
X136793400Y-111572119D01*
X136793402Y-111572119D01*
X137003933Y-111515707D01*
X137003935Y-111515706D01*
X137009243Y-111514284D01*
X137014225Y-111511961D01*
X137211762Y-111419849D01*
X137211767Y-111419846D01*
X137216749Y-111417523D01*
X137293229Y-111363971D01*
X137360503Y-111341283D01*
X137429364Y-111358568D01*
X137477948Y-111410338D01*
X137491500Y-111467184D01*
X137491500Y-132200633D01*
X137490000Y-132220018D01*
X137487690Y-132234851D01*
X137487690Y-132234855D01*
X137486309Y-132243724D01*
X137488136Y-132257693D01*
X137488304Y-132258976D01*
X137489047Y-132284305D01*
X137476962Y-132453279D01*
X137474404Y-132471064D01*
X137456598Y-132552919D01*
X137433001Y-132661392D01*
X137427937Y-132678641D01*
X137359864Y-132861150D01*
X137352396Y-132877502D01*
X137259048Y-133048458D01*
X137249328Y-133063582D01*
X137132598Y-133219514D01*
X137120825Y-133233100D01*
X136983100Y-133370825D01*
X136969514Y-133382598D01*
X136813582Y-133499328D01*
X136798458Y-133509048D01*
X136627502Y-133602396D01*
X136611150Y-133609864D01*
X136428641Y-133677937D01*
X136411393Y-133683001D01*
X136221064Y-133724404D01*
X136203285Y-133726961D01*
X136041395Y-133738540D01*
X136023435Y-133737793D01*
X136015155Y-133737692D01*
X136006276Y-133736309D01*
X135974714Y-133740436D01*
X135958379Y-133741500D01*
X114049367Y-133741500D01*
X114029982Y-133740000D01*
X114015149Y-133737690D01*
X114015145Y-133737690D01*
X114006276Y-133736309D01*
X113991019Y-133738304D01*
X113965698Y-133739047D01*
X113796715Y-133726961D01*
X113778936Y-133724404D01*
X113588607Y-133683001D01*
X113571359Y-133677937D01*
X113388850Y-133609864D01*
X113372498Y-133602396D01*
X113201542Y-133509048D01*
X113186418Y-133499328D01*
X113030486Y-133382598D01*
X113016900Y-133370825D01*
X112879175Y-133233100D01*
X112867402Y-133219514D01*
X112750672Y-133063582D01*
X112740952Y-133048458D01*
X112647604Y-132877502D01*
X112640136Y-132861150D01*
X112572063Y-132678641D01*
X112566999Y-132661392D01*
X112543402Y-132552919D01*
X112525596Y-132471064D01*
X112523038Y-132453278D01*
X112511719Y-132295012D01*
X112512805Y-132272245D01*
X112512334Y-132272203D01*
X112512770Y-132267345D01*
X112513576Y-132262552D01*
X112513729Y-132250000D01*
X112509773Y-132222376D01*
X112508500Y-132204514D01*
X112508500Y-111552468D01*
X112528502Y-111484347D01*
X112582158Y-111437854D01*
X112652432Y-111427750D01*
X112687750Y-111438273D01*
X112844624Y-111511424D01*
X112850757Y-111514284D01*
X112856065Y-111515706D01*
X112856067Y-111515707D01*
X113066598Y-111572119D01*
X113066600Y-111572119D01*
X113071913Y-111573543D01*
X113170383Y-111582158D01*
X113240149Y-111588262D01*
X113240156Y-111588262D01*
X113242873Y-111588500D01*
X113757127Y-111588500D01*
X113759844Y-111588262D01*
X113759851Y-111588262D01*
X113829617Y-111582158D01*
X113928087Y-111573543D01*
X113933400Y-111572119D01*
X113933402Y-111572119D01*
X114143933Y-111515707D01*
X114143935Y-111515706D01*
X114149243Y-111514284D01*
X114154225Y-111511961D01*
X114351762Y-111419849D01*
X114351767Y-111419846D01*
X114356749Y-111417523D01*
X114491500Y-111323169D01*
X114539789Y-111289357D01*
X114539792Y-111289355D01*
X114544300Y-111286198D01*
X114706198Y-111124300D01*
X114837523Y-110936749D01*
X114839846Y-110931767D01*
X114839849Y-110931762D01*
X114931961Y-110734225D01*
X114931961Y-110734224D01*
X114934284Y-110729243D01*
X114993543Y-110508087D01*
X115013498Y-110280000D01*
X114993543Y-110051913D01*
X114967467Y-109954595D01*
X114935707Y-109836067D01*
X114935706Y-109836065D01*
X114934284Y-109830757D01*
X114907250Y-109772781D01*
X114839849Y-109628238D01*
X114839846Y-109628233D01*
X114837523Y-109623251D01*
X114727606Y-109466273D01*
X114709357Y-109440211D01*
X114709355Y-109440208D01*
X114706198Y-109435700D01*
X114544300Y-109273802D01*
X114539792Y-109270645D01*
X114539789Y-109270643D01*
X114408198Y-109178502D01*
X114356749Y-109142477D01*
X114351767Y-109140154D01*
X114351762Y-109140151D01*
X114317543Y-109124195D01*
X114264258Y-109077278D01*
X114244797Y-109009001D01*
X114265339Y-108941041D01*
X114317543Y-108895805D01*
X114351762Y-108879849D01*
X114351767Y-108879846D01*
X114356749Y-108877523D01*
X114470409Y-108797937D01*
X114539789Y-108749357D01*
X114539792Y-108749355D01*
X114544300Y-108746198D01*
X114706198Y-108584300D01*
X114837523Y-108396749D01*
X114839846Y-108391767D01*
X114839849Y-108391762D01*
X114931961Y-108194225D01*
X114931961Y-108194224D01*
X114934284Y-108189243D01*
X114944463Y-108151257D01*
X114992119Y-107973402D01*
X114992119Y-107973400D01*
X114993543Y-107968087D01*
X115013498Y-107740000D01*
X114993543Y-107511913D01*
X114989821Y-107498022D01*
X114935707Y-107296067D01*
X114935706Y-107296065D01*
X114934284Y-107290757D01*
X114839966Y-107088489D01*
X114839849Y-107088238D01*
X114839846Y-107088233D01*
X114837523Y-107083251D01*
X114706198Y-106895700D01*
X114544300Y-106733802D01*
X114539792Y-106730645D01*
X114539789Y-106730643D01*
X114441449Y-106661785D01*
X114356749Y-106602477D01*
X114351767Y-106600154D01*
X114351762Y-106600151D01*
X114317543Y-106584195D01*
X114264258Y-106537278D01*
X114244797Y-106469001D01*
X114265339Y-106401041D01*
X114317543Y-106355805D01*
X114351762Y-106339849D01*
X114351767Y-106339846D01*
X114356749Y-106337523D01*
X114497770Y-106238779D01*
X114539789Y-106209357D01*
X114539792Y-106209355D01*
X114544300Y-106206198D01*
X114706198Y-106044300D01*
X114728655Y-106012229D01*
X114784110Y-105967901D01*
X114831867Y-105958500D01*
X116232930Y-105958500D01*
X116251880Y-105959933D01*
X116266115Y-105962099D01*
X116266119Y-105962099D01*
X116273349Y-105963199D01*
X116280641Y-105962606D01*
X116280644Y-105962606D01*
X116326018Y-105958915D01*
X116336233Y-105958500D01*
X116344293Y-105958500D01*
X116357583Y-105956951D01*
X116372507Y-105955211D01*
X116376882Y-105954778D01*
X116442339Y-105949454D01*
X116442342Y-105949453D01*
X116449637Y-105948860D01*
X116456601Y-105946604D01*
X116462560Y-105945413D01*
X116468415Y-105944029D01*
X116475681Y-105943182D01*
X116544327Y-105918265D01*
X116548455Y-105916848D01*
X116610936Y-105896607D01*
X116610938Y-105896606D01*
X116617899Y-105894351D01*
X116624154Y-105890555D01*
X116629628Y-105888049D01*
X116635058Y-105885330D01*
X116641937Y-105882833D01*
X116674846Y-105861257D01*
X116702976Y-105842814D01*
X116706680Y-105840477D01*
X116769107Y-105802595D01*
X116773310Y-105798884D01*
X116776236Y-105796730D01*
X116842957Y-105772466D01*
X116912205Y-105788125D01*
X116961994Y-105838737D01*
X116976516Y-105908233D01*
X116951161Y-105974547D01*
X116940010Y-105987309D01*
X116511089Y-106416230D01*
X116496677Y-106428616D01*
X116485082Y-106437149D01*
X116485077Y-106437154D01*
X116479182Y-106441492D01*
X116474443Y-106447070D01*
X116474440Y-106447073D01*
X116444965Y-106481768D01*
X116438035Y-106489284D01*
X116432340Y-106494979D01*
X116430060Y-106497861D01*
X116414719Y-106517251D01*
X116411928Y-106520655D01*
X116374610Y-106564581D01*
X116364667Y-106576285D01*
X116361339Y-106582801D01*
X116357972Y-106587850D01*
X116354805Y-106592979D01*
X116350266Y-106598716D01*
X116319345Y-106664875D01*
X116317442Y-106668769D01*
X116284231Y-106733808D01*
X116282492Y-106740916D01*
X116280393Y-106746559D01*
X116278476Y-106752322D01*
X116275378Y-106758950D01*
X116273888Y-106766112D01*
X116273888Y-106766113D01*
X116260514Y-106830412D01*
X116259544Y-106834696D01*
X116242192Y-106905610D01*
X116241500Y-106916764D01*
X116241464Y-106916762D01*
X116241225Y-106920755D01*
X116240851Y-106924947D01*
X116239360Y-106932115D01*
X116239558Y-106939432D01*
X116241454Y-107009521D01*
X116241500Y-107012928D01*
X116241500Y-108682930D01*
X116240067Y-108701880D01*
X116236801Y-108723349D01*
X116237394Y-108730641D01*
X116237394Y-108730644D01*
X116241085Y-108776018D01*
X116241500Y-108786233D01*
X116241500Y-108794293D01*
X116241925Y-108797937D01*
X116244789Y-108822507D01*
X116245222Y-108826882D01*
X116251140Y-108899637D01*
X116253396Y-108906601D01*
X116254587Y-108912560D01*
X116255971Y-108918415D01*
X116256818Y-108925681D01*
X116281735Y-108994327D01*
X116283152Y-108998455D01*
X116298463Y-109045716D01*
X116305649Y-109067899D01*
X116309445Y-109074154D01*
X116311951Y-109079628D01*
X116314670Y-109085058D01*
X116317167Y-109091937D01*
X116321180Y-109098057D01*
X116321180Y-109098058D01*
X116357186Y-109152976D01*
X116359523Y-109156680D01*
X116397405Y-109219107D01*
X116401121Y-109223315D01*
X116401122Y-109223316D01*
X116404803Y-109227484D01*
X116404776Y-109227508D01*
X116407429Y-109230500D01*
X116410132Y-109233733D01*
X116414144Y-109239852D01*
X116449982Y-109273802D01*
X116470383Y-109293128D01*
X116472825Y-109295506D01*
X116853730Y-109676411D01*
X116866116Y-109690823D01*
X116874649Y-109702418D01*
X116874654Y-109702423D01*
X116878992Y-109708318D01*
X116884570Y-109713057D01*
X116884573Y-109713060D01*
X116919268Y-109742535D01*
X116926784Y-109749465D01*
X116932479Y-109755160D01*
X116935361Y-109757440D01*
X116954751Y-109772781D01*
X116958155Y-109775572D01*
X117008203Y-109818091D01*
X117013785Y-109822833D01*
X117020301Y-109826161D01*
X117025350Y-109829528D01*
X117030479Y-109832695D01*
X117036216Y-109837234D01*
X117102375Y-109868155D01*
X117106269Y-109870058D01*
X117171308Y-109903269D01*
X117178416Y-109905008D01*
X117184059Y-109907107D01*
X117189822Y-109909024D01*
X117196450Y-109912122D01*
X117203612Y-109913612D01*
X117203613Y-109913612D01*
X117267912Y-109926986D01*
X117272196Y-109927956D01*
X117343110Y-109945308D01*
X117348712Y-109945656D01*
X117348715Y-109945656D01*
X117354264Y-109946000D01*
X117354262Y-109946036D01*
X117358255Y-109946275D01*
X117362447Y-109946649D01*
X117369615Y-109948140D01*
X117447020Y-109946046D01*
X117450428Y-109946000D01*
X117675242Y-109946000D01*
X117743363Y-109966002D01*
X117789856Y-110019658D01*
X117799960Y-110089932D01*
X117770466Y-110154512D01*
X117761698Y-110163128D01*
X117760148Y-110164144D01*
X117755114Y-110169458D01*
X117706872Y-110220383D01*
X117704494Y-110222825D01*
X116511089Y-111416230D01*
X116496677Y-111428616D01*
X116485082Y-111437149D01*
X116485077Y-111437154D01*
X116479182Y-111441492D01*
X116474443Y-111447070D01*
X116474440Y-111447073D01*
X116444965Y-111481768D01*
X116438035Y-111489284D01*
X116432340Y-111494979D01*
X116430060Y-111497861D01*
X116414719Y-111517251D01*
X116411928Y-111520655D01*
X116398264Y-111536739D01*
X116364667Y-111576285D01*
X116361339Y-111582801D01*
X116357972Y-111587850D01*
X116354805Y-111592979D01*
X116350266Y-111598716D01*
X116319345Y-111664875D01*
X116317442Y-111668769D01*
X116284231Y-111733808D01*
X116282492Y-111740916D01*
X116280393Y-111746559D01*
X116278476Y-111752322D01*
X116275378Y-111758950D01*
X116273888Y-111766112D01*
X116273888Y-111766113D01*
X116260514Y-111830412D01*
X116259544Y-111834696D01*
X116242192Y-111905610D01*
X116241500Y-111916764D01*
X116241464Y-111916762D01*
X116241225Y-111920755D01*
X116240851Y-111924947D01*
X116239360Y-111932115D01*
X116239558Y-111939432D01*
X116241454Y-112009521D01*
X116241500Y-112012928D01*
X116241500Y-113682930D01*
X116240067Y-113701880D01*
X116236801Y-113723349D01*
X116237394Y-113730641D01*
X116237394Y-113730644D01*
X116241085Y-113776018D01*
X116241500Y-113786233D01*
X116241500Y-113794293D01*
X116241925Y-113797937D01*
X116244789Y-113822507D01*
X116245222Y-113826882D01*
X116251140Y-113899637D01*
X116253396Y-113906601D01*
X116254587Y-113912560D01*
X116255971Y-113918415D01*
X116256818Y-113925681D01*
X116281735Y-113994327D01*
X116283152Y-113998455D01*
X116287949Y-114013261D01*
X116305649Y-114067899D01*
X116309445Y-114074154D01*
X116311951Y-114079628D01*
X116314670Y-114085058D01*
X116317167Y-114091937D01*
X116321180Y-114098057D01*
X116321180Y-114098058D01*
X116357186Y-114152976D01*
X116359523Y-114156680D01*
X116397405Y-114219107D01*
X116401121Y-114223315D01*
X116401122Y-114223316D01*
X116404803Y-114227484D01*
X116404776Y-114227508D01*
X116407429Y-114230500D01*
X116410132Y-114233733D01*
X116414144Y-114239852D01*
X116419456Y-114244884D01*
X116470383Y-114293128D01*
X116472825Y-114295506D01*
X116853730Y-114676411D01*
X116866116Y-114690823D01*
X116874649Y-114702418D01*
X116874654Y-114702423D01*
X116878992Y-114708318D01*
X116884570Y-114713057D01*
X116884573Y-114713060D01*
X116919268Y-114742535D01*
X116926784Y-114749465D01*
X116932479Y-114755160D01*
X116935361Y-114757440D01*
X116954751Y-114772781D01*
X116958155Y-114775572D01*
X117008203Y-114818091D01*
X117013785Y-114822833D01*
X117020301Y-114826161D01*
X117025350Y-114829528D01*
X117030479Y-114832695D01*
X117036216Y-114837234D01*
X117102375Y-114868155D01*
X117106269Y-114870058D01*
X117171308Y-114903269D01*
X117178416Y-114905008D01*
X117184059Y-114907107D01*
X117189822Y-114909024D01*
X117196450Y-114912122D01*
X117203612Y-114913612D01*
X117203613Y-114913612D01*
X117267912Y-114926986D01*
X117272196Y-114927956D01*
X117343110Y-114945308D01*
X117348712Y-114945656D01*
X117348715Y-114945656D01*
X117354264Y-114946000D01*
X117354262Y-114946036D01*
X117358255Y-114946275D01*
X117362447Y-114946649D01*
X117369615Y-114948140D01*
X117447020Y-114946046D01*
X117450428Y-114946000D01*
X118442464Y-114946000D01*
X118510585Y-114966002D01*
X118531481Y-114982827D01*
X118574346Y-115025617D01*
X118572214Y-115027752D01*
X118605383Y-115074536D01*
X118608614Y-115145459D01*
X118572989Y-115206870D01*
X118509817Y-115239272D01*
X118486228Y-115241500D01*
X117067069Y-115241500D01*
X117048121Y-115240067D01*
X117040780Y-115238950D01*
X117033883Y-115237901D01*
X117033881Y-115237901D01*
X117026651Y-115236801D01*
X117019359Y-115237394D01*
X117019356Y-115237394D01*
X116973982Y-115241085D01*
X116963767Y-115241500D01*
X116955707Y-115241500D01*
X116942417Y-115243049D01*
X116927493Y-115244789D01*
X116923118Y-115245222D01*
X116857661Y-115250546D01*
X116857658Y-115250547D01*
X116850363Y-115251140D01*
X116843399Y-115253396D01*
X116837440Y-115254587D01*
X116831585Y-115255971D01*
X116824319Y-115256818D01*
X116755673Y-115281735D01*
X116751545Y-115283152D01*
X116689064Y-115303393D01*
X116689062Y-115303394D01*
X116682101Y-115305649D01*
X116675846Y-115309445D01*
X116670372Y-115311951D01*
X116664942Y-115314670D01*
X116658063Y-115317167D01*
X116651943Y-115321180D01*
X116651942Y-115321180D01*
X116597024Y-115357186D01*
X116593320Y-115359523D01*
X116530893Y-115397405D01*
X116522516Y-115404803D01*
X116522492Y-115404776D01*
X116519500Y-115407429D01*
X116516267Y-115410132D01*
X116510148Y-115414144D01*
X116505116Y-115419456D01*
X116456872Y-115470383D01*
X116454494Y-115472825D01*
X114511089Y-117416230D01*
X114496677Y-117428616D01*
X114485082Y-117437149D01*
X114485077Y-117437154D01*
X114479182Y-117441492D01*
X114474443Y-117447070D01*
X114474440Y-117447073D01*
X114444965Y-117481768D01*
X114438035Y-117489284D01*
X114432340Y-117494979D01*
X114430060Y-117497861D01*
X114414719Y-117517251D01*
X114411928Y-117520655D01*
X114369409Y-117570703D01*
X114364667Y-117576285D01*
X114361339Y-117582801D01*
X114357972Y-117587850D01*
X114354805Y-117592979D01*
X114350266Y-117598716D01*
X114319345Y-117664875D01*
X114317442Y-117668769D01*
X114284231Y-117733808D01*
X114282492Y-117740916D01*
X114280393Y-117746559D01*
X114278476Y-117752322D01*
X114275378Y-117758950D01*
X114273888Y-117766112D01*
X114273888Y-117766113D01*
X114260514Y-117830412D01*
X114259544Y-117834696D01*
X114242192Y-117905610D01*
X114241500Y-117916764D01*
X114241464Y-117916762D01*
X114241225Y-117920755D01*
X114240851Y-117924947D01*
X114239360Y-117932115D01*
X114239558Y-117939432D01*
X114241454Y-118009521D01*
X114241500Y-118012928D01*
X114241500Y-119240500D01*
X114221498Y-119308621D01*
X114167842Y-119355114D01*
X114115500Y-119366500D01*
X113951866Y-119366500D01*
X113889684Y-119373255D01*
X113753295Y-119424385D01*
X113636739Y-119511739D01*
X113549385Y-119628295D01*
X113498255Y-119764684D01*
X113491500Y-119826866D01*
X113491500Y-125923134D01*
X113498255Y-125985316D01*
X113549385Y-126121705D01*
X113636739Y-126238261D01*
X113753295Y-126325615D01*
X113889684Y-126376745D01*
X113951866Y-126383500D01*
X114115500Y-126383500D01*
X114183621Y-126403502D01*
X114230114Y-126457158D01*
X114241500Y-126509500D01*
X114241500Y-128840500D01*
X114221498Y-128908621D01*
X114167842Y-128955114D01*
X114115500Y-128966500D01*
X113951866Y-128966500D01*
X113889684Y-128973255D01*
X113753295Y-129024385D01*
X113636739Y-129111739D01*
X113549385Y-129228295D01*
X113498255Y-129364684D01*
X113491500Y-129426866D01*
X113491500Y-133023134D01*
X113498255Y-133085316D01*
X113549385Y-133221705D01*
X113636739Y-133338261D01*
X113753295Y-133425615D01*
X113889684Y-133476745D01*
X113951866Y-133483500D01*
X116048134Y-133483500D01*
X116110316Y-133476745D01*
X116246705Y-133425615D01*
X116363261Y-133338261D01*
X116450615Y-133221705D01*
X116501745Y-133085316D01*
X116508500Y-133023134D01*
X116508500Y-129426866D01*
X116501745Y-129364684D01*
X116450615Y-129228295D01*
X116363261Y-129111739D01*
X116246705Y-129024385D01*
X116110316Y-128973255D01*
X116048134Y-128966500D01*
X115884500Y-128966500D01*
X115816379Y-128946498D01*
X115769886Y-128892842D01*
X115758500Y-128840500D01*
X115758500Y-126509500D01*
X115778502Y-126441379D01*
X115832158Y-126394886D01*
X115884500Y-126383500D01*
X116048134Y-126383500D01*
X116110316Y-126376745D01*
X116246705Y-126325615D01*
X116363261Y-126238261D01*
X116450615Y-126121705D01*
X116501745Y-125985316D01*
X116508500Y-125923134D01*
X116508500Y-119826866D01*
X116501745Y-119764684D01*
X116450615Y-119628295D01*
X116363261Y-119511739D01*
X116246705Y-119424385D01*
X116110316Y-119373255D01*
X116048134Y-119366500D01*
X115884500Y-119366500D01*
X115816379Y-119346498D01*
X115769886Y-119292842D01*
X115758500Y-119240500D01*
X115758500Y-118366371D01*
X115778502Y-118298250D01*
X115795405Y-118277276D01*
X117277276Y-116795405D01*
X117339588Y-116761379D01*
X117366371Y-116758500D01*
X121697282Y-116758500D01*
X121741202Y-116766403D01*
X121796558Y-116786990D01*
X121796560Y-116786991D01*
X121803168Y-116789448D01*
X121886995Y-116800633D01*
X121975980Y-116812507D01*
X121975984Y-116812507D01*
X121982961Y-116813438D01*
X121989972Y-116812800D01*
X121989976Y-116812800D01*
X122132459Y-116799832D01*
X122163600Y-116796998D01*
X122170302Y-116794820D01*
X122170304Y-116794820D01*
X122329409Y-116743124D01*
X122329412Y-116743123D01*
X122336108Y-116740947D01*
X122434823Y-116682101D01*
X122485860Y-116651677D01*
X122485862Y-116651676D01*
X122491912Y-116648069D01*
X122623266Y-116522982D01*
X122723643Y-116371902D01*
X122788055Y-116202338D01*
X122813299Y-116022717D01*
X122813616Y-116000000D01*
X122793397Y-115819745D01*
X122733745Y-115648448D01*
X122637626Y-115494624D01*
X122551983Y-115408381D01*
X122514778Y-115370915D01*
X122514774Y-115370912D01*
X122509815Y-115365918D01*
X122465557Y-115337831D01*
X122418758Y-115284442D01*
X122408253Y-115214227D01*
X122437377Y-115149479D01*
X122496883Y-115110755D01*
X122519463Y-115106183D01*
X122521487Y-115105963D01*
X122560316Y-115101745D01*
X122696705Y-115050615D01*
X122813261Y-114963261D01*
X122900615Y-114846705D01*
X122951745Y-114710316D01*
X122958500Y-114648134D01*
X122958500Y-114086941D01*
X122978502Y-114018820D01*
X123032158Y-113972327D01*
X123102432Y-113962223D01*
X123167012Y-113991717D01*
X123174734Y-114000005D01*
X123175008Y-113999731D01*
X123181358Y-114006081D01*
X123186739Y-114013261D01*
X123303295Y-114100615D01*
X123439684Y-114151745D01*
X123501866Y-114158500D01*
X123783629Y-114158500D01*
X123851750Y-114178502D01*
X123872724Y-114195405D01*
X124353730Y-114676411D01*
X124366116Y-114690823D01*
X124374649Y-114702418D01*
X124374654Y-114702423D01*
X124378992Y-114708318D01*
X124384570Y-114713057D01*
X124384573Y-114713060D01*
X124419268Y-114742535D01*
X124426784Y-114749465D01*
X124432479Y-114755160D01*
X124435361Y-114757440D01*
X124454751Y-114772781D01*
X124458155Y-114775572D01*
X124508203Y-114818091D01*
X124513785Y-114822833D01*
X124520301Y-114826161D01*
X124525350Y-114829528D01*
X124530479Y-114832695D01*
X124536216Y-114837234D01*
X124602375Y-114868155D01*
X124606269Y-114870058D01*
X124671308Y-114903269D01*
X124678416Y-114905008D01*
X124684059Y-114907107D01*
X124689822Y-114909024D01*
X124696450Y-114912122D01*
X124703612Y-114913612D01*
X124703613Y-114913612D01*
X124767912Y-114926986D01*
X124772196Y-114927956D01*
X124843110Y-114945308D01*
X124848712Y-114945656D01*
X124848715Y-114945656D01*
X124854264Y-114946000D01*
X124854262Y-114946036D01*
X124858255Y-114946275D01*
X124862447Y-114946649D01*
X124869615Y-114948140D01*
X124947020Y-114946046D01*
X124950428Y-114946000D01*
X125442464Y-114946000D01*
X125510585Y-114966002D01*
X125531481Y-114982827D01*
X125569162Y-115020442D01*
X125569167Y-115020446D01*
X125574347Y-115025617D01*
X125723671Y-115117661D01*
X125730619Y-115119966D01*
X125730620Y-115119966D01*
X125883634Y-115170719D01*
X125883636Y-115170719D01*
X125890165Y-115172885D01*
X125993769Y-115183500D01*
X126496096Y-115183500D01*
X127006230Y-115183499D01*
X127111129Y-115172616D01*
X127117660Y-115170437D01*
X127117665Y-115170436D01*
X127270578Y-115119420D01*
X127277526Y-115117102D01*
X127426689Y-115024797D01*
X127468432Y-114982982D01*
X127530713Y-114948903D01*
X127557604Y-114946000D01*
X131821129Y-114946000D01*
X131889250Y-114966002D01*
X131910224Y-114982905D01*
X134204595Y-117277276D01*
X134238621Y-117339588D01*
X134241500Y-117366371D01*
X134241500Y-119240500D01*
X134221498Y-119308621D01*
X134167842Y-119355114D01*
X134115500Y-119366500D01*
X133951866Y-119366500D01*
X133889684Y-119373255D01*
X133753295Y-119424385D01*
X133636739Y-119511739D01*
X133549385Y-119628295D01*
X133498255Y-119764684D01*
X133491500Y-119826866D01*
X133491500Y-125923134D01*
X133498255Y-125985316D01*
X133549385Y-126121705D01*
X133636739Y-126238261D01*
X133753295Y-126325615D01*
X133889684Y-126376745D01*
X133951866Y-126383500D01*
X134115500Y-126383500D01*
X134183621Y-126403502D01*
X134230114Y-126457158D01*
X134241500Y-126509500D01*
X134241500Y-128840500D01*
X134221498Y-128908621D01*
X134167842Y-128955114D01*
X134115500Y-128966500D01*
X133951866Y-128966500D01*
X133889684Y-128973255D01*
X133753295Y-129024385D01*
X133636739Y-129111739D01*
X133549385Y-129228295D01*
X133498255Y-129364684D01*
X133491500Y-129426866D01*
X133491500Y-133023134D01*
X133498255Y-133085316D01*
X133549385Y-133221705D01*
X133636739Y-133338261D01*
X133753295Y-133425615D01*
X133889684Y-133476745D01*
X133951866Y-133483500D01*
X136048134Y-133483500D01*
X136110316Y-133476745D01*
X136246705Y-133425615D01*
X136363261Y-133338261D01*
X136450615Y-133221705D01*
X136501745Y-133085316D01*
X136508500Y-133023134D01*
X136508500Y-129426866D01*
X136501745Y-129364684D01*
X136450615Y-129228295D01*
X136363261Y-129111739D01*
X136246705Y-129024385D01*
X136110316Y-128973255D01*
X136048134Y-128966500D01*
X135884500Y-128966500D01*
X135816379Y-128946498D01*
X135769886Y-128892842D01*
X135758500Y-128840500D01*
X135758500Y-126509500D01*
X135778502Y-126441379D01*
X135832158Y-126394886D01*
X135884500Y-126383500D01*
X136048134Y-126383500D01*
X136110316Y-126376745D01*
X136246705Y-126325615D01*
X136363261Y-126238261D01*
X136450615Y-126121705D01*
X136501745Y-125985316D01*
X136508500Y-125923134D01*
X136508500Y-119826866D01*
X136501745Y-119764684D01*
X136450615Y-119628295D01*
X136363261Y-119511739D01*
X136246705Y-119424385D01*
X136110316Y-119373255D01*
X136048134Y-119366500D01*
X135884500Y-119366500D01*
X135816379Y-119346498D01*
X135769886Y-119292842D01*
X135758500Y-119240500D01*
X135758500Y-117067070D01*
X135759933Y-117048120D01*
X135762099Y-117033885D01*
X135762099Y-117033881D01*
X135763199Y-117026651D01*
X135758915Y-116973982D01*
X135758500Y-116963767D01*
X135758500Y-116955707D01*
X135755209Y-116927480D01*
X135754778Y-116923121D01*
X135749454Y-116857662D01*
X135749453Y-116857659D01*
X135748860Y-116850364D01*
X135746604Y-116843400D01*
X135745417Y-116837461D01*
X135744030Y-116831590D01*
X135743182Y-116824319D01*
X135740686Y-116817443D01*
X135740684Y-116817434D01*
X135718275Y-116755702D01*
X135716865Y-116751598D01*
X135694352Y-116682101D01*
X135690556Y-116675846D01*
X135688057Y-116670387D01*
X135685329Y-116664939D01*
X135682833Y-116658063D01*
X135642805Y-116597010D01*
X135640481Y-116593327D01*
X135605504Y-116535686D01*
X135605501Y-116535682D01*
X135602595Y-116530893D01*
X135598886Y-116526694D01*
X135598883Y-116526689D01*
X135595197Y-116522516D01*
X135595224Y-116522492D01*
X135592571Y-116519500D01*
X135589868Y-116516267D01*
X135585856Y-116510148D01*
X135529617Y-116456872D01*
X135527175Y-116454494D01*
X132771270Y-113698589D01*
X132758884Y-113684177D01*
X132750351Y-113672582D01*
X132750346Y-113672577D01*
X132746008Y-113666682D01*
X132740430Y-113661943D01*
X132740427Y-113661940D01*
X132705732Y-113632465D01*
X132698216Y-113625535D01*
X132692521Y-113619840D01*
X132686380Y-113614982D01*
X132670249Y-113602219D01*
X132666845Y-113599428D01*
X132616797Y-113556909D01*
X132616795Y-113556908D01*
X132611215Y-113552167D01*
X132604699Y-113548839D01*
X132599650Y-113545472D01*
X132594521Y-113542305D01*
X132588784Y-113537766D01*
X132522625Y-113506845D01*
X132518725Y-113504939D01*
X132453692Y-113471731D01*
X132446584Y-113469992D01*
X132440941Y-113467893D01*
X132435178Y-113465976D01*
X132428550Y-113462878D01*
X132357083Y-113448013D01*
X132352799Y-113447043D01*
X132288694Y-113431357D01*
X132281890Y-113429692D01*
X132276288Y-113429344D01*
X132276285Y-113429344D01*
X132270736Y-113429000D01*
X132270738Y-113428964D01*
X132266745Y-113428725D01*
X132262553Y-113428351D01*
X132255385Y-113426860D01*
X132189175Y-113428651D01*
X132177979Y-113428954D01*
X132174572Y-113429000D01*
X127557536Y-113429000D01*
X127489415Y-113408998D01*
X127468519Y-113392173D01*
X127430842Y-113354562D01*
X127430837Y-113354558D01*
X127425653Y-113349383D01*
X127422730Y-113347581D01*
X127382592Y-113290971D01*
X127379358Y-113220048D01*
X127414982Y-113158636D01*
X127421378Y-113153084D01*
X127426689Y-113149797D01*
X127480909Y-113095483D01*
X127545446Y-113030833D01*
X127550617Y-113025653D01*
X127642661Y-112876329D01*
X127666226Y-112805283D01*
X127695719Y-112716366D01*
X127695719Y-112716364D01*
X127697885Y-112709835D01*
X127708500Y-112606231D01*
X127708499Y-112018770D01*
X127697616Y-111913871D01*
X127695437Y-111907340D01*
X127695436Y-111907335D01*
X127644420Y-111754422D01*
X127642102Y-111747474D01*
X127613221Y-111700803D01*
X127594383Y-111632351D01*
X127615544Y-111564581D01*
X127669985Y-111519010D01*
X127720365Y-111508500D01*
X128932930Y-111508500D01*
X128951880Y-111509933D01*
X128966115Y-111512099D01*
X128966119Y-111512099D01*
X128973349Y-111513199D01*
X128980641Y-111512606D01*
X128980644Y-111512606D01*
X129026018Y-111508915D01*
X129036233Y-111508500D01*
X129044293Y-111508500D01*
X129057583Y-111506951D01*
X129072507Y-111505211D01*
X129076882Y-111504778D01*
X129142339Y-111499454D01*
X129142342Y-111499453D01*
X129149637Y-111498860D01*
X129156601Y-111496604D01*
X129162560Y-111495413D01*
X129168415Y-111494029D01*
X129175681Y-111493182D01*
X129244327Y-111468265D01*
X129248455Y-111466848D01*
X129310936Y-111446607D01*
X129310938Y-111446606D01*
X129317899Y-111444351D01*
X129324154Y-111440555D01*
X129329628Y-111438049D01*
X129335058Y-111435330D01*
X129341937Y-111432833D01*
X129349690Y-111427750D01*
X129402976Y-111392814D01*
X129406680Y-111390477D01*
X129469107Y-111352595D01*
X129477484Y-111345197D01*
X129477508Y-111345224D01*
X129480500Y-111342571D01*
X129483733Y-111339868D01*
X129489852Y-111335856D01*
X129543128Y-111279617D01*
X129545506Y-111277175D01*
X133988911Y-106833770D01*
X134003323Y-106821384D01*
X134014918Y-106812851D01*
X134014923Y-106812846D01*
X134020818Y-106808508D01*
X134025557Y-106802930D01*
X134025560Y-106802927D01*
X134055035Y-106768232D01*
X134061965Y-106760716D01*
X134067660Y-106755021D01*
X134073631Y-106747474D01*
X134085281Y-106732749D01*
X134088072Y-106729345D01*
X134130591Y-106679297D01*
X134130592Y-106679295D01*
X134135333Y-106673715D01*
X134138661Y-106667199D01*
X134142028Y-106662150D01*
X134145195Y-106657021D01*
X134149734Y-106651284D01*
X134180655Y-106585125D01*
X134182561Y-106581225D01*
X134215769Y-106516192D01*
X134217508Y-106509084D01*
X134219607Y-106503441D01*
X134221524Y-106497678D01*
X134224622Y-106491050D01*
X134239487Y-106419583D01*
X134240457Y-106415299D01*
X134245959Y-106392814D01*
X134257808Y-106344390D01*
X134258338Y-106335856D01*
X134258500Y-106333236D01*
X134258536Y-106333238D01*
X134258775Y-106329245D01*
X134259149Y-106325053D01*
X134260640Y-106317885D01*
X134258546Y-106240479D01*
X134258500Y-106237072D01*
X134258500Y-101366371D01*
X134278502Y-101298250D01*
X134295405Y-101277276D01*
X134657276Y-100915405D01*
X134719588Y-100881379D01*
X134746371Y-100878500D01*
X135028133Y-100878500D01*
X135096254Y-100898502D01*
G37*
G04 #@! TD.AperFunction*
G04 #@! TA.AperFunction,Conductor*
G36*
X132970018Y-75510000D02*
G01*
X132984851Y-75512310D01*
X132984855Y-75512310D01*
X132993724Y-75513691D01*
X133008981Y-75511696D01*
X133034302Y-75510953D01*
X133203285Y-75523039D01*
X133221064Y-75525596D01*
X133410013Y-75566699D01*
X133411392Y-75566999D01*
X133428641Y-75572063D01*
X133611150Y-75640136D01*
X133627502Y-75647604D01*
X133798458Y-75740952D01*
X133813582Y-75750672D01*
X133969514Y-75867402D01*
X133983100Y-75879175D01*
X134120825Y-76016900D01*
X134132598Y-76030486D01*
X134249328Y-76186418D01*
X134259048Y-76201542D01*
X134352396Y-76372498D01*
X134359864Y-76388850D01*
X134427937Y-76571359D01*
X134433001Y-76588607D01*
X134474404Y-76778936D01*
X134476962Y-76796721D01*
X134488540Y-76958601D01*
X134487793Y-76976565D01*
X134487692Y-76984845D01*
X134486309Y-76993724D01*
X134487474Y-77002630D01*
X134490436Y-77025283D01*
X134491500Y-77041621D01*
X134491500Y-81950633D01*
X134490000Y-81970018D01*
X134487690Y-81984851D01*
X134487690Y-81984855D01*
X134486309Y-81993724D01*
X134487251Y-82000925D01*
X134487456Y-82004058D01*
X134487453Y-82004333D01*
X134487518Y-82004997D01*
X134504410Y-82262724D01*
X134505214Y-82266764D01*
X134505214Y-82266767D01*
X134550762Y-82495750D01*
X134555775Y-82520954D01*
X134640406Y-82770269D01*
X134695534Y-82882059D01*
X134748527Y-82989517D01*
X134756855Y-83006405D01*
X134903130Y-83225321D01*
X135076728Y-83423272D01*
X135274679Y-83596870D01*
X135493595Y-83743145D01*
X135497294Y-83744969D01*
X135497299Y-83744972D01*
X135586006Y-83788717D01*
X135729731Y-83859594D01*
X135733636Y-83860919D01*
X135733637Y-83860920D01*
X135975139Y-83942899D01*
X135975142Y-83942900D01*
X135979046Y-83944225D01*
X135983085Y-83945028D01*
X135983091Y-83945030D01*
X136233233Y-83994786D01*
X136233236Y-83994786D01*
X136237276Y-83995590D01*
X136241387Y-83995859D01*
X136241391Y-83995860D01*
X136465609Y-84010556D01*
X136478269Y-84012032D01*
X136481309Y-84012543D01*
X136487448Y-84013576D01*
X136493456Y-84013649D01*
X136493724Y-84013691D01*
X136493993Y-84013656D01*
X136500000Y-84013729D01*
X136508282Y-84012543D01*
X136537126Y-84011748D01*
X136661194Y-84022603D01*
X136682817Y-84026415D01*
X136796434Y-84056859D01*
X136828466Y-84065442D01*
X136849104Y-84072954D01*
X136985760Y-84136678D01*
X137004780Y-84147660D01*
X137128297Y-84234147D01*
X137145122Y-84248265D01*
X137251735Y-84354878D01*
X137265853Y-84371703D01*
X137352340Y-84495220D01*
X137363322Y-84514240D01*
X137427046Y-84650896D01*
X137434557Y-84671534D01*
X137473583Y-84817178D01*
X137477398Y-84838809D01*
X137487947Y-84959393D01*
X137487393Y-84975871D01*
X137487800Y-84975876D01*
X137487690Y-84984853D01*
X137486309Y-84993724D01*
X137487473Y-85002626D01*
X137487473Y-85002628D01*
X137490436Y-85025283D01*
X137491500Y-85041621D01*
X137491500Y-91312816D01*
X137471498Y-91380937D01*
X137417842Y-91427430D01*
X137347568Y-91437534D01*
X137293229Y-91416029D01*
X137258198Y-91391500D01*
X137216749Y-91362477D01*
X137211767Y-91360154D01*
X137211762Y-91360151D01*
X137014225Y-91268039D01*
X137014224Y-91268039D01*
X137009243Y-91265716D01*
X137003935Y-91264294D01*
X137003933Y-91264293D01*
X136793402Y-91207881D01*
X136793400Y-91207881D01*
X136788087Y-91206457D01*
X136688520Y-91197746D01*
X136619851Y-91191738D01*
X136619844Y-91191738D01*
X136617127Y-91191500D01*
X136102873Y-91191500D01*
X136100156Y-91191738D01*
X136100149Y-91191738D01*
X136031480Y-91197746D01*
X135931913Y-91206457D01*
X135926600Y-91207881D01*
X135926598Y-91207881D01*
X135716067Y-91264293D01*
X135716065Y-91264294D01*
X135710757Y-91265716D01*
X135705776Y-91268039D01*
X135705775Y-91268039D01*
X135508238Y-91360151D01*
X135508233Y-91360154D01*
X135503251Y-91362477D01*
X135426771Y-91416029D01*
X135320211Y-91490643D01*
X135320208Y-91490645D01*
X135315700Y-91493802D01*
X135153802Y-91655700D01*
X135150645Y-91660208D01*
X135150643Y-91660211D01*
X135095902Y-91738389D01*
X135022477Y-91843251D01*
X135020154Y-91848233D01*
X135020151Y-91848238D01*
X134939132Y-92021986D01*
X134925716Y-92050757D01*
X134866457Y-92271913D01*
X134846502Y-92500000D01*
X134866457Y-92728087D01*
X134867881Y-92733400D01*
X134867881Y-92733402D01*
X134906179Y-92876329D01*
X134925716Y-92949243D01*
X134928039Y-92954224D01*
X134928039Y-92954225D01*
X135020151Y-93151762D01*
X135020154Y-93151767D01*
X135022477Y-93156749D01*
X135095902Y-93261611D01*
X135116461Y-93290971D01*
X135153802Y-93344300D01*
X135315700Y-93506198D01*
X135320208Y-93509355D01*
X135320211Y-93509357D01*
X135380442Y-93551531D01*
X135503251Y-93637523D01*
X135508233Y-93639846D01*
X135508238Y-93639849D01*
X135542457Y-93655805D01*
X135595742Y-93702722D01*
X135615203Y-93770999D01*
X135594661Y-93838959D01*
X135542457Y-93884195D01*
X135508238Y-93900151D01*
X135508233Y-93900154D01*
X135503251Y-93902477D01*
X135464954Y-93929293D01*
X135320211Y-94030643D01*
X135320208Y-94030645D01*
X135315700Y-94033802D01*
X135153802Y-94195700D01*
X135022477Y-94383251D01*
X135020154Y-94388233D01*
X135020151Y-94388238D01*
X134969034Y-94497861D01*
X134925716Y-94590757D01*
X134924294Y-94596065D01*
X134924293Y-94596067D01*
X134875244Y-94779119D01*
X134866457Y-94811913D01*
X134846502Y-95040000D01*
X134866457Y-95268087D01*
X134925716Y-95489243D01*
X134928039Y-95494224D01*
X134928039Y-95494225D01*
X135020151Y-95691762D01*
X135020154Y-95691767D01*
X135022477Y-95696749D01*
X135153802Y-95884300D01*
X135315700Y-96046198D01*
X135320208Y-96049355D01*
X135320211Y-96049357D01*
X135368500Y-96083169D01*
X135503251Y-96177523D01*
X135508233Y-96179846D01*
X135508238Y-96179849D01*
X135542457Y-96195805D01*
X135595742Y-96242722D01*
X135615203Y-96310999D01*
X135594661Y-96378959D01*
X135542457Y-96424195D01*
X135508238Y-96440151D01*
X135508233Y-96440154D01*
X135503251Y-96442477D01*
X135462018Y-96471349D01*
X135320211Y-96570643D01*
X135320208Y-96570645D01*
X135315700Y-96573802D01*
X135153802Y-96735700D01*
X135131345Y-96767771D01*
X135075890Y-96812099D01*
X135028133Y-96821500D01*
X134927063Y-96821500D01*
X134908114Y-96820067D01*
X134907907Y-96820036D01*
X134886651Y-96816802D01*
X134879359Y-96817395D01*
X134879356Y-96817395D01*
X134833991Y-96821085D01*
X134823777Y-96821500D01*
X134815707Y-96821500D01*
X134812087Y-96821922D01*
X134812069Y-96821923D01*
X134787461Y-96824792D01*
X134783100Y-96825224D01*
X134757981Y-96827267D01*
X134717661Y-96830546D01*
X134717658Y-96830547D01*
X134710363Y-96831140D01*
X134703399Y-96833396D01*
X134697440Y-96834587D01*
X134691585Y-96835971D01*
X134684319Y-96836818D01*
X134615673Y-96861735D01*
X134611545Y-96863152D01*
X134549064Y-96883393D01*
X134549062Y-96883394D01*
X134542101Y-96885649D01*
X134535846Y-96889445D01*
X134530372Y-96891951D01*
X134524942Y-96894670D01*
X134518063Y-96897167D01*
X134457016Y-96937191D01*
X134453327Y-96939518D01*
X134433135Y-96951771D01*
X134395693Y-96974491D01*
X134395688Y-96974495D01*
X134390892Y-96977405D01*
X134382516Y-96984803D01*
X134382493Y-96984777D01*
X134379503Y-96987426D01*
X134376264Y-96990134D01*
X134370148Y-96994144D01*
X134365121Y-96999451D01*
X134365117Y-96999454D01*
X134316872Y-97050383D01*
X134314494Y-97052825D01*
X133973595Y-97393724D01*
X133911283Y-97427750D01*
X133840468Y-97422685D01*
X133783632Y-97380138D01*
X133758821Y-97313618D01*
X133758500Y-97304629D01*
X133758500Y-87042070D01*
X133759933Y-87023120D01*
X133762099Y-87008885D01*
X133762099Y-87008881D01*
X133763199Y-87001651D01*
X133758915Y-86948982D01*
X133758500Y-86938767D01*
X133758500Y-86930707D01*
X133755209Y-86902480D01*
X133754778Y-86898121D01*
X133749454Y-86832662D01*
X133749453Y-86832659D01*
X133748860Y-86825364D01*
X133746604Y-86818400D01*
X133745417Y-86812461D01*
X133744030Y-86806590D01*
X133743182Y-86799319D01*
X133740686Y-86792443D01*
X133740684Y-86792434D01*
X133718275Y-86730702D01*
X133716865Y-86726598D01*
X133694352Y-86657101D01*
X133690556Y-86650846D01*
X133688057Y-86645387D01*
X133685329Y-86639939D01*
X133682833Y-86633063D01*
X133642805Y-86572010D01*
X133640481Y-86568327D01*
X133639373Y-86566500D01*
X133602595Y-86505893D01*
X133595198Y-86497517D01*
X133595225Y-86497493D01*
X133592570Y-86494499D01*
X133589868Y-86491268D01*
X133585856Y-86485148D01*
X133529617Y-86431872D01*
X133527175Y-86429494D01*
X128410180Y-81312499D01*
X128376154Y-81250187D01*
X128381219Y-81179372D01*
X128416696Y-81128238D01*
X128473407Y-81079028D01*
X128473413Y-81079021D01*
X128477445Y-81075523D01*
X128544500Y-80993744D01*
X128620240Y-80901373D01*
X128620244Y-80901367D01*
X128623624Y-80897245D01*
X128636681Y-80874308D01*
X128641829Y-80865265D01*
X128692912Y-80815959D01*
X128762542Y-80802098D01*
X128828613Y-80828082D01*
X128855851Y-80857232D01*
X128934852Y-80974578D01*
X128941519Y-80982870D01*
X129093228Y-81141900D01*
X129101186Y-81148941D01*
X129277525Y-81280141D01*
X129286562Y-81285745D01*
X129482484Y-81385357D01*
X129492335Y-81389357D01*
X129702240Y-81454534D01*
X129712624Y-81456817D01*
X129728043Y-81458861D01*
X129742207Y-81456665D01*
X129746000Y-81443478D01*
X129746000Y-81441192D01*
X130254000Y-81441192D01*
X130257973Y-81454723D01*
X130268580Y-81456248D01*
X130386421Y-81431523D01*
X130396617Y-81428463D01*
X130601029Y-81347737D01*
X130610561Y-81343006D01*
X130798462Y-81228984D01*
X130807052Y-81222720D01*
X130973052Y-81078673D01*
X130980472Y-81071042D01*
X131119826Y-80901089D01*
X131125850Y-80892322D01*
X131234576Y-80701318D01*
X131239041Y-80691654D01*
X131314031Y-80485059D01*
X131316802Y-80474792D01*
X131353504Y-80271826D01*
X131352085Y-80258586D01*
X131337450Y-80254000D01*
X130272115Y-80254000D01*
X130256876Y-80258475D01*
X130255671Y-80259865D01*
X130254000Y-80267548D01*
X130254000Y-81441192D01*
X129746000Y-81441192D01*
X129746000Y-79727885D01*
X130254000Y-79727885D01*
X130258475Y-79743124D01*
X130259865Y-79744329D01*
X130267548Y-79746000D01*
X131333849Y-79746000D01*
X131348527Y-79741690D01*
X131350590Y-79729807D01*
X131343876Y-79650675D01*
X131342086Y-79640203D01*
X131286870Y-79427465D01*
X131283335Y-79417425D01*
X131193063Y-79217030D01*
X131187894Y-79207744D01*
X131065150Y-79025425D01*
X131058481Y-79017130D01*
X130906772Y-78858100D01*
X130898814Y-78851059D01*
X130722475Y-78719859D01*
X130713438Y-78714255D01*
X130517516Y-78614643D01*
X130507665Y-78610643D01*
X130297760Y-78545466D01*
X130287376Y-78543183D01*
X130271957Y-78541139D01*
X130257793Y-78543335D01*
X130254000Y-78556522D01*
X130254000Y-79727885D01*
X129746000Y-79727885D01*
X129746000Y-78558808D01*
X129742027Y-78545277D01*
X129731420Y-78543752D01*
X129613579Y-78568477D01*
X129603383Y-78571537D01*
X129398971Y-78652263D01*
X129389439Y-78656994D01*
X129201538Y-78771016D01*
X129192947Y-78777280D01*
X129067081Y-78886502D01*
X129002521Y-78916042D01*
X128932240Y-78905988D01*
X128878551Y-78859534D01*
X128858500Y-78791337D01*
X128858500Y-76597856D01*
X128859578Y-76581409D01*
X128861092Y-76569908D01*
X128861529Y-76566590D01*
X128863156Y-76500000D01*
X128858583Y-76444372D01*
X128858500Y-76443043D01*
X128858500Y-76442110D01*
X128855175Y-76402922D01*
X128844852Y-76277361D01*
X128844352Y-76275370D01*
X128843920Y-76270280D01*
X128817748Y-76169444D01*
X128817547Y-76168655D01*
X128791690Y-76065714D01*
X128791690Y-76065713D01*
X128790431Y-76060702D01*
X128788830Y-76057021D01*
X128787828Y-76053675D01*
X128787342Y-76052294D01*
X128786001Y-76047128D01*
X128783810Y-76042263D01*
X128783806Y-76042253D01*
X128743968Y-75953816D01*
X128743301Y-75952309D01*
X128703418Y-75860584D01*
X128703411Y-75860572D01*
X128701354Y-75855840D01*
X128698547Y-75851501D01*
X128696421Y-75847537D01*
X128694254Y-75843138D01*
X128693502Y-75841787D01*
X128691312Y-75836925D01*
X128635803Y-75754474D01*
X128634531Y-75752547D01*
X128602439Y-75702940D01*
X128582232Y-75634879D01*
X128602028Y-75566699D01*
X128655544Y-75520045D01*
X128708231Y-75508500D01*
X132950633Y-75508500D01*
X132970018Y-75510000D01*
G37*
G04 #@! TD.AperFunction*
G04 #@! TA.AperFunction,Conductor*
G36*
X118858021Y-75528502D02*
G01*
X118904514Y-75582158D01*
X118914618Y-75652432D01*
X118887334Y-75714391D01*
X118876376Y-75727755D01*
X118849411Y-75775127D01*
X118844019Y-75783763D01*
X118814743Y-75826680D01*
X118812567Y-75831368D01*
X118793428Y-75872601D01*
X118788650Y-75881869D01*
X118762325Y-75928114D01*
X118760505Y-75933127D01*
X118760504Y-75933130D01*
X118745052Y-75975701D01*
X118740900Y-75985761D01*
X118720688Y-76029305D01*
X118710591Y-76065714D01*
X118706109Y-76081874D01*
X118703137Y-76091175D01*
X118683663Y-76144825D01*
X118682714Y-76150073D01*
X118675343Y-76190834D01*
X118672775Y-76202070D01*
X118660989Y-76244570D01*
X118660440Y-76249711D01*
X118660439Y-76249714D01*
X118654773Y-76302729D01*
X118653476Y-76311757D01*
X118643378Y-76367602D01*
X118643377Y-76367610D01*
X118642639Y-76371692D01*
X118641500Y-76395844D01*
X118641500Y-76420219D01*
X118640787Y-76433607D01*
X118637251Y-76466695D01*
X118637548Y-76471848D01*
X118637548Y-76471851D01*
X118641291Y-76536763D01*
X118641500Y-76544016D01*
X118641500Y-80775400D01*
X118641837Y-80778646D01*
X118641837Y-80778650D01*
X118650875Y-80865752D01*
X118652474Y-80881166D01*
X118654655Y-80887702D01*
X118654655Y-80887704D01*
X118686405Y-80982870D01*
X118708450Y-81048946D01*
X118801522Y-81199348D01*
X118926697Y-81324305D01*
X118932928Y-81328146D01*
X118938673Y-81332683D01*
X118937623Y-81334013D01*
X118979108Y-81380107D01*
X118991500Y-81434597D01*
X118991500Y-84438157D01*
X118990763Y-84451764D01*
X118986676Y-84489388D01*
X118987213Y-84495523D01*
X118991050Y-84539388D01*
X118991379Y-84544214D01*
X118991500Y-84546686D01*
X118991500Y-84549769D01*
X118991801Y-84552837D01*
X118995690Y-84592506D01*
X118995812Y-84593819D01*
X119003913Y-84686413D01*
X119005400Y-84691532D01*
X119005920Y-84696833D01*
X119032791Y-84785834D01*
X119033126Y-84786967D01*
X119048188Y-84838808D01*
X119059091Y-84876336D01*
X119061544Y-84881068D01*
X119063084Y-84886169D01*
X119065978Y-84891612D01*
X119106731Y-84968260D01*
X119107343Y-84969426D01*
X119129698Y-85012552D01*
X119150108Y-85051926D01*
X119153431Y-85056089D01*
X119155934Y-85060796D01*
X119214755Y-85132918D01*
X119215446Y-85133774D01*
X119246738Y-85172973D01*
X119249242Y-85175477D01*
X119249884Y-85176195D01*
X119253585Y-85180528D01*
X119280935Y-85214062D01*
X119285682Y-85217989D01*
X119285684Y-85217991D01*
X119316262Y-85243287D01*
X119325042Y-85251277D01*
X119943149Y-85869384D01*
X119952251Y-85879527D01*
X119975968Y-85909025D01*
X120014446Y-85941312D01*
X120018062Y-85944467D01*
X120019888Y-85946123D01*
X120022074Y-85948309D01*
X120024454Y-85950264D01*
X120024464Y-85950273D01*
X120055268Y-85975576D01*
X120056283Y-85976418D01*
X120082918Y-85998767D01*
X120127474Y-86036154D01*
X120132148Y-86038723D01*
X120136261Y-86042102D01*
X120141698Y-86045017D01*
X120141699Y-86045018D01*
X120218047Y-86085955D01*
X120219177Y-86086568D01*
X120300787Y-86131433D01*
X120305869Y-86133045D01*
X120310563Y-86135562D01*
X120399531Y-86162762D01*
X120400559Y-86163082D01*
X120489306Y-86191235D01*
X120494602Y-86191829D01*
X120499698Y-86193387D01*
X120592222Y-86202785D01*
X120593342Y-86202905D01*
X120626664Y-86206642D01*
X120639730Y-86208108D01*
X120639734Y-86208108D01*
X120643227Y-86208500D01*
X120646754Y-86208500D01*
X120647757Y-86208556D01*
X120653441Y-86209003D01*
X120678857Y-86211585D01*
X120690336Y-86212751D01*
X120690338Y-86212751D01*
X120696462Y-86213373D01*
X120742101Y-86209059D01*
X120753957Y-86208500D01*
X121645198Y-86208500D01*
X121713319Y-86228502D01*
X121746021Y-86258931D01*
X121757641Y-86274435D01*
X121782489Y-86340939D01*
X121767437Y-86410322D01*
X121757649Y-86425554D01*
X121699385Y-86503295D01*
X121696232Y-86511704D01*
X121696231Y-86511707D01*
X121687599Y-86534731D01*
X121644957Y-86591495D01*
X121578395Y-86616194D01*
X121569618Y-86616500D01*
X118484500Y-86616500D01*
X118416379Y-86596498D01*
X118369886Y-86542842D01*
X118358500Y-86490500D01*
X118358500Y-85551866D01*
X118351745Y-85489684D01*
X118300615Y-85353295D01*
X118213261Y-85236739D01*
X118096705Y-85149385D01*
X117960316Y-85098255D01*
X117898134Y-85091500D01*
X115801866Y-85091500D01*
X115739684Y-85098255D01*
X115603295Y-85149385D01*
X115486739Y-85236739D01*
X115399385Y-85353295D01*
X115348255Y-85489684D01*
X115341500Y-85551866D01*
X115341500Y-89448134D01*
X115348255Y-89510316D01*
X115399385Y-89646705D01*
X115486739Y-89763261D01*
X115603295Y-89850615D01*
X115739684Y-89901745D01*
X115801866Y-89908500D01*
X117898134Y-89908500D01*
X117960316Y-89901745D01*
X118096705Y-89850615D01*
X118213261Y-89763261D01*
X118239738Y-89727933D01*
X125292001Y-89727933D01*
X125292338Y-89734452D01*
X125302166Y-89829170D01*
X125305058Y-89842564D01*
X125356036Y-89995365D01*
X125362210Y-90008543D01*
X125446744Y-90145149D01*
X125455780Y-90156550D01*
X125569479Y-90270051D01*
X125580890Y-90279063D01*
X125717654Y-90363365D01*
X125730832Y-90369509D01*
X125883740Y-90420227D01*
X125897106Y-90423093D01*
X125990601Y-90432672D01*
X125997016Y-90433000D01*
X126227885Y-90433000D01*
X126243124Y-90428525D01*
X126244329Y-90427135D01*
X126246000Y-90419452D01*
X126246000Y-90414884D01*
X126754000Y-90414884D01*
X126758475Y-90430123D01*
X126759865Y-90431328D01*
X126767548Y-90432999D01*
X127002933Y-90432999D01*
X127009452Y-90432662D01*
X127104170Y-90422834D01*
X127117564Y-90419942D01*
X127270365Y-90368964D01*
X127283543Y-90362790D01*
X127420149Y-90278256D01*
X127431550Y-90269220D01*
X127545051Y-90155521D01*
X127554063Y-90144110D01*
X127638365Y-90007346D01*
X127644509Y-89994168D01*
X127695227Y-89841260D01*
X127698093Y-89827894D01*
X127707672Y-89734399D01*
X127708000Y-89727984D01*
X127708000Y-89709615D01*
X127703525Y-89694376D01*
X127702135Y-89693171D01*
X127694452Y-89691500D01*
X126772115Y-89691500D01*
X126756876Y-89695975D01*
X126755671Y-89697365D01*
X126754000Y-89705048D01*
X126754000Y-90414884D01*
X126246000Y-90414884D01*
X126246000Y-89709615D01*
X126241525Y-89694376D01*
X126240135Y-89693171D01*
X126232452Y-89691500D01*
X125310116Y-89691500D01*
X125294877Y-89695975D01*
X125293672Y-89697365D01*
X125292001Y-89705048D01*
X125292001Y-89727933D01*
X118239738Y-89727933D01*
X118300615Y-89646705D01*
X118351745Y-89510316D01*
X118358500Y-89448134D01*
X118358500Y-88509500D01*
X118378502Y-88441379D01*
X118432158Y-88394886D01*
X118484500Y-88383500D01*
X121569618Y-88383500D01*
X121637739Y-88403502D01*
X121684232Y-88457158D01*
X121687599Y-88465269D01*
X121696231Y-88488293D01*
X121699385Y-88496705D01*
X121722414Y-88527432D01*
X121757953Y-88574852D01*
X121782801Y-88641358D01*
X121767748Y-88710741D01*
X121757953Y-88725982D01*
X121705214Y-88796352D01*
X121696676Y-88811946D01*
X121651522Y-88932394D01*
X121647895Y-88947649D01*
X121642369Y-88998514D01*
X121642000Y-89005328D01*
X121642000Y-89527885D01*
X121646475Y-89543124D01*
X121647865Y-89544329D01*
X121655548Y-89546000D01*
X124639884Y-89546000D01*
X124655123Y-89541525D01*
X124656328Y-89540135D01*
X124657999Y-89532452D01*
X124657999Y-89005331D01*
X124657629Y-88998510D01*
X124652105Y-88947648D01*
X124648479Y-88932396D01*
X124603324Y-88811946D01*
X124594786Y-88796352D01*
X124542047Y-88725982D01*
X124517199Y-88659476D01*
X124532252Y-88590093D01*
X124542047Y-88574852D01*
X124577586Y-88527432D01*
X124600615Y-88496705D01*
X124603769Y-88488293D01*
X124612401Y-88465269D01*
X124655043Y-88408505D01*
X124721605Y-88383806D01*
X124730382Y-88383500D01*
X125487074Y-88383500D01*
X125555195Y-88403502D01*
X125601688Y-88457158D01*
X125611792Y-88527432D01*
X125582298Y-88592012D01*
X125573479Y-88600454D01*
X125573623Y-88600598D01*
X125454949Y-88719479D01*
X125445937Y-88730890D01*
X125361635Y-88867654D01*
X125355491Y-88880832D01*
X125304773Y-89033740D01*
X125301907Y-89047106D01*
X125292328Y-89140601D01*
X125292000Y-89147016D01*
X125292000Y-89165385D01*
X125296475Y-89180624D01*
X125297865Y-89181829D01*
X125305548Y-89183500D01*
X127689884Y-89183500D01*
X127705123Y-89179025D01*
X127706328Y-89177635D01*
X127707999Y-89169952D01*
X127707999Y-89147067D01*
X127707662Y-89140548D01*
X127697834Y-89045830D01*
X127694942Y-89032436D01*
X127643964Y-88879635D01*
X127637790Y-88866457D01*
X127553256Y-88729851D01*
X127544220Y-88718450D01*
X127430521Y-88604949D01*
X127423249Y-88599206D01*
X127382186Y-88541289D01*
X127378954Y-88470366D01*
X127414579Y-88408954D01*
X127421254Y-88403160D01*
X127426689Y-88399797D01*
X127550617Y-88275653D01*
X127642661Y-88126329D01*
X127665480Y-88057534D01*
X127680737Y-88011534D01*
X127721168Y-87953174D01*
X127786732Y-87925937D01*
X127856613Y-87938470D01*
X127889425Y-87962106D01*
X128204595Y-88277276D01*
X128238621Y-88339588D01*
X128241500Y-88366371D01*
X128241500Y-93133629D01*
X128221498Y-93201750D01*
X128204595Y-93222724D01*
X128035224Y-93392095D01*
X127972912Y-93426121D01*
X127946129Y-93429000D01*
X127557536Y-93429000D01*
X127489415Y-93408998D01*
X127468519Y-93392173D01*
X127430842Y-93354562D01*
X127430837Y-93354558D01*
X127425653Y-93349383D01*
X127422730Y-93347581D01*
X127382592Y-93290971D01*
X127379358Y-93220048D01*
X127414982Y-93158636D01*
X127421378Y-93153084D01*
X127426689Y-93149797D01*
X127480909Y-93095483D01*
X127545446Y-93030833D01*
X127550617Y-93025653D01*
X127642661Y-92876329D01*
X127666226Y-92805283D01*
X127695719Y-92716366D01*
X127695719Y-92716364D01*
X127697885Y-92709835D01*
X127708500Y-92606231D01*
X127708499Y-92018770D01*
X127697616Y-91913871D01*
X127695437Y-91907340D01*
X127695436Y-91907335D01*
X127644420Y-91754422D01*
X127642102Y-91747474D01*
X127549797Y-91598311D01*
X127425653Y-91474383D01*
X127276329Y-91382339D01*
X127269380Y-91380034D01*
X127116366Y-91329281D01*
X127116364Y-91329281D01*
X127109835Y-91327115D01*
X127006231Y-91316500D01*
X126503904Y-91316500D01*
X125993770Y-91316501D01*
X125888871Y-91327384D01*
X125882340Y-91329563D01*
X125882335Y-91329564D01*
X125734189Y-91378990D01*
X125722474Y-91382898D01*
X125573311Y-91475203D01*
X125449383Y-91599347D01*
X125357339Y-91748671D01*
X125302115Y-91915165D01*
X125291500Y-92018769D01*
X125291501Y-92606230D01*
X125302384Y-92711129D01*
X125304563Y-92717660D01*
X125304564Y-92717665D01*
X125332656Y-92801866D01*
X125357898Y-92877526D01*
X125450203Y-93026689D01*
X125455385Y-93031862D01*
X125486839Y-93063261D01*
X125574347Y-93150617D01*
X125577270Y-93152419D01*
X125617408Y-93209029D01*
X125620642Y-93279952D01*
X125585018Y-93341364D01*
X125578622Y-93346916D01*
X125573311Y-93350203D01*
X125568139Y-93355384D01*
X125531569Y-93392018D01*
X125469287Y-93426097D01*
X125442396Y-93429000D01*
X125303871Y-93429000D01*
X125235750Y-93408998D01*
X125214776Y-93392095D01*
X124995405Y-93172724D01*
X124961379Y-93110412D01*
X124958500Y-93083629D01*
X124958500Y-92801866D01*
X124951745Y-92739684D01*
X124900615Y-92603295D01*
X124813261Y-92486739D01*
X124696705Y-92399385D01*
X124560316Y-92348255D01*
X124498134Y-92341500D01*
X123501866Y-92341500D01*
X123439684Y-92348255D01*
X123303295Y-92399385D01*
X123186739Y-92486739D01*
X123181358Y-92493919D01*
X123175008Y-92500269D01*
X123172761Y-92498022D01*
X123128456Y-92531143D01*
X123057637Y-92536162D01*
X122995347Y-92502097D01*
X122961362Y-92439762D01*
X122958500Y-92413059D01*
X122958500Y-91851866D01*
X122951745Y-91789684D01*
X122900615Y-91653295D01*
X122813261Y-91536739D01*
X122696705Y-91449385D01*
X122560316Y-91398255D01*
X122498134Y-91391500D01*
X121501866Y-91391500D01*
X121439684Y-91398255D01*
X121303295Y-91449385D01*
X121263041Y-91479554D01*
X121213976Y-91516326D01*
X121147470Y-91541174D01*
X121138411Y-91541500D01*
X120545014Y-91541500D01*
X120476893Y-91521498D01*
X120455996Y-91504673D01*
X120430834Y-91479554D01*
X120430829Y-91479550D01*
X120425653Y-91474383D01*
X120276329Y-91382339D01*
X120269380Y-91380034D01*
X120116366Y-91329281D01*
X120116364Y-91329281D01*
X120109835Y-91327115D01*
X120006231Y-91316500D01*
X119503904Y-91316500D01*
X118993770Y-91316501D01*
X118888871Y-91327384D01*
X118882340Y-91329563D01*
X118882335Y-91329564D01*
X118734189Y-91378990D01*
X118722474Y-91382898D01*
X118573311Y-91475203D01*
X118449383Y-91599347D01*
X118357339Y-91748671D01*
X118302115Y-91915165D01*
X118291500Y-92018769D01*
X118291501Y-92606230D01*
X118302384Y-92711129D01*
X118304563Y-92717660D01*
X118304564Y-92717665D01*
X118332656Y-92801866D01*
X118357898Y-92877526D01*
X118450203Y-93026689D01*
X118455385Y-93031862D01*
X118486839Y-93063261D01*
X118574347Y-93150617D01*
X118577270Y-93152419D01*
X118617408Y-93209029D01*
X118620642Y-93279952D01*
X118585018Y-93341364D01*
X118578622Y-93346916D01*
X118573311Y-93350203D01*
X118568139Y-93355384D01*
X118531569Y-93392018D01*
X118469287Y-93426097D01*
X118442396Y-93429000D01*
X116879570Y-93429000D01*
X116860620Y-93427567D01*
X116846385Y-93425401D01*
X116846381Y-93425401D01*
X116839151Y-93424301D01*
X116831859Y-93424894D01*
X116831856Y-93424894D01*
X116786482Y-93428585D01*
X116776267Y-93429000D01*
X116768207Y-93429000D01*
X116764573Y-93429424D01*
X116764567Y-93429424D01*
X116751542Y-93430943D01*
X116739980Y-93432291D01*
X116735632Y-93432721D01*
X116713559Y-93434516D01*
X116670162Y-93438046D01*
X116670159Y-93438047D01*
X116662864Y-93438640D01*
X116655900Y-93440896D01*
X116649961Y-93442083D01*
X116644090Y-93443470D01*
X116636819Y-93444318D01*
X116629943Y-93446814D01*
X116629934Y-93446816D01*
X116568202Y-93469225D01*
X116564098Y-93470635D01*
X116494601Y-93493148D01*
X116488346Y-93496944D01*
X116482887Y-93499443D01*
X116477439Y-93502171D01*
X116470563Y-93504667D01*
X116409510Y-93544695D01*
X116405837Y-93547013D01*
X116371441Y-93567885D01*
X116354479Y-93578178D01*
X116343393Y-93584905D01*
X116335017Y-93592302D01*
X116334993Y-93592275D01*
X116331999Y-93594930D01*
X116328768Y-93597632D01*
X116322648Y-93601644D01*
X116317616Y-93606956D01*
X116269372Y-93657883D01*
X116266994Y-93660325D01*
X115511089Y-94416230D01*
X115496677Y-94428616D01*
X115485082Y-94437149D01*
X115485077Y-94437154D01*
X115479182Y-94441492D01*
X115474443Y-94447070D01*
X115474440Y-94447073D01*
X115444965Y-94481768D01*
X115438035Y-94489284D01*
X115432340Y-94494979D01*
X115430060Y-94497861D01*
X115414719Y-94517251D01*
X115411928Y-94520655D01*
X115369409Y-94570703D01*
X115364667Y-94576285D01*
X115361339Y-94582801D01*
X115357972Y-94587850D01*
X115354805Y-94592979D01*
X115350266Y-94598716D01*
X115319345Y-94664875D01*
X115317442Y-94668769D01*
X115284231Y-94733808D01*
X115282492Y-94740916D01*
X115280393Y-94746559D01*
X115278476Y-94752322D01*
X115275378Y-94758950D01*
X115273888Y-94766112D01*
X115273888Y-94766113D01*
X115272216Y-94774150D01*
X115261023Y-94827967D01*
X115260514Y-94830412D01*
X115259543Y-94834701D01*
X115246464Y-94888152D01*
X115210845Y-94949566D01*
X115147676Y-94981974D01*
X115077014Y-94975086D01*
X115021294Y-94931088D01*
X114998555Y-94869186D01*
X114994024Y-94817405D01*
X114994022Y-94817393D01*
X114993543Y-94811913D01*
X114984756Y-94779119D01*
X114935707Y-94596067D01*
X114935706Y-94596065D01*
X114934284Y-94590757D01*
X114890966Y-94497861D01*
X114839849Y-94388238D01*
X114839846Y-94388233D01*
X114837523Y-94383251D01*
X114706198Y-94195700D01*
X114677365Y-94166867D01*
X114643339Y-94104555D01*
X114648404Y-94033740D01*
X114690951Y-93976904D01*
X114722232Y-93959790D01*
X114738293Y-93953769D01*
X114738296Y-93953767D01*
X114746705Y-93950615D01*
X114863261Y-93863261D01*
X114950615Y-93746705D01*
X115001745Y-93610316D01*
X115008500Y-93548134D01*
X115008500Y-91451866D01*
X115001745Y-91389684D01*
X114950615Y-91253295D01*
X114863261Y-91136739D01*
X114746705Y-91049385D01*
X114610316Y-90998255D01*
X114548134Y-90991500D01*
X112634500Y-90991500D01*
X112566379Y-90971498D01*
X112519886Y-90917842D01*
X112508500Y-90865500D01*
X112508500Y-90594669D01*
X121642001Y-90594669D01*
X121642371Y-90601490D01*
X121647895Y-90652352D01*
X121651521Y-90667604D01*
X121696676Y-90788054D01*
X121705214Y-90803649D01*
X121781715Y-90905724D01*
X121794276Y-90918285D01*
X121896351Y-90994786D01*
X121911946Y-91003324D01*
X122032394Y-91048478D01*
X122047649Y-91052105D01*
X122098514Y-91057631D01*
X122105328Y-91058000D01*
X122877885Y-91058000D01*
X122893124Y-91053525D01*
X122894329Y-91052135D01*
X122896000Y-91044452D01*
X122896000Y-91039884D01*
X123404000Y-91039884D01*
X123408475Y-91055123D01*
X123409865Y-91056328D01*
X123417548Y-91057999D01*
X124194669Y-91057999D01*
X124201490Y-91057629D01*
X124252352Y-91052105D01*
X124267604Y-91048479D01*
X124388054Y-91003324D01*
X124403649Y-90994786D01*
X124505724Y-90918285D01*
X124518285Y-90905724D01*
X124594786Y-90803649D01*
X124603324Y-90788054D01*
X124648478Y-90667606D01*
X124652105Y-90652351D01*
X124657631Y-90601486D01*
X124658000Y-90594672D01*
X124658000Y-90072115D01*
X124653525Y-90056876D01*
X124652135Y-90055671D01*
X124644452Y-90054000D01*
X123422115Y-90054000D01*
X123406876Y-90058475D01*
X123405671Y-90059865D01*
X123404000Y-90067548D01*
X123404000Y-91039884D01*
X122896000Y-91039884D01*
X122896000Y-90072115D01*
X122891525Y-90056876D01*
X122890135Y-90055671D01*
X122882452Y-90054000D01*
X121660116Y-90054000D01*
X121644877Y-90058475D01*
X121643672Y-90059865D01*
X121642001Y-90067548D01*
X121642001Y-90594669D01*
X112508500Y-90594669D01*
X112508500Y-85053250D01*
X112510246Y-85032345D01*
X112512770Y-85017344D01*
X112512770Y-85017341D01*
X112513576Y-85012552D01*
X112513729Y-85000000D01*
X112512542Y-84991709D01*
X112511748Y-84962870D01*
X112512053Y-84959393D01*
X112522603Y-84838804D01*
X112526417Y-84817178D01*
X112565443Y-84671534D01*
X112572954Y-84650896D01*
X112636678Y-84514240D01*
X112647660Y-84495220D01*
X112734147Y-84371703D01*
X112748265Y-84354878D01*
X112854878Y-84248265D01*
X112871703Y-84234147D01*
X112995220Y-84147660D01*
X113014240Y-84136678D01*
X113150896Y-84072954D01*
X113171534Y-84065443D01*
X113317178Y-84026417D01*
X113338806Y-84022603D01*
X113414260Y-84016001D01*
X113456007Y-84012349D01*
X113478239Y-84012373D01*
X113482648Y-84012768D01*
X113487448Y-84013576D01*
X113493456Y-84013649D01*
X113493724Y-84013691D01*
X113493993Y-84013656D01*
X113500000Y-84013729D01*
X113507054Y-84012718D01*
X113516665Y-84011717D01*
X113579355Y-84007608D01*
X113758609Y-83995860D01*
X113758613Y-83995859D01*
X113762724Y-83995590D01*
X113766764Y-83994786D01*
X113766767Y-83994786D01*
X114016909Y-83945030D01*
X114016915Y-83945028D01*
X114020954Y-83944225D01*
X114024858Y-83942900D01*
X114024861Y-83942899D01*
X114266363Y-83860920D01*
X114266364Y-83860919D01*
X114270269Y-83859594D01*
X114413994Y-83788717D01*
X114502701Y-83744972D01*
X114502706Y-83744969D01*
X114506405Y-83743145D01*
X114725321Y-83596870D01*
X114923272Y-83423272D01*
X115096870Y-83225321D01*
X115243145Y-83006405D01*
X115251474Y-82989517D01*
X115304466Y-82882059D01*
X115359594Y-82770269D01*
X115444225Y-82520954D01*
X115449239Y-82495750D01*
X115494786Y-82266767D01*
X115494786Y-82266764D01*
X115495590Y-82262724D01*
X115510556Y-82034391D01*
X115512032Y-82021731D01*
X115512767Y-82017361D01*
X115512767Y-82017359D01*
X115513576Y-82012552D01*
X115513729Y-82000000D01*
X115509773Y-81972376D01*
X115508500Y-81954514D01*
X115508500Y-77053250D01*
X115510246Y-77032345D01*
X115512770Y-77017344D01*
X115512770Y-77017341D01*
X115513576Y-77012552D01*
X115513729Y-77000000D01*
X115513040Y-76995186D01*
X115513039Y-76995176D01*
X115512157Y-76989017D01*
X115511206Y-76962172D01*
X115523038Y-76796723D01*
X115525596Y-76778934D01*
X115566999Y-76588607D01*
X115572063Y-76571359D01*
X115640136Y-76388850D01*
X115647604Y-76372498D01*
X115740952Y-76201542D01*
X115750672Y-76186418D01*
X115867402Y-76030486D01*
X115879175Y-76016900D01*
X116016900Y-75879175D01*
X116030486Y-75867402D01*
X116186418Y-75750672D01*
X116201542Y-75740952D01*
X116372498Y-75647604D01*
X116388850Y-75640136D01*
X116571359Y-75572063D01*
X116588608Y-75566999D01*
X116589987Y-75566699D01*
X116778936Y-75525596D01*
X116796715Y-75523039D01*
X116958605Y-75511460D01*
X116976565Y-75512207D01*
X116984845Y-75512308D01*
X116993724Y-75513691D01*
X117025286Y-75509564D01*
X117041621Y-75508500D01*
X118789900Y-75508500D01*
X118858021Y-75528502D01*
G37*
G04 #@! TD.AperFunction*
M02*
