G04 #@! TF.GenerationSoftware,KiCad,Pcbnew,(5.1.5)-3*
G04 #@! TF.CreationDate,2021-09-10T12:23:28+10:00*
G04 #@! TF.ProjectId,MHI ESP,4d484920-4553-4502-9e6b-696361645f70,rev?*
G04 #@! TF.SameCoordinates,Original*
G04 #@! TF.FileFunction,Soldermask,Bot*
G04 #@! TF.FilePolarity,Negative*
%FSLAX46Y46*%
G04 Gerber Fmt 4.6, Leading zero omitted, Abs format (unit mm)*
G04 Created by KiCad (PCBNEW (5.1.5)-3) date 2021-09-10 12:23:28*
%MOMM*%
%LPD*%
G04 APERTURE LIST*
%ADD10C,0.100000*%
G04 APERTURE END LIST*
D10*
G36*
X136726823Y-109441313D02*
G01*
X136887242Y-109489976D01*
X137019906Y-109560886D01*
X137035078Y-109568996D01*
X137164659Y-109675341D01*
X137271004Y-109804922D01*
X137271005Y-109804924D01*
X137350024Y-109952758D01*
X137398687Y-110113177D01*
X137415117Y-110280000D01*
X137398687Y-110446823D01*
X137350024Y-110607242D01*
X137279114Y-110739906D01*
X137271004Y-110755078D01*
X137164659Y-110884659D01*
X137035078Y-110991004D01*
X137035076Y-110991005D01*
X136887242Y-111070024D01*
X136726823Y-111118687D01*
X136601804Y-111131000D01*
X136118196Y-111131000D01*
X135993177Y-111118687D01*
X135832758Y-111070024D01*
X135684924Y-110991005D01*
X135684922Y-110991004D01*
X135555341Y-110884659D01*
X135448996Y-110755078D01*
X135440886Y-110739906D01*
X135369976Y-110607242D01*
X135321313Y-110446823D01*
X135304883Y-110280000D01*
X135321313Y-110113177D01*
X135369976Y-109952758D01*
X135448995Y-109804924D01*
X135448996Y-109804922D01*
X135555341Y-109675341D01*
X135684922Y-109568996D01*
X135700094Y-109560886D01*
X135832758Y-109489976D01*
X135993177Y-109441313D01*
X136118196Y-109429000D01*
X136601804Y-109429000D01*
X136726823Y-109441313D01*
G37*
G36*
X113866823Y-109441313D02*
G01*
X114027242Y-109489976D01*
X114159906Y-109560886D01*
X114175078Y-109568996D01*
X114304659Y-109675341D01*
X114411004Y-109804922D01*
X114411005Y-109804924D01*
X114490024Y-109952758D01*
X114538687Y-110113177D01*
X114555117Y-110280000D01*
X114538687Y-110446823D01*
X114490024Y-110607242D01*
X114419114Y-110739906D01*
X114411004Y-110755078D01*
X114304659Y-110884659D01*
X114175078Y-110991004D01*
X114175076Y-110991005D01*
X114027242Y-111070024D01*
X113866823Y-111118687D01*
X113741804Y-111131000D01*
X113258196Y-111131000D01*
X113133177Y-111118687D01*
X112972758Y-111070024D01*
X112824924Y-110991005D01*
X112824922Y-110991004D01*
X112695341Y-110884659D01*
X112588996Y-110755078D01*
X112580886Y-110739906D01*
X112509976Y-110607242D01*
X112461313Y-110446823D01*
X112444883Y-110280000D01*
X112461313Y-110113177D01*
X112509976Y-109952758D01*
X112588995Y-109804924D01*
X112588996Y-109804922D01*
X112695341Y-109675341D01*
X112824922Y-109568996D01*
X112840094Y-109560886D01*
X112972758Y-109489976D01*
X113133177Y-109441313D01*
X113258196Y-109429000D01*
X113741804Y-109429000D01*
X113866823Y-109441313D01*
G37*
G36*
X113866823Y-106901313D02*
G01*
X114027242Y-106949976D01*
X114159906Y-107020886D01*
X114175078Y-107028996D01*
X114304659Y-107135341D01*
X114411004Y-107264922D01*
X114411005Y-107264924D01*
X114490024Y-107412758D01*
X114538687Y-107573177D01*
X114555117Y-107740000D01*
X114538687Y-107906823D01*
X114490024Y-108067242D01*
X114419114Y-108199906D01*
X114411004Y-108215078D01*
X114304659Y-108344659D01*
X114175078Y-108451004D01*
X114175076Y-108451005D01*
X114027242Y-108530024D01*
X113866823Y-108578687D01*
X113741804Y-108591000D01*
X113258196Y-108591000D01*
X113133177Y-108578687D01*
X112972758Y-108530024D01*
X112824924Y-108451005D01*
X112824922Y-108451004D01*
X112695341Y-108344659D01*
X112588996Y-108215078D01*
X112580886Y-108199906D01*
X112509976Y-108067242D01*
X112461313Y-107906823D01*
X112444883Y-107740000D01*
X112461313Y-107573177D01*
X112509976Y-107412758D01*
X112588995Y-107264924D01*
X112588996Y-107264922D01*
X112695341Y-107135341D01*
X112824922Y-107028996D01*
X112840094Y-107020886D01*
X112972758Y-106949976D01*
X113133177Y-106901313D01*
X113258196Y-106889000D01*
X113741804Y-106889000D01*
X113866823Y-106901313D01*
G37*
G36*
X136726823Y-106901313D02*
G01*
X136887242Y-106949976D01*
X137019906Y-107020886D01*
X137035078Y-107028996D01*
X137164659Y-107135341D01*
X137271004Y-107264922D01*
X137271005Y-107264924D01*
X137350024Y-107412758D01*
X137398687Y-107573177D01*
X137415117Y-107740000D01*
X137398687Y-107906823D01*
X137350024Y-108067242D01*
X137279114Y-108199906D01*
X137271004Y-108215078D01*
X137164659Y-108344659D01*
X137035078Y-108451004D01*
X137035076Y-108451005D01*
X136887242Y-108530024D01*
X136726823Y-108578687D01*
X136601804Y-108591000D01*
X136118196Y-108591000D01*
X135993177Y-108578687D01*
X135832758Y-108530024D01*
X135684924Y-108451005D01*
X135684922Y-108451004D01*
X135555341Y-108344659D01*
X135448996Y-108215078D01*
X135440886Y-108199906D01*
X135369976Y-108067242D01*
X135321313Y-107906823D01*
X135304883Y-107740000D01*
X135321313Y-107573177D01*
X135369976Y-107412758D01*
X135448995Y-107264924D01*
X135448996Y-107264922D01*
X135555341Y-107135341D01*
X135684922Y-107028996D01*
X135700094Y-107020886D01*
X135832758Y-106949976D01*
X135993177Y-106901313D01*
X136118196Y-106889000D01*
X136601804Y-106889000D01*
X136726823Y-106901313D01*
G37*
G36*
X136726823Y-104361313D02*
G01*
X136887242Y-104409976D01*
X137019906Y-104480886D01*
X137035078Y-104488996D01*
X137164659Y-104595341D01*
X137271004Y-104724922D01*
X137271005Y-104724924D01*
X137350024Y-104872758D01*
X137398687Y-105033177D01*
X137415117Y-105200000D01*
X137398687Y-105366823D01*
X137350024Y-105527242D01*
X137279114Y-105659906D01*
X137271004Y-105675078D01*
X137164659Y-105804659D01*
X137035078Y-105911004D01*
X137035076Y-105911005D01*
X136887242Y-105990024D01*
X136726823Y-106038687D01*
X136601804Y-106051000D01*
X136118196Y-106051000D01*
X135993177Y-106038687D01*
X135832758Y-105990024D01*
X135684924Y-105911005D01*
X135684922Y-105911004D01*
X135555341Y-105804659D01*
X135448996Y-105675078D01*
X135440886Y-105659906D01*
X135369976Y-105527242D01*
X135321313Y-105366823D01*
X135304883Y-105200000D01*
X135321313Y-105033177D01*
X135369976Y-104872758D01*
X135448995Y-104724924D01*
X135448996Y-104724922D01*
X135555341Y-104595341D01*
X135684922Y-104488996D01*
X135700094Y-104480886D01*
X135832758Y-104409976D01*
X135993177Y-104361313D01*
X136118196Y-104349000D01*
X136601804Y-104349000D01*
X136726823Y-104361313D01*
G37*
G36*
X113866823Y-104361313D02*
G01*
X114027242Y-104409976D01*
X114159906Y-104480886D01*
X114175078Y-104488996D01*
X114304659Y-104595341D01*
X114411004Y-104724922D01*
X114411005Y-104724924D01*
X114490024Y-104872758D01*
X114538687Y-105033177D01*
X114555117Y-105200000D01*
X114538687Y-105366823D01*
X114490024Y-105527242D01*
X114419114Y-105659906D01*
X114411004Y-105675078D01*
X114304659Y-105804659D01*
X114175078Y-105911004D01*
X114175076Y-105911005D01*
X114027242Y-105990024D01*
X113866823Y-106038687D01*
X113741804Y-106051000D01*
X113258196Y-106051000D01*
X113133177Y-106038687D01*
X112972758Y-105990024D01*
X112824924Y-105911005D01*
X112824922Y-105911004D01*
X112695341Y-105804659D01*
X112588996Y-105675078D01*
X112580886Y-105659906D01*
X112509976Y-105527242D01*
X112461313Y-105366823D01*
X112444883Y-105200000D01*
X112461313Y-105033177D01*
X112509976Y-104872758D01*
X112588995Y-104724924D01*
X112588996Y-104724922D01*
X112695341Y-104595341D01*
X112824922Y-104488996D01*
X112840094Y-104480886D01*
X112972758Y-104409976D01*
X113133177Y-104361313D01*
X113258196Y-104349000D01*
X113741804Y-104349000D01*
X113866823Y-104361313D01*
G37*
G36*
X113866823Y-101821313D02*
G01*
X114027242Y-101869976D01*
X114159906Y-101940886D01*
X114175078Y-101948996D01*
X114304659Y-102055341D01*
X114411004Y-102184922D01*
X114411005Y-102184924D01*
X114490024Y-102332758D01*
X114538687Y-102493177D01*
X114555117Y-102660000D01*
X114538687Y-102826823D01*
X114490024Y-102987242D01*
X114419114Y-103119906D01*
X114411004Y-103135078D01*
X114304659Y-103264659D01*
X114175078Y-103371004D01*
X114175076Y-103371005D01*
X114027242Y-103450024D01*
X113866823Y-103498687D01*
X113741804Y-103511000D01*
X113258196Y-103511000D01*
X113133177Y-103498687D01*
X112972758Y-103450024D01*
X112824924Y-103371005D01*
X112824922Y-103371004D01*
X112695341Y-103264659D01*
X112588996Y-103135078D01*
X112580886Y-103119906D01*
X112509976Y-102987242D01*
X112461313Y-102826823D01*
X112444883Y-102660000D01*
X112461313Y-102493177D01*
X112509976Y-102332758D01*
X112588995Y-102184924D01*
X112588996Y-102184922D01*
X112695341Y-102055341D01*
X112824922Y-101948996D01*
X112840094Y-101940886D01*
X112972758Y-101869976D01*
X113133177Y-101821313D01*
X113258196Y-101809000D01*
X113741804Y-101809000D01*
X113866823Y-101821313D01*
G37*
G36*
X136726823Y-101821313D02*
G01*
X136887242Y-101869976D01*
X137019906Y-101940886D01*
X137035078Y-101948996D01*
X137164659Y-102055341D01*
X137271004Y-102184922D01*
X137271005Y-102184924D01*
X137350024Y-102332758D01*
X137398687Y-102493177D01*
X137415117Y-102660000D01*
X137398687Y-102826823D01*
X137350024Y-102987242D01*
X137279114Y-103119906D01*
X137271004Y-103135078D01*
X137164659Y-103264659D01*
X137035078Y-103371004D01*
X137035076Y-103371005D01*
X136887242Y-103450024D01*
X136726823Y-103498687D01*
X136601804Y-103511000D01*
X136118196Y-103511000D01*
X135993177Y-103498687D01*
X135832758Y-103450024D01*
X135684924Y-103371005D01*
X135684922Y-103371004D01*
X135555341Y-103264659D01*
X135448996Y-103135078D01*
X135440886Y-103119906D01*
X135369976Y-102987242D01*
X135321313Y-102826823D01*
X135304883Y-102660000D01*
X135321313Y-102493177D01*
X135369976Y-102332758D01*
X135448995Y-102184924D01*
X135448996Y-102184922D01*
X135555341Y-102055341D01*
X135684922Y-101948996D01*
X135700094Y-101940886D01*
X135832758Y-101869976D01*
X135993177Y-101821313D01*
X136118196Y-101809000D01*
X136601804Y-101809000D01*
X136726823Y-101821313D01*
G37*
G36*
X113866823Y-99281313D02*
G01*
X114027242Y-99329976D01*
X114159906Y-99400886D01*
X114175078Y-99408996D01*
X114304659Y-99515341D01*
X114411004Y-99644922D01*
X114411005Y-99644924D01*
X114490024Y-99792758D01*
X114538687Y-99953177D01*
X114555117Y-100120000D01*
X114538687Y-100286823D01*
X114490024Y-100447242D01*
X114419114Y-100579906D01*
X114411004Y-100595078D01*
X114304659Y-100724659D01*
X114175078Y-100831004D01*
X114175076Y-100831005D01*
X114027242Y-100910024D01*
X113866823Y-100958687D01*
X113741804Y-100971000D01*
X113258196Y-100971000D01*
X113133177Y-100958687D01*
X112972758Y-100910024D01*
X112824924Y-100831005D01*
X112824922Y-100831004D01*
X112695341Y-100724659D01*
X112588996Y-100595078D01*
X112580886Y-100579906D01*
X112509976Y-100447242D01*
X112461313Y-100286823D01*
X112444883Y-100120000D01*
X112461313Y-99953177D01*
X112509976Y-99792758D01*
X112588995Y-99644924D01*
X112588996Y-99644922D01*
X112695341Y-99515341D01*
X112824922Y-99408996D01*
X112840094Y-99400886D01*
X112972758Y-99329976D01*
X113133177Y-99281313D01*
X113258196Y-99269000D01*
X113741804Y-99269000D01*
X113866823Y-99281313D01*
G37*
G36*
X136726823Y-99281313D02*
G01*
X136887242Y-99329976D01*
X137019906Y-99400886D01*
X137035078Y-99408996D01*
X137164659Y-99515341D01*
X137271004Y-99644922D01*
X137271005Y-99644924D01*
X137350024Y-99792758D01*
X137398687Y-99953177D01*
X137415117Y-100120000D01*
X137398687Y-100286823D01*
X137350024Y-100447242D01*
X137279114Y-100579906D01*
X137271004Y-100595078D01*
X137164659Y-100724659D01*
X137035078Y-100831004D01*
X137035076Y-100831005D01*
X136887242Y-100910024D01*
X136726823Y-100958687D01*
X136601804Y-100971000D01*
X136118196Y-100971000D01*
X135993177Y-100958687D01*
X135832758Y-100910024D01*
X135684924Y-100831005D01*
X135684922Y-100831004D01*
X135555341Y-100724659D01*
X135448996Y-100595078D01*
X135440886Y-100579906D01*
X135369976Y-100447242D01*
X135321313Y-100286823D01*
X135304883Y-100120000D01*
X135321313Y-99953177D01*
X135369976Y-99792758D01*
X135448995Y-99644924D01*
X135448996Y-99644922D01*
X135555341Y-99515341D01*
X135684922Y-99408996D01*
X135700094Y-99400886D01*
X135832758Y-99329976D01*
X135993177Y-99281313D01*
X136118196Y-99269000D01*
X136601804Y-99269000D01*
X136726823Y-99281313D01*
G37*
G36*
X113866823Y-96741313D02*
G01*
X114027242Y-96789976D01*
X114159906Y-96860886D01*
X114175078Y-96868996D01*
X114304659Y-96975341D01*
X114411004Y-97104922D01*
X114411005Y-97104924D01*
X114490024Y-97252758D01*
X114538687Y-97413177D01*
X114555117Y-97580000D01*
X114538687Y-97746823D01*
X114490024Y-97907242D01*
X114419114Y-98039906D01*
X114411004Y-98055078D01*
X114304659Y-98184659D01*
X114175078Y-98291004D01*
X114175076Y-98291005D01*
X114027242Y-98370024D01*
X113866823Y-98418687D01*
X113741804Y-98431000D01*
X113258196Y-98431000D01*
X113133177Y-98418687D01*
X112972758Y-98370024D01*
X112824924Y-98291005D01*
X112824922Y-98291004D01*
X112695341Y-98184659D01*
X112588996Y-98055078D01*
X112580886Y-98039906D01*
X112509976Y-97907242D01*
X112461313Y-97746823D01*
X112444883Y-97580000D01*
X112461313Y-97413177D01*
X112509976Y-97252758D01*
X112588995Y-97104924D01*
X112588996Y-97104922D01*
X112695341Y-96975341D01*
X112824922Y-96868996D01*
X112840094Y-96860886D01*
X112972758Y-96789976D01*
X113133177Y-96741313D01*
X113258196Y-96729000D01*
X113741804Y-96729000D01*
X113866823Y-96741313D01*
G37*
G36*
X136726823Y-96741313D02*
G01*
X136887242Y-96789976D01*
X137019906Y-96860886D01*
X137035078Y-96868996D01*
X137164659Y-96975341D01*
X137271004Y-97104922D01*
X137271005Y-97104924D01*
X137350024Y-97252758D01*
X137398687Y-97413177D01*
X137415117Y-97580000D01*
X137398687Y-97746823D01*
X137350024Y-97907242D01*
X137279114Y-98039906D01*
X137271004Y-98055078D01*
X137164659Y-98184659D01*
X137035078Y-98291004D01*
X137035076Y-98291005D01*
X136887242Y-98370024D01*
X136726823Y-98418687D01*
X136601804Y-98431000D01*
X136118196Y-98431000D01*
X135993177Y-98418687D01*
X135832758Y-98370024D01*
X135684924Y-98291005D01*
X135684922Y-98291004D01*
X135555341Y-98184659D01*
X135448996Y-98055078D01*
X135440886Y-98039906D01*
X135369976Y-97907242D01*
X135321313Y-97746823D01*
X135304883Y-97580000D01*
X135321313Y-97413177D01*
X135369976Y-97252758D01*
X135448995Y-97104924D01*
X135448996Y-97104922D01*
X135555341Y-96975341D01*
X135684922Y-96868996D01*
X135700094Y-96860886D01*
X135832758Y-96789976D01*
X135993177Y-96741313D01*
X136118196Y-96729000D01*
X136601804Y-96729000D01*
X136726823Y-96741313D01*
G37*
G36*
X113866823Y-94201313D02*
G01*
X114027242Y-94249976D01*
X114159906Y-94320886D01*
X114175078Y-94328996D01*
X114304659Y-94435341D01*
X114411004Y-94564922D01*
X114411005Y-94564924D01*
X114490024Y-94712758D01*
X114538687Y-94873177D01*
X114555117Y-95040000D01*
X114538687Y-95206823D01*
X114490024Y-95367242D01*
X114419114Y-95499906D01*
X114411004Y-95515078D01*
X114304659Y-95644659D01*
X114175078Y-95751004D01*
X114175076Y-95751005D01*
X114027242Y-95830024D01*
X113866823Y-95878687D01*
X113741804Y-95891000D01*
X113258196Y-95891000D01*
X113133177Y-95878687D01*
X112972758Y-95830024D01*
X112824924Y-95751005D01*
X112824922Y-95751004D01*
X112695341Y-95644659D01*
X112588996Y-95515078D01*
X112580886Y-95499906D01*
X112509976Y-95367242D01*
X112461313Y-95206823D01*
X112444883Y-95040000D01*
X112461313Y-94873177D01*
X112509976Y-94712758D01*
X112588995Y-94564924D01*
X112588996Y-94564922D01*
X112695341Y-94435341D01*
X112824922Y-94328996D01*
X112840094Y-94320886D01*
X112972758Y-94249976D01*
X113133177Y-94201313D01*
X113258196Y-94189000D01*
X113741804Y-94189000D01*
X113866823Y-94201313D01*
G37*
G36*
X136726823Y-94201313D02*
G01*
X136887242Y-94249976D01*
X137019906Y-94320886D01*
X137035078Y-94328996D01*
X137164659Y-94435341D01*
X137271004Y-94564922D01*
X137271005Y-94564924D01*
X137350024Y-94712758D01*
X137398687Y-94873177D01*
X137415117Y-95040000D01*
X137398687Y-95206823D01*
X137350024Y-95367242D01*
X137279114Y-95499906D01*
X137271004Y-95515078D01*
X137164659Y-95644659D01*
X137035078Y-95751004D01*
X137035076Y-95751005D01*
X136887242Y-95830024D01*
X136726823Y-95878687D01*
X136601804Y-95891000D01*
X136118196Y-95891000D01*
X135993177Y-95878687D01*
X135832758Y-95830024D01*
X135684924Y-95751005D01*
X135684922Y-95751004D01*
X135555341Y-95644659D01*
X135448996Y-95515078D01*
X135440886Y-95499906D01*
X135369976Y-95367242D01*
X135321313Y-95206823D01*
X135304883Y-95040000D01*
X135321313Y-94873177D01*
X135369976Y-94712758D01*
X135448995Y-94564924D01*
X135448996Y-94564922D01*
X135555341Y-94435341D01*
X135684922Y-94328996D01*
X135700094Y-94320886D01*
X135832758Y-94249976D01*
X135993177Y-94201313D01*
X136118196Y-94189000D01*
X136601804Y-94189000D01*
X136726823Y-94201313D01*
G37*
G36*
X114551000Y-93551000D02*
G01*
X112449000Y-93551000D01*
X112449000Y-91449000D01*
X114551000Y-91449000D01*
X114551000Y-93551000D01*
G37*
G36*
X136726823Y-91661313D02*
G01*
X136887242Y-91709976D01*
X137019906Y-91780886D01*
X137035078Y-91788996D01*
X137164659Y-91895341D01*
X137271004Y-92024922D01*
X137271005Y-92024924D01*
X137350024Y-92172758D01*
X137398687Y-92333177D01*
X137415117Y-92500000D01*
X137398687Y-92666823D01*
X137350024Y-92827242D01*
X137279114Y-92959906D01*
X137271004Y-92975078D01*
X137164659Y-93104659D01*
X137035078Y-93211004D01*
X137035076Y-93211005D01*
X136887242Y-93290024D01*
X136726823Y-93338687D01*
X136601804Y-93351000D01*
X136118196Y-93351000D01*
X135993177Y-93338687D01*
X135832758Y-93290024D01*
X135684924Y-93211005D01*
X135684922Y-93211004D01*
X135555341Y-93104659D01*
X135448996Y-92975078D01*
X135440886Y-92959906D01*
X135369976Y-92827242D01*
X135321313Y-92666823D01*
X135304883Y-92500000D01*
X135321313Y-92333177D01*
X135369976Y-92172758D01*
X135448995Y-92024924D01*
X135448996Y-92024922D01*
X135555341Y-91895341D01*
X135684922Y-91788996D01*
X135700094Y-91780886D01*
X135832758Y-91709976D01*
X135993177Y-91661313D01*
X136118196Y-91649000D01*
X136601804Y-91649000D01*
X136726823Y-91661313D01*
G37*
G36*
X130176626Y-78987037D02*
G01*
X130346465Y-79038557D01*
X130346467Y-79038558D01*
X130502989Y-79122221D01*
X130640186Y-79234814D01*
X130723448Y-79336271D01*
X130752778Y-79372009D01*
X130836443Y-79528534D01*
X130887963Y-79698373D01*
X130901000Y-79830742D01*
X130901000Y-80169257D01*
X130887963Y-80301626D01*
X130836443Y-80471466D01*
X130752778Y-80627991D01*
X130723448Y-80663729D01*
X130640186Y-80765186D01*
X130545250Y-80843097D01*
X130502991Y-80877778D01*
X130346466Y-80961443D01*
X130176627Y-81012963D01*
X130000000Y-81030359D01*
X129823374Y-81012963D01*
X129653535Y-80961443D01*
X129497010Y-80877778D01*
X129359815Y-80765185D01*
X129247222Y-80627991D01*
X129163557Y-80471466D01*
X129112037Y-80301627D01*
X129099000Y-80169258D01*
X129099000Y-79830743D01*
X129112037Y-79698374D01*
X129163557Y-79528535D01*
X129247222Y-79372010D01*
X129247223Y-79372009D01*
X129359814Y-79234814D01*
X129461271Y-79151552D01*
X129497009Y-79122222D01*
X129653534Y-79038557D01*
X129823373Y-78987037D01*
X130000000Y-78969641D01*
X130176626Y-78987037D01*
G37*
G36*
X127676626Y-78987037D02*
G01*
X127846465Y-79038557D01*
X127846467Y-79038558D01*
X128002989Y-79122221D01*
X128140186Y-79234814D01*
X128223448Y-79336271D01*
X128252778Y-79372009D01*
X128336443Y-79528534D01*
X128387963Y-79698373D01*
X128401000Y-79830742D01*
X128401000Y-80169257D01*
X128387963Y-80301626D01*
X128336443Y-80471466D01*
X128252778Y-80627991D01*
X128223448Y-80663729D01*
X128140186Y-80765186D01*
X128045250Y-80843097D01*
X128002991Y-80877778D01*
X127846466Y-80961443D01*
X127676627Y-81012963D01*
X127500000Y-81030359D01*
X127323374Y-81012963D01*
X127153535Y-80961443D01*
X126997010Y-80877778D01*
X126859815Y-80765185D01*
X126747222Y-80627991D01*
X126663557Y-80471466D01*
X126612037Y-80301627D01*
X126599000Y-80169258D01*
X126599000Y-79830743D01*
X126612037Y-79698374D01*
X126663557Y-79528535D01*
X126747222Y-79372010D01*
X126747223Y-79372009D01*
X126859814Y-79234814D01*
X126961271Y-79151552D01*
X126997009Y-79122222D01*
X127153534Y-79038557D01*
X127323373Y-78987037D01*
X127500000Y-78969641D01*
X127676626Y-78987037D01*
G37*
G36*
X125176626Y-78987037D02*
G01*
X125346465Y-79038557D01*
X125346467Y-79038558D01*
X125502989Y-79122221D01*
X125640186Y-79234814D01*
X125723448Y-79336271D01*
X125752778Y-79372009D01*
X125836443Y-79528534D01*
X125887963Y-79698373D01*
X125901000Y-79830742D01*
X125901000Y-80169257D01*
X125887963Y-80301626D01*
X125836443Y-80471466D01*
X125752778Y-80627991D01*
X125723448Y-80663729D01*
X125640186Y-80765186D01*
X125545250Y-80843097D01*
X125502991Y-80877778D01*
X125346466Y-80961443D01*
X125176627Y-81012963D01*
X125000000Y-81030359D01*
X124823374Y-81012963D01*
X124653535Y-80961443D01*
X124497010Y-80877778D01*
X124359815Y-80765185D01*
X124247222Y-80627991D01*
X124163557Y-80471466D01*
X124112037Y-80301627D01*
X124099000Y-80169258D01*
X124099000Y-79830743D01*
X124112037Y-79698374D01*
X124163557Y-79528535D01*
X124247222Y-79372010D01*
X124247223Y-79372009D01*
X124359814Y-79234814D01*
X124461271Y-79151552D01*
X124497009Y-79122222D01*
X124653534Y-79038557D01*
X124823373Y-78987037D01*
X125000000Y-78969641D01*
X125176626Y-78987037D01*
G37*
G36*
X122676626Y-78987037D02*
G01*
X122846465Y-79038557D01*
X122846467Y-79038558D01*
X123002989Y-79122221D01*
X123140186Y-79234814D01*
X123223448Y-79336271D01*
X123252778Y-79372009D01*
X123336443Y-79528534D01*
X123387963Y-79698373D01*
X123401000Y-79830742D01*
X123401000Y-80169257D01*
X123387963Y-80301626D01*
X123336443Y-80471466D01*
X123252778Y-80627991D01*
X123223448Y-80663729D01*
X123140186Y-80765186D01*
X123045250Y-80843097D01*
X123002991Y-80877778D01*
X122846466Y-80961443D01*
X122676627Y-81012963D01*
X122500000Y-81030359D01*
X122323374Y-81012963D01*
X122153535Y-80961443D01*
X121997010Y-80877778D01*
X121859815Y-80765185D01*
X121747222Y-80627991D01*
X121663557Y-80471466D01*
X121612037Y-80301627D01*
X121599000Y-80169258D01*
X121599000Y-79830743D01*
X121612037Y-79698374D01*
X121663557Y-79528535D01*
X121747222Y-79372010D01*
X121747223Y-79372009D01*
X121859814Y-79234814D01*
X121961271Y-79151552D01*
X121997009Y-79122222D01*
X122153534Y-79038557D01*
X122323373Y-78987037D01*
X122500000Y-78969641D01*
X122676626Y-78987037D01*
G37*
G36*
X120758600Y-78977989D02*
G01*
X120791652Y-78988015D01*
X120822103Y-79004292D01*
X120848799Y-79026201D01*
X120870708Y-79052897D01*
X120886985Y-79083348D01*
X120897011Y-79116400D01*
X120901000Y-79156903D01*
X120901000Y-80843097D01*
X120897011Y-80883600D01*
X120886985Y-80916652D01*
X120870708Y-80947103D01*
X120848799Y-80973799D01*
X120822103Y-80995708D01*
X120791652Y-81011985D01*
X120758600Y-81022011D01*
X120718097Y-81026000D01*
X119281903Y-81026000D01*
X119241400Y-81022011D01*
X119208348Y-81011985D01*
X119177897Y-80995708D01*
X119151201Y-80973799D01*
X119129292Y-80947103D01*
X119113015Y-80916652D01*
X119102989Y-80883600D01*
X119099000Y-80843097D01*
X119099000Y-79156903D01*
X119102989Y-79116400D01*
X119113015Y-79083348D01*
X119129292Y-79052897D01*
X119151201Y-79026201D01*
X119177897Y-79004292D01*
X119208348Y-78988015D01*
X119241400Y-78977989D01*
X119281903Y-78974000D01*
X120718097Y-78974000D01*
X120758600Y-78977989D01*
G37*
M02*
