G04 #@! TF.GenerationSoftware,KiCad,Pcbnew,(5.1.5)-3*
G04 #@! TF.CreationDate,2021-09-10T12:23:28+10:00*
G04 #@! TF.ProjectId,MHI ESP,4d484920-4553-4502-9e6b-696361645f70,rev?*
G04 #@! TF.SameCoordinates,Original*
G04 #@! TF.FileFunction,Copper,L2,Bot*
G04 #@! TF.FilePolarity,Positive*
%FSLAX46Y46*%
G04 Gerber Fmt 4.6, Leading zero omitted, Abs format (unit mm)*
G04 Created by KiCad (PCBNEW (5.1.5)-3) date 2021-09-10 12:23:28*
%MOMM*%
%LPD*%
G04 APERTURE LIST*
%ADD10O,2.000000X1.600000*%
%ADD11R,2.000000X2.000000*%
%ADD12O,1.700000X1.950000*%
%ADD13C,0.100000*%
%ADD14C,1.700000*%
%ADD15C,1.000000*%
%ADD16C,0.600000*%
%ADD17C,0.800000*%
%ADD18C,0.750000*%
%ADD19C,0.500000*%
%ADD20C,0.200000*%
G04 APERTURE END LIST*
D10*
X136360000Y-92500000D03*
X136360000Y-95040000D03*
X136360000Y-97580000D03*
X136360000Y-100120000D03*
X136360000Y-102660000D03*
X136360000Y-105200000D03*
X136360000Y-107740000D03*
X136360000Y-110280000D03*
X113500000Y-110280000D03*
X113500000Y-107740000D03*
X113500000Y-105200000D03*
X113500000Y-102660000D03*
X113500000Y-100120000D03*
X113500000Y-97580000D03*
D11*
X113500000Y-92500000D03*
D10*
X113500000Y-95040000D03*
D12*
X130000000Y-80000000D03*
X127500000Y-80000000D03*
X125000000Y-80000000D03*
X122500000Y-80000000D03*
G04 #@! TA.AperFunction,ComponentPad*
D13*
G36*
X120624504Y-79026204D02*
G01*
X120648773Y-79029804D01*
X120672571Y-79035765D01*
X120695671Y-79044030D01*
X120717849Y-79054520D01*
X120738893Y-79067133D01*
X120758598Y-79081747D01*
X120776777Y-79098223D01*
X120793253Y-79116402D01*
X120807867Y-79136107D01*
X120820480Y-79157151D01*
X120830970Y-79179329D01*
X120839235Y-79202429D01*
X120845196Y-79226227D01*
X120848796Y-79250496D01*
X120850000Y-79275000D01*
X120850000Y-80725000D01*
X120848796Y-80749504D01*
X120845196Y-80773773D01*
X120839235Y-80797571D01*
X120830970Y-80820671D01*
X120820480Y-80842849D01*
X120807867Y-80863893D01*
X120793253Y-80883598D01*
X120776777Y-80901777D01*
X120758598Y-80918253D01*
X120738893Y-80932867D01*
X120717849Y-80945480D01*
X120695671Y-80955970D01*
X120672571Y-80964235D01*
X120648773Y-80970196D01*
X120624504Y-80973796D01*
X120600000Y-80975000D01*
X119400000Y-80975000D01*
X119375496Y-80973796D01*
X119351227Y-80970196D01*
X119327429Y-80964235D01*
X119304329Y-80955970D01*
X119282151Y-80945480D01*
X119261107Y-80932867D01*
X119241402Y-80918253D01*
X119223223Y-80901777D01*
X119206747Y-80883598D01*
X119192133Y-80863893D01*
X119179520Y-80842849D01*
X119169030Y-80820671D01*
X119160765Y-80797571D01*
X119154804Y-80773773D01*
X119151204Y-80749504D01*
X119150000Y-80725000D01*
X119150000Y-79275000D01*
X119151204Y-79250496D01*
X119154804Y-79226227D01*
X119160765Y-79202429D01*
X119169030Y-79179329D01*
X119179520Y-79157151D01*
X119192133Y-79136107D01*
X119206747Y-79116402D01*
X119223223Y-79098223D01*
X119241402Y-79081747D01*
X119261107Y-79067133D01*
X119282151Y-79054520D01*
X119304329Y-79044030D01*
X119327429Y-79035765D01*
X119351227Y-79029804D01*
X119375496Y-79026204D01*
X119400000Y-79025000D01*
X120600000Y-79025000D01*
X120624504Y-79026204D01*
G37*
G04 #@! TD.AperFunction*
D14*
X130000000Y-76500000D03*
D15*
X117000000Y-78000000D03*
D16*
X126500000Y-106000000D03*
X126500000Y-101000000D03*
X126500000Y-96000000D03*
D17*
X126500000Y-87500000D03*
D16*
X129000000Y-103000000D03*
X133000000Y-101500000D03*
D14*
X127500000Y-76500000D03*
X122500000Y-76500000D03*
X125000000Y-76500000D03*
X120000000Y-76500000D03*
D17*
X120000000Y-80000000D03*
D16*
X119500000Y-106000000D03*
X119500000Y-101000000D03*
X119500000Y-96000000D03*
D18*
X126500000Y-87500000D02*
X126500000Y-106000000D01*
X126500000Y-106000000D02*
X126500000Y-108500000D01*
X128280000Y-110280000D02*
X136360000Y-110280000D01*
X126500000Y-108500000D02*
X128280000Y-110280000D01*
D19*
X131500000Y-103000000D02*
X133000000Y-101500000D01*
X129000000Y-103000000D02*
X131500000Y-103000000D01*
D18*
X119500000Y-96000000D02*
X119500000Y-106000000D01*
X117720000Y-110280000D02*
X113500000Y-110280000D01*
X119500000Y-106000000D02*
X119500000Y-108500000D01*
X119500000Y-108500000D02*
X117720000Y-110280000D01*
D20*
G36*
X118707937Y-75809378D02*
G01*
X118598030Y-76074717D01*
X118542000Y-76356399D01*
X118542000Y-76643601D01*
X118598030Y-76925283D01*
X118707937Y-77190622D01*
X118867497Y-77429421D01*
X119070579Y-77632503D01*
X119309378Y-77792063D01*
X119574717Y-77901970D01*
X119856399Y-77958000D01*
X120143601Y-77958000D01*
X120425283Y-77901970D01*
X120690622Y-77792063D01*
X120929421Y-77632503D01*
X121132503Y-77429421D01*
X121250000Y-77253574D01*
X121367497Y-77429421D01*
X121570579Y-77632503D01*
X121809378Y-77792063D01*
X122074717Y-77901970D01*
X122356399Y-77958000D01*
X122643601Y-77958000D01*
X122925283Y-77901970D01*
X123190622Y-77792063D01*
X123429421Y-77632503D01*
X123632503Y-77429421D01*
X123750000Y-77253574D01*
X123867497Y-77429421D01*
X124070579Y-77632503D01*
X124309378Y-77792063D01*
X124574717Y-77901970D01*
X124856399Y-77958000D01*
X125143601Y-77958000D01*
X125425283Y-77901970D01*
X125690622Y-77792063D01*
X125929421Y-77632503D01*
X126132503Y-77429421D01*
X126250000Y-77253574D01*
X126367497Y-77429421D01*
X126570579Y-77632503D01*
X126809378Y-77792063D01*
X127074717Y-77901970D01*
X127356399Y-77958000D01*
X127643601Y-77958000D01*
X127925283Y-77901970D01*
X128190622Y-77792063D01*
X128429421Y-77632503D01*
X128632503Y-77429421D01*
X128792063Y-77190622D01*
X128901970Y-76925283D01*
X128958000Y-76643601D01*
X128958000Y-76356399D01*
X128901970Y-76074717D01*
X128792063Y-75809378D01*
X128674211Y-75633000D01*
X132969040Y-75633000D01*
X133264931Y-75662013D01*
X133519767Y-75738952D01*
X133754804Y-75863924D01*
X133961096Y-76032171D01*
X134130776Y-76237278D01*
X134257389Y-76471445D01*
X134336106Y-76725737D01*
X134367000Y-77019675D01*
X134367001Y-82031088D01*
X134369707Y-82058560D01*
X134369642Y-82067841D01*
X134370505Y-82076637D01*
X134401105Y-82367783D01*
X134412653Y-82424042D01*
X134423392Y-82480339D01*
X134425944Y-82488792D01*
X134425945Y-82488799D01*
X134425946Y-82488801D01*
X134512514Y-82768456D01*
X134534760Y-82821379D01*
X134556239Y-82874540D01*
X134560388Y-82882344D01*
X134699627Y-83139860D01*
X134731720Y-83187441D01*
X134763123Y-83235429D01*
X134768705Y-83242273D01*
X134768709Y-83242279D01*
X134768714Y-83242284D01*
X134955314Y-83467845D01*
X134996024Y-83508272D01*
X135036164Y-83549262D01*
X135042974Y-83554896D01*
X135269838Y-83739922D01*
X135317649Y-83771687D01*
X135364963Y-83804084D01*
X135372737Y-83808288D01*
X135631218Y-83945725D01*
X135684320Y-83967612D01*
X135736993Y-83990188D01*
X135745436Y-83992802D01*
X136025690Y-84077416D01*
X136082016Y-84088569D01*
X136138089Y-84100488D01*
X136146875Y-84101412D01*
X136146879Y-84101412D01*
X136438231Y-84129979D01*
X136667812Y-84152489D01*
X136829229Y-84201224D01*
X136978110Y-84280386D01*
X137108780Y-84386958D01*
X137216259Y-84516877D01*
X137296458Y-84665202D01*
X137346319Y-84826276D01*
X137367001Y-85023059D01*
X137367000Y-86968912D01*
X137367000Y-91340839D01*
X137346027Y-91323627D01*
X137101425Y-91192884D01*
X136836016Y-91112373D01*
X136629164Y-91092000D01*
X136090836Y-91092000D01*
X135883984Y-91112373D01*
X135618575Y-91192884D01*
X135373973Y-91323627D01*
X135159577Y-91499577D01*
X134983627Y-91713973D01*
X134852884Y-91958575D01*
X134772373Y-92223984D01*
X134745188Y-92500000D01*
X134772373Y-92776016D01*
X134852884Y-93041425D01*
X134983627Y-93286027D01*
X135159577Y-93500423D01*
X135373973Y-93676373D01*
X135549136Y-93770000D01*
X135373973Y-93863627D01*
X135159577Y-94039577D01*
X134983627Y-94253973D01*
X134852884Y-94498575D01*
X134772373Y-94763984D01*
X134745188Y-95040000D01*
X134772373Y-95316016D01*
X134852884Y-95581425D01*
X134983627Y-95826027D01*
X135159577Y-96040423D01*
X135373973Y-96216373D01*
X135549136Y-96310000D01*
X135373973Y-96403627D01*
X135159577Y-96579577D01*
X134983627Y-96793973D01*
X134852884Y-97038575D01*
X134772373Y-97303984D01*
X134745188Y-97580000D01*
X134772373Y-97856016D01*
X134852884Y-98121425D01*
X134983627Y-98366027D01*
X135159577Y-98580423D01*
X135373973Y-98756373D01*
X135549136Y-98850000D01*
X135373973Y-98943627D01*
X135159577Y-99119577D01*
X134983627Y-99333973D01*
X134852884Y-99578575D01*
X134772373Y-99843984D01*
X134745188Y-100120000D01*
X134772373Y-100396016D01*
X134852884Y-100661425D01*
X134983627Y-100906027D01*
X135159577Y-101120423D01*
X135373973Y-101296373D01*
X135549136Y-101390000D01*
X135373973Y-101483627D01*
X135159577Y-101659577D01*
X134983627Y-101873973D01*
X134852884Y-102118575D01*
X134772373Y-102383984D01*
X134745188Y-102660000D01*
X134772373Y-102936016D01*
X134852884Y-103201425D01*
X134983627Y-103446027D01*
X135159577Y-103660423D01*
X135373973Y-103836373D01*
X135549136Y-103930000D01*
X135373973Y-104023627D01*
X135159577Y-104199577D01*
X134983627Y-104413973D01*
X134852884Y-104658575D01*
X134772373Y-104923984D01*
X134745188Y-105200000D01*
X134772373Y-105476016D01*
X134852884Y-105741425D01*
X134983627Y-105986027D01*
X135159577Y-106200423D01*
X135373973Y-106376373D01*
X135553831Y-106472510D01*
X135462232Y-106513306D01*
X135236323Y-106673004D01*
X135045911Y-106873706D01*
X134898312Y-107107700D01*
X134801769Y-107368958D01*
X134913477Y-107586000D01*
X136206000Y-107586000D01*
X136206000Y-107566000D01*
X136514000Y-107566000D01*
X136514000Y-107586000D01*
X136534000Y-107586000D01*
X136534000Y-107894000D01*
X136514000Y-107894000D01*
X136514000Y-107914000D01*
X136206000Y-107914000D01*
X136206000Y-107894000D01*
X134913477Y-107894000D01*
X134801769Y-108111042D01*
X134898312Y-108372300D01*
X135045911Y-108606294D01*
X135236323Y-108806996D01*
X135462232Y-108966694D01*
X135553831Y-109007490D01*
X135373973Y-109103627D01*
X135159577Y-109279577D01*
X135145278Y-109297000D01*
X128687172Y-109297000D01*
X127483000Y-108092829D01*
X127483000Y-102910570D01*
X128092000Y-102910570D01*
X128092000Y-103089430D01*
X128126894Y-103264854D01*
X128195341Y-103430099D01*
X128294711Y-103578816D01*
X128421184Y-103705289D01*
X128569901Y-103804659D01*
X128735146Y-103873106D01*
X128910570Y-103908000D01*
X129089430Y-103908000D01*
X129264854Y-103873106D01*
X129301323Y-103858000D01*
X131457857Y-103858000D01*
X131500000Y-103862151D01*
X131542143Y-103858000D01*
X131542146Y-103858000D01*
X131668197Y-103845585D01*
X131829931Y-103796524D01*
X131978985Y-103716852D01*
X132109633Y-103609633D01*
X132136505Y-103576889D01*
X133393631Y-102319765D01*
X133430099Y-102304659D01*
X133578816Y-102205289D01*
X133705289Y-102078816D01*
X133804659Y-101930099D01*
X133873106Y-101764854D01*
X133908000Y-101589430D01*
X133908000Y-101410570D01*
X133873106Y-101235146D01*
X133804659Y-101069901D01*
X133705289Y-100921184D01*
X133578816Y-100794711D01*
X133430099Y-100695341D01*
X133264854Y-100626894D01*
X133089430Y-100592000D01*
X132910570Y-100592000D01*
X132735146Y-100626894D01*
X132569901Y-100695341D01*
X132421184Y-100794711D01*
X132294711Y-100921184D01*
X132195341Y-101069901D01*
X132180235Y-101106369D01*
X131144606Y-102142000D01*
X129301323Y-102142000D01*
X129264854Y-102126894D01*
X129089430Y-102092000D01*
X128910570Y-102092000D01*
X128735146Y-102126894D01*
X128569901Y-102195341D01*
X128421184Y-102294711D01*
X128294711Y-102421184D01*
X128195341Y-102569901D01*
X128126894Y-102735146D01*
X128092000Y-102910570D01*
X127483000Y-102910570D01*
X127483000Y-87724962D01*
X127508000Y-87599279D01*
X127508000Y-87400721D01*
X127469263Y-87205977D01*
X127393278Y-87022533D01*
X127282965Y-86857438D01*
X127142562Y-86717035D01*
X126977467Y-86606722D01*
X126794023Y-86530737D01*
X126599279Y-86492000D01*
X126400721Y-86492000D01*
X126205977Y-86530737D01*
X126022533Y-86606722D01*
X125857438Y-86717035D01*
X125717035Y-86857438D01*
X125606722Y-87022533D01*
X125530737Y-87205977D01*
X125492000Y-87400721D01*
X125492000Y-87599279D01*
X125517000Y-87724963D01*
X125517001Y-105951701D01*
X125517000Y-105951711D01*
X125517001Y-108451703D01*
X125512244Y-108500000D01*
X125531224Y-108692701D01*
X125587433Y-108877998D01*
X125678711Y-109048767D01*
X125760150Y-109148000D01*
X125801552Y-109198449D01*
X125839060Y-109229231D01*
X127550769Y-110940941D01*
X127581551Y-110978449D01*
X127731232Y-111101289D01*
X127902002Y-111192568D01*
X128087298Y-111248777D01*
X128231710Y-111263000D01*
X128231720Y-111263000D01*
X128279999Y-111267755D01*
X128328279Y-111263000D01*
X135145278Y-111263000D01*
X135159577Y-111280423D01*
X135373973Y-111456373D01*
X135618575Y-111587116D01*
X135883984Y-111667627D01*
X136090836Y-111688000D01*
X136629164Y-111688000D01*
X136836016Y-111667627D01*
X137101425Y-111587116D01*
X137346027Y-111456373D01*
X137367001Y-111439160D01*
X137367001Y-115968912D01*
X137367000Y-118367000D01*
X115030960Y-118367000D01*
X114540835Y-118318942D01*
X114099164Y-118185594D01*
X113691801Y-117968996D01*
X113334270Y-117677400D01*
X113040184Y-117321912D01*
X112820749Y-116916074D01*
X112684318Y-116475339D01*
X112633000Y-115987079D01*
X112633000Y-111519995D01*
X112758575Y-111587116D01*
X113023984Y-111667627D01*
X113230836Y-111688000D01*
X113769164Y-111688000D01*
X113976016Y-111667627D01*
X114241425Y-111587116D01*
X114486027Y-111456373D01*
X114700423Y-111280423D01*
X114714722Y-111263000D01*
X117671713Y-111263000D01*
X117720000Y-111267756D01*
X117768287Y-111263000D01*
X117768290Y-111263000D01*
X117912702Y-111248777D01*
X118097998Y-111192568D01*
X118268768Y-111101289D01*
X118418449Y-110978449D01*
X118449235Y-110940936D01*
X120160941Y-109229231D01*
X120198449Y-109198449D01*
X120239852Y-109148000D01*
X120321289Y-109048768D01*
X120322172Y-109047116D01*
X120412568Y-108877998D01*
X120468777Y-108692702D01*
X120483000Y-108548290D01*
X120483000Y-108548280D01*
X120487755Y-108500001D01*
X120483000Y-108451721D01*
X120483000Y-95951710D01*
X120468777Y-95807298D01*
X120412568Y-95622002D01*
X120321289Y-95451232D01*
X120198449Y-95301551D01*
X120048768Y-95178711D01*
X119877997Y-95087432D01*
X119692701Y-95031223D01*
X119500000Y-95012244D01*
X119307298Y-95031223D01*
X119122002Y-95087432D01*
X118951232Y-95178711D01*
X118801551Y-95301551D01*
X118678711Y-95451232D01*
X118587432Y-95622003D01*
X118531223Y-95807299D01*
X118517000Y-95951711D01*
X118517001Y-105951701D01*
X118517000Y-105951711D01*
X118517001Y-108092827D01*
X117312829Y-109297000D01*
X114714722Y-109297000D01*
X114700423Y-109279577D01*
X114486027Y-109103627D01*
X114310864Y-109010000D01*
X114486027Y-108916373D01*
X114700423Y-108740423D01*
X114876373Y-108526027D01*
X115007116Y-108281425D01*
X115087627Y-108016016D01*
X115114812Y-107740000D01*
X115087627Y-107463984D01*
X115007116Y-107198575D01*
X114876373Y-106953973D01*
X114700423Y-106739577D01*
X114486027Y-106563627D01*
X114310864Y-106470000D01*
X114486027Y-106376373D01*
X114700423Y-106200423D01*
X114876373Y-105986027D01*
X115007116Y-105741425D01*
X115087627Y-105476016D01*
X115114812Y-105200000D01*
X115087627Y-104923984D01*
X115007116Y-104658575D01*
X114876373Y-104413973D01*
X114700423Y-104199577D01*
X114486027Y-104023627D01*
X114310864Y-103930000D01*
X114486027Y-103836373D01*
X114700423Y-103660423D01*
X114876373Y-103446027D01*
X115007116Y-103201425D01*
X115087627Y-102936016D01*
X115114812Y-102660000D01*
X115087627Y-102383984D01*
X115007116Y-102118575D01*
X114876373Y-101873973D01*
X114700423Y-101659577D01*
X114486027Y-101483627D01*
X114310864Y-101390000D01*
X114486027Y-101296373D01*
X114700423Y-101120423D01*
X114876373Y-100906027D01*
X115007116Y-100661425D01*
X115087627Y-100396016D01*
X115114812Y-100120000D01*
X115087627Y-99843984D01*
X115007116Y-99578575D01*
X114876373Y-99333973D01*
X114700423Y-99119577D01*
X114486027Y-98943627D01*
X114310864Y-98850000D01*
X114486027Y-98756373D01*
X114700423Y-98580423D01*
X114876373Y-98366027D01*
X115007116Y-98121425D01*
X115087627Y-97856016D01*
X115114812Y-97580000D01*
X115087627Y-97303984D01*
X115007116Y-97038575D01*
X114876373Y-96793973D01*
X114700423Y-96579577D01*
X114486027Y-96403627D01*
X114310864Y-96310000D01*
X114486027Y-96216373D01*
X114700423Y-96040423D01*
X114876373Y-95826027D01*
X115007116Y-95581425D01*
X115087627Y-95316016D01*
X115114812Y-95040000D01*
X115087627Y-94763984D01*
X115007116Y-94498575D01*
X114876373Y-94253973D01*
X114723410Y-94067587D01*
X114733797Y-94064436D01*
X114839421Y-94007979D01*
X114932001Y-93932001D01*
X115007979Y-93839421D01*
X115064436Y-93733797D01*
X115099202Y-93619189D01*
X115110941Y-93500000D01*
X115110941Y-91500000D01*
X115099202Y-91380811D01*
X115064436Y-91266203D01*
X115007979Y-91160579D01*
X114932001Y-91067999D01*
X114839421Y-90992021D01*
X114733797Y-90935564D01*
X114619189Y-90900798D01*
X114500000Y-90889059D01*
X112633000Y-90889059D01*
X112633000Y-85030958D01*
X112652489Y-84832188D01*
X112701224Y-84670771D01*
X112780386Y-84521890D01*
X112886958Y-84391220D01*
X113016877Y-84283741D01*
X113165202Y-84203542D01*
X113326276Y-84153681D01*
X113549412Y-84130229D01*
X113567841Y-84130358D01*
X113576637Y-84129495D01*
X113867783Y-84098895D01*
X113924042Y-84087347D01*
X113980339Y-84076608D01*
X113988792Y-84074056D01*
X113988799Y-84074055D01*
X113988805Y-84074052D01*
X114268456Y-83987486D01*
X114321379Y-83965240D01*
X114374540Y-83943761D01*
X114382339Y-83939615D01*
X114382343Y-83939613D01*
X114382346Y-83939611D01*
X114639860Y-83800373D01*
X114687441Y-83768280D01*
X114735429Y-83736877D01*
X114742273Y-83731295D01*
X114742279Y-83731291D01*
X114742284Y-83731286D01*
X114967845Y-83544686D01*
X115008272Y-83503976D01*
X115049262Y-83463836D01*
X115054896Y-83457026D01*
X115239922Y-83230162D01*
X115271687Y-83182351D01*
X115304084Y-83135037D01*
X115308288Y-83127263D01*
X115445725Y-82868782D01*
X115467612Y-82815680D01*
X115490188Y-82763007D01*
X115492802Y-82754564D01*
X115577416Y-82474310D01*
X115588569Y-82417984D01*
X115600488Y-82361911D01*
X115601412Y-82353121D01*
X115629979Y-82061769D01*
X115629979Y-82061760D01*
X115633000Y-82031088D01*
X115633000Y-79275000D01*
X118539059Y-79275000D01*
X118539059Y-80725000D01*
X118555602Y-80892961D01*
X118604594Y-81054468D01*
X118684154Y-81203313D01*
X118791223Y-81333777D01*
X118921687Y-81440846D01*
X119070532Y-81520406D01*
X119232039Y-81569398D01*
X119400000Y-81585941D01*
X120600000Y-81585941D01*
X120767961Y-81569398D01*
X120929468Y-81520406D01*
X121078313Y-81440846D01*
X121208777Y-81333777D01*
X121315846Y-81203313D01*
X121388014Y-81068298D01*
X121464051Y-81160950D01*
X121686061Y-81343148D01*
X121939349Y-81478533D01*
X122214183Y-81561903D01*
X122500000Y-81590054D01*
X122785818Y-81561903D01*
X123060652Y-81478533D01*
X123313940Y-81343148D01*
X123535950Y-81160950D01*
X123718148Y-80938940D01*
X123750000Y-80879349D01*
X123781852Y-80938940D01*
X123964051Y-81160950D01*
X124186061Y-81343148D01*
X124439349Y-81478533D01*
X124714183Y-81561903D01*
X125000000Y-81590054D01*
X125285818Y-81561903D01*
X125560652Y-81478533D01*
X125813940Y-81343148D01*
X126035950Y-81160950D01*
X126218148Y-80938940D01*
X126250000Y-80879349D01*
X126281852Y-80938940D01*
X126464051Y-81160950D01*
X126686061Y-81343148D01*
X126939349Y-81478533D01*
X127214183Y-81561903D01*
X127500000Y-81590054D01*
X127785818Y-81561903D01*
X128060652Y-81478533D01*
X128313940Y-81343148D01*
X128535950Y-81160950D01*
X128718148Y-80938940D01*
X128753741Y-80872350D01*
X128773309Y-80910729D01*
X128950168Y-81134947D01*
X129167371Y-81320353D01*
X129416572Y-81459822D01*
X129621090Y-81532903D01*
X129846000Y-81421889D01*
X129846000Y-80154000D01*
X130154000Y-80154000D01*
X130154000Y-81421889D01*
X130378910Y-81532903D01*
X130583428Y-81459822D01*
X130832629Y-81320353D01*
X131049832Y-81134947D01*
X131226691Y-80910729D01*
X131356409Y-80656316D01*
X131434001Y-80381485D01*
X131304469Y-80154000D01*
X130154000Y-80154000D01*
X129846000Y-80154000D01*
X129826000Y-80154000D01*
X129826000Y-79846000D01*
X129846000Y-79846000D01*
X129846000Y-78578111D01*
X130154000Y-78578111D01*
X130154000Y-79846000D01*
X131304469Y-79846000D01*
X131434001Y-79618515D01*
X131356409Y-79343684D01*
X131226691Y-79089271D01*
X131049832Y-78865053D01*
X130832629Y-78679647D01*
X130583428Y-78540178D01*
X130378910Y-78467097D01*
X130154000Y-78578111D01*
X129846000Y-78578111D01*
X129621090Y-78467097D01*
X129416572Y-78540178D01*
X129167371Y-78679647D01*
X128950168Y-78865053D01*
X128773309Y-79089271D01*
X128753741Y-79127650D01*
X128718148Y-79061060D01*
X128535949Y-78839050D01*
X128313939Y-78656852D01*
X128060651Y-78521467D01*
X127785817Y-78438097D01*
X127500000Y-78409946D01*
X127214182Y-78438097D01*
X126939348Y-78521467D01*
X126686060Y-78656852D01*
X126464050Y-78839051D01*
X126281852Y-79061061D01*
X126250000Y-79120652D01*
X126218148Y-79061060D01*
X126035949Y-78839050D01*
X125813939Y-78656852D01*
X125560651Y-78521467D01*
X125285817Y-78438097D01*
X125000000Y-78409946D01*
X124714182Y-78438097D01*
X124439348Y-78521467D01*
X124186060Y-78656852D01*
X123964050Y-78839051D01*
X123781852Y-79061061D01*
X123750000Y-79120652D01*
X123718148Y-79061060D01*
X123535949Y-78839050D01*
X123313939Y-78656852D01*
X123060651Y-78521467D01*
X122785817Y-78438097D01*
X122500000Y-78409946D01*
X122214182Y-78438097D01*
X121939348Y-78521467D01*
X121686060Y-78656852D01*
X121464050Y-78839051D01*
X121388014Y-78931702D01*
X121315846Y-78796687D01*
X121208777Y-78666223D01*
X121078313Y-78559154D01*
X120929468Y-78479594D01*
X120767961Y-78430602D01*
X120600000Y-78414059D01*
X119400000Y-78414059D01*
X119232039Y-78430602D01*
X119070532Y-78479594D01*
X118921687Y-78559154D01*
X118791223Y-78666223D01*
X118684154Y-78796687D01*
X118604594Y-78945532D01*
X118555602Y-79107039D01*
X118539059Y-79275000D01*
X115633000Y-79275000D01*
X115633000Y-77030960D01*
X115662013Y-76735069D01*
X115738952Y-76480233D01*
X115863924Y-76245196D01*
X116032171Y-76038904D01*
X116237278Y-75869224D01*
X116471445Y-75742611D01*
X116725737Y-75663894D01*
X117019675Y-75633000D01*
X118825789Y-75633000D01*
X118707937Y-75809378D01*
G37*
X118707937Y-75809378D02*
X118598030Y-76074717D01*
X118542000Y-76356399D01*
X118542000Y-76643601D01*
X118598030Y-76925283D01*
X118707937Y-77190622D01*
X118867497Y-77429421D01*
X119070579Y-77632503D01*
X119309378Y-77792063D01*
X119574717Y-77901970D01*
X119856399Y-77958000D01*
X120143601Y-77958000D01*
X120425283Y-77901970D01*
X120690622Y-77792063D01*
X120929421Y-77632503D01*
X121132503Y-77429421D01*
X121250000Y-77253574D01*
X121367497Y-77429421D01*
X121570579Y-77632503D01*
X121809378Y-77792063D01*
X122074717Y-77901970D01*
X122356399Y-77958000D01*
X122643601Y-77958000D01*
X122925283Y-77901970D01*
X123190622Y-77792063D01*
X123429421Y-77632503D01*
X123632503Y-77429421D01*
X123750000Y-77253574D01*
X123867497Y-77429421D01*
X124070579Y-77632503D01*
X124309378Y-77792063D01*
X124574717Y-77901970D01*
X124856399Y-77958000D01*
X125143601Y-77958000D01*
X125425283Y-77901970D01*
X125690622Y-77792063D01*
X125929421Y-77632503D01*
X126132503Y-77429421D01*
X126250000Y-77253574D01*
X126367497Y-77429421D01*
X126570579Y-77632503D01*
X126809378Y-77792063D01*
X127074717Y-77901970D01*
X127356399Y-77958000D01*
X127643601Y-77958000D01*
X127925283Y-77901970D01*
X128190622Y-77792063D01*
X128429421Y-77632503D01*
X128632503Y-77429421D01*
X128792063Y-77190622D01*
X128901970Y-76925283D01*
X128958000Y-76643601D01*
X128958000Y-76356399D01*
X128901970Y-76074717D01*
X128792063Y-75809378D01*
X128674211Y-75633000D01*
X132969040Y-75633000D01*
X133264931Y-75662013D01*
X133519767Y-75738952D01*
X133754804Y-75863924D01*
X133961096Y-76032171D01*
X134130776Y-76237278D01*
X134257389Y-76471445D01*
X134336106Y-76725737D01*
X134367000Y-77019675D01*
X134367001Y-82031088D01*
X134369707Y-82058560D01*
X134369642Y-82067841D01*
X134370505Y-82076637D01*
X134401105Y-82367783D01*
X134412653Y-82424042D01*
X134423392Y-82480339D01*
X134425944Y-82488792D01*
X134425945Y-82488799D01*
X134425946Y-82488801D01*
X134512514Y-82768456D01*
X134534760Y-82821379D01*
X134556239Y-82874540D01*
X134560388Y-82882344D01*
X134699627Y-83139860D01*
X134731720Y-83187441D01*
X134763123Y-83235429D01*
X134768705Y-83242273D01*
X134768709Y-83242279D01*
X134768714Y-83242284D01*
X134955314Y-83467845D01*
X134996024Y-83508272D01*
X135036164Y-83549262D01*
X135042974Y-83554896D01*
X135269838Y-83739922D01*
X135317649Y-83771687D01*
X135364963Y-83804084D01*
X135372737Y-83808288D01*
X135631218Y-83945725D01*
X135684320Y-83967612D01*
X135736993Y-83990188D01*
X135745436Y-83992802D01*
X136025690Y-84077416D01*
X136082016Y-84088569D01*
X136138089Y-84100488D01*
X136146875Y-84101412D01*
X136146879Y-84101412D01*
X136438231Y-84129979D01*
X136667812Y-84152489D01*
X136829229Y-84201224D01*
X136978110Y-84280386D01*
X137108780Y-84386958D01*
X137216259Y-84516877D01*
X137296458Y-84665202D01*
X137346319Y-84826276D01*
X137367001Y-85023059D01*
X137367000Y-86968912D01*
X137367000Y-91340839D01*
X137346027Y-91323627D01*
X137101425Y-91192884D01*
X136836016Y-91112373D01*
X136629164Y-91092000D01*
X136090836Y-91092000D01*
X135883984Y-91112373D01*
X135618575Y-91192884D01*
X135373973Y-91323627D01*
X135159577Y-91499577D01*
X134983627Y-91713973D01*
X134852884Y-91958575D01*
X134772373Y-92223984D01*
X134745188Y-92500000D01*
X134772373Y-92776016D01*
X134852884Y-93041425D01*
X134983627Y-93286027D01*
X135159577Y-93500423D01*
X135373973Y-93676373D01*
X135549136Y-93770000D01*
X135373973Y-93863627D01*
X135159577Y-94039577D01*
X134983627Y-94253973D01*
X134852884Y-94498575D01*
X134772373Y-94763984D01*
X134745188Y-95040000D01*
X134772373Y-95316016D01*
X134852884Y-95581425D01*
X134983627Y-95826027D01*
X135159577Y-96040423D01*
X135373973Y-96216373D01*
X135549136Y-96310000D01*
X135373973Y-96403627D01*
X135159577Y-96579577D01*
X134983627Y-96793973D01*
X134852884Y-97038575D01*
X134772373Y-97303984D01*
X134745188Y-97580000D01*
X134772373Y-97856016D01*
X134852884Y-98121425D01*
X134983627Y-98366027D01*
X135159577Y-98580423D01*
X135373973Y-98756373D01*
X135549136Y-98850000D01*
X135373973Y-98943627D01*
X135159577Y-99119577D01*
X134983627Y-99333973D01*
X134852884Y-99578575D01*
X134772373Y-99843984D01*
X134745188Y-100120000D01*
X134772373Y-100396016D01*
X134852884Y-100661425D01*
X134983627Y-100906027D01*
X135159577Y-101120423D01*
X135373973Y-101296373D01*
X135549136Y-101390000D01*
X135373973Y-101483627D01*
X135159577Y-101659577D01*
X134983627Y-101873973D01*
X134852884Y-102118575D01*
X134772373Y-102383984D01*
X134745188Y-102660000D01*
X134772373Y-102936016D01*
X134852884Y-103201425D01*
X134983627Y-103446027D01*
X135159577Y-103660423D01*
X135373973Y-103836373D01*
X135549136Y-103930000D01*
X135373973Y-104023627D01*
X135159577Y-104199577D01*
X134983627Y-104413973D01*
X134852884Y-104658575D01*
X134772373Y-104923984D01*
X134745188Y-105200000D01*
X134772373Y-105476016D01*
X134852884Y-105741425D01*
X134983627Y-105986027D01*
X135159577Y-106200423D01*
X135373973Y-106376373D01*
X135553831Y-106472510D01*
X135462232Y-106513306D01*
X135236323Y-106673004D01*
X135045911Y-106873706D01*
X134898312Y-107107700D01*
X134801769Y-107368958D01*
X134913477Y-107586000D01*
X136206000Y-107586000D01*
X136206000Y-107566000D01*
X136514000Y-107566000D01*
X136514000Y-107586000D01*
X136534000Y-107586000D01*
X136534000Y-107894000D01*
X136514000Y-107894000D01*
X136514000Y-107914000D01*
X136206000Y-107914000D01*
X136206000Y-107894000D01*
X134913477Y-107894000D01*
X134801769Y-108111042D01*
X134898312Y-108372300D01*
X135045911Y-108606294D01*
X135236323Y-108806996D01*
X135462232Y-108966694D01*
X135553831Y-109007490D01*
X135373973Y-109103627D01*
X135159577Y-109279577D01*
X135145278Y-109297000D01*
X128687172Y-109297000D01*
X127483000Y-108092829D01*
X127483000Y-102910570D01*
X128092000Y-102910570D01*
X128092000Y-103089430D01*
X128126894Y-103264854D01*
X128195341Y-103430099D01*
X128294711Y-103578816D01*
X128421184Y-103705289D01*
X128569901Y-103804659D01*
X128735146Y-103873106D01*
X128910570Y-103908000D01*
X129089430Y-103908000D01*
X129264854Y-103873106D01*
X129301323Y-103858000D01*
X131457857Y-103858000D01*
X131500000Y-103862151D01*
X131542143Y-103858000D01*
X131542146Y-103858000D01*
X131668197Y-103845585D01*
X131829931Y-103796524D01*
X131978985Y-103716852D01*
X132109633Y-103609633D01*
X132136505Y-103576889D01*
X133393631Y-102319765D01*
X133430099Y-102304659D01*
X133578816Y-102205289D01*
X133705289Y-102078816D01*
X133804659Y-101930099D01*
X133873106Y-101764854D01*
X133908000Y-101589430D01*
X133908000Y-101410570D01*
X133873106Y-101235146D01*
X133804659Y-101069901D01*
X133705289Y-100921184D01*
X133578816Y-100794711D01*
X133430099Y-100695341D01*
X133264854Y-100626894D01*
X133089430Y-100592000D01*
X132910570Y-100592000D01*
X132735146Y-100626894D01*
X132569901Y-100695341D01*
X132421184Y-100794711D01*
X132294711Y-100921184D01*
X132195341Y-101069901D01*
X132180235Y-101106369D01*
X131144606Y-102142000D01*
X129301323Y-102142000D01*
X129264854Y-102126894D01*
X129089430Y-102092000D01*
X128910570Y-102092000D01*
X128735146Y-102126894D01*
X128569901Y-102195341D01*
X128421184Y-102294711D01*
X128294711Y-102421184D01*
X128195341Y-102569901D01*
X128126894Y-102735146D01*
X128092000Y-102910570D01*
X127483000Y-102910570D01*
X127483000Y-87724962D01*
X127508000Y-87599279D01*
X127508000Y-87400721D01*
X127469263Y-87205977D01*
X127393278Y-87022533D01*
X127282965Y-86857438D01*
X127142562Y-86717035D01*
X126977467Y-86606722D01*
X126794023Y-86530737D01*
X126599279Y-86492000D01*
X126400721Y-86492000D01*
X126205977Y-86530737D01*
X126022533Y-86606722D01*
X125857438Y-86717035D01*
X125717035Y-86857438D01*
X125606722Y-87022533D01*
X125530737Y-87205977D01*
X125492000Y-87400721D01*
X125492000Y-87599279D01*
X125517000Y-87724963D01*
X125517001Y-105951701D01*
X125517000Y-105951711D01*
X125517001Y-108451703D01*
X125512244Y-108500000D01*
X125531224Y-108692701D01*
X125587433Y-108877998D01*
X125678711Y-109048767D01*
X125760150Y-109148000D01*
X125801552Y-109198449D01*
X125839060Y-109229231D01*
X127550769Y-110940941D01*
X127581551Y-110978449D01*
X127731232Y-111101289D01*
X127902002Y-111192568D01*
X128087298Y-111248777D01*
X128231710Y-111263000D01*
X128231720Y-111263000D01*
X128279999Y-111267755D01*
X128328279Y-111263000D01*
X135145278Y-111263000D01*
X135159577Y-111280423D01*
X135373973Y-111456373D01*
X135618575Y-111587116D01*
X135883984Y-111667627D01*
X136090836Y-111688000D01*
X136629164Y-111688000D01*
X136836016Y-111667627D01*
X137101425Y-111587116D01*
X137346027Y-111456373D01*
X137367001Y-111439160D01*
X137367001Y-115968912D01*
X137367000Y-118367000D01*
X115030960Y-118367000D01*
X114540835Y-118318942D01*
X114099164Y-118185594D01*
X113691801Y-117968996D01*
X113334270Y-117677400D01*
X113040184Y-117321912D01*
X112820749Y-116916074D01*
X112684318Y-116475339D01*
X112633000Y-115987079D01*
X112633000Y-111519995D01*
X112758575Y-111587116D01*
X113023984Y-111667627D01*
X113230836Y-111688000D01*
X113769164Y-111688000D01*
X113976016Y-111667627D01*
X114241425Y-111587116D01*
X114486027Y-111456373D01*
X114700423Y-111280423D01*
X114714722Y-111263000D01*
X117671713Y-111263000D01*
X117720000Y-111267756D01*
X117768287Y-111263000D01*
X117768290Y-111263000D01*
X117912702Y-111248777D01*
X118097998Y-111192568D01*
X118268768Y-111101289D01*
X118418449Y-110978449D01*
X118449235Y-110940936D01*
X120160941Y-109229231D01*
X120198449Y-109198449D01*
X120239852Y-109148000D01*
X120321289Y-109048768D01*
X120322172Y-109047116D01*
X120412568Y-108877998D01*
X120468777Y-108692702D01*
X120483000Y-108548290D01*
X120483000Y-108548280D01*
X120487755Y-108500001D01*
X120483000Y-108451721D01*
X120483000Y-95951710D01*
X120468777Y-95807298D01*
X120412568Y-95622002D01*
X120321289Y-95451232D01*
X120198449Y-95301551D01*
X120048768Y-95178711D01*
X119877997Y-95087432D01*
X119692701Y-95031223D01*
X119500000Y-95012244D01*
X119307298Y-95031223D01*
X119122002Y-95087432D01*
X118951232Y-95178711D01*
X118801551Y-95301551D01*
X118678711Y-95451232D01*
X118587432Y-95622003D01*
X118531223Y-95807299D01*
X118517000Y-95951711D01*
X118517001Y-105951701D01*
X118517000Y-105951711D01*
X118517001Y-108092827D01*
X117312829Y-109297000D01*
X114714722Y-109297000D01*
X114700423Y-109279577D01*
X114486027Y-109103627D01*
X114310864Y-109010000D01*
X114486027Y-108916373D01*
X114700423Y-108740423D01*
X114876373Y-108526027D01*
X115007116Y-108281425D01*
X115087627Y-108016016D01*
X115114812Y-107740000D01*
X115087627Y-107463984D01*
X115007116Y-107198575D01*
X114876373Y-106953973D01*
X114700423Y-106739577D01*
X114486027Y-106563627D01*
X114310864Y-106470000D01*
X114486027Y-106376373D01*
X114700423Y-106200423D01*
X114876373Y-105986027D01*
X115007116Y-105741425D01*
X115087627Y-105476016D01*
X115114812Y-105200000D01*
X115087627Y-104923984D01*
X115007116Y-104658575D01*
X114876373Y-104413973D01*
X114700423Y-104199577D01*
X114486027Y-104023627D01*
X114310864Y-103930000D01*
X114486027Y-103836373D01*
X114700423Y-103660423D01*
X114876373Y-103446027D01*
X115007116Y-103201425D01*
X115087627Y-102936016D01*
X115114812Y-102660000D01*
X115087627Y-102383984D01*
X115007116Y-102118575D01*
X114876373Y-101873973D01*
X114700423Y-101659577D01*
X114486027Y-101483627D01*
X114310864Y-101390000D01*
X114486027Y-101296373D01*
X114700423Y-101120423D01*
X114876373Y-100906027D01*
X115007116Y-100661425D01*
X115087627Y-100396016D01*
X115114812Y-100120000D01*
X115087627Y-99843984D01*
X115007116Y-99578575D01*
X114876373Y-99333973D01*
X114700423Y-99119577D01*
X114486027Y-98943627D01*
X114310864Y-98850000D01*
X114486027Y-98756373D01*
X114700423Y-98580423D01*
X114876373Y-98366027D01*
X115007116Y-98121425D01*
X115087627Y-97856016D01*
X115114812Y-97580000D01*
X115087627Y-97303984D01*
X115007116Y-97038575D01*
X114876373Y-96793973D01*
X114700423Y-96579577D01*
X114486027Y-96403627D01*
X114310864Y-96310000D01*
X114486027Y-96216373D01*
X114700423Y-96040423D01*
X114876373Y-95826027D01*
X115007116Y-95581425D01*
X115087627Y-95316016D01*
X115114812Y-95040000D01*
X115087627Y-94763984D01*
X115007116Y-94498575D01*
X114876373Y-94253973D01*
X114723410Y-94067587D01*
X114733797Y-94064436D01*
X114839421Y-94007979D01*
X114932001Y-93932001D01*
X115007979Y-93839421D01*
X115064436Y-93733797D01*
X115099202Y-93619189D01*
X115110941Y-93500000D01*
X115110941Y-91500000D01*
X115099202Y-91380811D01*
X115064436Y-91266203D01*
X115007979Y-91160579D01*
X114932001Y-91067999D01*
X114839421Y-90992021D01*
X114733797Y-90935564D01*
X114619189Y-90900798D01*
X114500000Y-90889059D01*
X112633000Y-90889059D01*
X112633000Y-85030958D01*
X112652489Y-84832188D01*
X112701224Y-84670771D01*
X112780386Y-84521890D01*
X112886958Y-84391220D01*
X113016877Y-84283741D01*
X113165202Y-84203542D01*
X113326276Y-84153681D01*
X113549412Y-84130229D01*
X113567841Y-84130358D01*
X113576637Y-84129495D01*
X113867783Y-84098895D01*
X113924042Y-84087347D01*
X113980339Y-84076608D01*
X113988792Y-84074056D01*
X113988799Y-84074055D01*
X113988805Y-84074052D01*
X114268456Y-83987486D01*
X114321379Y-83965240D01*
X114374540Y-83943761D01*
X114382339Y-83939615D01*
X114382343Y-83939613D01*
X114382346Y-83939611D01*
X114639860Y-83800373D01*
X114687441Y-83768280D01*
X114735429Y-83736877D01*
X114742273Y-83731295D01*
X114742279Y-83731291D01*
X114742284Y-83731286D01*
X114967845Y-83544686D01*
X115008272Y-83503976D01*
X115049262Y-83463836D01*
X115054896Y-83457026D01*
X115239922Y-83230162D01*
X115271687Y-83182351D01*
X115304084Y-83135037D01*
X115308288Y-83127263D01*
X115445725Y-82868782D01*
X115467612Y-82815680D01*
X115490188Y-82763007D01*
X115492802Y-82754564D01*
X115577416Y-82474310D01*
X115588569Y-82417984D01*
X115600488Y-82361911D01*
X115601412Y-82353121D01*
X115629979Y-82061769D01*
X115629979Y-82061760D01*
X115633000Y-82031088D01*
X115633000Y-79275000D01*
X118539059Y-79275000D01*
X118539059Y-80725000D01*
X118555602Y-80892961D01*
X118604594Y-81054468D01*
X118684154Y-81203313D01*
X118791223Y-81333777D01*
X118921687Y-81440846D01*
X119070532Y-81520406D01*
X119232039Y-81569398D01*
X119400000Y-81585941D01*
X120600000Y-81585941D01*
X120767961Y-81569398D01*
X120929468Y-81520406D01*
X121078313Y-81440846D01*
X121208777Y-81333777D01*
X121315846Y-81203313D01*
X121388014Y-81068298D01*
X121464051Y-81160950D01*
X121686061Y-81343148D01*
X121939349Y-81478533D01*
X122214183Y-81561903D01*
X122500000Y-81590054D01*
X122785818Y-81561903D01*
X123060652Y-81478533D01*
X123313940Y-81343148D01*
X123535950Y-81160950D01*
X123718148Y-80938940D01*
X123750000Y-80879349D01*
X123781852Y-80938940D01*
X123964051Y-81160950D01*
X124186061Y-81343148D01*
X124439349Y-81478533D01*
X124714183Y-81561903D01*
X125000000Y-81590054D01*
X125285818Y-81561903D01*
X125560652Y-81478533D01*
X125813940Y-81343148D01*
X126035950Y-81160950D01*
X126218148Y-80938940D01*
X126250000Y-80879349D01*
X126281852Y-80938940D01*
X126464051Y-81160950D01*
X126686061Y-81343148D01*
X126939349Y-81478533D01*
X127214183Y-81561903D01*
X127500000Y-81590054D01*
X127785818Y-81561903D01*
X128060652Y-81478533D01*
X128313940Y-81343148D01*
X128535950Y-81160950D01*
X128718148Y-80938940D01*
X128753741Y-80872350D01*
X128773309Y-80910729D01*
X128950168Y-81134947D01*
X129167371Y-81320353D01*
X129416572Y-81459822D01*
X129621090Y-81532903D01*
X129846000Y-81421889D01*
X129846000Y-80154000D01*
X130154000Y-80154000D01*
X130154000Y-81421889D01*
X130378910Y-81532903D01*
X130583428Y-81459822D01*
X130832629Y-81320353D01*
X131049832Y-81134947D01*
X131226691Y-80910729D01*
X131356409Y-80656316D01*
X131434001Y-80381485D01*
X131304469Y-80154000D01*
X130154000Y-80154000D01*
X129846000Y-80154000D01*
X129826000Y-80154000D01*
X129826000Y-79846000D01*
X129846000Y-79846000D01*
X129846000Y-78578111D01*
X130154000Y-78578111D01*
X130154000Y-79846000D01*
X131304469Y-79846000D01*
X131434001Y-79618515D01*
X131356409Y-79343684D01*
X131226691Y-79089271D01*
X131049832Y-78865053D01*
X130832629Y-78679647D01*
X130583428Y-78540178D01*
X130378910Y-78467097D01*
X130154000Y-78578111D01*
X129846000Y-78578111D01*
X129621090Y-78467097D01*
X129416572Y-78540178D01*
X129167371Y-78679647D01*
X128950168Y-78865053D01*
X128773309Y-79089271D01*
X128753741Y-79127650D01*
X128718148Y-79061060D01*
X128535949Y-78839050D01*
X128313939Y-78656852D01*
X128060651Y-78521467D01*
X127785817Y-78438097D01*
X127500000Y-78409946D01*
X127214182Y-78438097D01*
X126939348Y-78521467D01*
X126686060Y-78656852D01*
X126464050Y-78839051D01*
X126281852Y-79061061D01*
X126250000Y-79120652D01*
X126218148Y-79061060D01*
X126035949Y-78839050D01*
X125813939Y-78656852D01*
X125560651Y-78521467D01*
X125285817Y-78438097D01*
X125000000Y-78409946D01*
X124714182Y-78438097D01*
X124439348Y-78521467D01*
X124186060Y-78656852D01*
X123964050Y-78839051D01*
X123781852Y-79061061D01*
X123750000Y-79120652D01*
X123718148Y-79061060D01*
X123535949Y-78839050D01*
X123313939Y-78656852D01*
X123060651Y-78521467D01*
X122785817Y-78438097D01*
X122500000Y-78409946D01*
X122214182Y-78438097D01*
X121939348Y-78521467D01*
X121686060Y-78656852D01*
X121464050Y-78839051D01*
X121388014Y-78931702D01*
X121315846Y-78796687D01*
X121208777Y-78666223D01*
X121078313Y-78559154D01*
X120929468Y-78479594D01*
X120767961Y-78430602D01*
X120600000Y-78414059D01*
X119400000Y-78414059D01*
X119232039Y-78430602D01*
X119070532Y-78479594D01*
X118921687Y-78559154D01*
X118791223Y-78666223D01*
X118684154Y-78796687D01*
X118604594Y-78945532D01*
X118555602Y-79107039D01*
X118539059Y-79275000D01*
X115633000Y-79275000D01*
X115633000Y-77030960D01*
X115662013Y-76735069D01*
X115738952Y-76480233D01*
X115863924Y-76245196D01*
X116032171Y-76038904D01*
X116237278Y-75869224D01*
X116471445Y-75742611D01*
X116725737Y-75663894D01*
X117019675Y-75633000D01*
X118825789Y-75633000D01*
X118707937Y-75809378D01*
M02*
