M48
; DRILL file {KiCad (5.1.5)-3} date 10/09/2021 12:23:32 PM
; FORMAT={-:-/ absolute / metric / decimal}
; #@! TF.CreationDate,2021-09-10T12:23:32+10:00
; #@! TF.GenerationSoftware,Kicad,Pcbnew,(5.1.5)-3
; #@! TF.FileFunction,Plated,1,2,PTH
FMAT,2
METRIC
T1C0.300
T2C0.400
T3C0.500
T4C0.950
T5C1.000
%
G90
G05
T1
X119.5Y-96.0
X119.5Y-101.0
X119.5Y-106.0
X126.5Y-96.0
X126.5Y-101.0
X126.5Y-106.0
X129.0Y-103.0
X133.0Y-101.5
T2
X120.0Y-80.0
X126.5Y-87.5
T3
X117.0Y-78.0
T4
X120.0Y-76.5
X122.5Y-76.5
X125.0Y-76.5
X127.5Y-76.5
X130.0Y-76.5
X120.0Y-80.0
X122.5Y-80.0
X125.0Y-80.0
X127.5Y-80.0
X130.0Y-80.0
T5
X113.5Y-92.5
X113.5Y-95.04
X113.5Y-97.58
X113.5Y-100.12
X113.5Y-102.66
X113.5Y-105.2
X113.5Y-107.74
X113.5Y-110.28
X136.36Y-92.5
X136.36Y-95.04
X136.36Y-97.58
X136.36Y-100.12
X136.36Y-102.66
X136.36Y-105.2
X136.36Y-107.74
X136.36Y-110.28
T0
M30
