G04 #@! TF.GenerationSoftware,KiCad,Pcbnew,(5.1.5)-3*
G04 #@! TF.CreationDate,2021-09-10T12:23:28+10:00*
G04 #@! TF.ProjectId,MHI ESP,4d484920-4553-4502-9e6b-696361645f70,rev?*
G04 #@! TF.SameCoordinates,Original*
G04 #@! TF.FileFunction,Copper,L1,Top*
G04 #@! TF.FilePolarity,Positive*
%FSLAX46Y46*%
G04 Gerber Fmt 4.6, Leading zero omitted, Abs format (unit mm)*
G04 Created by KiCad (PCBNEW (5.1.5)-3) date 2021-09-10 12:23:28*
%MOMM*%
%LPD*%
G04 APERTURE LIST*
%ADD10O,2.000000X1.600000*%
%ADD11R,2.000000X2.000000*%
%ADD12O,1.700000X1.950000*%
%ADD13C,0.100000*%
%ADD14R,2.000000X1.500000*%
%ADD15R,2.000000X3.800000*%
%ADD16R,0.900000X0.800000*%
%ADD17C,1.700000*%
%ADD18C,1.000000*%
%ADD19C,0.600000*%
%ADD20C,0.800000*%
%ADD21C,1.700000*%
%ADD22C,0.750000*%
%ADD23C,0.500000*%
%ADD24C,1.000000*%
%ADD25C,0.254000*%
G04 APERTURE END LIST*
D10*
X136360000Y-92500000D03*
X136360000Y-95040000D03*
X136360000Y-97580000D03*
X136360000Y-100120000D03*
X136360000Y-102660000D03*
X136360000Y-105200000D03*
X136360000Y-107740000D03*
X136360000Y-110280000D03*
X113500000Y-110280000D03*
X113500000Y-107740000D03*
X113500000Y-105200000D03*
X113500000Y-102660000D03*
X113500000Y-100120000D03*
X113500000Y-97580000D03*
D11*
X113500000Y-92500000D03*
D10*
X113500000Y-95040000D03*
D12*
X130000000Y-80000000D03*
X127500000Y-80000000D03*
X125000000Y-80000000D03*
X122500000Y-80000000D03*
G04 #@! TA.AperFunction,ComponentPad*
D13*
G36*
X120624504Y-79026204D02*
G01*
X120648773Y-79029804D01*
X120672571Y-79035765D01*
X120695671Y-79044030D01*
X120717849Y-79054520D01*
X120738893Y-79067133D01*
X120758598Y-79081747D01*
X120776777Y-79098223D01*
X120793253Y-79116402D01*
X120807867Y-79136107D01*
X120820480Y-79157151D01*
X120830970Y-79179329D01*
X120839235Y-79202429D01*
X120845196Y-79226227D01*
X120848796Y-79250496D01*
X120850000Y-79275000D01*
X120850000Y-80725000D01*
X120848796Y-80749504D01*
X120845196Y-80773773D01*
X120839235Y-80797571D01*
X120830970Y-80820671D01*
X120820480Y-80842849D01*
X120807867Y-80863893D01*
X120793253Y-80883598D01*
X120776777Y-80901777D01*
X120758598Y-80918253D01*
X120738893Y-80932867D01*
X120717849Y-80945480D01*
X120695671Y-80955970D01*
X120672571Y-80964235D01*
X120648773Y-80970196D01*
X120624504Y-80973796D01*
X120600000Y-80975000D01*
X119400000Y-80975000D01*
X119375496Y-80973796D01*
X119351227Y-80970196D01*
X119327429Y-80964235D01*
X119304329Y-80955970D01*
X119282151Y-80945480D01*
X119261107Y-80932867D01*
X119241402Y-80918253D01*
X119223223Y-80901777D01*
X119206747Y-80883598D01*
X119192133Y-80863893D01*
X119179520Y-80842849D01*
X119169030Y-80820671D01*
X119160765Y-80797571D01*
X119154804Y-80773773D01*
X119151204Y-80749504D01*
X119150000Y-80725000D01*
X119150000Y-79275000D01*
X119151204Y-79250496D01*
X119154804Y-79226227D01*
X119160765Y-79202429D01*
X119169030Y-79179329D01*
X119179520Y-79157151D01*
X119192133Y-79136107D01*
X119206747Y-79116402D01*
X119223223Y-79098223D01*
X119241402Y-79081747D01*
X119261107Y-79067133D01*
X119282151Y-79054520D01*
X119304329Y-79044030D01*
X119327429Y-79035765D01*
X119351227Y-79029804D01*
X119375496Y-79026204D01*
X119400000Y-79025000D01*
X120600000Y-79025000D01*
X120624504Y-79026204D01*
G37*
G04 #@! TD.AperFunction*
D14*
X123150000Y-89800000D03*
X123150000Y-85200000D03*
X123150000Y-87500000D03*
D15*
X116850000Y-87500000D03*
G04 #@! TA.AperFunction,SMDPad,CuDef*
D13*
G36*
X126980142Y-107451174D02*
G01*
X127003803Y-107454684D01*
X127027007Y-107460496D01*
X127049529Y-107468554D01*
X127071153Y-107478782D01*
X127091670Y-107491079D01*
X127110883Y-107505329D01*
X127128607Y-107521393D01*
X127144671Y-107539117D01*
X127158921Y-107558330D01*
X127171218Y-107578847D01*
X127181446Y-107600471D01*
X127189504Y-107622993D01*
X127195316Y-107646197D01*
X127198826Y-107669858D01*
X127200000Y-107693750D01*
X127200000Y-108181250D01*
X127198826Y-108205142D01*
X127195316Y-108228803D01*
X127189504Y-108252007D01*
X127181446Y-108274529D01*
X127171218Y-108296153D01*
X127158921Y-108316670D01*
X127144671Y-108335883D01*
X127128607Y-108353607D01*
X127110883Y-108369671D01*
X127091670Y-108383921D01*
X127071153Y-108396218D01*
X127049529Y-108406446D01*
X127027007Y-108414504D01*
X127003803Y-108420316D01*
X126980142Y-108423826D01*
X126956250Y-108425000D01*
X126043750Y-108425000D01*
X126019858Y-108423826D01*
X125996197Y-108420316D01*
X125972993Y-108414504D01*
X125950471Y-108406446D01*
X125928847Y-108396218D01*
X125908330Y-108383921D01*
X125889117Y-108369671D01*
X125871393Y-108353607D01*
X125855329Y-108335883D01*
X125841079Y-108316670D01*
X125828782Y-108296153D01*
X125818554Y-108274529D01*
X125810496Y-108252007D01*
X125804684Y-108228803D01*
X125801174Y-108205142D01*
X125800000Y-108181250D01*
X125800000Y-107693750D01*
X125801174Y-107669858D01*
X125804684Y-107646197D01*
X125810496Y-107622993D01*
X125818554Y-107600471D01*
X125828782Y-107578847D01*
X125841079Y-107558330D01*
X125855329Y-107539117D01*
X125871393Y-107521393D01*
X125889117Y-107505329D01*
X125908330Y-107491079D01*
X125928847Y-107478782D01*
X125950471Y-107468554D01*
X125972993Y-107460496D01*
X125996197Y-107454684D01*
X126019858Y-107451174D01*
X126043750Y-107450000D01*
X126956250Y-107450000D01*
X126980142Y-107451174D01*
G37*
G04 #@! TD.AperFunction*
G04 #@! TA.AperFunction,SMDPad,CuDef*
G36*
X126980142Y-105576174D02*
G01*
X127003803Y-105579684D01*
X127027007Y-105585496D01*
X127049529Y-105593554D01*
X127071153Y-105603782D01*
X127091670Y-105616079D01*
X127110883Y-105630329D01*
X127128607Y-105646393D01*
X127144671Y-105664117D01*
X127158921Y-105683330D01*
X127171218Y-105703847D01*
X127181446Y-105725471D01*
X127189504Y-105747993D01*
X127195316Y-105771197D01*
X127198826Y-105794858D01*
X127200000Y-105818750D01*
X127200000Y-106306250D01*
X127198826Y-106330142D01*
X127195316Y-106353803D01*
X127189504Y-106377007D01*
X127181446Y-106399529D01*
X127171218Y-106421153D01*
X127158921Y-106441670D01*
X127144671Y-106460883D01*
X127128607Y-106478607D01*
X127110883Y-106494671D01*
X127091670Y-106508921D01*
X127071153Y-106521218D01*
X127049529Y-106531446D01*
X127027007Y-106539504D01*
X127003803Y-106545316D01*
X126980142Y-106548826D01*
X126956250Y-106550000D01*
X126043750Y-106550000D01*
X126019858Y-106548826D01*
X125996197Y-106545316D01*
X125972993Y-106539504D01*
X125950471Y-106531446D01*
X125928847Y-106521218D01*
X125908330Y-106508921D01*
X125889117Y-106494671D01*
X125871393Y-106478607D01*
X125855329Y-106460883D01*
X125841079Y-106441670D01*
X125828782Y-106421153D01*
X125818554Y-106399529D01*
X125810496Y-106377007D01*
X125804684Y-106353803D01*
X125801174Y-106330142D01*
X125800000Y-106306250D01*
X125800000Y-105818750D01*
X125801174Y-105794858D01*
X125804684Y-105771197D01*
X125810496Y-105747993D01*
X125818554Y-105725471D01*
X125828782Y-105703847D01*
X125841079Y-105683330D01*
X125855329Y-105664117D01*
X125871393Y-105646393D01*
X125889117Y-105630329D01*
X125908330Y-105616079D01*
X125928847Y-105603782D01*
X125950471Y-105593554D01*
X125972993Y-105585496D01*
X125996197Y-105579684D01*
X126019858Y-105576174D01*
X126043750Y-105575000D01*
X126956250Y-105575000D01*
X126980142Y-105576174D01*
G37*
G04 #@! TD.AperFunction*
G04 #@! TA.AperFunction,SMDPad,CuDef*
G36*
X126980142Y-102451174D02*
G01*
X127003803Y-102454684D01*
X127027007Y-102460496D01*
X127049529Y-102468554D01*
X127071153Y-102478782D01*
X127091670Y-102491079D01*
X127110883Y-102505329D01*
X127128607Y-102521393D01*
X127144671Y-102539117D01*
X127158921Y-102558330D01*
X127171218Y-102578847D01*
X127181446Y-102600471D01*
X127189504Y-102622993D01*
X127195316Y-102646197D01*
X127198826Y-102669858D01*
X127200000Y-102693750D01*
X127200000Y-103181250D01*
X127198826Y-103205142D01*
X127195316Y-103228803D01*
X127189504Y-103252007D01*
X127181446Y-103274529D01*
X127171218Y-103296153D01*
X127158921Y-103316670D01*
X127144671Y-103335883D01*
X127128607Y-103353607D01*
X127110883Y-103369671D01*
X127091670Y-103383921D01*
X127071153Y-103396218D01*
X127049529Y-103406446D01*
X127027007Y-103414504D01*
X127003803Y-103420316D01*
X126980142Y-103423826D01*
X126956250Y-103425000D01*
X126043750Y-103425000D01*
X126019858Y-103423826D01*
X125996197Y-103420316D01*
X125972993Y-103414504D01*
X125950471Y-103406446D01*
X125928847Y-103396218D01*
X125908330Y-103383921D01*
X125889117Y-103369671D01*
X125871393Y-103353607D01*
X125855329Y-103335883D01*
X125841079Y-103316670D01*
X125828782Y-103296153D01*
X125818554Y-103274529D01*
X125810496Y-103252007D01*
X125804684Y-103228803D01*
X125801174Y-103205142D01*
X125800000Y-103181250D01*
X125800000Y-102693750D01*
X125801174Y-102669858D01*
X125804684Y-102646197D01*
X125810496Y-102622993D01*
X125818554Y-102600471D01*
X125828782Y-102578847D01*
X125841079Y-102558330D01*
X125855329Y-102539117D01*
X125871393Y-102521393D01*
X125889117Y-102505329D01*
X125908330Y-102491079D01*
X125928847Y-102478782D01*
X125950471Y-102468554D01*
X125972993Y-102460496D01*
X125996197Y-102454684D01*
X126019858Y-102451174D01*
X126043750Y-102450000D01*
X126956250Y-102450000D01*
X126980142Y-102451174D01*
G37*
G04 #@! TD.AperFunction*
G04 #@! TA.AperFunction,SMDPad,CuDef*
G36*
X126980142Y-100576174D02*
G01*
X127003803Y-100579684D01*
X127027007Y-100585496D01*
X127049529Y-100593554D01*
X127071153Y-100603782D01*
X127091670Y-100616079D01*
X127110883Y-100630329D01*
X127128607Y-100646393D01*
X127144671Y-100664117D01*
X127158921Y-100683330D01*
X127171218Y-100703847D01*
X127181446Y-100725471D01*
X127189504Y-100747993D01*
X127195316Y-100771197D01*
X127198826Y-100794858D01*
X127200000Y-100818750D01*
X127200000Y-101306250D01*
X127198826Y-101330142D01*
X127195316Y-101353803D01*
X127189504Y-101377007D01*
X127181446Y-101399529D01*
X127171218Y-101421153D01*
X127158921Y-101441670D01*
X127144671Y-101460883D01*
X127128607Y-101478607D01*
X127110883Y-101494671D01*
X127091670Y-101508921D01*
X127071153Y-101521218D01*
X127049529Y-101531446D01*
X127027007Y-101539504D01*
X127003803Y-101545316D01*
X126980142Y-101548826D01*
X126956250Y-101550000D01*
X126043750Y-101550000D01*
X126019858Y-101548826D01*
X125996197Y-101545316D01*
X125972993Y-101539504D01*
X125950471Y-101531446D01*
X125928847Y-101521218D01*
X125908330Y-101508921D01*
X125889117Y-101494671D01*
X125871393Y-101478607D01*
X125855329Y-101460883D01*
X125841079Y-101441670D01*
X125828782Y-101421153D01*
X125818554Y-101399529D01*
X125810496Y-101377007D01*
X125804684Y-101353803D01*
X125801174Y-101330142D01*
X125800000Y-101306250D01*
X125800000Y-100818750D01*
X125801174Y-100794858D01*
X125804684Y-100771197D01*
X125810496Y-100747993D01*
X125818554Y-100725471D01*
X125828782Y-100703847D01*
X125841079Y-100683330D01*
X125855329Y-100664117D01*
X125871393Y-100646393D01*
X125889117Y-100630329D01*
X125908330Y-100616079D01*
X125928847Y-100603782D01*
X125950471Y-100593554D01*
X125972993Y-100585496D01*
X125996197Y-100579684D01*
X126019858Y-100576174D01*
X126043750Y-100575000D01*
X126956250Y-100575000D01*
X126980142Y-100576174D01*
G37*
G04 #@! TD.AperFunction*
G04 #@! TA.AperFunction,SMDPad,CuDef*
G36*
X126980142Y-97451174D02*
G01*
X127003803Y-97454684D01*
X127027007Y-97460496D01*
X127049529Y-97468554D01*
X127071153Y-97478782D01*
X127091670Y-97491079D01*
X127110883Y-97505329D01*
X127128607Y-97521393D01*
X127144671Y-97539117D01*
X127158921Y-97558330D01*
X127171218Y-97578847D01*
X127181446Y-97600471D01*
X127189504Y-97622993D01*
X127195316Y-97646197D01*
X127198826Y-97669858D01*
X127200000Y-97693750D01*
X127200000Y-98181250D01*
X127198826Y-98205142D01*
X127195316Y-98228803D01*
X127189504Y-98252007D01*
X127181446Y-98274529D01*
X127171218Y-98296153D01*
X127158921Y-98316670D01*
X127144671Y-98335883D01*
X127128607Y-98353607D01*
X127110883Y-98369671D01*
X127091670Y-98383921D01*
X127071153Y-98396218D01*
X127049529Y-98406446D01*
X127027007Y-98414504D01*
X127003803Y-98420316D01*
X126980142Y-98423826D01*
X126956250Y-98425000D01*
X126043750Y-98425000D01*
X126019858Y-98423826D01*
X125996197Y-98420316D01*
X125972993Y-98414504D01*
X125950471Y-98406446D01*
X125928847Y-98396218D01*
X125908330Y-98383921D01*
X125889117Y-98369671D01*
X125871393Y-98353607D01*
X125855329Y-98335883D01*
X125841079Y-98316670D01*
X125828782Y-98296153D01*
X125818554Y-98274529D01*
X125810496Y-98252007D01*
X125804684Y-98228803D01*
X125801174Y-98205142D01*
X125800000Y-98181250D01*
X125800000Y-97693750D01*
X125801174Y-97669858D01*
X125804684Y-97646197D01*
X125810496Y-97622993D01*
X125818554Y-97600471D01*
X125828782Y-97578847D01*
X125841079Y-97558330D01*
X125855329Y-97539117D01*
X125871393Y-97521393D01*
X125889117Y-97505329D01*
X125908330Y-97491079D01*
X125928847Y-97478782D01*
X125950471Y-97468554D01*
X125972993Y-97460496D01*
X125996197Y-97454684D01*
X126019858Y-97451174D01*
X126043750Y-97450000D01*
X126956250Y-97450000D01*
X126980142Y-97451174D01*
G37*
G04 #@! TD.AperFunction*
G04 #@! TA.AperFunction,SMDPad,CuDef*
G36*
X126980142Y-95576174D02*
G01*
X127003803Y-95579684D01*
X127027007Y-95585496D01*
X127049529Y-95593554D01*
X127071153Y-95603782D01*
X127091670Y-95616079D01*
X127110883Y-95630329D01*
X127128607Y-95646393D01*
X127144671Y-95664117D01*
X127158921Y-95683330D01*
X127171218Y-95703847D01*
X127181446Y-95725471D01*
X127189504Y-95747993D01*
X127195316Y-95771197D01*
X127198826Y-95794858D01*
X127200000Y-95818750D01*
X127200000Y-96306250D01*
X127198826Y-96330142D01*
X127195316Y-96353803D01*
X127189504Y-96377007D01*
X127181446Y-96399529D01*
X127171218Y-96421153D01*
X127158921Y-96441670D01*
X127144671Y-96460883D01*
X127128607Y-96478607D01*
X127110883Y-96494671D01*
X127091670Y-96508921D01*
X127071153Y-96521218D01*
X127049529Y-96531446D01*
X127027007Y-96539504D01*
X127003803Y-96545316D01*
X126980142Y-96548826D01*
X126956250Y-96550000D01*
X126043750Y-96550000D01*
X126019858Y-96548826D01*
X125996197Y-96545316D01*
X125972993Y-96539504D01*
X125950471Y-96531446D01*
X125928847Y-96521218D01*
X125908330Y-96508921D01*
X125889117Y-96494671D01*
X125871393Y-96478607D01*
X125855329Y-96460883D01*
X125841079Y-96441670D01*
X125828782Y-96421153D01*
X125818554Y-96399529D01*
X125810496Y-96377007D01*
X125804684Y-96353803D01*
X125801174Y-96330142D01*
X125800000Y-96306250D01*
X125800000Y-95818750D01*
X125801174Y-95794858D01*
X125804684Y-95771197D01*
X125810496Y-95747993D01*
X125818554Y-95725471D01*
X125828782Y-95703847D01*
X125841079Y-95683330D01*
X125855329Y-95664117D01*
X125871393Y-95646393D01*
X125889117Y-95630329D01*
X125908330Y-95616079D01*
X125928847Y-95603782D01*
X125950471Y-95593554D01*
X125972993Y-95585496D01*
X125996197Y-95579684D01*
X126019858Y-95576174D01*
X126043750Y-95575000D01*
X126956250Y-95575000D01*
X126980142Y-95576174D01*
G37*
G04 #@! TD.AperFunction*
G04 #@! TA.AperFunction,SMDPad,CuDef*
G36*
X119980142Y-107451174D02*
G01*
X120003803Y-107454684D01*
X120027007Y-107460496D01*
X120049529Y-107468554D01*
X120071153Y-107478782D01*
X120091670Y-107491079D01*
X120110883Y-107505329D01*
X120128607Y-107521393D01*
X120144671Y-107539117D01*
X120158921Y-107558330D01*
X120171218Y-107578847D01*
X120181446Y-107600471D01*
X120189504Y-107622993D01*
X120195316Y-107646197D01*
X120198826Y-107669858D01*
X120200000Y-107693750D01*
X120200000Y-108181250D01*
X120198826Y-108205142D01*
X120195316Y-108228803D01*
X120189504Y-108252007D01*
X120181446Y-108274529D01*
X120171218Y-108296153D01*
X120158921Y-108316670D01*
X120144671Y-108335883D01*
X120128607Y-108353607D01*
X120110883Y-108369671D01*
X120091670Y-108383921D01*
X120071153Y-108396218D01*
X120049529Y-108406446D01*
X120027007Y-108414504D01*
X120003803Y-108420316D01*
X119980142Y-108423826D01*
X119956250Y-108425000D01*
X119043750Y-108425000D01*
X119019858Y-108423826D01*
X118996197Y-108420316D01*
X118972993Y-108414504D01*
X118950471Y-108406446D01*
X118928847Y-108396218D01*
X118908330Y-108383921D01*
X118889117Y-108369671D01*
X118871393Y-108353607D01*
X118855329Y-108335883D01*
X118841079Y-108316670D01*
X118828782Y-108296153D01*
X118818554Y-108274529D01*
X118810496Y-108252007D01*
X118804684Y-108228803D01*
X118801174Y-108205142D01*
X118800000Y-108181250D01*
X118800000Y-107693750D01*
X118801174Y-107669858D01*
X118804684Y-107646197D01*
X118810496Y-107622993D01*
X118818554Y-107600471D01*
X118828782Y-107578847D01*
X118841079Y-107558330D01*
X118855329Y-107539117D01*
X118871393Y-107521393D01*
X118889117Y-107505329D01*
X118908330Y-107491079D01*
X118928847Y-107478782D01*
X118950471Y-107468554D01*
X118972993Y-107460496D01*
X118996197Y-107454684D01*
X119019858Y-107451174D01*
X119043750Y-107450000D01*
X119956250Y-107450000D01*
X119980142Y-107451174D01*
G37*
G04 #@! TD.AperFunction*
G04 #@! TA.AperFunction,SMDPad,CuDef*
G36*
X119980142Y-105576174D02*
G01*
X120003803Y-105579684D01*
X120027007Y-105585496D01*
X120049529Y-105593554D01*
X120071153Y-105603782D01*
X120091670Y-105616079D01*
X120110883Y-105630329D01*
X120128607Y-105646393D01*
X120144671Y-105664117D01*
X120158921Y-105683330D01*
X120171218Y-105703847D01*
X120181446Y-105725471D01*
X120189504Y-105747993D01*
X120195316Y-105771197D01*
X120198826Y-105794858D01*
X120200000Y-105818750D01*
X120200000Y-106306250D01*
X120198826Y-106330142D01*
X120195316Y-106353803D01*
X120189504Y-106377007D01*
X120181446Y-106399529D01*
X120171218Y-106421153D01*
X120158921Y-106441670D01*
X120144671Y-106460883D01*
X120128607Y-106478607D01*
X120110883Y-106494671D01*
X120091670Y-106508921D01*
X120071153Y-106521218D01*
X120049529Y-106531446D01*
X120027007Y-106539504D01*
X120003803Y-106545316D01*
X119980142Y-106548826D01*
X119956250Y-106550000D01*
X119043750Y-106550000D01*
X119019858Y-106548826D01*
X118996197Y-106545316D01*
X118972993Y-106539504D01*
X118950471Y-106531446D01*
X118928847Y-106521218D01*
X118908330Y-106508921D01*
X118889117Y-106494671D01*
X118871393Y-106478607D01*
X118855329Y-106460883D01*
X118841079Y-106441670D01*
X118828782Y-106421153D01*
X118818554Y-106399529D01*
X118810496Y-106377007D01*
X118804684Y-106353803D01*
X118801174Y-106330142D01*
X118800000Y-106306250D01*
X118800000Y-105818750D01*
X118801174Y-105794858D01*
X118804684Y-105771197D01*
X118810496Y-105747993D01*
X118818554Y-105725471D01*
X118828782Y-105703847D01*
X118841079Y-105683330D01*
X118855329Y-105664117D01*
X118871393Y-105646393D01*
X118889117Y-105630329D01*
X118908330Y-105616079D01*
X118928847Y-105603782D01*
X118950471Y-105593554D01*
X118972993Y-105585496D01*
X118996197Y-105579684D01*
X119019858Y-105576174D01*
X119043750Y-105575000D01*
X119956250Y-105575000D01*
X119980142Y-105576174D01*
G37*
G04 #@! TD.AperFunction*
G04 #@! TA.AperFunction,SMDPad,CuDef*
G36*
X119980142Y-102451174D02*
G01*
X120003803Y-102454684D01*
X120027007Y-102460496D01*
X120049529Y-102468554D01*
X120071153Y-102478782D01*
X120091670Y-102491079D01*
X120110883Y-102505329D01*
X120128607Y-102521393D01*
X120144671Y-102539117D01*
X120158921Y-102558330D01*
X120171218Y-102578847D01*
X120181446Y-102600471D01*
X120189504Y-102622993D01*
X120195316Y-102646197D01*
X120198826Y-102669858D01*
X120200000Y-102693750D01*
X120200000Y-103181250D01*
X120198826Y-103205142D01*
X120195316Y-103228803D01*
X120189504Y-103252007D01*
X120181446Y-103274529D01*
X120171218Y-103296153D01*
X120158921Y-103316670D01*
X120144671Y-103335883D01*
X120128607Y-103353607D01*
X120110883Y-103369671D01*
X120091670Y-103383921D01*
X120071153Y-103396218D01*
X120049529Y-103406446D01*
X120027007Y-103414504D01*
X120003803Y-103420316D01*
X119980142Y-103423826D01*
X119956250Y-103425000D01*
X119043750Y-103425000D01*
X119019858Y-103423826D01*
X118996197Y-103420316D01*
X118972993Y-103414504D01*
X118950471Y-103406446D01*
X118928847Y-103396218D01*
X118908330Y-103383921D01*
X118889117Y-103369671D01*
X118871393Y-103353607D01*
X118855329Y-103335883D01*
X118841079Y-103316670D01*
X118828782Y-103296153D01*
X118818554Y-103274529D01*
X118810496Y-103252007D01*
X118804684Y-103228803D01*
X118801174Y-103205142D01*
X118800000Y-103181250D01*
X118800000Y-102693750D01*
X118801174Y-102669858D01*
X118804684Y-102646197D01*
X118810496Y-102622993D01*
X118818554Y-102600471D01*
X118828782Y-102578847D01*
X118841079Y-102558330D01*
X118855329Y-102539117D01*
X118871393Y-102521393D01*
X118889117Y-102505329D01*
X118908330Y-102491079D01*
X118928847Y-102478782D01*
X118950471Y-102468554D01*
X118972993Y-102460496D01*
X118996197Y-102454684D01*
X119019858Y-102451174D01*
X119043750Y-102450000D01*
X119956250Y-102450000D01*
X119980142Y-102451174D01*
G37*
G04 #@! TD.AperFunction*
G04 #@! TA.AperFunction,SMDPad,CuDef*
G36*
X119980142Y-100576174D02*
G01*
X120003803Y-100579684D01*
X120027007Y-100585496D01*
X120049529Y-100593554D01*
X120071153Y-100603782D01*
X120091670Y-100616079D01*
X120110883Y-100630329D01*
X120128607Y-100646393D01*
X120144671Y-100664117D01*
X120158921Y-100683330D01*
X120171218Y-100703847D01*
X120181446Y-100725471D01*
X120189504Y-100747993D01*
X120195316Y-100771197D01*
X120198826Y-100794858D01*
X120200000Y-100818750D01*
X120200000Y-101306250D01*
X120198826Y-101330142D01*
X120195316Y-101353803D01*
X120189504Y-101377007D01*
X120181446Y-101399529D01*
X120171218Y-101421153D01*
X120158921Y-101441670D01*
X120144671Y-101460883D01*
X120128607Y-101478607D01*
X120110883Y-101494671D01*
X120091670Y-101508921D01*
X120071153Y-101521218D01*
X120049529Y-101531446D01*
X120027007Y-101539504D01*
X120003803Y-101545316D01*
X119980142Y-101548826D01*
X119956250Y-101550000D01*
X119043750Y-101550000D01*
X119019858Y-101548826D01*
X118996197Y-101545316D01*
X118972993Y-101539504D01*
X118950471Y-101531446D01*
X118928847Y-101521218D01*
X118908330Y-101508921D01*
X118889117Y-101494671D01*
X118871393Y-101478607D01*
X118855329Y-101460883D01*
X118841079Y-101441670D01*
X118828782Y-101421153D01*
X118818554Y-101399529D01*
X118810496Y-101377007D01*
X118804684Y-101353803D01*
X118801174Y-101330142D01*
X118800000Y-101306250D01*
X118800000Y-100818750D01*
X118801174Y-100794858D01*
X118804684Y-100771197D01*
X118810496Y-100747993D01*
X118818554Y-100725471D01*
X118828782Y-100703847D01*
X118841079Y-100683330D01*
X118855329Y-100664117D01*
X118871393Y-100646393D01*
X118889117Y-100630329D01*
X118908330Y-100616079D01*
X118928847Y-100603782D01*
X118950471Y-100593554D01*
X118972993Y-100585496D01*
X118996197Y-100579684D01*
X119019858Y-100576174D01*
X119043750Y-100575000D01*
X119956250Y-100575000D01*
X119980142Y-100576174D01*
G37*
G04 #@! TD.AperFunction*
G04 #@! TA.AperFunction,SMDPad,CuDef*
G36*
X119980142Y-97451174D02*
G01*
X120003803Y-97454684D01*
X120027007Y-97460496D01*
X120049529Y-97468554D01*
X120071153Y-97478782D01*
X120091670Y-97491079D01*
X120110883Y-97505329D01*
X120128607Y-97521393D01*
X120144671Y-97539117D01*
X120158921Y-97558330D01*
X120171218Y-97578847D01*
X120181446Y-97600471D01*
X120189504Y-97622993D01*
X120195316Y-97646197D01*
X120198826Y-97669858D01*
X120200000Y-97693750D01*
X120200000Y-98181250D01*
X120198826Y-98205142D01*
X120195316Y-98228803D01*
X120189504Y-98252007D01*
X120181446Y-98274529D01*
X120171218Y-98296153D01*
X120158921Y-98316670D01*
X120144671Y-98335883D01*
X120128607Y-98353607D01*
X120110883Y-98369671D01*
X120091670Y-98383921D01*
X120071153Y-98396218D01*
X120049529Y-98406446D01*
X120027007Y-98414504D01*
X120003803Y-98420316D01*
X119980142Y-98423826D01*
X119956250Y-98425000D01*
X119043750Y-98425000D01*
X119019858Y-98423826D01*
X118996197Y-98420316D01*
X118972993Y-98414504D01*
X118950471Y-98406446D01*
X118928847Y-98396218D01*
X118908330Y-98383921D01*
X118889117Y-98369671D01*
X118871393Y-98353607D01*
X118855329Y-98335883D01*
X118841079Y-98316670D01*
X118828782Y-98296153D01*
X118818554Y-98274529D01*
X118810496Y-98252007D01*
X118804684Y-98228803D01*
X118801174Y-98205142D01*
X118800000Y-98181250D01*
X118800000Y-97693750D01*
X118801174Y-97669858D01*
X118804684Y-97646197D01*
X118810496Y-97622993D01*
X118818554Y-97600471D01*
X118828782Y-97578847D01*
X118841079Y-97558330D01*
X118855329Y-97539117D01*
X118871393Y-97521393D01*
X118889117Y-97505329D01*
X118908330Y-97491079D01*
X118928847Y-97478782D01*
X118950471Y-97468554D01*
X118972993Y-97460496D01*
X118996197Y-97454684D01*
X119019858Y-97451174D01*
X119043750Y-97450000D01*
X119956250Y-97450000D01*
X119980142Y-97451174D01*
G37*
G04 #@! TD.AperFunction*
G04 #@! TA.AperFunction,SMDPad,CuDef*
G36*
X119980142Y-95576174D02*
G01*
X120003803Y-95579684D01*
X120027007Y-95585496D01*
X120049529Y-95593554D01*
X120071153Y-95603782D01*
X120091670Y-95616079D01*
X120110883Y-95630329D01*
X120128607Y-95646393D01*
X120144671Y-95664117D01*
X120158921Y-95683330D01*
X120171218Y-95703847D01*
X120181446Y-95725471D01*
X120189504Y-95747993D01*
X120195316Y-95771197D01*
X120198826Y-95794858D01*
X120200000Y-95818750D01*
X120200000Y-96306250D01*
X120198826Y-96330142D01*
X120195316Y-96353803D01*
X120189504Y-96377007D01*
X120181446Y-96399529D01*
X120171218Y-96421153D01*
X120158921Y-96441670D01*
X120144671Y-96460883D01*
X120128607Y-96478607D01*
X120110883Y-96494671D01*
X120091670Y-96508921D01*
X120071153Y-96521218D01*
X120049529Y-96531446D01*
X120027007Y-96539504D01*
X120003803Y-96545316D01*
X119980142Y-96548826D01*
X119956250Y-96550000D01*
X119043750Y-96550000D01*
X119019858Y-96548826D01*
X118996197Y-96545316D01*
X118972993Y-96539504D01*
X118950471Y-96531446D01*
X118928847Y-96521218D01*
X118908330Y-96508921D01*
X118889117Y-96494671D01*
X118871393Y-96478607D01*
X118855329Y-96460883D01*
X118841079Y-96441670D01*
X118828782Y-96421153D01*
X118818554Y-96399529D01*
X118810496Y-96377007D01*
X118804684Y-96353803D01*
X118801174Y-96330142D01*
X118800000Y-96306250D01*
X118800000Y-95818750D01*
X118801174Y-95794858D01*
X118804684Y-95771197D01*
X118810496Y-95747993D01*
X118818554Y-95725471D01*
X118828782Y-95703847D01*
X118841079Y-95683330D01*
X118855329Y-95664117D01*
X118871393Y-95646393D01*
X118889117Y-95630329D01*
X118908330Y-95616079D01*
X118928847Y-95603782D01*
X118950471Y-95593554D01*
X118972993Y-95585496D01*
X118996197Y-95579684D01*
X119019858Y-95576174D01*
X119043750Y-95575000D01*
X119956250Y-95575000D01*
X119980142Y-95576174D01*
G37*
G04 #@! TD.AperFunction*
D16*
X124000000Y-107000000D03*
X122000000Y-107950000D03*
X122000000Y-106050000D03*
X124000000Y-102000000D03*
X122000000Y-102950000D03*
X122000000Y-101050000D03*
X124000000Y-97000000D03*
X122000000Y-97950000D03*
X122000000Y-96050000D03*
G04 #@! TA.AperFunction,SMDPad,CuDef*
D13*
G36*
X126980142Y-88951174D02*
G01*
X127003803Y-88954684D01*
X127027007Y-88960496D01*
X127049529Y-88968554D01*
X127071153Y-88978782D01*
X127091670Y-88991079D01*
X127110883Y-89005329D01*
X127128607Y-89021393D01*
X127144671Y-89039117D01*
X127158921Y-89058330D01*
X127171218Y-89078847D01*
X127181446Y-89100471D01*
X127189504Y-89122993D01*
X127195316Y-89146197D01*
X127198826Y-89169858D01*
X127200000Y-89193750D01*
X127200000Y-89681250D01*
X127198826Y-89705142D01*
X127195316Y-89728803D01*
X127189504Y-89752007D01*
X127181446Y-89774529D01*
X127171218Y-89796153D01*
X127158921Y-89816670D01*
X127144671Y-89835883D01*
X127128607Y-89853607D01*
X127110883Y-89869671D01*
X127091670Y-89883921D01*
X127071153Y-89896218D01*
X127049529Y-89906446D01*
X127027007Y-89914504D01*
X127003803Y-89920316D01*
X126980142Y-89923826D01*
X126956250Y-89925000D01*
X126043750Y-89925000D01*
X126019858Y-89923826D01*
X125996197Y-89920316D01*
X125972993Y-89914504D01*
X125950471Y-89906446D01*
X125928847Y-89896218D01*
X125908330Y-89883921D01*
X125889117Y-89869671D01*
X125871393Y-89853607D01*
X125855329Y-89835883D01*
X125841079Y-89816670D01*
X125828782Y-89796153D01*
X125818554Y-89774529D01*
X125810496Y-89752007D01*
X125804684Y-89728803D01*
X125801174Y-89705142D01*
X125800000Y-89681250D01*
X125800000Y-89193750D01*
X125801174Y-89169858D01*
X125804684Y-89146197D01*
X125810496Y-89122993D01*
X125818554Y-89100471D01*
X125828782Y-89078847D01*
X125841079Y-89058330D01*
X125855329Y-89039117D01*
X125871393Y-89021393D01*
X125889117Y-89005329D01*
X125908330Y-88991079D01*
X125928847Y-88978782D01*
X125950471Y-88968554D01*
X125972993Y-88960496D01*
X125996197Y-88954684D01*
X126019858Y-88951174D01*
X126043750Y-88950000D01*
X126956250Y-88950000D01*
X126980142Y-88951174D01*
G37*
G04 #@! TD.AperFunction*
G04 #@! TA.AperFunction,SMDPad,CuDef*
G36*
X126980142Y-87076174D02*
G01*
X127003803Y-87079684D01*
X127027007Y-87085496D01*
X127049529Y-87093554D01*
X127071153Y-87103782D01*
X127091670Y-87116079D01*
X127110883Y-87130329D01*
X127128607Y-87146393D01*
X127144671Y-87164117D01*
X127158921Y-87183330D01*
X127171218Y-87203847D01*
X127181446Y-87225471D01*
X127189504Y-87247993D01*
X127195316Y-87271197D01*
X127198826Y-87294858D01*
X127200000Y-87318750D01*
X127200000Y-87806250D01*
X127198826Y-87830142D01*
X127195316Y-87853803D01*
X127189504Y-87877007D01*
X127181446Y-87899529D01*
X127171218Y-87921153D01*
X127158921Y-87941670D01*
X127144671Y-87960883D01*
X127128607Y-87978607D01*
X127110883Y-87994671D01*
X127091670Y-88008921D01*
X127071153Y-88021218D01*
X127049529Y-88031446D01*
X127027007Y-88039504D01*
X127003803Y-88045316D01*
X126980142Y-88048826D01*
X126956250Y-88050000D01*
X126043750Y-88050000D01*
X126019858Y-88048826D01*
X125996197Y-88045316D01*
X125972993Y-88039504D01*
X125950471Y-88031446D01*
X125928847Y-88021218D01*
X125908330Y-88008921D01*
X125889117Y-87994671D01*
X125871393Y-87978607D01*
X125855329Y-87960883D01*
X125841079Y-87941670D01*
X125828782Y-87921153D01*
X125818554Y-87899529D01*
X125810496Y-87877007D01*
X125804684Y-87853803D01*
X125801174Y-87830142D01*
X125800000Y-87806250D01*
X125800000Y-87318750D01*
X125801174Y-87294858D01*
X125804684Y-87271197D01*
X125810496Y-87247993D01*
X125818554Y-87225471D01*
X125828782Y-87203847D01*
X125841079Y-87183330D01*
X125855329Y-87164117D01*
X125871393Y-87146393D01*
X125889117Y-87130329D01*
X125908330Y-87116079D01*
X125928847Y-87103782D01*
X125950471Y-87093554D01*
X125972993Y-87085496D01*
X125996197Y-87079684D01*
X126019858Y-87076174D01*
X126043750Y-87075000D01*
X126956250Y-87075000D01*
X126980142Y-87076174D01*
G37*
G04 #@! TD.AperFunction*
D17*
X130000000Y-76500000D03*
D18*
X117000000Y-78000000D03*
D19*
X126500000Y-106000000D03*
X126500000Y-101000000D03*
X126500000Y-96000000D03*
D20*
X126500000Y-87500000D03*
D19*
X129000000Y-103000000D03*
X133000000Y-101500000D03*
D17*
X127500000Y-76500000D03*
X122500000Y-76500000D03*
X125000000Y-76500000D03*
X120000000Y-76500000D03*
D20*
X120000000Y-80000000D03*
D19*
X119500000Y-106000000D03*
X119500000Y-101000000D03*
X119500000Y-96000000D03*
D21*
X130000000Y-76500000D02*
X130000000Y-80000000D01*
D22*
X116850000Y-87500000D02*
X126500000Y-87500000D01*
D23*
X124937500Y-102937500D02*
X126500000Y-102937500D01*
X124000000Y-102000000D02*
X124937500Y-102937500D01*
D21*
X127500000Y-76500000D02*
X127500000Y-80000000D01*
D23*
X128937500Y-102937500D02*
X129000000Y-103000000D01*
X126500000Y-102937500D02*
X128937500Y-102937500D01*
X133000000Y-86975000D02*
X133000000Y-101500000D01*
X127500000Y-80000000D02*
X127500000Y-81475000D01*
X127500000Y-81475000D02*
X133000000Y-86975000D01*
D21*
X122500000Y-76500000D02*
X122500000Y-80000000D01*
D23*
X124937500Y-97937500D02*
X126500000Y-97937500D01*
X124000000Y-97000000D02*
X124937500Y-97937500D01*
X128562500Y-97937500D02*
X126500000Y-97937500D01*
X122500000Y-81475000D02*
X127500000Y-86475000D01*
X122500000Y-80000000D02*
X122500000Y-81475000D01*
X127500000Y-86475000D02*
X127500000Y-86500000D01*
X127500000Y-86500000D02*
X129000000Y-88000000D01*
X129000000Y-88000000D02*
X129000000Y-97500000D01*
X129000000Y-97500000D02*
X128562500Y-97937500D01*
X124937500Y-107937500D02*
X126500000Y-107937500D01*
X124000000Y-107000000D02*
X124937500Y-107937500D01*
D21*
X125000000Y-76500000D02*
X125000000Y-80000000D01*
D23*
X130062500Y-107937500D02*
X126500000Y-107937500D01*
X131000000Y-107000000D02*
X130062500Y-107937500D01*
X131000000Y-87475000D02*
X131000000Y-107000000D01*
X125000000Y-80000000D02*
X125000000Y-81475000D01*
X125000000Y-81475000D02*
X131000000Y-87475000D01*
D21*
X120000000Y-76500000D02*
X120000000Y-80000000D01*
D24*
X120700000Y-85200000D02*
X123150000Y-85200000D01*
X120000000Y-80000000D02*
X120000000Y-84500000D01*
X120000000Y-84500000D02*
X120700000Y-85200000D01*
D23*
X117562500Y-97937500D02*
X119500000Y-97937500D01*
X113500000Y-100120000D02*
X115380000Y-100120000D01*
X115380000Y-100120000D02*
X117562500Y-97937500D01*
X119512500Y-97950000D02*
X119500000Y-97937500D01*
X122000000Y-97950000D02*
X119512500Y-97950000D01*
X119550000Y-101050000D02*
X119500000Y-101000000D01*
X122000000Y-101050000D02*
X119550000Y-101050000D01*
X119512500Y-96050000D02*
X119500000Y-96062500D01*
X122000000Y-96050000D02*
X119512500Y-96050000D01*
X119550000Y-106050000D02*
X119500000Y-106000000D01*
X122000000Y-106050000D02*
X119550000Y-106050000D01*
X113777500Y-102937500D02*
X113500000Y-102660000D01*
X119500000Y-102937500D02*
X113777500Y-102937500D01*
X119512500Y-102950000D02*
X119500000Y-102937500D01*
X122000000Y-102950000D02*
X119512500Y-102950000D01*
X117937500Y-107937500D02*
X119500000Y-107937500D01*
X113500000Y-105200000D02*
X115200000Y-105200000D01*
X115200000Y-105200000D02*
X117937500Y-107937500D01*
X119512500Y-107950000D02*
X119500000Y-107937500D01*
X122000000Y-107950000D02*
X119512500Y-107950000D01*
D25*
G36*
X133259659Y-75688625D02*
G01*
X133509429Y-75764035D01*
X133739792Y-75886522D01*
X133941980Y-76051422D01*
X134108286Y-76252450D01*
X134232378Y-76481954D01*
X134309531Y-76731195D01*
X134340000Y-77021089D01*
X134340001Y-82032419D01*
X134342818Y-82061018D01*
X134342753Y-82070288D01*
X134343652Y-82079460D01*
X134374252Y-82370605D01*
X134386283Y-82429217D01*
X134397489Y-82487963D01*
X134400153Y-82496784D01*
X134486721Y-82776440D01*
X134509899Y-82831578D01*
X134532311Y-82887050D01*
X134536638Y-82895186D01*
X134675877Y-83152702D01*
X134709304Y-83202259D01*
X134742080Y-83252347D01*
X134747905Y-83259488D01*
X134934510Y-83485056D01*
X134976965Y-83527215D01*
X135018809Y-83569945D01*
X135025909Y-83575819D01*
X135252773Y-83760845D01*
X135302566Y-83793927D01*
X135351955Y-83827745D01*
X135360061Y-83832127D01*
X135618542Y-83969564D01*
X135673836Y-83992355D01*
X135728829Y-84015925D01*
X135737632Y-84018650D01*
X136017887Y-84103264D01*
X136076564Y-84114882D01*
X136135079Y-84127320D01*
X136144242Y-84128283D01*
X136144244Y-84128283D01*
X136435596Y-84156850D01*
X136662540Y-84179102D01*
X136818894Y-84226308D01*
X136963096Y-84302982D01*
X137089663Y-84406207D01*
X137193769Y-84532051D01*
X137271447Y-84675711D01*
X137319742Y-84831729D01*
X137340001Y-85024482D01*
X137340000Y-86967581D01*
X137340000Y-91289789D01*
X137111808Y-91167818D01*
X136841309Y-91085764D01*
X136630492Y-91065000D01*
X136089508Y-91065000D01*
X135878691Y-91085764D01*
X135608192Y-91167818D01*
X135358899Y-91301068D01*
X135140392Y-91480392D01*
X134961068Y-91698899D01*
X134827818Y-91948192D01*
X134745764Y-92218691D01*
X134718057Y-92500000D01*
X134745764Y-92781309D01*
X134827818Y-93051808D01*
X134961068Y-93301101D01*
X135140392Y-93519608D01*
X135358899Y-93698932D01*
X135491858Y-93770000D01*
X135358899Y-93841068D01*
X135140392Y-94020392D01*
X134961068Y-94238899D01*
X134827818Y-94488192D01*
X134745764Y-94758691D01*
X134718057Y-95040000D01*
X134745764Y-95321309D01*
X134827818Y-95591808D01*
X134961068Y-95841101D01*
X135140392Y-96059608D01*
X135358899Y-96238932D01*
X135491858Y-96310000D01*
X135358899Y-96381068D01*
X135140392Y-96560392D01*
X134961068Y-96778899D01*
X134827818Y-97028192D01*
X134745764Y-97298691D01*
X134718057Y-97580000D01*
X134745764Y-97861309D01*
X134827818Y-98131808D01*
X134961068Y-98381101D01*
X135140392Y-98599608D01*
X135358899Y-98778932D01*
X135491858Y-98850000D01*
X135358899Y-98921068D01*
X135140392Y-99100392D01*
X134961068Y-99318899D01*
X134827818Y-99568192D01*
X134745764Y-99838691D01*
X134718057Y-100120000D01*
X134745764Y-100401309D01*
X134827818Y-100671808D01*
X134961068Y-100921101D01*
X135140392Y-101139608D01*
X135358899Y-101318932D01*
X135491858Y-101390000D01*
X135358899Y-101461068D01*
X135140392Y-101640392D01*
X134961068Y-101858899D01*
X134827818Y-102108192D01*
X134745764Y-102378691D01*
X134718057Y-102660000D01*
X134745764Y-102941309D01*
X134827818Y-103211808D01*
X134961068Y-103461101D01*
X135140392Y-103679608D01*
X135358899Y-103858932D01*
X135491858Y-103930000D01*
X135358899Y-104001068D01*
X135140392Y-104180392D01*
X134961068Y-104398899D01*
X134827818Y-104648192D01*
X134745764Y-104918691D01*
X134718057Y-105200000D01*
X134745764Y-105481309D01*
X134827818Y-105751808D01*
X134961068Y-106001101D01*
X135140392Y-106219608D01*
X135358899Y-106398932D01*
X135488345Y-106468122D01*
X135470773Y-106475570D01*
X135237338Y-106634327D01*
X135039361Y-106835575D01*
X134884449Y-107071579D01*
X134778556Y-107333270D01*
X134768096Y-107390961D01*
X134890085Y-107613000D01*
X136233000Y-107613000D01*
X136233000Y-107593000D01*
X136487000Y-107593000D01*
X136487000Y-107613000D01*
X136507000Y-107613000D01*
X136507000Y-107867000D01*
X136487000Y-107867000D01*
X136487000Y-107887000D01*
X136233000Y-107887000D01*
X136233000Y-107867000D01*
X134890085Y-107867000D01*
X134768096Y-108089039D01*
X134778556Y-108146730D01*
X134884449Y-108408421D01*
X135039361Y-108644425D01*
X135237338Y-108845673D01*
X135470773Y-109004430D01*
X135488345Y-109011878D01*
X135358899Y-109081068D01*
X135140392Y-109260392D01*
X134961068Y-109478899D01*
X134827818Y-109728192D01*
X134745764Y-109998691D01*
X134718057Y-110280000D01*
X134745764Y-110561309D01*
X134827818Y-110831808D01*
X134961068Y-111081101D01*
X135140392Y-111299608D01*
X135358899Y-111478932D01*
X135608192Y-111612182D01*
X135878691Y-111694236D01*
X136089508Y-111715000D01*
X136630492Y-111715000D01*
X136841309Y-111694236D01*
X137111808Y-111612182D01*
X137340001Y-111490210D01*
X137340001Y-115967581D01*
X137340000Y-118340000D01*
X115032279Y-118340000D01*
X114546106Y-118292330D01*
X114109503Y-118160512D01*
X113706814Y-117946399D01*
X113353387Y-117658150D01*
X113062673Y-117306739D01*
X112845760Y-116905564D01*
X112710894Y-116469886D01*
X112660000Y-115985664D01*
X112660000Y-111565042D01*
X112748192Y-111612182D01*
X113018691Y-111694236D01*
X113229508Y-111715000D01*
X113770492Y-111715000D01*
X113981309Y-111694236D01*
X114251808Y-111612182D01*
X114501101Y-111478932D01*
X114719608Y-111299608D01*
X114898932Y-111081101D01*
X115032182Y-110831808D01*
X115114236Y-110561309D01*
X115141943Y-110280000D01*
X115114236Y-109998691D01*
X115032182Y-109728192D01*
X114898932Y-109478899D01*
X114719608Y-109260392D01*
X114501101Y-109081068D01*
X114368142Y-109010000D01*
X114501101Y-108938932D01*
X114719608Y-108759608D01*
X114898932Y-108541101D01*
X115032182Y-108291808D01*
X115114236Y-108021309D01*
X115141943Y-107740000D01*
X115114236Y-107458691D01*
X115032182Y-107188192D01*
X114898932Y-106938899D01*
X114719608Y-106720392D01*
X114501101Y-106541068D01*
X114368142Y-106470000D01*
X114501101Y-106398932D01*
X114719608Y-106219608D01*
X114830078Y-106085000D01*
X114833422Y-106085000D01*
X117280970Y-108532549D01*
X117308683Y-108566317D01*
X117342451Y-108594030D01*
X117342453Y-108594032D01*
X117443441Y-108676911D01*
X117597186Y-108759089D01*
X117638393Y-108771589D01*
X117764010Y-108809695D01*
X117894023Y-108822500D01*
X117894031Y-108822500D01*
X117937500Y-108826781D01*
X117980969Y-108822500D01*
X118441785Y-108822500D01*
X118553836Y-108914458D01*
X118706291Y-108995947D01*
X118871715Y-109046128D01*
X119043750Y-109063072D01*
X119956250Y-109063072D01*
X120128285Y-109046128D01*
X120293709Y-108995947D01*
X120446164Y-108914458D01*
X120542984Y-108835000D01*
X121140019Y-108835000D01*
X121195506Y-108880537D01*
X121305820Y-108939502D01*
X121425518Y-108975812D01*
X121550000Y-108988072D01*
X122450000Y-108988072D01*
X122574482Y-108975812D01*
X122694180Y-108939502D01*
X122804494Y-108880537D01*
X122901185Y-108801185D01*
X122980537Y-108704494D01*
X123039502Y-108594180D01*
X123075812Y-108474482D01*
X123088072Y-108350000D01*
X123088072Y-107838095D01*
X123098815Y-107851185D01*
X123195506Y-107930537D01*
X123305820Y-107989502D01*
X123425518Y-108025812D01*
X123550000Y-108038072D01*
X123786494Y-108038072D01*
X124280970Y-108532549D01*
X124308683Y-108566317D01*
X124342451Y-108594030D01*
X124342453Y-108594032D01*
X124403857Y-108644425D01*
X124443441Y-108676911D01*
X124597187Y-108759089D01*
X124764010Y-108809695D01*
X124894023Y-108822500D01*
X124894033Y-108822500D01*
X124937499Y-108826781D01*
X124980965Y-108822500D01*
X125441785Y-108822500D01*
X125553836Y-108914458D01*
X125706291Y-108995947D01*
X125871715Y-109046128D01*
X126043750Y-109063072D01*
X126956250Y-109063072D01*
X127128285Y-109046128D01*
X127293709Y-108995947D01*
X127446164Y-108914458D01*
X127558215Y-108822500D01*
X130019031Y-108822500D01*
X130062500Y-108826781D01*
X130105969Y-108822500D01*
X130105977Y-108822500D01*
X130235990Y-108809695D01*
X130402813Y-108759089D01*
X130556559Y-108676911D01*
X130691317Y-108566317D01*
X130719034Y-108532544D01*
X131595049Y-107656530D01*
X131628817Y-107628817D01*
X131656533Y-107595046D01*
X131739410Y-107494060D01*
X131758315Y-107458691D01*
X131821589Y-107340313D01*
X131872195Y-107173490D01*
X131885000Y-107043477D01*
X131885000Y-107043467D01*
X131889281Y-107000001D01*
X131885000Y-106956535D01*
X131885000Y-87518465D01*
X131889281Y-87474999D01*
X131885000Y-87431533D01*
X131885000Y-87431523D01*
X131872195Y-87301510D01*
X131821589Y-87134687D01*
X131739411Y-86980941D01*
X131670983Y-86897561D01*
X132115000Y-87341579D01*
X132115001Y-101193305D01*
X132100932Y-101227271D01*
X132065000Y-101407911D01*
X132065000Y-101592089D01*
X132100932Y-101772729D01*
X132171414Y-101942889D01*
X132273738Y-102096028D01*
X132403972Y-102226262D01*
X132557111Y-102328586D01*
X132727271Y-102399068D01*
X132907911Y-102435000D01*
X133092089Y-102435000D01*
X133272729Y-102399068D01*
X133442889Y-102328586D01*
X133596028Y-102226262D01*
X133726262Y-102096028D01*
X133828586Y-101942889D01*
X133899068Y-101772729D01*
X133935000Y-101592089D01*
X133935000Y-101407911D01*
X133899068Y-101227271D01*
X133885000Y-101193308D01*
X133885000Y-87018469D01*
X133889281Y-86975000D01*
X133885000Y-86931531D01*
X133885000Y-86931523D01*
X133872195Y-86801510D01*
X133852198Y-86735589D01*
X133821589Y-86634686D01*
X133739411Y-86480941D01*
X133656532Y-86379953D01*
X133656530Y-86379951D01*
X133628817Y-86346183D01*
X133595051Y-86318472D01*
X128501076Y-81224498D01*
X128555134Y-81180134D01*
X128740706Y-80954014D01*
X128754462Y-80928278D01*
X128910951Y-81134429D01*
X129128807Y-81327496D01*
X129380142Y-81474352D01*
X129643110Y-81566476D01*
X129873000Y-81445155D01*
X129873000Y-80127000D01*
X130127000Y-80127000D01*
X130127000Y-81445155D01*
X130356890Y-81566476D01*
X130619858Y-81474352D01*
X130871193Y-81327496D01*
X131089049Y-81134429D01*
X131265053Y-80902570D01*
X131392442Y-80640830D01*
X131466320Y-80359267D01*
X131326165Y-80127000D01*
X130127000Y-80127000D01*
X129873000Y-80127000D01*
X129853000Y-80127000D01*
X129853000Y-79873000D01*
X129873000Y-79873000D01*
X129873000Y-78554845D01*
X130127000Y-78554845D01*
X130127000Y-79873000D01*
X131326165Y-79873000D01*
X131466320Y-79640733D01*
X131392442Y-79359170D01*
X131265053Y-79097430D01*
X131089049Y-78865571D01*
X130871193Y-78672504D01*
X130619858Y-78525648D01*
X130356890Y-78433524D01*
X130127000Y-78554845D01*
X129873000Y-78554845D01*
X129643110Y-78433524D01*
X129380142Y-78525648D01*
X129128807Y-78672504D01*
X128985000Y-78799948D01*
X128985000Y-76353740D01*
X128970698Y-76281840D01*
X128963513Y-76208889D01*
X128942234Y-76138740D01*
X128927932Y-76066842D01*
X128899878Y-75999114D01*
X128878599Y-75928966D01*
X128844045Y-75864320D01*
X128815990Y-75796589D01*
X128775260Y-75735633D01*
X128740706Y-75670986D01*
X128731690Y-75660000D01*
X132967721Y-75660000D01*
X133259659Y-75688625D01*
G37*
X133259659Y-75688625D02*
X133509429Y-75764035D01*
X133739792Y-75886522D01*
X133941980Y-76051422D01*
X134108286Y-76252450D01*
X134232378Y-76481954D01*
X134309531Y-76731195D01*
X134340000Y-77021089D01*
X134340001Y-82032419D01*
X134342818Y-82061018D01*
X134342753Y-82070288D01*
X134343652Y-82079460D01*
X134374252Y-82370605D01*
X134386283Y-82429217D01*
X134397489Y-82487963D01*
X134400153Y-82496784D01*
X134486721Y-82776440D01*
X134509899Y-82831578D01*
X134532311Y-82887050D01*
X134536638Y-82895186D01*
X134675877Y-83152702D01*
X134709304Y-83202259D01*
X134742080Y-83252347D01*
X134747905Y-83259488D01*
X134934510Y-83485056D01*
X134976965Y-83527215D01*
X135018809Y-83569945D01*
X135025909Y-83575819D01*
X135252773Y-83760845D01*
X135302566Y-83793927D01*
X135351955Y-83827745D01*
X135360061Y-83832127D01*
X135618542Y-83969564D01*
X135673836Y-83992355D01*
X135728829Y-84015925D01*
X135737632Y-84018650D01*
X136017887Y-84103264D01*
X136076564Y-84114882D01*
X136135079Y-84127320D01*
X136144242Y-84128283D01*
X136144244Y-84128283D01*
X136435596Y-84156850D01*
X136662540Y-84179102D01*
X136818894Y-84226308D01*
X136963096Y-84302982D01*
X137089663Y-84406207D01*
X137193769Y-84532051D01*
X137271447Y-84675711D01*
X137319742Y-84831729D01*
X137340001Y-85024482D01*
X137340000Y-86967581D01*
X137340000Y-91289789D01*
X137111808Y-91167818D01*
X136841309Y-91085764D01*
X136630492Y-91065000D01*
X136089508Y-91065000D01*
X135878691Y-91085764D01*
X135608192Y-91167818D01*
X135358899Y-91301068D01*
X135140392Y-91480392D01*
X134961068Y-91698899D01*
X134827818Y-91948192D01*
X134745764Y-92218691D01*
X134718057Y-92500000D01*
X134745764Y-92781309D01*
X134827818Y-93051808D01*
X134961068Y-93301101D01*
X135140392Y-93519608D01*
X135358899Y-93698932D01*
X135491858Y-93770000D01*
X135358899Y-93841068D01*
X135140392Y-94020392D01*
X134961068Y-94238899D01*
X134827818Y-94488192D01*
X134745764Y-94758691D01*
X134718057Y-95040000D01*
X134745764Y-95321309D01*
X134827818Y-95591808D01*
X134961068Y-95841101D01*
X135140392Y-96059608D01*
X135358899Y-96238932D01*
X135491858Y-96310000D01*
X135358899Y-96381068D01*
X135140392Y-96560392D01*
X134961068Y-96778899D01*
X134827818Y-97028192D01*
X134745764Y-97298691D01*
X134718057Y-97580000D01*
X134745764Y-97861309D01*
X134827818Y-98131808D01*
X134961068Y-98381101D01*
X135140392Y-98599608D01*
X135358899Y-98778932D01*
X135491858Y-98850000D01*
X135358899Y-98921068D01*
X135140392Y-99100392D01*
X134961068Y-99318899D01*
X134827818Y-99568192D01*
X134745764Y-99838691D01*
X134718057Y-100120000D01*
X134745764Y-100401309D01*
X134827818Y-100671808D01*
X134961068Y-100921101D01*
X135140392Y-101139608D01*
X135358899Y-101318932D01*
X135491858Y-101390000D01*
X135358899Y-101461068D01*
X135140392Y-101640392D01*
X134961068Y-101858899D01*
X134827818Y-102108192D01*
X134745764Y-102378691D01*
X134718057Y-102660000D01*
X134745764Y-102941309D01*
X134827818Y-103211808D01*
X134961068Y-103461101D01*
X135140392Y-103679608D01*
X135358899Y-103858932D01*
X135491858Y-103930000D01*
X135358899Y-104001068D01*
X135140392Y-104180392D01*
X134961068Y-104398899D01*
X134827818Y-104648192D01*
X134745764Y-104918691D01*
X134718057Y-105200000D01*
X134745764Y-105481309D01*
X134827818Y-105751808D01*
X134961068Y-106001101D01*
X135140392Y-106219608D01*
X135358899Y-106398932D01*
X135488345Y-106468122D01*
X135470773Y-106475570D01*
X135237338Y-106634327D01*
X135039361Y-106835575D01*
X134884449Y-107071579D01*
X134778556Y-107333270D01*
X134768096Y-107390961D01*
X134890085Y-107613000D01*
X136233000Y-107613000D01*
X136233000Y-107593000D01*
X136487000Y-107593000D01*
X136487000Y-107613000D01*
X136507000Y-107613000D01*
X136507000Y-107867000D01*
X136487000Y-107867000D01*
X136487000Y-107887000D01*
X136233000Y-107887000D01*
X136233000Y-107867000D01*
X134890085Y-107867000D01*
X134768096Y-108089039D01*
X134778556Y-108146730D01*
X134884449Y-108408421D01*
X135039361Y-108644425D01*
X135237338Y-108845673D01*
X135470773Y-109004430D01*
X135488345Y-109011878D01*
X135358899Y-109081068D01*
X135140392Y-109260392D01*
X134961068Y-109478899D01*
X134827818Y-109728192D01*
X134745764Y-109998691D01*
X134718057Y-110280000D01*
X134745764Y-110561309D01*
X134827818Y-110831808D01*
X134961068Y-111081101D01*
X135140392Y-111299608D01*
X135358899Y-111478932D01*
X135608192Y-111612182D01*
X135878691Y-111694236D01*
X136089508Y-111715000D01*
X136630492Y-111715000D01*
X136841309Y-111694236D01*
X137111808Y-111612182D01*
X137340001Y-111490210D01*
X137340001Y-115967581D01*
X137340000Y-118340000D01*
X115032279Y-118340000D01*
X114546106Y-118292330D01*
X114109503Y-118160512D01*
X113706814Y-117946399D01*
X113353387Y-117658150D01*
X113062673Y-117306739D01*
X112845760Y-116905564D01*
X112710894Y-116469886D01*
X112660000Y-115985664D01*
X112660000Y-111565042D01*
X112748192Y-111612182D01*
X113018691Y-111694236D01*
X113229508Y-111715000D01*
X113770492Y-111715000D01*
X113981309Y-111694236D01*
X114251808Y-111612182D01*
X114501101Y-111478932D01*
X114719608Y-111299608D01*
X114898932Y-111081101D01*
X115032182Y-110831808D01*
X115114236Y-110561309D01*
X115141943Y-110280000D01*
X115114236Y-109998691D01*
X115032182Y-109728192D01*
X114898932Y-109478899D01*
X114719608Y-109260392D01*
X114501101Y-109081068D01*
X114368142Y-109010000D01*
X114501101Y-108938932D01*
X114719608Y-108759608D01*
X114898932Y-108541101D01*
X115032182Y-108291808D01*
X115114236Y-108021309D01*
X115141943Y-107740000D01*
X115114236Y-107458691D01*
X115032182Y-107188192D01*
X114898932Y-106938899D01*
X114719608Y-106720392D01*
X114501101Y-106541068D01*
X114368142Y-106470000D01*
X114501101Y-106398932D01*
X114719608Y-106219608D01*
X114830078Y-106085000D01*
X114833422Y-106085000D01*
X117280970Y-108532549D01*
X117308683Y-108566317D01*
X117342451Y-108594030D01*
X117342453Y-108594032D01*
X117443441Y-108676911D01*
X117597186Y-108759089D01*
X117638393Y-108771589D01*
X117764010Y-108809695D01*
X117894023Y-108822500D01*
X117894031Y-108822500D01*
X117937500Y-108826781D01*
X117980969Y-108822500D01*
X118441785Y-108822500D01*
X118553836Y-108914458D01*
X118706291Y-108995947D01*
X118871715Y-109046128D01*
X119043750Y-109063072D01*
X119956250Y-109063072D01*
X120128285Y-109046128D01*
X120293709Y-108995947D01*
X120446164Y-108914458D01*
X120542984Y-108835000D01*
X121140019Y-108835000D01*
X121195506Y-108880537D01*
X121305820Y-108939502D01*
X121425518Y-108975812D01*
X121550000Y-108988072D01*
X122450000Y-108988072D01*
X122574482Y-108975812D01*
X122694180Y-108939502D01*
X122804494Y-108880537D01*
X122901185Y-108801185D01*
X122980537Y-108704494D01*
X123039502Y-108594180D01*
X123075812Y-108474482D01*
X123088072Y-108350000D01*
X123088072Y-107838095D01*
X123098815Y-107851185D01*
X123195506Y-107930537D01*
X123305820Y-107989502D01*
X123425518Y-108025812D01*
X123550000Y-108038072D01*
X123786494Y-108038072D01*
X124280970Y-108532549D01*
X124308683Y-108566317D01*
X124342451Y-108594030D01*
X124342453Y-108594032D01*
X124403857Y-108644425D01*
X124443441Y-108676911D01*
X124597187Y-108759089D01*
X124764010Y-108809695D01*
X124894023Y-108822500D01*
X124894033Y-108822500D01*
X124937499Y-108826781D01*
X124980965Y-108822500D01*
X125441785Y-108822500D01*
X125553836Y-108914458D01*
X125706291Y-108995947D01*
X125871715Y-109046128D01*
X126043750Y-109063072D01*
X126956250Y-109063072D01*
X127128285Y-109046128D01*
X127293709Y-108995947D01*
X127446164Y-108914458D01*
X127558215Y-108822500D01*
X130019031Y-108822500D01*
X130062500Y-108826781D01*
X130105969Y-108822500D01*
X130105977Y-108822500D01*
X130235990Y-108809695D01*
X130402813Y-108759089D01*
X130556559Y-108676911D01*
X130691317Y-108566317D01*
X130719034Y-108532544D01*
X131595049Y-107656530D01*
X131628817Y-107628817D01*
X131656533Y-107595046D01*
X131739410Y-107494060D01*
X131758315Y-107458691D01*
X131821589Y-107340313D01*
X131872195Y-107173490D01*
X131885000Y-107043477D01*
X131885000Y-107043467D01*
X131889281Y-107000001D01*
X131885000Y-106956535D01*
X131885000Y-87518465D01*
X131889281Y-87474999D01*
X131885000Y-87431533D01*
X131885000Y-87431523D01*
X131872195Y-87301510D01*
X131821589Y-87134687D01*
X131739411Y-86980941D01*
X131670983Y-86897561D01*
X132115000Y-87341579D01*
X132115001Y-101193305D01*
X132100932Y-101227271D01*
X132065000Y-101407911D01*
X132065000Y-101592089D01*
X132100932Y-101772729D01*
X132171414Y-101942889D01*
X132273738Y-102096028D01*
X132403972Y-102226262D01*
X132557111Y-102328586D01*
X132727271Y-102399068D01*
X132907911Y-102435000D01*
X133092089Y-102435000D01*
X133272729Y-102399068D01*
X133442889Y-102328586D01*
X133596028Y-102226262D01*
X133726262Y-102096028D01*
X133828586Y-101942889D01*
X133899068Y-101772729D01*
X133935000Y-101592089D01*
X133935000Y-101407911D01*
X133899068Y-101227271D01*
X133885000Y-101193308D01*
X133885000Y-87018469D01*
X133889281Y-86975000D01*
X133885000Y-86931531D01*
X133885000Y-86931523D01*
X133872195Y-86801510D01*
X133852198Y-86735589D01*
X133821589Y-86634686D01*
X133739411Y-86480941D01*
X133656532Y-86379953D01*
X133656530Y-86379951D01*
X133628817Y-86346183D01*
X133595051Y-86318472D01*
X128501076Y-81224498D01*
X128555134Y-81180134D01*
X128740706Y-80954014D01*
X128754462Y-80928278D01*
X128910951Y-81134429D01*
X129128807Y-81327496D01*
X129380142Y-81474352D01*
X129643110Y-81566476D01*
X129873000Y-81445155D01*
X129873000Y-80127000D01*
X130127000Y-80127000D01*
X130127000Y-81445155D01*
X130356890Y-81566476D01*
X130619858Y-81474352D01*
X130871193Y-81327496D01*
X131089049Y-81134429D01*
X131265053Y-80902570D01*
X131392442Y-80640830D01*
X131466320Y-80359267D01*
X131326165Y-80127000D01*
X130127000Y-80127000D01*
X129873000Y-80127000D01*
X129853000Y-80127000D01*
X129853000Y-79873000D01*
X129873000Y-79873000D01*
X129873000Y-78554845D01*
X130127000Y-78554845D01*
X130127000Y-79873000D01*
X131326165Y-79873000D01*
X131466320Y-79640733D01*
X131392442Y-79359170D01*
X131265053Y-79097430D01*
X131089049Y-78865571D01*
X130871193Y-78672504D01*
X130619858Y-78525648D01*
X130356890Y-78433524D01*
X130127000Y-78554845D01*
X129873000Y-78554845D01*
X129643110Y-78433524D01*
X129380142Y-78525648D01*
X129128807Y-78672504D01*
X128985000Y-78799948D01*
X128985000Y-76353740D01*
X128970698Y-76281840D01*
X128963513Y-76208889D01*
X128942234Y-76138740D01*
X128927932Y-76066842D01*
X128899878Y-75999114D01*
X128878599Y-75928966D01*
X128844045Y-75864320D01*
X128815990Y-75796589D01*
X128775260Y-75735633D01*
X128740706Y-75670986D01*
X128731690Y-75660000D01*
X132967721Y-75660000D01*
X133259659Y-75688625D01*
G36*
X118759294Y-75670987D02*
G01*
X118724742Y-75735629D01*
X118684010Y-75796589D01*
X118655953Y-75864324D01*
X118621401Y-75928967D01*
X118600123Y-75999111D01*
X118572068Y-76066842D01*
X118557766Y-76138743D01*
X118536487Y-76208890D01*
X118529302Y-76281839D01*
X118515000Y-76353740D01*
X118515000Y-76427051D01*
X118515001Y-79243802D01*
X118511928Y-79275000D01*
X118511928Y-80725000D01*
X118528992Y-80898254D01*
X118579528Y-81064850D01*
X118661595Y-81218386D01*
X118772038Y-81352962D01*
X118865000Y-81429254D01*
X118865001Y-84444239D01*
X118859509Y-84500000D01*
X118881423Y-84722498D01*
X118946324Y-84936446D01*
X118985085Y-85008962D01*
X119051717Y-85133623D01*
X119193552Y-85306449D01*
X119236860Y-85341991D01*
X119858004Y-85963135D01*
X119893551Y-86006449D01*
X120066377Y-86148284D01*
X120263553Y-86253676D01*
X120477501Y-86318577D01*
X120644248Y-86335000D01*
X120644257Y-86335000D01*
X120699999Y-86340490D01*
X120755741Y-86335000D01*
X121644499Y-86335000D01*
X121656809Y-86350000D01*
X121619463Y-86395506D01*
X121568954Y-86490000D01*
X118488072Y-86490000D01*
X118488072Y-85600000D01*
X118475812Y-85475518D01*
X118439502Y-85355820D01*
X118380537Y-85245506D01*
X118301185Y-85148815D01*
X118204494Y-85069463D01*
X118094180Y-85010498D01*
X117974482Y-84974188D01*
X117850000Y-84961928D01*
X115850000Y-84961928D01*
X115725518Y-84974188D01*
X115605820Y-85010498D01*
X115495506Y-85069463D01*
X115398815Y-85148815D01*
X115319463Y-85245506D01*
X115260498Y-85355820D01*
X115224188Y-85475518D01*
X115211928Y-85600000D01*
X115211928Y-89400000D01*
X115224188Y-89524482D01*
X115260498Y-89644180D01*
X115319463Y-89754494D01*
X115398815Y-89851185D01*
X115495506Y-89930537D01*
X115605820Y-89989502D01*
X115725518Y-90025812D01*
X115850000Y-90038072D01*
X117850000Y-90038072D01*
X117974482Y-90025812D01*
X118094180Y-89989502D01*
X118204494Y-89930537D01*
X118211240Y-89925000D01*
X125161928Y-89925000D01*
X125174188Y-90049482D01*
X125210498Y-90169180D01*
X125269463Y-90279494D01*
X125348815Y-90376185D01*
X125445506Y-90455537D01*
X125555820Y-90514502D01*
X125675518Y-90550812D01*
X125800000Y-90563072D01*
X126214250Y-90560000D01*
X126373000Y-90401250D01*
X126373000Y-89564500D01*
X126627000Y-89564500D01*
X126627000Y-90401250D01*
X126785750Y-90560000D01*
X127200000Y-90563072D01*
X127324482Y-90550812D01*
X127444180Y-90514502D01*
X127554494Y-90455537D01*
X127651185Y-90376185D01*
X127730537Y-90279494D01*
X127789502Y-90169180D01*
X127825812Y-90049482D01*
X127838072Y-89925000D01*
X127835000Y-89723250D01*
X127676250Y-89564500D01*
X126627000Y-89564500D01*
X126373000Y-89564500D01*
X125323750Y-89564500D01*
X125165000Y-89723250D01*
X125161928Y-89925000D01*
X118211240Y-89925000D01*
X118301185Y-89851185D01*
X118380537Y-89754494D01*
X118439502Y-89644180D01*
X118475812Y-89524482D01*
X118488072Y-89400000D01*
X118488072Y-88510000D01*
X121568954Y-88510000D01*
X121619463Y-88604494D01*
X121656809Y-88650000D01*
X121619463Y-88695506D01*
X121560498Y-88805820D01*
X121524188Y-88925518D01*
X121511928Y-89050000D01*
X121515000Y-89514250D01*
X121673750Y-89673000D01*
X123023000Y-89673000D01*
X123023000Y-89653000D01*
X123277000Y-89653000D01*
X123277000Y-89673000D01*
X124626250Y-89673000D01*
X124785000Y-89514250D01*
X124788072Y-89050000D01*
X124775812Y-88925518D01*
X124739502Y-88805820D01*
X124680537Y-88695506D01*
X124643191Y-88650000D01*
X124680537Y-88604494D01*
X124731046Y-88510000D01*
X125339636Y-88510000D01*
X125269463Y-88595506D01*
X125210498Y-88705820D01*
X125174188Y-88825518D01*
X125161928Y-88950000D01*
X125165000Y-89151750D01*
X125323750Y-89310500D01*
X126373000Y-89310500D01*
X126373000Y-89290500D01*
X126627000Y-89290500D01*
X126627000Y-89310500D01*
X127676250Y-89310500D01*
X127835000Y-89151750D01*
X127838072Y-88950000D01*
X127825812Y-88825518D01*
X127789502Y-88705820D01*
X127730537Y-88595506D01*
X127651185Y-88498815D01*
X127573436Y-88435008D01*
X127579792Y-88429792D01*
X127689458Y-88296164D01*
X127770947Y-88143709D01*
X127799152Y-88050730D01*
X128115000Y-88366579D01*
X128115001Y-97052500D01*
X127558215Y-97052500D01*
X127494244Y-97000000D01*
X127579792Y-96929792D01*
X127689458Y-96796164D01*
X127770947Y-96643709D01*
X127821128Y-96478285D01*
X127838072Y-96306250D01*
X127838072Y-95818750D01*
X127821128Y-95646715D01*
X127770947Y-95481291D01*
X127689458Y-95328836D01*
X127579792Y-95195208D01*
X127446164Y-95085542D01*
X127293709Y-95004053D01*
X127128285Y-94953872D01*
X126956250Y-94936928D01*
X126043750Y-94936928D01*
X125871715Y-94953872D01*
X125706291Y-95004053D01*
X125553836Y-95085542D01*
X125420208Y-95195208D01*
X125310542Y-95328836D01*
X125229053Y-95481291D01*
X125178872Y-95646715D01*
X125161928Y-95818750D01*
X125161928Y-96306250D01*
X125178872Y-96478285D01*
X125229053Y-96643709D01*
X125310542Y-96796164D01*
X125420208Y-96929792D01*
X125505756Y-97000000D01*
X125441785Y-97052500D01*
X125304079Y-97052500D01*
X125088072Y-96836494D01*
X125088072Y-96600000D01*
X125075812Y-96475518D01*
X125039502Y-96355820D01*
X124980537Y-96245506D01*
X124901185Y-96148815D01*
X124804494Y-96069463D01*
X124694180Y-96010498D01*
X124574482Y-95974188D01*
X124450000Y-95961928D01*
X123550000Y-95961928D01*
X123425518Y-95974188D01*
X123305820Y-96010498D01*
X123195506Y-96069463D01*
X123098815Y-96148815D01*
X123088072Y-96161905D01*
X123088072Y-95650000D01*
X123075812Y-95525518D01*
X123039502Y-95405820D01*
X122980537Y-95295506D01*
X122901185Y-95198815D01*
X122804494Y-95119463D01*
X122694180Y-95060498D01*
X122574482Y-95024188D01*
X122450000Y-95011928D01*
X121550000Y-95011928D01*
X121425518Y-95024188D01*
X121305820Y-95060498D01*
X121195506Y-95119463D01*
X121140019Y-95165000D01*
X120542984Y-95165000D01*
X120446164Y-95085542D01*
X120293709Y-95004053D01*
X120128285Y-94953872D01*
X119956250Y-94936928D01*
X119043750Y-94936928D01*
X118871715Y-94953872D01*
X118706291Y-95004053D01*
X118553836Y-95085542D01*
X118420208Y-95195208D01*
X118310542Y-95328836D01*
X118229053Y-95481291D01*
X118178872Y-95646715D01*
X118161928Y-95818750D01*
X118161928Y-96306250D01*
X118178872Y-96478285D01*
X118229053Y-96643709D01*
X118310542Y-96796164D01*
X118420208Y-96929792D01*
X118505756Y-97000000D01*
X118441785Y-97052500D01*
X117605965Y-97052500D01*
X117562499Y-97048219D01*
X117519033Y-97052500D01*
X117519023Y-97052500D01*
X117389010Y-97065305D01*
X117222187Y-97115911D01*
X117068441Y-97198089D01*
X117068439Y-97198090D01*
X117068440Y-97198090D01*
X116967453Y-97280968D01*
X116967451Y-97280970D01*
X116933683Y-97308683D01*
X116905970Y-97342451D01*
X115013422Y-99235000D01*
X114830078Y-99235000D01*
X114719608Y-99100392D01*
X114501101Y-98921068D01*
X114368142Y-98850000D01*
X114501101Y-98778932D01*
X114719608Y-98599608D01*
X114898932Y-98381101D01*
X115032182Y-98131808D01*
X115114236Y-97861309D01*
X115141943Y-97580000D01*
X115114236Y-97298691D01*
X115032182Y-97028192D01*
X114898932Y-96778899D01*
X114719608Y-96560392D01*
X114501101Y-96381068D01*
X114368142Y-96310000D01*
X114501101Y-96238932D01*
X114719608Y-96059608D01*
X114898932Y-95841101D01*
X115032182Y-95591808D01*
X115114236Y-95321309D01*
X115141943Y-95040000D01*
X115114236Y-94758691D01*
X115032182Y-94488192D01*
X114898932Y-94238899D01*
X114766524Y-94077559D01*
X114854494Y-94030537D01*
X114951185Y-93951185D01*
X115030537Y-93854494D01*
X115089502Y-93744180D01*
X115125812Y-93624482D01*
X115138072Y-93500000D01*
X115138072Y-91500000D01*
X115125812Y-91375518D01*
X115089502Y-91255820D01*
X115030537Y-91145506D01*
X114951185Y-91048815D01*
X114854494Y-90969463D01*
X114744180Y-90910498D01*
X114624482Y-90874188D01*
X114500000Y-90861928D01*
X112660000Y-90861928D01*
X112660000Y-90550000D01*
X121511928Y-90550000D01*
X121524188Y-90674482D01*
X121560498Y-90794180D01*
X121619463Y-90904494D01*
X121698815Y-91001185D01*
X121795506Y-91080537D01*
X121905820Y-91139502D01*
X122025518Y-91175812D01*
X122150000Y-91188072D01*
X122864250Y-91185000D01*
X123023000Y-91026250D01*
X123023000Y-89927000D01*
X123277000Y-89927000D01*
X123277000Y-91026250D01*
X123435750Y-91185000D01*
X124150000Y-91188072D01*
X124274482Y-91175812D01*
X124394180Y-91139502D01*
X124504494Y-91080537D01*
X124601185Y-91001185D01*
X124680537Y-90904494D01*
X124739502Y-90794180D01*
X124775812Y-90674482D01*
X124788072Y-90550000D01*
X124785000Y-90085750D01*
X124626250Y-89927000D01*
X123277000Y-89927000D01*
X123023000Y-89927000D01*
X121673750Y-89927000D01*
X121515000Y-90085750D01*
X121511928Y-90550000D01*
X112660000Y-90550000D01*
X112660000Y-85032277D01*
X112679102Y-84837460D01*
X112726308Y-84681106D01*
X112802982Y-84536904D01*
X112906207Y-84410337D01*
X113032051Y-84306231D01*
X113175711Y-84228553D01*
X113331729Y-84180258D01*
X113551890Y-84157118D01*
X113570288Y-84157247D01*
X113579460Y-84156348D01*
X113870605Y-84125748D01*
X113929217Y-84113717D01*
X113987963Y-84102511D01*
X113996784Y-84099847D01*
X114276440Y-84013279D01*
X114331578Y-83990101D01*
X114387050Y-83967689D01*
X114395181Y-83963365D01*
X114395185Y-83963363D01*
X114395188Y-83963361D01*
X114652702Y-83824123D01*
X114702259Y-83790696D01*
X114752347Y-83757920D01*
X114759488Y-83752095D01*
X114985056Y-83565490D01*
X115027215Y-83523035D01*
X115069945Y-83481191D01*
X115075819Y-83474091D01*
X115260845Y-83247227D01*
X115293927Y-83197434D01*
X115327745Y-83148045D01*
X115332127Y-83139939D01*
X115469564Y-82881458D01*
X115492355Y-82826164D01*
X115515925Y-82771171D01*
X115518650Y-82762368D01*
X115603264Y-82482113D01*
X115614882Y-82423436D01*
X115627320Y-82364921D01*
X115628283Y-82355756D01*
X115656850Y-82064404D01*
X115656850Y-82064402D01*
X115660000Y-82032419D01*
X115660000Y-77032279D01*
X115688625Y-76740341D01*
X115764035Y-76490571D01*
X115886522Y-76260208D01*
X116051422Y-76058020D01*
X116252450Y-75891714D01*
X116481954Y-75767622D01*
X116731195Y-75690469D01*
X117021088Y-75660000D01*
X118768311Y-75660000D01*
X118759294Y-75670987D01*
G37*
X118759294Y-75670987D02*
X118724742Y-75735629D01*
X118684010Y-75796589D01*
X118655953Y-75864324D01*
X118621401Y-75928967D01*
X118600123Y-75999111D01*
X118572068Y-76066842D01*
X118557766Y-76138743D01*
X118536487Y-76208890D01*
X118529302Y-76281839D01*
X118515000Y-76353740D01*
X118515000Y-76427051D01*
X118515001Y-79243802D01*
X118511928Y-79275000D01*
X118511928Y-80725000D01*
X118528992Y-80898254D01*
X118579528Y-81064850D01*
X118661595Y-81218386D01*
X118772038Y-81352962D01*
X118865000Y-81429254D01*
X118865001Y-84444239D01*
X118859509Y-84500000D01*
X118881423Y-84722498D01*
X118946324Y-84936446D01*
X118985085Y-85008962D01*
X119051717Y-85133623D01*
X119193552Y-85306449D01*
X119236860Y-85341991D01*
X119858004Y-85963135D01*
X119893551Y-86006449D01*
X120066377Y-86148284D01*
X120263553Y-86253676D01*
X120477501Y-86318577D01*
X120644248Y-86335000D01*
X120644257Y-86335000D01*
X120699999Y-86340490D01*
X120755741Y-86335000D01*
X121644499Y-86335000D01*
X121656809Y-86350000D01*
X121619463Y-86395506D01*
X121568954Y-86490000D01*
X118488072Y-86490000D01*
X118488072Y-85600000D01*
X118475812Y-85475518D01*
X118439502Y-85355820D01*
X118380537Y-85245506D01*
X118301185Y-85148815D01*
X118204494Y-85069463D01*
X118094180Y-85010498D01*
X117974482Y-84974188D01*
X117850000Y-84961928D01*
X115850000Y-84961928D01*
X115725518Y-84974188D01*
X115605820Y-85010498D01*
X115495506Y-85069463D01*
X115398815Y-85148815D01*
X115319463Y-85245506D01*
X115260498Y-85355820D01*
X115224188Y-85475518D01*
X115211928Y-85600000D01*
X115211928Y-89400000D01*
X115224188Y-89524482D01*
X115260498Y-89644180D01*
X115319463Y-89754494D01*
X115398815Y-89851185D01*
X115495506Y-89930537D01*
X115605820Y-89989502D01*
X115725518Y-90025812D01*
X115850000Y-90038072D01*
X117850000Y-90038072D01*
X117974482Y-90025812D01*
X118094180Y-89989502D01*
X118204494Y-89930537D01*
X118211240Y-89925000D01*
X125161928Y-89925000D01*
X125174188Y-90049482D01*
X125210498Y-90169180D01*
X125269463Y-90279494D01*
X125348815Y-90376185D01*
X125445506Y-90455537D01*
X125555820Y-90514502D01*
X125675518Y-90550812D01*
X125800000Y-90563072D01*
X126214250Y-90560000D01*
X126373000Y-90401250D01*
X126373000Y-89564500D01*
X126627000Y-89564500D01*
X126627000Y-90401250D01*
X126785750Y-90560000D01*
X127200000Y-90563072D01*
X127324482Y-90550812D01*
X127444180Y-90514502D01*
X127554494Y-90455537D01*
X127651185Y-90376185D01*
X127730537Y-90279494D01*
X127789502Y-90169180D01*
X127825812Y-90049482D01*
X127838072Y-89925000D01*
X127835000Y-89723250D01*
X127676250Y-89564500D01*
X126627000Y-89564500D01*
X126373000Y-89564500D01*
X125323750Y-89564500D01*
X125165000Y-89723250D01*
X125161928Y-89925000D01*
X118211240Y-89925000D01*
X118301185Y-89851185D01*
X118380537Y-89754494D01*
X118439502Y-89644180D01*
X118475812Y-89524482D01*
X118488072Y-89400000D01*
X118488072Y-88510000D01*
X121568954Y-88510000D01*
X121619463Y-88604494D01*
X121656809Y-88650000D01*
X121619463Y-88695506D01*
X121560498Y-88805820D01*
X121524188Y-88925518D01*
X121511928Y-89050000D01*
X121515000Y-89514250D01*
X121673750Y-89673000D01*
X123023000Y-89673000D01*
X123023000Y-89653000D01*
X123277000Y-89653000D01*
X123277000Y-89673000D01*
X124626250Y-89673000D01*
X124785000Y-89514250D01*
X124788072Y-89050000D01*
X124775812Y-88925518D01*
X124739502Y-88805820D01*
X124680537Y-88695506D01*
X124643191Y-88650000D01*
X124680537Y-88604494D01*
X124731046Y-88510000D01*
X125339636Y-88510000D01*
X125269463Y-88595506D01*
X125210498Y-88705820D01*
X125174188Y-88825518D01*
X125161928Y-88950000D01*
X125165000Y-89151750D01*
X125323750Y-89310500D01*
X126373000Y-89310500D01*
X126373000Y-89290500D01*
X126627000Y-89290500D01*
X126627000Y-89310500D01*
X127676250Y-89310500D01*
X127835000Y-89151750D01*
X127838072Y-88950000D01*
X127825812Y-88825518D01*
X127789502Y-88705820D01*
X127730537Y-88595506D01*
X127651185Y-88498815D01*
X127573436Y-88435008D01*
X127579792Y-88429792D01*
X127689458Y-88296164D01*
X127770947Y-88143709D01*
X127799152Y-88050730D01*
X128115000Y-88366579D01*
X128115001Y-97052500D01*
X127558215Y-97052500D01*
X127494244Y-97000000D01*
X127579792Y-96929792D01*
X127689458Y-96796164D01*
X127770947Y-96643709D01*
X127821128Y-96478285D01*
X127838072Y-96306250D01*
X127838072Y-95818750D01*
X127821128Y-95646715D01*
X127770947Y-95481291D01*
X127689458Y-95328836D01*
X127579792Y-95195208D01*
X127446164Y-95085542D01*
X127293709Y-95004053D01*
X127128285Y-94953872D01*
X126956250Y-94936928D01*
X126043750Y-94936928D01*
X125871715Y-94953872D01*
X125706291Y-95004053D01*
X125553836Y-95085542D01*
X125420208Y-95195208D01*
X125310542Y-95328836D01*
X125229053Y-95481291D01*
X125178872Y-95646715D01*
X125161928Y-95818750D01*
X125161928Y-96306250D01*
X125178872Y-96478285D01*
X125229053Y-96643709D01*
X125310542Y-96796164D01*
X125420208Y-96929792D01*
X125505756Y-97000000D01*
X125441785Y-97052500D01*
X125304079Y-97052500D01*
X125088072Y-96836494D01*
X125088072Y-96600000D01*
X125075812Y-96475518D01*
X125039502Y-96355820D01*
X124980537Y-96245506D01*
X124901185Y-96148815D01*
X124804494Y-96069463D01*
X124694180Y-96010498D01*
X124574482Y-95974188D01*
X124450000Y-95961928D01*
X123550000Y-95961928D01*
X123425518Y-95974188D01*
X123305820Y-96010498D01*
X123195506Y-96069463D01*
X123098815Y-96148815D01*
X123088072Y-96161905D01*
X123088072Y-95650000D01*
X123075812Y-95525518D01*
X123039502Y-95405820D01*
X122980537Y-95295506D01*
X122901185Y-95198815D01*
X122804494Y-95119463D01*
X122694180Y-95060498D01*
X122574482Y-95024188D01*
X122450000Y-95011928D01*
X121550000Y-95011928D01*
X121425518Y-95024188D01*
X121305820Y-95060498D01*
X121195506Y-95119463D01*
X121140019Y-95165000D01*
X120542984Y-95165000D01*
X120446164Y-95085542D01*
X120293709Y-95004053D01*
X120128285Y-94953872D01*
X119956250Y-94936928D01*
X119043750Y-94936928D01*
X118871715Y-94953872D01*
X118706291Y-95004053D01*
X118553836Y-95085542D01*
X118420208Y-95195208D01*
X118310542Y-95328836D01*
X118229053Y-95481291D01*
X118178872Y-95646715D01*
X118161928Y-95818750D01*
X118161928Y-96306250D01*
X118178872Y-96478285D01*
X118229053Y-96643709D01*
X118310542Y-96796164D01*
X118420208Y-96929792D01*
X118505756Y-97000000D01*
X118441785Y-97052500D01*
X117605965Y-97052500D01*
X117562499Y-97048219D01*
X117519033Y-97052500D01*
X117519023Y-97052500D01*
X117389010Y-97065305D01*
X117222187Y-97115911D01*
X117068441Y-97198089D01*
X117068439Y-97198090D01*
X117068440Y-97198090D01*
X116967453Y-97280968D01*
X116967451Y-97280970D01*
X116933683Y-97308683D01*
X116905970Y-97342451D01*
X115013422Y-99235000D01*
X114830078Y-99235000D01*
X114719608Y-99100392D01*
X114501101Y-98921068D01*
X114368142Y-98850000D01*
X114501101Y-98778932D01*
X114719608Y-98599608D01*
X114898932Y-98381101D01*
X115032182Y-98131808D01*
X115114236Y-97861309D01*
X115141943Y-97580000D01*
X115114236Y-97298691D01*
X115032182Y-97028192D01*
X114898932Y-96778899D01*
X114719608Y-96560392D01*
X114501101Y-96381068D01*
X114368142Y-96310000D01*
X114501101Y-96238932D01*
X114719608Y-96059608D01*
X114898932Y-95841101D01*
X115032182Y-95591808D01*
X115114236Y-95321309D01*
X115141943Y-95040000D01*
X115114236Y-94758691D01*
X115032182Y-94488192D01*
X114898932Y-94238899D01*
X114766524Y-94077559D01*
X114854494Y-94030537D01*
X114951185Y-93951185D01*
X115030537Y-93854494D01*
X115089502Y-93744180D01*
X115125812Y-93624482D01*
X115138072Y-93500000D01*
X115138072Y-91500000D01*
X115125812Y-91375518D01*
X115089502Y-91255820D01*
X115030537Y-91145506D01*
X114951185Y-91048815D01*
X114854494Y-90969463D01*
X114744180Y-90910498D01*
X114624482Y-90874188D01*
X114500000Y-90861928D01*
X112660000Y-90861928D01*
X112660000Y-90550000D01*
X121511928Y-90550000D01*
X121524188Y-90674482D01*
X121560498Y-90794180D01*
X121619463Y-90904494D01*
X121698815Y-91001185D01*
X121795506Y-91080537D01*
X121905820Y-91139502D01*
X122025518Y-91175812D01*
X122150000Y-91188072D01*
X122864250Y-91185000D01*
X123023000Y-91026250D01*
X123023000Y-89927000D01*
X123277000Y-89927000D01*
X123277000Y-91026250D01*
X123435750Y-91185000D01*
X124150000Y-91188072D01*
X124274482Y-91175812D01*
X124394180Y-91139502D01*
X124504494Y-91080537D01*
X124601185Y-91001185D01*
X124680537Y-90904494D01*
X124739502Y-90794180D01*
X124775812Y-90674482D01*
X124788072Y-90550000D01*
X124785000Y-90085750D01*
X124626250Y-89927000D01*
X123277000Y-89927000D01*
X123023000Y-89927000D01*
X121673750Y-89927000D01*
X121515000Y-90085750D01*
X121511928Y-90550000D01*
X112660000Y-90550000D01*
X112660000Y-85032277D01*
X112679102Y-84837460D01*
X112726308Y-84681106D01*
X112802982Y-84536904D01*
X112906207Y-84410337D01*
X113032051Y-84306231D01*
X113175711Y-84228553D01*
X113331729Y-84180258D01*
X113551890Y-84157118D01*
X113570288Y-84157247D01*
X113579460Y-84156348D01*
X113870605Y-84125748D01*
X113929217Y-84113717D01*
X113987963Y-84102511D01*
X113996784Y-84099847D01*
X114276440Y-84013279D01*
X114331578Y-83990101D01*
X114387050Y-83967689D01*
X114395181Y-83963365D01*
X114395185Y-83963363D01*
X114395188Y-83963361D01*
X114652702Y-83824123D01*
X114702259Y-83790696D01*
X114752347Y-83757920D01*
X114759488Y-83752095D01*
X114985056Y-83565490D01*
X115027215Y-83523035D01*
X115069945Y-83481191D01*
X115075819Y-83474091D01*
X115260845Y-83247227D01*
X115293927Y-83197434D01*
X115327745Y-83148045D01*
X115332127Y-83139939D01*
X115469564Y-82881458D01*
X115492355Y-82826164D01*
X115515925Y-82771171D01*
X115518650Y-82762368D01*
X115603264Y-82482113D01*
X115614882Y-82423436D01*
X115627320Y-82364921D01*
X115628283Y-82355756D01*
X115656850Y-82064404D01*
X115656850Y-82064402D01*
X115660000Y-82032419D01*
X115660000Y-77032279D01*
X115688625Y-76740341D01*
X115764035Y-76490571D01*
X115886522Y-76260208D01*
X116051422Y-76058020D01*
X116252450Y-75891714D01*
X116481954Y-75767622D01*
X116731195Y-75690469D01*
X117021088Y-75660000D01*
X118768311Y-75660000D01*
X118759294Y-75670987D01*
M02*
