G04 #@! TF.GenerationSoftware,KiCad,Pcbnew,(5.1.5)-3*
G04 #@! TF.CreationDate,2021-09-10T12:23:28+10:00*
G04 #@! TF.ProjectId,MHI ESP,4d484920-4553-4502-9e6b-696361645f70,rev?*
G04 #@! TF.SameCoordinates,Original*
G04 #@! TF.FileFunction,Legend,Top*
G04 #@! TF.FilePolarity,Positive*
%FSLAX46Y46*%
G04 Gerber Fmt 4.6, Leading zero omitted, Abs format (unit mm)*
G04 Created by KiCad (PCBNEW (5.1.5)-3) date 2021-09-10 12:23:28*
%MOMM*%
%LPD*%
G04 APERTURE LIST*
%ADD10C,0.300000*%
%ADD11C,0.120000*%
%ADD12C,0.150000*%
G04 APERTURE END LIST*
D10*
X117928571Y-80928571D02*
X117071428Y-80928571D01*
X117500000Y-80928571D02*
X117500000Y-79428571D01*
X117357142Y-79642857D01*
X117214285Y-79785714D01*
X117071428Y-79857142D01*
D11*
X135730000Y-84160000D02*
G75*
G02X137860000Y-86290000I0J-2130000D01*
G01*
X112000000Y-86290000D02*
G75*
G02X114130000Y-84160000I2130000J0D01*
G01*
X114540000Y-111720000D02*
X114540000Y-118620000D01*
X112000000Y-111720000D02*
X114540000Y-111720000D01*
D12*
G36*
X110960000Y-91865000D02*
G01*
X110960000Y-93135000D01*
X111595000Y-92500000D01*
X110960000Y-91865000D01*
G37*
X110960000Y-91865000D02*
X110960000Y-93135000D01*
X111595000Y-92500000D01*
X110960000Y-91865000D01*
D11*
X135740000Y-84160000D02*
X114130000Y-84160000D01*
X137860000Y-118620000D02*
X137860000Y-86290000D01*
X112000000Y-111720000D02*
X112000000Y-86290000D01*
X114540000Y-118620000D02*
X137860000Y-118620000D01*
X124100000Y-90910000D02*
X118090000Y-90910000D01*
X121850000Y-84090000D02*
X118090000Y-84090000D01*
X118090000Y-90910000D02*
X118090000Y-89650000D01*
X118090000Y-84090000D02*
X118090000Y-85350000D01*
X125790000Y-106741422D02*
X125790000Y-107258578D01*
X127210000Y-106741422D02*
X127210000Y-107258578D01*
X125790000Y-101741422D02*
X125790000Y-102258578D01*
X127210000Y-101741422D02*
X127210000Y-102258578D01*
X125790000Y-96741422D02*
X125790000Y-97258578D01*
X127210000Y-96741422D02*
X127210000Y-97258578D01*
X118790000Y-106741422D02*
X118790000Y-107258578D01*
X120210000Y-106741422D02*
X120210000Y-107258578D01*
X118790000Y-101741422D02*
X118790000Y-102258578D01*
X120210000Y-101741422D02*
X120210000Y-102258578D01*
X118790000Y-96741422D02*
X118790000Y-97258578D01*
X120210000Y-96741422D02*
X120210000Y-97258578D01*
X123760000Y-108580000D02*
X122300000Y-108580000D01*
X123760000Y-105420000D02*
X121600000Y-105420000D01*
X123760000Y-105420000D02*
X123760000Y-106350000D01*
X123760000Y-108580000D02*
X123760000Y-107650000D01*
X123760000Y-103580000D02*
X122300000Y-103580000D01*
X123760000Y-100420000D02*
X121600000Y-100420000D01*
X123760000Y-100420000D02*
X123760000Y-101350000D01*
X123760000Y-103580000D02*
X123760000Y-102650000D01*
X123760000Y-98580000D02*
X122300000Y-98580000D01*
X123760000Y-95420000D02*
X121600000Y-95420000D01*
X123760000Y-95420000D02*
X123760000Y-96350000D01*
X123760000Y-98580000D02*
X123760000Y-97650000D01*
X125790000Y-88241422D02*
X125790000Y-88758578D01*
X127210000Y-88241422D02*
X127210000Y-88758578D01*
D12*
X115988095Y-89952380D02*
X115988095Y-90761904D01*
X116035714Y-90857142D01*
X116083333Y-90904761D01*
X116178571Y-90952380D01*
X116369047Y-90952380D01*
X116464285Y-90904761D01*
X116511904Y-90857142D01*
X116559523Y-90761904D01*
X116559523Y-89952380D01*
X116988095Y-90047619D02*
X117035714Y-90000000D01*
X117130952Y-89952380D01*
X117369047Y-89952380D01*
X117464285Y-90000000D01*
X117511904Y-90047619D01*
X117559523Y-90142857D01*
X117559523Y-90238095D01*
X117511904Y-90380952D01*
X116940476Y-90952380D01*
X117559523Y-90952380D01*
X128602380Y-107166666D02*
X128126190Y-107500000D01*
X128602380Y-107738095D02*
X127602380Y-107738095D01*
X127602380Y-107357142D01*
X127650000Y-107261904D01*
X127697619Y-107214285D01*
X127792857Y-107166666D01*
X127935714Y-107166666D01*
X128030952Y-107214285D01*
X128078571Y-107261904D01*
X128126190Y-107357142D01*
X128126190Y-107738095D01*
X127602380Y-106309523D02*
X127602380Y-106500000D01*
X127650000Y-106595238D01*
X127697619Y-106642857D01*
X127840476Y-106738095D01*
X128030952Y-106785714D01*
X128411904Y-106785714D01*
X128507142Y-106738095D01*
X128554761Y-106690476D01*
X128602380Y-106595238D01*
X128602380Y-106404761D01*
X128554761Y-106309523D01*
X128507142Y-106261904D01*
X128411904Y-106214285D01*
X128173809Y-106214285D01*
X128078571Y-106261904D01*
X128030952Y-106309523D01*
X127983333Y-106404761D01*
X127983333Y-106595238D01*
X128030952Y-106690476D01*
X128078571Y-106738095D01*
X128173809Y-106785714D01*
X128602380Y-102166666D02*
X128126190Y-102500000D01*
X128602380Y-102738095D02*
X127602380Y-102738095D01*
X127602380Y-102357142D01*
X127650000Y-102261904D01*
X127697619Y-102214285D01*
X127792857Y-102166666D01*
X127935714Y-102166666D01*
X128030952Y-102214285D01*
X128078571Y-102261904D01*
X128126190Y-102357142D01*
X128126190Y-102738095D01*
X127602380Y-101261904D02*
X127602380Y-101738095D01*
X128078571Y-101785714D01*
X128030952Y-101738095D01*
X127983333Y-101642857D01*
X127983333Y-101404761D01*
X128030952Y-101309523D01*
X128078571Y-101261904D01*
X128173809Y-101214285D01*
X128411904Y-101214285D01*
X128507142Y-101261904D01*
X128554761Y-101309523D01*
X128602380Y-101404761D01*
X128602380Y-101642857D01*
X128554761Y-101738095D01*
X128507142Y-101785714D01*
X128602380Y-97166666D02*
X128126190Y-97500000D01*
X128602380Y-97738095D02*
X127602380Y-97738095D01*
X127602380Y-97357142D01*
X127650000Y-97261904D01*
X127697619Y-97214285D01*
X127792857Y-97166666D01*
X127935714Y-97166666D01*
X128030952Y-97214285D01*
X128078571Y-97261904D01*
X128126190Y-97357142D01*
X128126190Y-97738095D01*
X127935714Y-96309523D02*
X128602380Y-96309523D01*
X127554761Y-96547619D02*
X128269047Y-96785714D01*
X128269047Y-96166666D01*
X118452380Y-107166666D02*
X117976190Y-107500000D01*
X118452380Y-107738095D02*
X117452380Y-107738095D01*
X117452380Y-107357142D01*
X117500000Y-107261904D01*
X117547619Y-107214285D01*
X117642857Y-107166666D01*
X117785714Y-107166666D01*
X117880952Y-107214285D01*
X117928571Y-107261904D01*
X117976190Y-107357142D01*
X117976190Y-107738095D01*
X117452380Y-106833333D02*
X117452380Y-106214285D01*
X117833333Y-106547619D01*
X117833333Y-106404761D01*
X117880952Y-106309523D01*
X117928571Y-106261904D01*
X118023809Y-106214285D01*
X118261904Y-106214285D01*
X118357142Y-106261904D01*
X118404761Y-106309523D01*
X118452380Y-106404761D01*
X118452380Y-106690476D01*
X118404761Y-106785714D01*
X118357142Y-106833333D01*
X118452380Y-102166666D02*
X117976190Y-102500000D01*
X118452380Y-102738095D02*
X117452380Y-102738095D01*
X117452380Y-102357142D01*
X117500000Y-102261904D01*
X117547619Y-102214285D01*
X117642857Y-102166666D01*
X117785714Y-102166666D01*
X117880952Y-102214285D01*
X117928571Y-102261904D01*
X117976190Y-102357142D01*
X117976190Y-102738095D01*
X117547619Y-101785714D02*
X117500000Y-101738095D01*
X117452380Y-101642857D01*
X117452380Y-101404761D01*
X117500000Y-101309523D01*
X117547619Y-101261904D01*
X117642857Y-101214285D01*
X117738095Y-101214285D01*
X117880952Y-101261904D01*
X118452380Y-101833333D01*
X118452380Y-101214285D01*
X118452380Y-97166666D02*
X117976190Y-97500000D01*
X118452380Y-97738095D02*
X117452380Y-97738095D01*
X117452380Y-97357142D01*
X117500000Y-97261904D01*
X117547619Y-97214285D01*
X117642857Y-97166666D01*
X117785714Y-97166666D01*
X117880952Y-97214285D01*
X117928571Y-97261904D01*
X117976190Y-97357142D01*
X117976190Y-97738095D01*
X118452380Y-96214285D02*
X118452380Y-96785714D01*
X118452380Y-96500000D02*
X117452380Y-96500000D01*
X117595238Y-96595238D01*
X117690476Y-96690476D01*
X117738095Y-96785714D01*
X124654761Y-109547619D02*
X124559523Y-109500000D01*
X124464285Y-109404761D01*
X124321428Y-109261904D01*
X124226190Y-109214285D01*
X124130952Y-109214285D01*
X124178571Y-109452380D02*
X124083333Y-109404761D01*
X123988095Y-109309523D01*
X123940476Y-109119047D01*
X123940476Y-108785714D01*
X123988095Y-108595238D01*
X124083333Y-108500000D01*
X124178571Y-108452380D01*
X124369047Y-108452380D01*
X124464285Y-108500000D01*
X124559523Y-108595238D01*
X124607142Y-108785714D01*
X124607142Y-109119047D01*
X124559523Y-109309523D01*
X124464285Y-109404761D01*
X124369047Y-109452380D01*
X124178571Y-109452380D01*
X124940476Y-108452380D02*
X125559523Y-108452380D01*
X125226190Y-108833333D01*
X125369047Y-108833333D01*
X125464285Y-108880952D01*
X125511904Y-108928571D01*
X125559523Y-109023809D01*
X125559523Y-109261904D01*
X125511904Y-109357142D01*
X125464285Y-109404761D01*
X125369047Y-109452380D01*
X125083333Y-109452380D01*
X124988095Y-109404761D01*
X124940476Y-109357142D01*
X124654761Y-104547619D02*
X124559523Y-104500000D01*
X124464285Y-104404761D01*
X124321428Y-104261904D01*
X124226190Y-104214285D01*
X124130952Y-104214285D01*
X124178571Y-104452380D02*
X124083333Y-104404761D01*
X123988095Y-104309523D01*
X123940476Y-104119047D01*
X123940476Y-103785714D01*
X123988095Y-103595238D01*
X124083333Y-103500000D01*
X124178571Y-103452380D01*
X124369047Y-103452380D01*
X124464285Y-103500000D01*
X124559523Y-103595238D01*
X124607142Y-103785714D01*
X124607142Y-104119047D01*
X124559523Y-104309523D01*
X124464285Y-104404761D01*
X124369047Y-104452380D01*
X124178571Y-104452380D01*
X124988095Y-103547619D02*
X125035714Y-103500000D01*
X125130952Y-103452380D01*
X125369047Y-103452380D01*
X125464285Y-103500000D01*
X125511904Y-103547619D01*
X125559523Y-103642857D01*
X125559523Y-103738095D01*
X125511904Y-103880952D01*
X124940476Y-104452380D01*
X125559523Y-104452380D01*
X124654761Y-99547619D02*
X124559523Y-99500000D01*
X124464285Y-99404761D01*
X124321428Y-99261904D01*
X124226190Y-99214285D01*
X124130952Y-99214285D01*
X124178571Y-99452380D02*
X124083333Y-99404761D01*
X123988095Y-99309523D01*
X123940476Y-99119047D01*
X123940476Y-98785714D01*
X123988095Y-98595238D01*
X124083333Y-98500000D01*
X124178571Y-98452380D01*
X124369047Y-98452380D01*
X124464285Y-98500000D01*
X124559523Y-98595238D01*
X124607142Y-98785714D01*
X124607142Y-99119047D01*
X124559523Y-99309523D01*
X124464285Y-99404761D01*
X124369047Y-99452380D01*
X124178571Y-99452380D01*
X125559523Y-99452380D02*
X124988095Y-99452380D01*
X125273809Y-99452380D02*
X125273809Y-98452380D01*
X125178571Y-98595238D01*
X125083333Y-98690476D01*
X124988095Y-98738095D01*
X128507142Y-88666666D02*
X128554761Y-88714285D01*
X128602380Y-88857142D01*
X128602380Y-88952380D01*
X128554761Y-89095238D01*
X128459523Y-89190476D01*
X128364285Y-89238095D01*
X128173809Y-89285714D01*
X128030952Y-89285714D01*
X127840476Y-89238095D01*
X127745238Y-89190476D01*
X127650000Y-89095238D01*
X127602380Y-88952380D01*
X127602380Y-88857142D01*
X127650000Y-88714285D01*
X127697619Y-88666666D01*
X128602380Y-87714285D02*
X128602380Y-88285714D01*
X128602380Y-88000000D02*
X127602380Y-88000000D01*
X127745238Y-88095238D01*
X127840476Y-88190476D01*
X127888095Y-88285714D01*
M02*
