G04 #@! TF.GenerationSoftware,KiCad,Pcbnew,(6.0.6)*
G04 #@! TF.CreationDate,2023-01-05T20:28:38+10:00*
G04 #@! TF.ProjectId,MHI ESP,4d484920-4553-4502-9e6b-696361645f70,rev?*
G04 #@! TF.SameCoordinates,Original*
G04 #@! TF.FileFunction,Copper,L2,Bot*
G04 #@! TF.FilePolarity,Positive*
%FSLAX46Y46*%
G04 Gerber Fmt 4.6, Leading zero omitted, Abs format (unit mm)*
G04 Created by KiCad (PCBNEW (6.0.6)) date 2023-01-05 20:28:38*
%MOMM*%
%LPD*%
G01*
G04 APERTURE LIST*
G04 Aperture macros list*
%AMRoundRect*
0 Rectangle with rounded corners*
0 $1 Rounding radius*
0 $2 $3 $4 $5 $6 $7 $8 $9 X,Y pos of 4 corners*
0 Add a 4 corners polygon primitive as box body*
4,1,4,$2,$3,$4,$5,$6,$7,$8,$9,$2,$3,0*
0 Add four circle primitives for the rounded corners*
1,1,$1+$1,$2,$3*
1,1,$1+$1,$4,$5*
1,1,$1+$1,$6,$7*
1,1,$1+$1,$8,$9*
0 Add four rect primitives between the rounded corners*
20,1,$1+$1,$2,$3,$4,$5,0*
20,1,$1+$1,$4,$5,$6,$7,0*
20,1,$1+$1,$6,$7,$8,$9,0*
20,1,$1+$1,$8,$9,$2,$3,0*%
G04 Aperture macros list end*
G04 #@! TA.AperFunction,ComponentPad*
%ADD10R,2.000000X2.000000*%
G04 #@! TD*
G04 #@! TA.AperFunction,ComponentPad*
%ADD11O,2.000000X1.600000*%
G04 #@! TD*
G04 #@! TA.AperFunction,ComponentPad*
%ADD12RoundRect,0.250000X-0.600000X-0.725000X0.600000X-0.725000X0.600000X0.725000X-0.600000X0.725000X0*%
G04 #@! TD*
G04 #@! TA.AperFunction,ComponentPad*
%ADD13O,1.700000X1.950000*%
G04 #@! TD*
G04 #@! TA.AperFunction,ViaPad*
%ADD14C,1.700000*%
G04 #@! TD*
G04 #@! TA.AperFunction,ViaPad*
%ADD15C,0.800000*%
G04 #@! TD*
G04 #@! TA.AperFunction,ViaPad*
%ADD16C,0.600000*%
G04 #@! TD*
G04 #@! TA.AperFunction,Conductor*
%ADD17C,0.750000*%
G04 #@! TD*
G04 #@! TA.AperFunction,Conductor*
%ADD18C,0.500000*%
G04 #@! TD*
G04 APERTURE END LIST*
D10*
X113500000Y-92500000D03*
D11*
X113500000Y-95040000D03*
X113500000Y-97580000D03*
X113500000Y-100120000D03*
X113500000Y-102660000D03*
X113500000Y-105200000D03*
X113500000Y-107740000D03*
X113500000Y-110280000D03*
X136360000Y-110280000D03*
X136360000Y-107740000D03*
X136360000Y-105200000D03*
X136360000Y-102660000D03*
X136360000Y-100120000D03*
X136360000Y-97580000D03*
X136360000Y-95040000D03*
X136360000Y-92500000D03*
D12*
X120000000Y-80000000D03*
D13*
X122500000Y-80000000D03*
X125000000Y-80000000D03*
X127500000Y-80000000D03*
X130000000Y-80000000D03*
D14*
X130000000Y-76500000D03*
D15*
X116500000Y-80000000D03*
D16*
X126500000Y-102250000D03*
X126500000Y-112250000D03*
X126500000Y-107250000D03*
X126500000Y-92250000D03*
X126500000Y-97250000D03*
D15*
X126500000Y-87500000D03*
D16*
X129000000Y-99250000D03*
X133000000Y-97750000D03*
D14*
X127500000Y-76500000D03*
X122500000Y-76500000D03*
X125000000Y-76500000D03*
X120000000Y-76500000D03*
D15*
X120000000Y-80000000D03*
D16*
X119500000Y-102250000D03*
X119500000Y-112250000D03*
X119500000Y-107250000D03*
X119500000Y-97250000D03*
X119500000Y-92250000D03*
X122000000Y-116000000D03*
X124875000Y-109125000D03*
D17*
X132500000Y-112250000D02*
X134470000Y-110280000D01*
X126500000Y-87500000D02*
X126500000Y-112312500D01*
X126500000Y-102250000D02*
X126500000Y-104750000D01*
X132500000Y-112250000D02*
X126500000Y-112250000D01*
X134470000Y-110280000D02*
X136360000Y-110280000D01*
D18*
X129000000Y-99250000D02*
X131500000Y-99250000D01*
X131500000Y-99250000D02*
X133000000Y-97750000D01*
D17*
X119500000Y-108500000D02*
X117720000Y-110280000D01*
X117720000Y-110280000D02*
X113500000Y-110280000D01*
X119500000Y-92250000D02*
X119500000Y-102250000D01*
X119500000Y-102250000D02*
X119500000Y-112312500D01*
D18*
X124875000Y-109125000D02*
X124875000Y-113125000D01*
X124875000Y-113125000D02*
X122000000Y-116000000D01*
G04 #@! TA.AperFunction,Conductor*
G36*
X118861437Y-75528502D02*
G01*
X118907930Y-75582158D01*
X118918034Y-75652432D01*
X118897404Y-75705503D01*
X118814743Y-75826680D01*
X118720688Y-76029305D01*
X118660989Y-76244570D01*
X118637251Y-76466695D01*
X118637548Y-76471848D01*
X118637548Y-76471851D01*
X118643011Y-76566590D01*
X118650110Y-76689715D01*
X118651247Y-76694761D01*
X118651248Y-76694767D01*
X118672275Y-76788069D01*
X118699222Y-76907639D01*
X118783266Y-77114616D01*
X118785965Y-77119020D01*
X118897288Y-77300683D01*
X118899987Y-77305088D01*
X119046250Y-77473938D01*
X119218126Y-77616632D01*
X119411000Y-77729338D01*
X119619692Y-77809030D01*
X119624760Y-77810061D01*
X119624763Y-77810062D01*
X119732017Y-77831883D01*
X119838597Y-77853567D01*
X119843772Y-77853757D01*
X119843774Y-77853757D01*
X120056673Y-77861564D01*
X120056677Y-77861564D01*
X120061837Y-77861753D01*
X120066957Y-77861097D01*
X120066959Y-77861097D01*
X120278288Y-77834025D01*
X120278289Y-77834025D01*
X120283416Y-77833368D01*
X120288366Y-77831883D01*
X120492429Y-77770661D01*
X120492434Y-77770659D01*
X120497384Y-77769174D01*
X120697994Y-77670896D01*
X120879860Y-77541173D01*
X121038096Y-77383489D01*
X121097594Y-77300689D01*
X121148681Y-77229593D01*
X121204676Y-77185945D01*
X121275379Y-77179499D01*
X121338344Y-77212302D01*
X121358437Y-77237285D01*
X121397287Y-77300683D01*
X121397291Y-77300688D01*
X121399987Y-77305088D01*
X121546250Y-77473938D01*
X121718126Y-77616632D01*
X121911000Y-77729338D01*
X122119692Y-77809030D01*
X122124760Y-77810061D01*
X122124763Y-77810062D01*
X122232017Y-77831883D01*
X122338597Y-77853567D01*
X122343772Y-77853757D01*
X122343774Y-77853757D01*
X122556673Y-77861564D01*
X122556677Y-77861564D01*
X122561837Y-77861753D01*
X122566957Y-77861097D01*
X122566959Y-77861097D01*
X122778288Y-77834025D01*
X122778289Y-77834025D01*
X122783416Y-77833368D01*
X122788366Y-77831883D01*
X122992429Y-77770661D01*
X122992434Y-77770659D01*
X122997384Y-77769174D01*
X123197994Y-77670896D01*
X123379860Y-77541173D01*
X123538096Y-77383489D01*
X123597594Y-77300689D01*
X123648681Y-77229593D01*
X123704676Y-77185945D01*
X123775379Y-77179499D01*
X123838344Y-77212302D01*
X123858437Y-77237285D01*
X123897287Y-77300683D01*
X123897291Y-77300688D01*
X123899987Y-77305088D01*
X124046250Y-77473938D01*
X124218126Y-77616632D01*
X124411000Y-77729338D01*
X124619692Y-77809030D01*
X124624760Y-77810061D01*
X124624763Y-77810062D01*
X124732017Y-77831883D01*
X124838597Y-77853567D01*
X124843772Y-77853757D01*
X124843774Y-77853757D01*
X125056673Y-77861564D01*
X125056677Y-77861564D01*
X125061837Y-77861753D01*
X125066957Y-77861097D01*
X125066959Y-77861097D01*
X125278288Y-77834025D01*
X125278289Y-77834025D01*
X125283416Y-77833368D01*
X125288366Y-77831883D01*
X125492429Y-77770661D01*
X125492434Y-77770659D01*
X125497384Y-77769174D01*
X125697994Y-77670896D01*
X125879860Y-77541173D01*
X126038096Y-77383489D01*
X126097594Y-77300689D01*
X126148681Y-77229593D01*
X126204676Y-77185945D01*
X126275379Y-77179499D01*
X126338344Y-77212302D01*
X126358437Y-77237285D01*
X126397287Y-77300683D01*
X126397291Y-77300688D01*
X126399987Y-77305088D01*
X126546250Y-77473938D01*
X126718126Y-77616632D01*
X126911000Y-77729338D01*
X127119692Y-77809030D01*
X127124760Y-77810061D01*
X127124763Y-77810062D01*
X127232017Y-77831883D01*
X127338597Y-77853567D01*
X127343772Y-77853757D01*
X127343774Y-77853757D01*
X127556673Y-77861564D01*
X127556677Y-77861564D01*
X127561837Y-77861753D01*
X127566957Y-77861097D01*
X127566959Y-77861097D01*
X127778288Y-77834025D01*
X127778289Y-77834025D01*
X127783416Y-77833368D01*
X127788366Y-77831883D01*
X127992429Y-77770661D01*
X127992434Y-77770659D01*
X127997384Y-77769174D01*
X128197994Y-77670896D01*
X128379860Y-77541173D01*
X128538096Y-77383489D01*
X128597594Y-77300689D01*
X128665435Y-77206277D01*
X128668453Y-77202077D01*
X128742008Y-77053250D01*
X128765136Y-77006453D01*
X128765137Y-77006451D01*
X128767430Y-77001811D01*
X128832370Y-76788069D01*
X128861529Y-76566590D01*
X128863156Y-76500000D01*
X128844852Y-76277361D01*
X128790431Y-76060702D01*
X128701354Y-75855840D01*
X128627030Y-75740952D01*
X128602439Y-75702940D01*
X128582232Y-75634880D01*
X128602028Y-75566699D01*
X128655544Y-75520045D01*
X128708231Y-75508500D01*
X132950633Y-75508500D01*
X132970018Y-75510000D01*
X132984851Y-75512310D01*
X132984855Y-75512310D01*
X132993724Y-75513691D01*
X133008981Y-75511696D01*
X133034302Y-75510953D01*
X133203285Y-75523039D01*
X133221064Y-75525596D01*
X133410013Y-75566699D01*
X133411392Y-75566999D01*
X133428641Y-75572063D01*
X133611150Y-75640136D01*
X133627502Y-75647604D01*
X133798458Y-75740952D01*
X133813582Y-75750672D01*
X133969514Y-75867402D01*
X133983100Y-75879175D01*
X134120825Y-76016900D01*
X134132598Y-76030486D01*
X134249328Y-76186418D01*
X134259048Y-76201542D01*
X134352396Y-76372498D01*
X134359864Y-76388850D01*
X134427937Y-76571359D01*
X134433001Y-76588607D01*
X134474404Y-76778936D01*
X134476962Y-76796721D01*
X134488540Y-76958601D01*
X134487793Y-76976565D01*
X134487692Y-76984845D01*
X134486309Y-76993724D01*
X134487474Y-77002630D01*
X134490436Y-77025283D01*
X134491500Y-77041621D01*
X134491500Y-81950633D01*
X134490000Y-81970018D01*
X134487690Y-81984851D01*
X134487690Y-81984855D01*
X134486309Y-81993724D01*
X134487251Y-82000925D01*
X134487456Y-82004058D01*
X134487453Y-82004333D01*
X134487518Y-82004997D01*
X134504410Y-82262724D01*
X134505214Y-82266764D01*
X134505214Y-82266767D01*
X134550762Y-82495750D01*
X134555775Y-82520954D01*
X134640406Y-82770269D01*
X134695534Y-82882059D01*
X134748527Y-82989517D01*
X134756855Y-83006405D01*
X134903130Y-83225321D01*
X135076728Y-83423272D01*
X135274679Y-83596870D01*
X135493595Y-83743145D01*
X135497294Y-83744969D01*
X135497299Y-83744972D01*
X135617941Y-83804466D01*
X135729731Y-83859594D01*
X135733636Y-83860919D01*
X135733637Y-83860920D01*
X135975139Y-83942899D01*
X135975142Y-83942900D01*
X135979046Y-83944225D01*
X135983085Y-83945028D01*
X135983091Y-83945030D01*
X136233233Y-83994786D01*
X136233236Y-83994786D01*
X136237276Y-83995590D01*
X136241387Y-83995859D01*
X136241391Y-83995860D01*
X136465609Y-84010556D01*
X136478269Y-84012032D01*
X136481309Y-84012543D01*
X136487448Y-84013576D01*
X136493456Y-84013649D01*
X136493724Y-84013691D01*
X136493993Y-84013656D01*
X136500000Y-84013729D01*
X136508282Y-84012543D01*
X136537126Y-84011748D01*
X136661194Y-84022603D01*
X136682817Y-84026415D01*
X136828466Y-84065442D01*
X136849104Y-84072954D01*
X136985760Y-84136678D01*
X137004780Y-84147660D01*
X137128297Y-84234147D01*
X137145122Y-84248265D01*
X137251735Y-84354878D01*
X137265853Y-84371703D01*
X137352340Y-84495220D01*
X137363322Y-84514240D01*
X137427046Y-84650896D01*
X137434557Y-84671534D01*
X137473583Y-84817178D01*
X137477398Y-84838809D01*
X137487947Y-84959393D01*
X137487393Y-84975871D01*
X137487800Y-84975876D01*
X137487690Y-84984853D01*
X137486309Y-84993724D01*
X137487473Y-85002626D01*
X137487473Y-85002628D01*
X137490436Y-85025283D01*
X137491500Y-85041621D01*
X137491500Y-91312816D01*
X137471498Y-91380937D01*
X137417842Y-91427430D01*
X137347568Y-91437534D01*
X137293229Y-91416029D01*
X137266824Y-91397540D01*
X137216749Y-91362477D01*
X137211767Y-91360154D01*
X137211762Y-91360151D01*
X137014225Y-91268039D01*
X137014224Y-91268039D01*
X137009243Y-91265716D01*
X137003935Y-91264294D01*
X137003933Y-91264293D01*
X136793402Y-91207881D01*
X136793400Y-91207881D01*
X136788087Y-91206457D01*
X136688520Y-91197746D01*
X136619851Y-91191738D01*
X136619844Y-91191738D01*
X136617127Y-91191500D01*
X136102873Y-91191500D01*
X136100156Y-91191738D01*
X136100149Y-91191738D01*
X136031480Y-91197746D01*
X135931913Y-91206457D01*
X135926600Y-91207881D01*
X135926598Y-91207881D01*
X135716067Y-91264293D01*
X135716065Y-91264294D01*
X135710757Y-91265716D01*
X135705776Y-91268039D01*
X135705775Y-91268039D01*
X135508238Y-91360151D01*
X135508233Y-91360154D01*
X135503251Y-91362477D01*
X135453176Y-91397540D01*
X135320211Y-91490643D01*
X135320208Y-91490645D01*
X135315700Y-91493802D01*
X135153802Y-91655700D01*
X135022477Y-91843251D01*
X135020154Y-91848233D01*
X135020151Y-91848238D01*
X134928039Y-92045775D01*
X134925716Y-92050757D01*
X134866457Y-92271913D01*
X134846502Y-92500000D01*
X134866457Y-92728087D01*
X134925716Y-92949243D01*
X134928039Y-92954224D01*
X134928039Y-92954225D01*
X135020151Y-93151762D01*
X135020154Y-93151767D01*
X135022477Y-93156749D01*
X135153802Y-93344300D01*
X135315700Y-93506198D01*
X135320208Y-93509355D01*
X135320211Y-93509357D01*
X135380442Y-93551531D01*
X135503251Y-93637523D01*
X135508233Y-93639846D01*
X135508238Y-93639849D01*
X135542457Y-93655805D01*
X135595742Y-93702722D01*
X135615203Y-93770999D01*
X135594661Y-93838959D01*
X135542457Y-93884195D01*
X135508238Y-93900151D01*
X135508233Y-93900154D01*
X135503251Y-93902477D01*
X135442195Y-93945229D01*
X135320211Y-94030643D01*
X135320208Y-94030645D01*
X135315700Y-94033802D01*
X135153802Y-94195700D01*
X135022477Y-94383251D01*
X135020154Y-94388233D01*
X135020151Y-94388238D01*
X134928039Y-94585775D01*
X134925716Y-94590757D01*
X134866457Y-94811913D01*
X134846502Y-95040000D01*
X134866457Y-95268087D01*
X134925716Y-95489243D01*
X134928039Y-95494224D01*
X134928039Y-95494225D01*
X135020151Y-95691762D01*
X135020154Y-95691767D01*
X135022477Y-95696749D01*
X135153802Y-95884300D01*
X135315700Y-96046198D01*
X135320208Y-96049355D01*
X135320211Y-96049357D01*
X135368500Y-96083169D01*
X135503251Y-96177523D01*
X135508233Y-96179846D01*
X135508238Y-96179849D01*
X135542457Y-96195805D01*
X135595742Y-96242722D01*
X135615203Y-96310999D01*
X135594661Y-96378959D01*
X135542457Y-96424195D01*
X135508238Y-96440151D01*
X135508233Y-96440154D01*
X135503251Y-96442477D01*
X135426771Y-96496029D01*
X135320211Y-96570643D01*
X135320208Y-96570645D01*
X135315700Y-96573802D01*
X135153802Y-96735700D01*
X135022477Y-96923251D01*
X135020154Y-96928233D01*
X135020151Y-96928238D01*
X134977956Y-97018727D01*
X134925716Y-97130757D01*
X134924294Y-97136065D01*
X134924293Y-97136067D01*
X134895205Y-97244624D01*
X134866457Y-97351913D01*
X134846502Y-97580000D01*
X134866457Y-97808087D01*
X134925716Y-98029243D01*
X134928039Y-98034224D01*
X134928039Y-98034225D01*
X135020151Y-98231762D01*
X135020154Y-98231767D01*
X135022477Y-98236749D01*
X135153802Y-98424300D01*
X135315700Y-98586198D01*
X135320208Y-98589355D01*
X135320211Y-98589357D01*
X135342789Y-98605166D01*
X135503251Y-98717523D01*
X135508233Y-98719846D01*
X135508238Y-98719849D01*
X135542457Y-98735805D01*
X135595742Y-98782722D01*
X135615203Y-98850999D01*
X135594661Y-98918959D01*
X135542457Y-98964195D01*
X135508238Y-98980151D01*
X135508233Y-98980154D01*
X135503251Y-98982477D01*
X135426771Y-99036029D01*
X135320211Y-99110643D01*
X135320208Y-99110645D01*
X135315700Y-99113802D01*
X135153802Y-99275700D01*
X135022477Y-99463251D01*
X135020154Y-99468233D01*
X135020151Y-99468238D01*
X134928039Y-99665775D01*
X134925716Y-99670757D01*
X134924294Y-99676065D01*
X134924293Y-99676067D01*
X134871837Y-99871834D01*
X134866457Y-99891913D01*
X134846502Y-100120000D01*
X134866457Y-100348087D01*
X134925716Y-100569243D01*
X134928039Y-100574224D01*
X134928039Y-100574225D01*
X135020151Y-100771762D01*
X135020154Y-100771767D01*
X135022477Y-100776749D01*
X135153802Y-100964300D01*
X135315700Y-101126198D01*
X135320208Y-101129355D01*
X135320211Y-101129357D01*
X135368500Y-101163169D01*
X135503251Y-101257523D01*
X135508233Y-101259846D01*
X135508238Y-101259849D01*
X135542457Y-101275805D01*
X135595742Y-101322722D01*
X135615203Y-101390999D01*
X135594661Y-101458959D01*
X135542457Y-101504195D01*
X135508238Y-101520151D01*
X135508233Y-101520154D01*
X135503251Y-101522477D01*
X135426771Y-101576029D01*
X135320211Y-101650643D01*
X135320208Y-101650645D01*
X135315700Y-101653802D01*
X135153802Y-101815700D01*
X135022477Y-102003251D01*
X135020154Y-102008233D01*
X135020151Y-102008238D01*
X134928039Y-102205775D01*
X134925716Y-102210757D01*
X134866457Y-102431913D01*
X134846502Y-102660000D01*
X134866457Y-102888087D01*
X134925716Y-103109243D01*
X134928039Y-103114224D01*
X134928039Y-103114225D01*
X135020151Y-103311762D01*
X135020154Y-103311767D01*
X135022477Y-103316749D01*
X135153802Y-103504300D01*
X135315700Y-103666198D01*
X135320208Y-103669355D01*
X135320211Y-103669357D01*
X135368500Y-103703169D01*
X135503251Y-103797523D01*
X135508233Y-103799846D01*
X135508238Y-103799849D01*
X135542457Y-103815805D01*
X135595742Y-103862722D01*
X135615203Y-103930999D01*
X135594661Y-103998959D01*
X135542457Y-104044195D01*
X135508238Y-104060151D01*
X135508233Y-104060154D01*
X135503251Y-104062477D01*
X135426771Y-104116029D01*
X135320211Y-104190643D01*
X135320208Y-104190645D01*
X135315700Y-104193802D01*
X135153802Y-104355700D01*
X135022477Y-104543251D01*
X135020154Y-104548233D01*
X135020151Y-104548238D01*
X134928039Y-104745775D01*
X134925716Y-104750757D01*
X134866457Y-104971913D01*
X134846502Y-105200000D01*
X134866457Y-105428087D01*
X134925716Y-105649243D01*
X134928039Y-105654224D01*
X134928039Y-105654225D01*
X135020151Y-105851762D01*
X135020154Y-105851767D01*
X135022477Y-105856749D01*
X135153802Y-106044300D01*
X135315700Y-106206198D01*
X135320208Y-106209355D01*
X135320211Y-106209357D01*
X135368500Y-106243169D01*
X135503251Y-106337523D01*
X135508233Y-106339846D01*
X135508238Y-106339849D01*
X135543049Y-106356081D01*
X135596334Y-106402998D01*
X135615795Y-106471275D01*
X135595253Y-106539235D01*
X135543049Y-106584471D01*
X135508489Y-106600586D01*
X135498993Y-106606069D01*
X135320533Y-106731028D01*
X135312125Y-106738084D01*
X135158084Y-106892125D01*
X135151028Y-106900533D01*
X135026069Y-107078993D01*
X135020586Y-107088489D01*
X134928510Y-107285947D01*
X134924764Y-107296239D01*
X134878606Y-107468503D01*
X134878942Y-107482599D01*
X134886884Y-107486000D01*
X136488000Y-107486000D01*
X136556121Y-107506002D01*
X136602614Y-107559658D01*
X136614000Y-107612000D01*
X136614000Y-107868000D01*
X136593998Y-107936121D01*
X136540342Y-107982614D01*
X136488000Y-107994000D01*
X134892033Y-107994000D01*
X134878502Y-107997973D01*
X134877273Y-108006522D01*
X134924764Y-108183761D01*
X134928510Y-108194053D01*
X135020586Y-108391511D01*
X135026069Y-108401007D01*
X135151028Y-108579467D01*
X135158084Y-108587875D01*
X135312125Y-108741916D01*
X135320533Y-108748972D01*
X135498993Y-108873931D01*
X135508489Y-108879414D01*
X135543049Y-108895529D01*
X135596334Y-108942446D01*
X135615795Y-109010723D01*
X135595253Y-109078683D01*
X135543049Y-109123919D01*
X135508238Y-109140151D01*
X135508233Y-109140154D01*
X135503251Y-109142477D01*
X135426771Y-109196029D01*
X135320211Y-109270643D01*
X135320208Y-109270645D01*
X135315700Y-109273802D01*
X135229907Y-109359595D01*
X135167595Y-109393621D01*
X135140812Y-109396500D01*
X134549457Y-109396500D01*
X134529745Y-109394949D01*
X134523008Y-109393882D01*
X134523009Y-109393882D01*
X134516493Y-109392850D01*
X134509906Y-109393195D01*
X134509902Y-109393195D01*
X134450150Y-109396327D01*
X134443555Y-109396500D01*
X134423694Y-109396500D01*
X134403931Y-109398577D01*
X134397372Y-109399093D01*
X134381573Y-109399921D01*
X134337623Y-109402224D01*
X134337619Y-109402225D01*
X134331029Y-109402570D01*
X134318071Y-109406042D01*
X134298628Y-109409645D01*
X134285298Y-109411046D01*
X134222106Y-109431578D01*
X134215804Y-109433444D01*
X134162328Y-109447773D01*
X134151637Y-109450638D01*
X134145758Y-109453634D01*
X134145749Y-109453637D01*
X134139683Y-109456728D01*
X134121421Y-109464292D01*
X134114958Y-109466392D01*
X134114953Y-109466394D01*
X134108669Y-109468436D01*
X134051119Y-109501663D01*
X134045366Y-109504786D01*
X133986161Y-109534952D01*
X133981027Y-109539109D01*
X133981026Y-109539110D01*
X133975737Y-109543393D01*
X133959449Y-109554588D01*
X133947831Y-109561296D01*
X133942925Y-109565713D01*
X133942920Y-109565717D01*
X133898462Y-109605747D01*
X133893447Y-109610031D01*
X133885369Y-109616573D01*
X133878015Y-109622528D01*
X133863979Y-109636564D01*
X133859194Y-109641105D01*
X133809815Y-109685566D01*
X133805935Y-109690906D01*
X133805928Y-109690914D01*
X133801927Y-109696422D01*
X133789086Y-109711457D01*
X132170947Y-111329595D01*
X132108635Y-111363621D01*
X132081852Y-111366500D01*
X127509500Y-111366500D01*
X127441379Y-111346498D01*
X127394886Y-111292842D01*
X127383500Y-111240500D01*
X127383500Y-99238640D01*
X128186463Y-99238640D01*
X128204163Y-99419160D01*
X128261418Y-99591273D01*
X128265065Y-99597295D01*
X128265066Y-99597297D01*
X128312771Y-99676067D01*
X128355380Y-99746424D01*
X128481382Y-99876902D01*
X128633159Y-99976222D01*
X128639763Y-99978678D01*
X128639765Y-99978679D01*
X128796558Y-100036990D01*
X128796560Y-100036990D01*
X128803168Y-100039448D01*
X128886995Y-100050633D01*
X128975980Y-100062507D01*
X128975984Y-100062507D01*
X128982961Y-100063438D01*
X128989972Y-100062800D01*
X128989976Y-100062800D01*
X129132459Y-100049832D01*
X129163600Y-100046998D01*
X129170302Y-100044820D01*
X129170304Y-100044820D01*
X129263105Y-100014667D01*
X129302041Y-100008500D01*
X131432930Y-100008500D01*
X131451880Y-100009933D01*
X131466115Y-100012099D01*
X131466119Y-100012099D01*
X131473349Y-100013199D01*
X131480641Y-100012606D01*
X131480644Y-100012606D01*
X131526018Y-100008915D01*
X131536233Y-100008500D01*
X131544293Y-100008500D01*
X131557583Y-100006951D01*
X131572507Y-100005211D01*
X131576882Y-100004778D01*
X131642339Y-99999454D01*
X131642342Y-99999453D01*
X131649637Y-99998860D01*
X131656601Y-99996604D01*
X131662560Y-99995413D01*
X131668415Y-99994029D01*
X131675681Y-99993182D01*
X131744327Y-99968265D01*
X131748455Y-99966848D01*
X131810936Y-99946607D01*
X131810938Y-99946606D01*
X131817899Y-99944351D01*
X131824154Y-99940555D01*
X131829628Y-99938049D01*
X131835058Y-99935330D01*
X131841937Y-99932833D01*
X131902976Y-99892814D01*
X131906680Y-99890477D01*
X131969107Y-99852595D01*
X131977484Y-99845197D01*
X131977508Y-99845224D01*
X131980500Y-99842571D01*
X131983733Y-99839868D01*
X131989852Y-99835856D01*
X132043128Y-99779617D01*
X132045506Y-99777175D01*
X133314179Y-98508502D01*
X133338753Y-98489370D01*
X133491912Y-98398069D01*
X133623266Y-98272982D01*
X133723643Y-98121902D01*
X133788055Y-97952338D01*
X133813299Y-97772717D01*
X133813616Y-97750000D01*
X133793397Y-97569745D01*
X133791080Y-97563091D01*
X133736064Y-97405106D01*
X133736062Y-97405103D01*
X133733745Y-97398448D01*
X133637626Y-97244624D01*
X133623941Y-97230843D01*
X133514778Y-97120915D01*
X133514774Y-97120912D01*
X133509815Y-97115918D01*
X133498697Y-97108862D01*
X133450538Y-97078300D01*
X133356666Y-97018727D01*
X133327463Y-97008328D01*
X133192425Y-96960243D01*
X133192420Y-96960242D01*
X133185790Y-96957881D01*
X133178802Y-96957048D01*
X133178799Y-96957047D01*
X133055698Y-96942368D01*
X133005680Y-96936404D01*
X132998677Y-96937140D01*
X132998676Y-96937140D01*
X132832288Y-96954628D01*
X132832286Y-96954629D01*
X132825288Y-96955364D01*
X132653579Y-97013818D01*
X132647575Y-97017512D01*
X132505095Y-97105166D01*
X132505092Y-97105168D01*
X132499088Y-97108862D01*
X132494053Y-97113793D01*
X132494050Y-97113795D01*
X132471307Y-97136067D01*
X132369493Y-97235771D01*
X132271235Y-97388238D01*
X132268825Y-97394860D01*
X132265692Y-97401170D01*
X132264021Y-97400340D01*
X132241269Y-97436050D01*
X131222724Y-98454595D01*
X131160412Y-98488621D01*
X131133629Y-98491500D01*
X129301966Y-98491500D01*
X129259699Y-98484199D01*
X129192424Y-98460243D01*
X129192422Y-98460242D01*
X129185790Y-98457881D01*
X129178802Y-98457048D01*
X129178799Y-98457047D01*
X129055698Y-98442368D01*
X129005680Y-98436404D01*
X128998677Y-98437140D01*
X128998676Y-98437140D01*
X128832288Y-98454628D01*
X128832286Y-98454629D01*
X128825288Y-98455364D01*
X128653579Y-98513818D01*
X128647575Y-98517512D01*
X128505095Y-98605166D01*
X128505092Y-98605168D01*
X128499088Y-98608862D01*
X128494053Y-98613793D01*
X128494050Y-98613795D01*
X128395464Y-98710338D01*
X128369493Y-98735771D01*
X128271235Y-98888238D01*
X128268826Y-98894858D01*
X128268824Y-98894861D01*
X128211606Y-99052066D01*
X128209197Y-99058685D01*
X128186463Y-99238640D01*
X127383500Y-99238640D01*
X127383500Y-87740790D01*
X127389667Y-87701854D01*
X127391502Y-87696206D01*
X127393542Y-87689928D01*
X127413504Y-87500000D01*
X127393542Y-87310072D01*
X127334527Y-87128444D01*
X127239040Y-86963056D01*
X127111253Y-86821134D01*
X126956752Y-86708882D01*
X126950724Y-86706198D01*
X126950722Y-86706197D01*
X126788319Y-86633891D01*
X126788318Y-86633891D01*
X126782288Y-86631206D01*
X126688887Y-86611353D01*
X126601944Y-86592872D01*
X126601939Y-86592872D01*
X126595487Y-86591500D01*
X126404513Y-86591500D01*
X126398061Y-86592872D01*
X126398056Y-86592872D01*
X126311113Y-86611353D01*
X126217712Y-86631206D01*
X126211682Y-86633891D01*
X126211681Y-86633891D01*
X126049278Y-86706197D01*
X126049276Y-86706198D01*
X126043248Y-86708882D01*
X125888747Y-86821134D01*
X125760960Y-86963056D01*
X125665473Y-87128444D01*
X125606458Y-87310072D01*
X125586496Y-87500000D01*
X125606458Y-87689928D01*
X125608498Y-87696206D01*
X125610333Y-87701854D01*
X125616500Y-87740790D01*
X125616500Y-108418527D01*
X125596498Y-108486648D01*
X125542842Y-108533141D01*
X125472568Y-108543245D01*
X125407988Y-108513751D01*
X125401094Y-108507311D01*
X125389778Y-108495915D01*
X125389774Y-108495912D01*
X125384815Y-108490918D01*
X125373697Y-108483862D01*
X125273923Y-108420544D01*
X125231666Y-108393727D01*
X125202463Y-108383328D01*
X125067425Y-108335243D01*
X125067420Y-108335242D01*
X125060790Y-108332881D01*
X125053802Y-108332048D01*
X125053799Y-108332047D01*
X124930698Y-108317368D01*
X124880680Y-108311404D01*
X124873677Y-108312140D01*
X124873676Y-108312140D01*
X124707288Y-108329628D01*
X124707286Y-108329629D01*
X124700288Y-108330364D01*
X124528579Y-108388818D01*
X124508360Y-108401257D01*
X124380095Y-108480166D01*
X124380092Y-108480168D01*
X124374088Y-108483862D01*
X124369053Y-108488793D01*
X124369050Y-108488795D01*
X124249525Y-108605843D01*
X124244493Y-108610771D01*
X124146235Y-108763238D01*
X124143826Y-108769858D01*
X124143824Y-108769861D01*
X124086606Y-108927066D01*
X124084197Y-108933685D01*
X124061463Y-109113640D01*
X124079163Y-109294160D01*
X124081387Y-109300845D01*
X124110058Y-109387033D01*
X124116500Y-109426805D01*
X124116500Y-112758629D01*
X124096498Y-112826750D01*
X124079595Y-112847724D01*
X121686231Y-115241088D01*
X121654186Y-115263611D01*
X121653579Y-115263818D01*
X121647577Y-115267511D01*
X121647576Y-115267511D01*
X121505095Y-115355166D01*
X121505092Y-115355168D01*
X121499088Y-115358862D01*
X121494053Y-115363793D01*
X121494050Y-115363795D01*
X121374525Y-115480843D01*
X121369493Y-115485771D01*
X121271235Y-115638238D01*
X121209197Y-115808685D01*
X121186463Y-115988640D01*
X121204163Y-116169160D01*
X121261418Y-116341273D01*
X121265065Y-116347295D01*
X121265066Y-116347297D01*
X121275975Y-116365309D01*
X121355380Y-116496424D01*
X121481382Y-116626902D01*
X121633159Y-116726222D01*
X121639763Y-116728678D01*
X121639765Y-116728679D01*
X121796558Y-116786990D01*
X121796560Y-116786990D01*
X121803168Y-116789448D01*
X121886995Y-116800633D01*
X121975980Y-116812507D01*
X121975984Y-116812507D01*
X121982961Y-116813438D01*
X121989972Y-116812800D01*
X121989976Y-116812800D01*
X122132459Y-116799832D01*
X122163600Y-116796998D01*
X122170302Y-116794820D01*
X122170304Y-116794820D01*
X122329409Y-116743124D01*
X122329412Y-116743123D01*
X122336108Y-116740947D01*
X122491912Y-116648069D01*
X122623266Y-116522982D01*
X122723643Y-116371902D01*
X122726143Y-116365320D01*
X122726149Y-116365309D01*
X122728059Y-116360280D01*
X122756751Y-116315930D01*
X125363911Y-113708770D01*
X125378323Y-113696384D01*
X125389918Y-113687851D01*
X125389923Y-113687846D01*
X125395818Y-113683508D01*
X125400557Y-113677930D01*
X125400560Y-113677927D01*
X125430035Y-113643232D01*
X125436965Y-113635716D01*
X125442660Y-113630021D01*
X125460281Y-113607749D01*
X125463072Y-113604345D01*
X125505591Y-113554297D01*
X125505592Y-113554295D01*
X125510333Y-113548715D01*
X125513661Y-113542199D01*
X125517028Y-113537150D01*
X125520195Y-113532021D01*
X125524734Y-113526284D01*
X125555655Y-113460125D01*
X125557561Y-113456225D01*
X125590769Y-113391192D01*
X125592508Y-113384084D01*
X125594607Y-113378441D01*
X125596524Y-113372678D01*
X125599622Y-113366050D01*
X125614487Y-113294583D01*
X125615457Y-113290299D01*
X125631473Y-113224845D01*
X125632808Y-113219390D01*
X125633500Y-113208236D01*
X125633536Y-113208238D01*
X125633775Y-113204245D01*
X125634149Y-113200053D01*
X125635640Y-113192885D01*
X125633546Y-113115479D01*
X125633500Y-113112072D01*
X125633500Y-112998766D01*
X125653502Y-112930645D01*
X125707158Y-112884152D01*
X125777432Y-112874048D01*
X125842012Y-112903542D01*
X125853132Y-112914451D01*
X125905566Y-112972685D01*
X125910908Y-112976566D01*
X125910910Y-112976568D01*
X126050474Y-113077967D01*
X126055816Y-113081848D01*
X126061844Y-113084532D01*
X126061846Y-113084533D01*
X126177708Y-113136118D01*
X126225479Y-113157387D01*
X126316309Y-113176693D01*
X126400683Y-113194628D01*
X126400687Y-113194628D01*
X126407140Y-113196000D01*
X126592860Y-113196000D01*
X126599313Y-113194628D01*
X126599317Y-113194628D01*
X126683690Y-113176694D01*
X126774521Y-113157387D01*
X126803706Y-113144393D01*
X126854955Y-113133500D01*
X132420543Y-113133500D01*
X132440255Y-113135051D01*
X132453507Y-113137150D01*
X132460094Y-113136805D01*
X132460098Y-113136805D01*
X132519850Y-113133673D01*
X132526445Y-113133500D01*
X132546306Y-113133500D01*
X132566069Y-113131423D01*
X132572628Y-113130907D01*
X132588427Y-113130079D01*
X132632377Y-113127776D01*
X132632381Y-113127775D01*
X132638971Y-113127430D01*
X132651929Y-113123958D01*
X132671372Y-113120355D01*
X132671795Y-113120311D01*
X132684702Y-113118954D01*
X132747894Y-113098422D01*
X132754196Y-113096556D01*
X132811985Y-113081071D01*
X132818363Y-113079362D01*
X132824242Y-113076366D01*
X132824251Y-113076363D01*
X132830317Y-113073272D01*
X132848579Y-113065708D01*
X132855043Y-113063608D01*
X132855051Y-113063605D01*
X132861331Y-113061564D01*
X132867050Y-113058262D01*
X132867055Y-113058260D01*
X132918867Y-113028346D01*
X132924637Y-113025213D01*
X132983839Y-112995047D01*
X132994259Y-112986609D01*
X133010552Y-112975411D01*
X133010903Y-112975209D01*
X133022169Y-112968704D01*
X133027075Y-112964287D01*
X133027080Y-112964283D01*
X133071538Y-112924253D01*
X133076554Y-112919969D01*
X133089409Y-112909559D01*
X133089412Y-112909556D01*
X133091986Y-112907472D01*
X133106031Y-112893427D01*
X133110816Y-112888886D01*
X133155274Y-112848856D01*
X133155275Y-112848855D01*
X133160185Y-112844434D01*
X133168075Y-112833574D01*
X133180912Y-112818546D01*
X134799052Y-111200405D01*
X134861364Y-111166380D01*
X134888147Y-111163500D01*
X135140812Y-111163500D01*
X135208933Y-111183502D01*
X135229907Y-111200405D01*
X135315700Y-111286198D01*
X135320208Y-111289355D01*
X135320211Y-111289357D01*
X135368500Y-111323169D01*
X135503251Y-111417523D01*
X135508233Y-111419846D01*
X135508238Y-111419849D01*
X135646556Y-111484347D01*
X135710757Y-111514284D01*
X135716065Y-111515706D01*
X135716067Y-111515707D01*
X135926598Y-111572119D01*
X135926600Y-111572119D01*
X135931913Y-111573543D01*
X136031480Y-111582254D01*
X136100149Y-111588262D01*
X136100156Y-111588262D01*
X136102873Y-111588500D01*
X136617127Y-111588500D01*
X136619844Y-111588262D01*
X136619851Y-111588262D01*
X136688520Y-111582254D01*
X136788087Y-111573543D01*
X136793400Y-111572119D01*
X136793402Y-111572119D01*
X137003933Y-111515707D01*
X137003935Y-111515706D01*
X137009243Y-111514284D01*
X137073444Y-111484347D01*
X137211762Y-111419849D01*
X137211767Y-111419846D01*
X137216749Y-111417523D01*
X137293229Y-111363971D01*
X137360503Y-111341283D01*
X137429364Y-111358568D01*
X137477948Y-111410338D01*
X137491500Y-111467184D01*
X137491500Y-132200633D01*
X137490000Y-132220018D01*
X137487690Y-132234851D01*
X137487690Y-132234855D01*
X137486309Y-132243724D01*
X137488136Y-132257693D01*
X137488304Y-132258976D01*
X137489047Y-132284305D01*
X137476962Y-132453279D01*
X137474404Y-132471064D01*
X137456598Y-132552919D01*
X137433001Y-132661392D01*
X137427937Y-132678641D01*
X137359864Y-132861150D01*
X137352396Y-132877502D01*
X137259048Y-133048458D01*
X137249328Y-133063582D01*
X137132598Y-133219514D01*
X137120825Y-133233100D01*
X136983100Y-133370825D01*
X136969514Y-133382598D01*
X136813582Y-133499328D01*
X136798458Y-133509048D01*
X136627502Y-133602396D01*
X136611150Y-133609864D01*
X136428641Y-133677937D01*
X136411393Y-133683001D01*
X136221064Y-133724404D01*
X136203285Y-133726961D01*
X136041395Y-133738540D01*
X136023435Y-133737793D01*
X136015155Y-133737692D01*
X136006276Y-133736309D01*
X135974714Y-133740436D01*
X135958379Y-133741500D01*
X114049367Y-133741500D01*
X114029982Y-133740000D01*
X114015149Y-133737690D01*
X114015145Y-133737690D01*
X114006276Y-133736309D01*
X113991019Y-133738304D01*
X113965698Y-133739047D01*
X113796715Y-133726961D01*
X113778936Y-133724404D01*
X113588607Y-133683001D01*
X113571359Y-133677937D01*
X113388850Y-133609864D01*
X113372498Y-133602396D01*
X113201542Y-133509048D01*
X113186418Y-133499328D01*
X113030486Y-133382598D01*
X113016900Y-133370825D01*
X112879175Y-133233100D01*
X112867402Y-133219514D01*
X112750672Y-133063582D01*
X112740952Y-133048458D01*
X112647604Y-132877502D01*
X112640136Y-132861150D01*
X112572063Y-132678641D01*
X112566999Y-132661392D01*
X112543402Y-132552919D01*
X112525596Y-132471064D01*
X112523038Y-132453278D01*
X112511719Y-132295012D01*
X112512805Y-132272245D01*
X112512334Y-132272203D01*
X112512770Y-132267345D01*
X112513576Y-132262552D01*
X112513729Y-132250000D01*
X112509773Y-132222376D01*
X112508500Y-132204514D01*
X112508500Y-111552468D01*
X112528502Y-111484347D01*
X112582158Y-111437854D01*
X112652432Y-111427750D01*
X112687749Y-111438273D01*
X112850757Y-111514284D01*
X112856065Y-111515706D01*
X112856067Y-111515707D01*
X113066598Y-111572119D01*
X113066600Y-111572119D01*
X113071913Y-111573543D01*
X113171480Y-111582254D01*
X113240149Y-111588262D01*
X113240156Y-111588262D01*
X113242873Y-111588500D01*
X113757127Y-111588500D01*
X113759844Y-111588262D01*
X113759851Y-111588262D01*
X113828520Y-111582254D01*
X113928087Y-111573543D01*
X113933400Y-111572119D01*
X113933402Y-111572119D01*
X114143933Y-111515707D01*
X114143935Y-111515706D01*
X114149243Y-111514284D01*
X114213444Y-111484347D01*
X114351762Y-111419849D01*
X114351767Y-111419846D01*
X114356749Y-111417523D01*
X114491500Y-111323169D01*
X114539789Y-111289357D01*
X114539792Y-111289355D01*
X114544300Y-111286198D01*
X114630093Y-111200405D01*
X114692405Y-111166379D01*
X114719188Y-111163500D01*
X117640543Y-111163500D01*
X117660255Y-111165051D01*
X117673507Y-111167150D01*
X117680094Y-111166805D01*
X117680098Y-111166805D01*
X117739850Y-111163673D01*
X117746445Y-111163500D01*
X117766306Y-111163500D01*
X117786069Y-111161423D01*
X117792628Y-111160907D01*
X117808427Y-111160079D01*
X117852377Y-111157776D01*
X117852381Y-111157775D01*
X117858971Y-111157430D01*
X117871929Y-111153958D01*
X117891372Y-111150355D01*
X117891795Y-111150311D01*
X117904702Y-111148954D01*
X117967894Y-111128422D01*
X117974196Y-111126556D01*
X118031985Y-111111071D01*
X118038363Y-111109362D01*
X118044242Y-111106366D01*
X118044251Y-111106363D01*
X118050317Y-111103272D01*
X118068579Y-111095708D01*
X118075043Y-111093608D01*
X118075051Y-111093605D01*
X118081331Y-111091564D01*
X118087050Y-111088262D01*
X118087055Y-111088260D01*
X118138867Y-111058346D01*
X118144637Y-111055213D01*
X118203839Y-111025047D01*
X118214259Y-111016609D01*
X118230552Y-111005411D01*
X118230903Y-111005209D01*
X118242169Y-110998704D01*
X118247075Y-110994287D01*
X118247080Y-110994283D01*
X118291538Y-110954253D01*
X118296554Y-110949969D01*
X118309409Y-110939559D01*
X118309412Y-110939556D01*
X118311986Y-110937472D01*
X118326031Y-110923427D01*
X118330816Y-110918886D01*
X118375274Y-110878856D01*
X118375275Y-110878855D01*
X118380185Y-110874434D01*
X118388075Y-110863574D01*
X118400912Y-110848546D01*
X118401405Y-110848053D01*
X118463717Y-110814027D01*
X118534532Y-110819092D01*
X118591368Y-110861639D01*
X118616179Y-110928159D01*
X118616500Y-110937148D01*
X118616500Y-112358806D01*
X118631046Y-112497202D01*
X118688436Y-112673831D01*
X118781296Y-112834669D01*
X118785714Y-112839576D01*
X118785715Y-112839577D01*
X118858100Y-112919969D01*
X118905566Y-112972685D01*
X118910908Y-112976566D01*
X118910910Y-112976568D01*
X119050474Y-113077967D01*
X119055816Y-113081848D01*
X119061844Y-113084532D01*
X119061846Y-113084533D01*
X119177708Y-113136118D01*
X119225479Y-113157387D01*
X119316309Y-113176693D01*
X119400683Y-113194628D01*
X119400687Y-113194628D01*
X119407140Y-113196000D01*
X119592860Y-113196000D01*
X119599313Y-113194628D01*
X119599317Y-113194628D01*
X119683690Y-113176694D01*
X119774521Y-113157387D01*
X119822292Y-113136118D01*
X119938153Y-113084533D01*
X119938155Y-113084532D01*
X119944183Y-113081848D01*
X119966398Y-113065708D01*
X120089090Y-112976568D01*
X120089092Y-112976566D01*
X120094434Y-112972685D01*
X120141900Y-112919969D01*
X120214285Y-112839577D01*
X120214286Y-112839576D01*
X120218704Y-112834669D01*
X120311564Y-112673831D01*
X120368954Y-112497202D01*
X120383500Y-112358806D01*
X120383500Y-108526445D01*
X120383673Y-108519850D01*
X120386805Y-108460098D01*
X120386805Y-108460094D01*
X120387150Y-108453507D01*
X120385051Y-108440253D01*
X120383500Y-108420544D01*
X120383500Y-92203694D01*
X120368954Y-92065298D01*
X120364230Y-92050757D01*
X120313606Y-91894954D01*
X120311564Y-91888669D01*
X120218704Y-91727831D01*
X120094434Y-91589815D01*
X119962284Y-91493802D01*
X119949526Y-91484533D01*
X119949525Y-91484532D01*
X119944184Y-91480652D01*
X119938156Y-91477968D01*
X119938154Y-91477967D01*
X119780552Y-91407798D01*
X119780551Y-91407798D01*
X119774521Y-91405113D01*
X119667123Y-91382285D01*
X119599317Y-91367872D01*
X119599313Y-91367872D01*
X119592860Y-91366500D01*
X119407140Y-91366500D01*
X119400687Y-91367872D01*
X119400683Y-91367872D01*
X119332877Y-91382285D01*
X119225479Y-91405113D01*
X119219450Y-91407797D01*
X119219448Y-91407798D01*
X119061847Y-91477967D01*
X119061845Y-91477968D01*
X119055817Y-91480652D01*
X119050476Y-91484532D01*
X119050475Y-91484533D01*
X118910910Y-91585932D01*
X118910908Y-91585934D01*
X118905566Y-91589815D01*
X118781296Y-91727831D01*
X118688436Y-91888669D01*
X118686394Y-91894954D01*
X118635771Y-92050757D01*
X118631046Y-92065298D01*
X118616500Y-92203694D01*
X118616500Y-108081852D01*
X118596498Y-108149973D01*
X118579595Y-108170947D01*
X117390947Y-109359595D01*
X117328635Y-109393621D01*
X117301852Y-109396500D01*
X114719188Y-109396500D01*
X114651067Y-109376498D01*
X114630093Y-109359595D01*
X114544300Y-109273802D01*
X114539792Y-109270645D01*
X114539789Y-109270643D01*
X114433229Y-109196029D01*
X114356749Y-109142477D01*
X114351767Y-109140154D01*
X114351762Y-109140151D01*
X114317543Y-109124195D01*
X114264258Y-109077278D01*
X114244797Y-109009001D01*
X114265339Y-108941041D01*
X114317543Y-108895805D01*
X114351762Y-108879849D01*
X114351767Y-108879846D01*
X114356749Y-108877523D01*
X114510506Y-108769861D01*
X114539789Y-108749357D01*
X114539792Y-108749355D01*
X114544300Y-108746198D01*
X114706198Y-108584300D01*
X114837523Y-108396749D01*
X114839846Y-108391767D01*
X114839849Y-108391762D01*
X114931961Y-108194225D01*
X114931961Y-108194224D01*
X114934284Y-108189243D01*
X114939187Y-108170947D01*
X114992119Y-107973402D01*
X114992119Y-107973400D01*
X114993543Y-107968087D01*
X115013498Y-107740000D01*
X114993543Y-107511913D01*
X114934284Y-107290757D01*
X114839966Y-107088489D01*
X114839849Y-107088238D01*
X114839846Y-107088233D01*
X114837523Y-107083251D01*
X114706198Y-106895700D01*
X114544300Y-106733802D01*
X114539792Y-106730645D01*
X114539789Y-106730643D01*
X114450384Y-106668041D01*
X114356749Y-106602477D01*
X114351767Y-106600154D01*
X114351762Y-106600151D01*
X114317543Y-106584195D01*
X114264258Y-106537278D01*
X114244797Y-106469001D01*
X114265339Y-106401041D01*
X114317543Y-106355805D01*
X114351762Y-106339849D01*
X114351767Y-106339846D01*
X114356749Y-106337523D01*
X114491500Y-106243169D01*
X114539789Y-106209357D01*
X114539792Y-106209355D01*
X114544300Y-106206198D01*
X114706198Y-106044300D01*
X114837523Y-105856749D01*
X114839846Y-105851767D01*
X114839849Y-105851762D01*
X114931961Y-105654225D01*
X114931961Y-105654224D01*
X114934284Y-105649243D01*
X114993543Y-105428087D01*
X115013498Y-105200000D01*
X114993543Y-104971913D01*
X114934284Y-104750757D01*
X114931961Y-104745775D01*
X114839849Y-104548238D01*
X114839846Y-104548233D01*
X114837523Y-104543251D01*
X114706198Y-104355700D01*
X114544300Y-104193802D01*
X114539792Y-104190645D01*
X114539789Y-104190643D01*
X114433229Y-104116029D01*
X114356749Y-104062477D01*
X114351767Y-104060154D01*
X114351762Y-104060151D01*
X114317543Y-104044195D01*
X114264258Y-103997278D01*
X114244797Y-103929001D01*
X114265339Y-103861041D01*
X114317543Y-103815805D01*
X114351762Y-103799849D01*
X114351767Y-103799846D01*
X114356749Y-103797523D01*
X114491500Y-103703169D01*
X114539789Y-103669357D01*
X114539792Y-103669355D01*
X114544300Y-103666198D01*
X114706198Y-103504300D01*
X114837523Y-103316749D01*
X114839846Y-103311767D01*
X114839849Y-103311762D01*
X114931961Y-103114225D01*
X114931961Y-103114224D01*
X114934284Y-103109243D01*
X114993543Y-102888087D01*
X115013498Y-102660000D01*
X114993543Y-102431913D01*
X114934284Y-102210757D01*
X114931961Y-102205775D01*
X114839849Y-102008238D01*
X114839846Y-102008233D01*
X114837523Y-102003251D01*
X114706198Y-101815700D01*
X114544300Y-101653802D01*
X114539792Y-101650645D01*
X114539789Y-101650643D01*
X114433229Y-101576029D01*
X114356749Y-101522477D01*
X114351767Y-101520154D01*
X114351762Y-101520151D01*
X114317543Y-101504195D01*
X114264258Y-101457278D01*
X114244797Y-101389001D01*
X114265339Y-101321041D01*
X114317543Y-101275805D01*
X114351762Y-101259849D01*
X114351767Y-101259846D01*
X114356749Y-101257523D01*
X114491500Y-101163169D01*
X114539789Y-101129357D01*
X114539792Y-101129355D01*
X114544300Y-101126198D01*
X114706198Y-100964300D01*
X114837523Y-100776749D01*
X114839846Y-100771767D01*
X114839849Y-100771762D01*
X114931961Y-100574225D01*
X114931961Y-100574224D01*
X114934284Y-100569243D01*
X114993543Y-100348087D01*
X115013498Y-100120000D01*
X114993543Y-99891913D01*
X114988163Y-99871834D01*
X114935707Y-99676067D01*
X114935706Y-99676065D01*
X114934284Y-99670757D01*
X114931961Y-99665775D01*
X114839849Y-99468238D01*
X114839846Y-99468233D01*
X114837523Y-99463251D01*
X114706198Y-99275700D01*
X114544300Y-99113802D01*
X114539792Y-99110645D01*
X114539789Y-99110643D01*
X114433229Y-99036029D01*
X114356749Y-98982477D01*
X114351767Y-98980154D01*
X114351762Y-98980151D01*
X114317543Y-98964195D01*
X114264258Y-98917278D01*
X114244797Y-98849001D01*
X114265339Y-98781041D01*
X114317543Y-98735805D01*
X114351762Y-98719849D01*
X114351767Y-98719846D01*
X114356749Y-98717523D01*
X114517211Y-98605166D01*
X114539789Y-98589357D01*
X114539792Y-98589355D01*
X114544300Y-98586198D01*
X114706198Y-98424300D01*
X114837523Y-98236749D01*
X114839846Y-98231767D01*
X114839849Y-98231762D01*
X114931961Y-98034225D01*
X114931961Y-98034224D01*
X114934284Y-98029243D01*
X114993543Y-97808087D01*
X115013498Y-97580000D01*
X114993543Y-97351913D01*
X114964795Y-97244624D01*
X114935707Y-97136067D01*
X114935706Y-97136065D01*
X114934284Y-97130757D01*
X114882044Y-97018727D01*
X114839849Y-96928238D01*
X114839846Y-96928233D01*
X114837523Y-96923251D01*
X114706198Y-96735700D01*
X114544300Y-96573802D01*
X114539792Y-96570645D01*
X114539789Y-96570643D01*
X114433229Y-96496029D01*
X114356749Y-96442477D01*
X114351767Y-96440154D01*
X114351762Y-96440151D01*
X114317543Y-96424195D01*
X114264258Y-96377278D01*
X114244797Y-96309001D01*
X114265339Y-96241041D01*
X114317543Y-96195805D01*
X114351762Y-96179849D01*
X114351767Y-96179846D01*
X114356749Y-96177523D01*
X114491500Y-96083169D01*
X114539789Y-96049357D01*
X114539792Y-96049355D01*
X114544300Y-96046198D01*
X114706198Y-95884300D01*
X114837523Y-95696749D01*
X114839846Y-95691767D01*
X114839849Y-95691762D01*
X114931961Y-95494225D01*
X114931961Y-95494224D01*
X114934284Y-95489243D01*
X114993543Y-95268087D01*
X115013498Y-95040000D01*
X114993543Y-94811913D01*
X114934284Y-94590757D01*
X114931961Y-94585775D01*
X114839849Y-94388238D01*
X114839846Y-94388233D01*
X114837523Y-94383251D01*
X114706198Y-94195700D01*
X114677365Y-94166867D01*
X114643339Y-94104555D01*
X114648404Y-94033740D01*
X114690951Y-93976904D01*
X114722232Y-93959790D01*
X114738293Y-93953769D01*
X114738296Y-93953767D01*
X114746705Y-93950615D01*
X114863261Y-93863261D01*
X114950615Y-93746705D01*
X115001745Y-93610316D01*
X115008500Y-93548134D01*
X115008500Y-91451866D01*
X115001745Y-91389684D01*
X114950615Y-91253295D01*
X114863261Y-91136739D01*
X114746705Y-91049385D01*
X114610316Y-90998255D01*
X114548134Y-90991500D01*
X112634500Y-90991500D01*
X112566379Y-90971498D01*
X112519886Y-90917842D01*
X112508500Y-90865500D01*
X112508500Y-85053250D01*
X112510246Y-85032345D01*
X112512770Y-85017344D01*
X112512770Y-85017341D01*
X112513576Y-85012552D01*
X112513729Y-85000000D01*
X112512542Y-84991709D01*
X112511748Y-84962870D01*
X112512053Y-84959393D01*
X112522603Y-84838804D01*
X112526417Y-84817178D01*
X112565443Y-84671534D01*
X112572954Y-84650896D01*
X112636678Y-84514240D01*
X112647660Y-84495220D01*
X112734147Y-84371703D01*
X112748265Y-84354878D01*
X112854878Y-84248265D01*
X112871703Y-84234147D01*
X112995220Y-84147660D01*
X113014240Y-84136678D01*
X113150896Y-84072954D01*
X113171534Y-84065443D01*
X113317178Y-84026417D01*
X113338806Y-84022603D01*
X113414260Y-84016001D01*
X113456007Y-84012349D01*
X113478239Y-84012373D01*
X113482648Y-84012768D01*
X113487448Y-84013576D01*
X113493456Y-84013649D01*
X113493724Y-84013691D01*
X113493993Y-84013656D01*
X113500000Y-84013729D01*
X113507054Y-84012718D01*
X113516665Y-84011717D01*
X113579355Y-84007608D01*
X113758609Y-83995860D01*
X113758613Y-83995859D01*
X113762724Y-83995590D01*
X113766764Y-83994786D01*
X113766767Y-83994786D01*
X114016909Y-83945030D01*
X114016915Y-83945028D01*
X114020954Y-83944225D01*
X114024858Y-83942900D01*
X114024861Y-83942899D01*
X114266363Y-83860920D01*
X114266364Y-83860919D01*
X114270269Y-83859594D01*
X114382059Y-83804466D01*
X114502701Y-83744972D01*
X114502706Y-83744969D01*
X114506405Y-83743145D01*
X114725321Y-83596870D01*
X114923272Y-83423272D01*
X115096870Y-83225321D01*
X115243145Y-83006405D01*
X115251474Y-82989517D01*
X115304466Y-82882059D01*
X115359594Y-82770269D01*
X115444225Y-82520954D01*
X115449239Y-82495750D01*
X115494786Y-82266767D01*
X115494786Y-82266764D01*
X115495590Y-82262724D01*
X115510556Y-82034391D01*
X115512032Y-82021731D01*
X115512767Y-82017361D01*
X115512767Y-82017359D01*
X115513576Y-82012552D01*
X115513729Y-82000000D01*
X115509773Y-81972376D01*
X115508500Y-81954514D01*
X115508500Y-80775400D01*
X118641500Y-80775400D01*
X118641837Y-80778646D01*
X118641837Y-80778650D01*
X118650875Y-80865752D01*
X118652474Y-80881166D01*
X118654655Y-80887702D01*
X118654655Y-80887704D01*
X118686405Y-80982870D01*
X118708450Y-81048946D01*
X118801522Y-81199348D01*
X118926697Y-81324305D01*
X118932927Y-81328145D01*
X118932928Y-81328146D01*
X119070090Y-81412694D01*
X119077262Y-81417115D01*
X119112938Y-81428948D01*
X119238611Y-81470632D01*
X119238613Y-81470632D01*
X119245139Y-81472797D01*
X119251975Y-81473497D01*
X119251978Y-81473498D01*
X119287663Y-81477154D01*
X119349600Y-81483500D01*
X120650400Y-81483500D01*
X120653646Y-81483163D01*
X120653650Y-81483163D01*
X120749308Y-81473238D01*
X120749312Y-81473237D01*
X120756166Y-81472526D01*
X120762702Y-81470345D01*
X120762704Y-81470345D01*
X120894806Y-81426272D01*
X120923946Y-81416550D01*
X121074348Y-81323478D01*
X121199305Y-81198303D01*
X121289081Y-81052660D01*
X121341852Y-81005168D01*
X121411924Y-80993744D01*
X121477048Y-81022018D01*
X121487510Y-81031805D01*
X121529215Y-81075523D01*
X121596576Y-81146135D01*
X121781542Y-81283754D01*
X121786293Y-81286170D01*
X121786297Y-81286172D01*
X121849481Y-81318296D01*
X121987051Y-81388240D01*
X121992145Y-81389822D01*
X121992148Y-81389823D01*
X122157583Y-81441192D01*
X122207227Y-81456607D01*
X122212516Y-81457308D01*
X122430489Y-81486198D01*
X122430494Y-81486198D01*
X122435774Y-81486898D01*
X122441103Y-81486698D01*
X122441105Y-81486698D01*
X122550966Y-81482574D01*
X122666158Y-81478249D01*
X122688802Y-81473498D01*
X122886572Y-81432002D01*
X122891791Y-81430907D01*
X122896750Y-81428949D01*
X122896752Y-81428948D01*
X123101256Y-81348185D01*
X123101258Y-81348184D01*
X123106221Y-81346224D01*
X123111525Y-81343006D01*
X123298757Y-81229390D01*
X123298756Y-81229390D01*
X123303317Y-81226623D01*
X123343134Y-81192072D01*
X123473412Y-81079023D01*
X123473414Y-81079021D01*
X123477445Y-81075523D01*
X123544500Y-80993744D01*
X123620240Y-80901373D01*
X123620244Y-80901367D01*
X123623624Y-80897245D01*
X123641552Y-80865750D01*
X123692632Y-80816445D01*
X123762262Y-80802583D01*
X123828333Y-80828566D01*
X123855573Y-80857716D01*
X123937441Y-80979319D01*
X124096576Y-81146135D01*
X124281542Y-81283754D01*
X124286293Y-81286170D01*
X124286297Y-81286172D01*
X124349481Y-81318296D01*
X124487051Y-81388240D01*
X124492145Y-81389822D01*
X124492148Y-81389823D01*
X124657583Y-81441192D01*
X124707227Y-81456607D01*
X124712516Y-81457308D01*
X124930489Y-81486198D01*
X124930494Y-81486198D01*
X124935774Y-81486898D01*
X124941103Y-81486698D01*
X124941105Y-81486698D01*
X125050966Y-81482574D01*
X125166158Y-81478249D01*
X125188802Y-81473498D01*
X125386572Y-81432002D01*
X125391791Y-81430907D01*
X125396750Y-81428949D01*
X125396752Y-81428948D01*
X125601256Y-81348185D01*
X125601258Y-81348184D01*
X125606221Y-81346224D01*
X125611525Y-81343006D01*
X125798757Y-81229390D01*
X125798756Y-81229390D01*
X125803317Y-81226623D01*
X125843134Y-81192072D01*
X125973412Y-81079023D01*
X125973414Y-81079021D01*
X125977445Y-81075523D01*
X126044500Y-80993744D01*
X126120240Y-80901373D01*
X126120244Y-80901367D01*
X126123624Y-80897245D01*
X126141552Y-80865750D01*
X126192632Y-80816445D01*
X126262262Y-80802583D01*
X126328333Y-80828566D01*
X126355573Y-80857716D01*
X126437441Y-80979319D01*
X126596576Y-81146135D01*
X126781542Y-81283754D01*
X126786293Y-81286170D01*
X126786297Y-81286172D01*
X126849481Y-81318296D01*
X126987051Y-81388240D01*
X126992145Y-81389822D01*
X126992148Y-81389823D01*
X127157583Y-81441192D01*
X127207227Y-81456607D01*
X127212516Y-81457308D01*
X127430489Y-81486198D01*
X127430494Y-81486198D01*
X127435774Y-81486898D01*
X127441103Y-81486698D01*
X127441105Y-81486698D01*
X127550966Y-81482574D01*
X127666158Y-81478249D01*
X127688802Y-81473498D01*
X127886572Y-81432002D01*
X127891791Y-81430907D01*
X127896750Y-81428949D01*
X127896752Y-81428948D01*
X128101256Y-81348185D01*
X128101258Y-81348184D01*
X128106221Y-81346224D01*
X128111525Y-81343006D01*
X128298757Y-81229390D01*
X128298756Y-81229390D01*
X128303317Y-81226623D01*
X128343134Y-81192072D01*
X128473412Y-81079023D01*
X128473414Y-81079021D01*
X128477445Y-81075523D01*
X128544500Y-80993744D01*
X128620240Y-80901373D01*
X128620244Y-80901367D01*
X128623624Y-80897245D01*
X128636681Y-80874308D01*
X128641829Y-80865265D01*
X128692912Y-80815959D01*
X128762542Y-80802098D01*
X128828613Y-80828082D01*
X128855851Y-80857232D01*
X128934852Y-80974578D01*
X128941519Y-80982870D01*
X129093228Y-81141900D01*
X129101186Y-81148941D01*
X129277525Y-81280141D01*
X129286562Y-81285745D01*
X129482484Y-81385357D01*
X129492335Y-81389357D01*
X129702240Y-81454534D01*
X129712624Y-81456817D01*
X129728043Y-81458861D01*
X129742207Y-81456665D01*
X129746000Y-81443478D01*
X129746000Y-81441192D01*
X130254000Y-81441192D01*
X130257973Y-81454723D01*
X130268580Y-81456248D01*
X130386421Y-81431523D01*
X130396617Y-81428463D01*
X130601029Y-81347737D01*
X130610561Y-81343006D01*
X130798462Y-81228984D01*
X130807052Y-81222720D01*
X130973052Y-81078673D01*
X130980472Y-81071042D01*
X131119826Y-80901089D01*
X131125850Y-80892322D01*
X131234576Y-80701318D01*
X131239041Y-80691654D01*
X131314031Y-80485059D01*
X131316802Y-80474792D01*
X131353504Y-80271826D01*
X131352085Y-80258586D01*
X131337450Y-80254000D01*
X130272115Y-80254000D01*
X130256876Y-80258475D01*
X130255671Y-80259865D01*
X130254000Y-80267548D01*
X130254000Y-81441192D01*
X129746000Y-81441192D01*
X129746000Y-79727885D01*
X130254000Y-79727885D01*
X130258475Y-79743124D01*
X130259865Y-79744329D01*
X130267548Y-79746000D01*
X131333849Y-79746000D01*
X131348527Y-79741690D01*
X131350590Y-79729807D01*
X131343876Y-79650675D01*
X131342086Y-79640203D01*
X131286870Y-79427465D01*
X131283335Y-79417425D01*
X131193063Y-79217030D01*
X131187894Y-79207744D01*
X131065150Y-79025425D01*
X131058481Y-79017130D01*
X130906772Y-78858100D01*
X130898814Y-78851059D01*
X130722475Y-78719859D01*
X130713438Y-78714255D01*
X130517516Y-78614643D01*
X130507665Y-78610643D01*
X130297760Y-78545466D01*
X130287376Y-78543183D01*
X130271957Y-78541139D01*
X130257793Y-78543335D01*
X130254000Y-78556522D01*
X130254000Y-79727885D01*
X129746000Y-79727885D01*
X129746000Y-78558808D01*
X129742027Y-78545277D01*
X129731420Y-78543752D01*
X129613579Y-78568477D01*
X129603383Y-78571537D01*
X129398971Y-78652263D01*
X129389439Y-78656994D01*
X129201538Y-78771016D01*
X129192948Y-78777280D01*
X129026948Y-78921327D01*
X129019528Y-78928958D01*
X128880174Y-79098911D01*
X128874152Y-79107674D01*
X128858762Y-79134711D01*
X128807680Y-79184018D01*
X128738049Y-79197880D01*
X128671978Y-79171897D01*
X128644739Y-79142747D01*
X128608869Y-79089468D01*
X128562559Y-79020681D01*
X128503918Y-78959209D01*
X128474725Y-78928608D01*
X128403424Y-78853865D01*
X128218458Y-78716246D01*
X128213707Y-78713830D01*
X128213703Y-78713828D01*
X128095588Y-78653776D01*
X128012949Y-78611760D01*
X128007855Y-78610178D01*
X128007852Y-78610177D01*
X127797871Y-78544976D01*
X127792773Y-78543393D01*
X127787484Y-78542692D01*
X127569511Y-78513802D01*
X127569506Y-78513802D01*
X127564226Y-78513102D01*
X127558897Y-78513302D01*
X127558895Y-78513302D01*
X127449034Y-78517427D01*
X127333842Y-78521751D01*
X127328623Y-78522846D01*
X127306566Y-78527474D01*
X127108209Y-78569093D01*
X127103250Y-78571051D01*
X127103248Y-78571052D01*
X126898744Y-78651815D01*
X126898742Y-78651816D01*
X126893779Y-78653776D01*
X126889220Y-78656543D01*
X126889217Y-78656544D01*
X126794113Y-78714255D01*
X126696683Y-78773377D01*
X126692653Y-78776874D01*
X126599484Y-78857722D01*
X126522555Y-78924477D01*
X126519168Y-78928608D01*
X126379760Y-79098627D01*
X126379756Y-79098633D01*
X126376376Y-79102755D01*
X126358448Y-79134250D01*
X126307368Y-79183555D01*
X126237738Y-79197417D01*
X126171667Y-79171434D01*
X126144427Y-79142284D01*
X126117814Y-79102755D01*
X126062559Y-79020681D01*
X126003918Y-78959209D01*
X125974725Y-78928608D01*
X125903424Y-78853865D01*
X125718458Y-78716246D01*
X125713707Y-78713830D01*
X125713703Y-78713828D01*
X125595588Y-78653776D01*
X125512949Y-78611760D01*
X125507855Y-78610178D01*
X125507852Y-78610177D01*
X125297871Y-78544976D01*
X125292773Y-78543393D01*
X125287484Y-78542692D01*
X125069511Y-78513802D01*
X125069506Y-78513802D01*
X125064226Y-78513102D01*
X125058897Y-78513302D01*
X125058895Y-78513302D01*
X124949034Y-78517427D01*
X124833842Y-78521751D01*
X124828623Y-78522846D01*
X124806566Y-78527474D01*
X124608209Y-78569093D01*
X124603250Y-78571051D01*
X124603248Y-78571052D01*
X124398744Y-78651815D01*
X124398742Y-78651816D01*
X124393779Y-78653776D01*
X124389220Y-78656543D01*
X124389217Y-78656544D01*
X124294113Y-78714255D01*
X124196683Y-78773377D01*
X124192653Y-78776874D01*
X124099484Y-78857722D01*
X124022555Y-78924477D01*
X124019168Y-78928608D01*
X123879760Y-79098627D01*
X123879756Y-79098633D01*
X123876376Y-79102755D01*
X123858448Y-79134250D01*
X123807368Y-79183555D01*
X123737738Y-79197417D01*
X123671667Y-79171434D01*
X123644427Y-79142284D01*
X123617814Y-79102755D01*
X123562559Y-79020681D01*
X123503918Y-78959209D01*
X123474725Y-78928608D01*
X123403424Y-78853865D01*
X123218458Y-78716246D01*
X123213707Y-78713830D01*
X123213703Y-78713828D01*
X123095588Y-78653776D01*
X123012949Y-78611760D01*
X123007855Y-78610178D01*
X123007852Y-78610177D01*
X122797871Y-78544976D01*
X122792773Y-78543393D01*
X122787484Y-78542692D01*
X122569511Y-78513802D01*
X122569506Y-78513802D01*
X122564226Y-78513102D01*
X122558897Y-78513302D01*
X122558895Y-78513302D01*
X122449034Y-78517427D01*
X122333842Y-78521751D01*
X122328623Y-78522846D01*
X122306566Y-78527474D01*
X122108209Y-78569093D01*
X122103250Y-78571051D01*
X122103248Y-78571052D01*
X121898744Y-78651815D01*
X121898742Y-78651816D01*
X121893779Y-78653776D01*
X121889220Y-78656543D01*
X121889217Y-78656544D01*
X121794113Y-78714255D01*
X121696683Y-78773377D01*
X121692653Y-78776874D01*
X121599484Y-78857722D01*
X121522555Y-78924477D01*
X121493330Y-78960120D01*
X121434671Y-79000114D01*
X121363701Y-79002046D01*
X121302952Y-78965302D01*
X121288752Y-78946532D01*
X121202332Y-78806880D01*
X121198478Y-78800652D01*
X121073303Y-78675695D01*
X121042965Y-78656994D01*
X120928968Y-78586725D01*
X120928966Y-78586724D01*
X120922738Y-78582885D01*
X120809353Y-78545277D01*
X120761389Y-78529368D01*
X120761387Y-78529368D01*
X120754861Y-78527203D01*
X120748025Y-78526503D01*
X120748022Y-78526502D01*
X120704969Y-78522091D01*
X120650400Y-78516500D01*
X119349600Y-78516500D01*
X119346354Y-78516837D01*
X119346350Y-78516837D01*
X119250692Y-78526762D01*
X119250688Y-78526763D01*
X119243834Y-78527474D01*
X119237298Y-78529655D01*
X119237296Y-78529655D01*
X119105194Y-78573728D01*
X119076054Y-78583450D01*
X118925652Y-78676522D01*
X118800695Y-78801697D01*
X118796855Y-78807927D01*
X118796854Y-78807928D01*
X118722466Y-78928608D01*
X118707885Y-78952262D01*
X118686472Y-79016822D01*
X118656432Y-79107390D01*
X118652203Y-79120139D01*
X118651503Y-79126975D01*
X118651502Y-79126978D01*
X118649338Y-79148102D01*
X118641500Y-79224600D01*
X118641500Y-80775400D01*
X115508500Y-80775400D01*
X115508500Y-77053250D01*
X115510246Y-77032345D01*
X115512770Y-77017344D01*
X115512770Y-77017341D01*
X115513576Y-77012552D01*
X115513729Y-77000000D01*
X115513040Y-76995186D01*
X115513039Y-76995176D01*
X115512157Y-76989017D01*
X115511206Y-76962172D01*
X115523038Y-76796723D01*
X115525596Y-76778934D01*
X115566999Y-76588607D01*
X115572063Y-76571359D01*
X115640136Y-76388850D01*
X115647604Y-76372498D01*
X115740952Y-76201542D01*
X115750672Y-76186418D01*
X115867402Y-76030486D01*
X115879175Y-76016900D01*
X116016900Y-75879175D01*
X116030486Y-75867402D01*
X116186418Y-75750672D01*
X116201542Y-75740952D01*
X116372498Y-75647604D01*
X116388850Y-75640136D01*
X116571359Y-75572063D01*
X116588608Y-75566999D01*
X116589987Y-75566699D01*
X116778936Y-75525596D01*
X116796715Y-75523039D01*
X116958605Y-75511460D01*
X116976565Y-75512207D01*
X116984845Y-75512308D01*
X116993724Y-75513691D01*
X117025286Y-75509564D01*
X117041621Y-75508500D01*
X118793316Y-75508500D01*
X118861437Y-75528502D01*
G37*
G04 #@! TD.AperFunction*
M02*
