G04 #@! TF.GenerationSoftware,KiCad,Pcbnew,(6.0.6)*
G04 #@! TF.CreationDate,2023-01-05T20:28:39+10:00*
G04 #@! TF.ProjectId,MHI ESP,4d484920-4553-4502-9e6b-696361645f70,rev?*
G04 #@! TF.SameCoordinates,Original*
G04 #@! TF.FileFunction,Soldermask,Top*
G04 #@! TF.FilePolarity,Negative*
%FSLAX46Y46*%
G04 Gerber Fmt 4.6, Leading zero omitted, Abs format (unit mm)*
G04 Created by KiCad (PCBNEW (6.0.6)) date 2023-01-05 20:28:39*
%MOMM*%
%LPD*%
G01*
G04 APERTURE LIST*
G04 Aperture macros list*
%AMRoundRect*
0 Rectangle with rounded corners*
0 $1 Rounding radius*
0 $2 $3 $4 $5 $6 $7 $8 $9 X,Y pos of 4 corners*
0 Add a 4 corners polygon primitive as box body*
4,1,4,$2,$3,$4,$5,$6,$7,$8,$9,$2,$3,0*
0 Add four circle primitives for the rounded corners*
1,1,$1+$1,$2,$3*
1,1,$1+$1,$4,$5*
1,1,$1+$1,$6,$7*
1,1,$1+$1,$8,$9*
0 Add four rect primitives between the rounded corners*
20,1,$1+$1,$2,$3,$4,$5,0*
20,1,$1+$1,$4,$5,$6,$7,0*
20,1,$1+$1,$6,$7,$8,$9,0*
20,1,$1+$1,$8,$9,$2,$3,0*%
G04 Aperture macros list end*
%ADD10C,1.700000*%
%ADD11RoundRect,0.051000X-0.450000X-0.400000X0.450000X-0.400000X0.450000X0.400000X-0.450000X0.400000X0*%
%ADD12RoundRect,0.294750X-0.456250X0.243750X-0.456250X-0.243750X0.456250X-0.243750X0.456250X0.243750X0*%
%ADD13RoundRect,0.051000X-1.000000X-1.000000X1.000000X-1.000000X1.000000X1.000000X-1.000000X1.000000X0*%
%ADD14O,2.102000X1.702000*%
%ADD15RoundRect,0.051000X1.000000X0.750000X-1.000000X0.750000X-1.000000X-0.750000X1.000000X-0.750000X0*%
%ADD16RoundRect,0.051000X1.000000X1.900000X-1.000000X1.900000X-1.000000X-1.900000X1.000000X-1.900000X0*%
%ADD17RoundRect,0.051000X1.000000X-3.000000X1.000000X3.000000X-1.000000X3.000000X-1.000000X-3.000000X0*%
%ADD18RoundRect,0.051000X1.000000X-1.750000X1.000000X1.750000X-1.000000X1.750000X-1.000000X-1.750000X0*%
%ADD19RoundRect,0.301000X-0.600000X-0.725000X0.600000X-0.725000X0.600000X0.725000X-0.600000X0.725000X0*%
%ADD20O,1.802000X2.052000*%
G04 APERTURE END LIST*
D10*
X130000000Y-76500000D02*
X130000000Y-80000000D01*
X120000000Y-76500000D02*
X120000000Y-80000000D01*
X122500000Y-76500000D02*
X122500000Y-80000000D01*
X125000000Y-76500000D02*
X125000000Y-80000000D01*
X127500000Y-76500000D02*
X127500000Y-80000000D01*
X130000000Y-76500000D02*
X130000000Y-80000000D01*
X120000000Y-76500000D02*
X120000000Y-80000000D01*
X122500000Y-76500000D02*
X122500000Y-80000000D01*
X125000000Y-76500000D02*
X125000000Y-80000000D01*
X127500000Y-76500000D02*
X127500000Y-80000000D01*
D11*
X122000000Y-97300000D03*
X122000000Y-99200000D03*
X124000000Y-98250000D03*
X122000000Y-102300000D03*
X122000000Y-104200000D03*
X124000000Y-103250000D03*
D12*
X119500000Y-92312500D03*
X119500000Y-94187500D03*
X119500000Y-102312500D03*
X119500000Y-104187500D03*
X126500000Y-92312500D03*
X126500000Y-94187500D03*
D13*
X113500000Y-92500000D03*
D14*
X113500000Y-95040000D03*
X113500000Y-97580000D03*
X113500000Y-100120000D03*
X113500000Y-102660000D03*
X113500000Y-105200000D03*
X113500000Y-107740000D03*
X113500000Y-110280000D03*
X136360000Y-110280000D03*
X136360000Y-107740000D03*
X136360000Y-105200000D03*
X136360000Y-102660000D03*
X136360000Y-100120000D03*
X136360000Y-97580000D03*
X136360000Y-95040000D03*
X136360000Y-92500000D03*
D15*
X123150000Y-89800000D03*
D16*
X116850000Y-87500000D03*
D15*
X123150000Y-87500000D03*
X123150000Y-85200000D03*
D12*
X126500000Y-87562500D03*
X126500000Y-89437500D03*
D11*
X122000000Y-92300000D03*
X122000000Y-94200000D03*
X124000000Y-93250000D03*
D12*
X126500000Y-97312500D03*
X126500000Y-99187500D03*
X119500000Y-97312500D03*
X119500000Y-99187500D03*
X126500000Y-102312500D03*
X126500000Y-104187500D03*
D11*
X122000000Y-107300000D03*
X122000000Y-109200000D03*
X124000000Y-108250000D03*
X122000000Y-112300000D03*
X122000000Y-114200000D03*
X124000000Y-113250000D03*
D12*
X119500000Y-107312500D03*
X119500000Y-109187500D03*
X119500000Y-112312500D03*
X119500000Y-114187500D03*
X126500000Y-107312500D03*
X126500000Y-109187500D03*
X126500000Y-112312500D03*
X126500000Y-114187500D03*
D17*
X115000000Y-122875000D03*
D18*
X115000000Y-131225000D03*
D17*
X135000000Y-122875000D03*
D18*
X135000000Y-131225000D03*
D19*
X120000000Y-80000000D03*
D20*
X122500000Y-80000000D03*
X125000000Y-80000000D03*
X127500000Y-80000000D03*
X130000000Y-80000000D03*
M02*
