G04 #@! TF.GenerationSoftware,KiCad,Pcbnew,(6.0.6)*
G04 #@! TF.CreationDate,2023-01-05T20:28:38+10:00*
G04 #@! TF.ProjectId,MHI ESP,4d484920-4553-4502-9e6b-696361645f70,rev?*
G04 #@! TF.SameCoordinates,Original*
G04 #@! TF.FileFunction,Paste,Top*
G04 #@! TF.FilePolarity,Positive*
%FSLAX46Y46*%
G04 Gerber Fmt 4.6, Leading zero omitted, Abs format (unit mm)*
G04 Created by KiCad (PCBNEW (6.0.6)) date 2023-01-05 20:28:38*
%MOMM*%
%LPD*%
G01*
G04 APERTURE LIST*
G04 Aperture macros list*
%AMRoundRect*
0 Rectangle with rounded corners*
0 $1 Rounding radius*
0 $2 $3 $4 $5 $6 $7 $8 $9 X,Y pos of 4 corners*
0 Add a 4 corners polygon primitive as box body*
4,1,4,$2,$3,$4,$5,$6,$7,$8,$9,$2,$3,0*
0 Add four circle primitives for the rounded corners*
1,1,$1+$1,$2,$3*
1,1,$1+$1,$4,$5*
1,1,$1+$1,$6,$7*
1,1,$1+$1,$8,$9*
0 Add four rect primitives between the rounded corners*
20,1,$1+$1,$2,$3,$4,$5,0*
20,1,$1+$1,$4,$5,$6,$7,0*
20,1,$1+$1,$6,$7,$8,$9,0*
20,1,$1+$1,$8,$9,$2,$3,0*%
G04 Aperture macros list end*
%ADD10R,0.900000X0.800000*%
%ADD11RoundRect,0.243750X-0.456250X0.243750X-0.456250X-0.243750X0.456250X-0.243750X0.456250X0.243750X0*%
%ADD12R,2.000000X1.500000*%
%ADD13R,2.000000X3.800000*%
%ADD14R,2.000000X6.000000*%
%ADD15R,2.000000X3.500000*%
G04 APERTURE END LIST*
D10*
X122000000Y-97300000D03*
X122000000Y-99200000D03*
X124000000Y-98250000D03*
X122000000Y-102300000D03*
X122000000Y-104200000D03*
X124000000Y-103250000D03*
D11*
X119500000Y-92312500D03*
X119500000Y-94187500D03*
X119500000Y-102312500D03*
X119500000Y-104187500D03*
X126500000Y-92312500D03*
X126500000Y-94187500D03*
D12*
X123150000Y-89800000D03*
D13*
X116850000Y-87500000D03*
D12*
X123150000Y-87500000D03*
X123150000Y-85200000D03*
D11*
X126500000Y-87562500D03*
X126500000Y-89437500D03*
D10*
X122000000Y-92300000D03*
X122000000Y-94200000D03*
X124000000Y-93250000D03*
D11*
X126500000Y-97312500D03*
X126500000Y-99187500D03*
X119500000Y-97312500D03*
X119500000Y-99187500D03*
X126500000Y-102312500D03*
X126500000Y-104187500D03*
D10*
X122000000Y-107300000D03*
X122000000Y-109200000D03*
X124000000Y-108250000D03*
X122000000Y-112300000D03*
X122000000Y-114200000D03*
X124000000Y-113250000D03*
D11*
X119500000Y-107312500D03*
X119500000Y-109187500D03*
X119500000Y-112312500D03*
X119500000Y-114187500D03*
X126500000Y-107312500D03*
X126500000Y-109187500D03*
X126500000Y-112312500D03*
X126500000Y-114187500D03*
D14*
X115000000Y-122875000D03*
D15*
X115000000Y-131225000D03*
D14*
X135000000Y-122875000D03*
D15*
X135000000Y-131225000D03*
M02*
