G04 #@! TF.GenerationSoftware,KiCad,Pcbnew,(6.0.6)*
G04 #@! TF.CreationDate,2023-01-05T20:28:39+10:00*
G04 #@! TF.ProjectId,MHI ESP,4d484920-4553-4502-9e6b-696361645f70,rev?*
G04 #@! TF.SameCoordinates,Original*
G04 #@! TF.FileFunction,Profile,NP*
%FSLAX46Y46*%
G04 Gerber Fmt 4.6, Leading zero omitted, Abs format (unit mm)*
G04 Created by KiCad (PCBNEW (6.0.6)) date 2023-01-05 20:28:39*
%MOMM*%
%LPD*%
G01*
G04 APERTURE LIST*
G04 #@! TA.AperFunction,Profile*
%ADD10C,0.050000*%
G04 #@! TD*
G04 APERTURE END LIST*
D10*
X112000000Y-87000000D02*
X112000000Y-85000000D01*
X138000000Y-87000000D02*
X138000000Y-85000000D01*
X138000000Y-118500000D02*
X138000000Y-116000000D01*
X136000000Y-134250000D02*
X135000000Y-134250000D01*
X138000000Y-119000000D02*
X138000000Y-132250000D01*
X114000000Y-134250000D02*
X115000000Y-134250000D01*
X136000000Y-134250000D02*
G75*
G03*
X138000000Y-132250000I0J2000000D01*
G01*
X117000000Y-75000000D02*
G75*
G03*
X115000000Y-77000000I0J-2000000D01*
G01*
X138000000Y-87000000D02*
X138000000Y-116000000D01*
X115000000Y-77000000D02*
X115000000Y-82000000D01*
X113500000Y-83500000D02*
G75*
G03*
X112000000Y-85000000I0J-1500000D01*
G01*
X112000000Y-116000000D02*
X112000000Y-87000000D01*
X138000000Y-118500000D02*
X138000000Y-119000000D01*
X135000000Y-134250000D02*
X115000000Y-134250000D01*
X135000000Y-82000000D02*
G75*
G03*
X136500000Y-83500000I1500000J0D01*
G01*
X117000000Y-75000000D02*
X133000000Y-75000000D01*
X135000000Y-77000000D02*
X135000000Y-82000000D01*
X138000000Y-85000000D02*
G75*
G03*
X136500000Y-83500000I-1500000J0D01*
G01*
X112000000Y-116000000D02*
X112000000Y-132250000D01*
X113500000Y-83500000D02*
G75*
G03*
X115000000Y-82000000I0J1500000D01*
G01*
X135000000Y-77000000D02*
G75*
G03*
X133000000Y-75000000I-2000000J0D01*
G01*
X112000000Y-132250000D02*
G75*
G03*
X114000000Y-134250000I2000000J0D01*
G01*
M02*
